<?xml version="1.0" encoding="utf-8"?>
<!-- Generator: Adobe Illustrator 25.4.1, SVG Export Plug-In . SVG Version: 6.00 Build 0)  -->
<svg version="1.1" id="Layer_1" xmlns="http://www.w3.org/2000/svg" xmlns:xlink="http://www.w3.org/1999/xlink" x="0px" y="0px"
	 viewBox="0 0 300 300" style="enable-background:new 0 0 300 300;" xml:space="preserve">
<style type="text/css">
	.st0{fill:#D1D1D1;}
</style>
<g>
	<g>
		<path class="st0" d="M263.94,44.94c-12.05,14.68-24.48,29.05-37.26,43.1c-12.98,14.27-26.31,28.22-39.97,41.84
			c-13.93,13.89-28.19,27.44-42.75,40.66c-14.68,13.32-29.68,26.3-44.95,38.93c-15.65,12.95-31.6,25.54-47.81,37.77
			c-1.98,1.49-3.96,2.98-5.95,4.46c-1.53,1.14-0.04,3.75,1.51,2.59c16.27-12.14,32.28-24.62,48-37.46
			c15.5-12.66,30.72-25.67,45.63-39.03c14.68-13.15,29.05-26.65,43.09-40.48c13.82-13.62,27.32-27.56,40.46-41.84
			c12.94-14.05,25.53-28.42,37.74-43.11c1.47-1.76,2.93-3.53,4.39-5.31C267.28,45.58,265.17,43.45,263.94,44.94L263.94,44.94z"/>
	</g>
</g>
</svg>
