<?xml version="1.0" encoding="utf-8"?>
<!-- Generator: Adobe Illustrator 25.4.1, SVG Export Plug-In . SVG Version: 6.00 Build 0)  -->
<svg version="1.1" id="Layer_1" xmlns="http://www.w3.org/2000/svg" xmlns:xlink="http://www.w3.org/1999/xlink" x="0px" y="0px"
	 viewBox="0 0 4000 4000" style="enable-background:new 0 0 4000 4000;" xml:space="preserve">
<style type="text/css">
	.st0{fill:#28DDDD;}
	.st1{fill:#FF50B4;}
	.st2{fill:#C9F0F3;}
	.st3{opacity:0.6;}
	.st4{fill:#FFFFFF;}
	.st5{fill:#380175;}
	.st6{fill:#822C44;}
	.st7{opacity:0.3;}
</style>
<g>
	<g>
		<rect class="st0" width="4000" height="4000"/>
	</g>
	<g>
		<g>
			<path class="st1" d="M2939.4,2958.95c-145.7,6.7-284.25-29.5-378.35-98.45c-0.05-0.05-0.1-0.1-0.15-0.1
				c-19.2-14.1-36.5-29.55-51.65-46.25c-0.15-0.1-0.25-0.2-0.3-0.3c-2.2-2.45-4.4-4.9-6.5-7.4l-0.05-0.05
				c-0.9-1.05-1.8-2.1-2.65-3.2c-4.5-5.45-8.8-11-12.85-16.75c7.3,23.55,12.4,46.3,15.55,68.2c3.65,25.5,4.65,49.85,3.3,73.05
				c-16,278.3-369.3,386.8-503.85,246.25c-8.1-9.4-14.5-19.3-19.2-29.25c-0.35-0.8-0.5-1.2-0.5-1.2
				c-9.95-21.7-11.6-43.65-4.25-61.15c8.9-21.3,31.05-36.05,67.7-35.9c83.75-13.75,104.95-114.85,38.75-141.25
				c-58.65-40.8-108.35-85.95-144.3-137.9c-9.65-13.85-18.3-28.25-25.85-43.15c-1.1-2.15-2.3-4.25-3.6-6.3
				c-8.75-14.05-21.8-25.2-37.5-30.6c-31.9-11.05-69.85,0.45-96,47.1c-20.9,37.4-24.15,81.9-10.9,122.15c0.6,1.8,1.25,3.6,1.9,5.4
				c1.6,4.3,3.4,8.55,5.35,12.7c16.8,35.65,40.95,72.4,70.15,110c32.9,42.35,53.4,93.35,55.7,146.95
				c4.5,106.65-51.9,211.4-169.95,235.7c-0.05-0.7-0.1-1.4-0.2-2.1c-2.55-30.55-9.6-60.1-20.55-87.95
				c-27.35-69.65-79.15-128.4-146.8-164.6c-14.5-7.75-28.8-15.2-42.45-22.85c-39.4-22.1-73.3-45.55-90-80.8
				c-3.45,5.85-7.05,11.45-10.75,16.95c-133.9,199.45-402.8,168.3-513.6,40.9c-28-32.2-45.9-70.55-49-112.85
				c-2.6-29.75,1.9-62.7,12.6-87.7c8.45-19.75,20.85-34.45,36.65-38.6c0.5-0.15,0.95-0.3,1.45-0.35c15.15-3.4,33.35,2.85,54.3,23.3
				c59.6,55.85,135.2,22.65,135.85-95.4v-140c-1.65,2.15-3.4,4.3-5.2,6.35c0,0-0.2,0.25-0.55,0.7c-7.25,8.25-15.55,15.75-24.7,22.4
				c-133.55,97.9-449.75,27.5-383.5-258.4c0.05-0.05,0.05-0.05,0.05-0.05c3.1-13.4,7.05-27.3,11.9-41.65
				c11.2-33.1,55.5-39.2,75.55-10.55c7,10,14.6,19.45,22.8,27.75c40.45,40.8,95.85,53.9,167.4-32.8
				c46.6-67.05,101.7-103.45,179.55-101.5c28.6,0.75,60.35,6.65,95.85,18.15c-96.65-131.65-116.65-371.65,63.35-526.65
				c-70.3-625.8,649.6-1191.05,1258.7-1056.1c35.05,7.75,69.2,18.05,102.15,30.7h0.05c190.7,73,342.9,224.2,412.25,419.95
				c124.3,350.75-23.3,746.05-323.15,865.45c0,62.9-12.3,123.75-44.1,186.25c0,0,0,0.05-0.05,0.1c-4.8,9.5-10.1,19.05-15.85,28.65
				c0.7,1.05,1.4,2.05,2.1,3.05c0.15,0.2,0.3,0.4,0.45,0.6c92.55,130.15,263.25,102.5,321,17c6.6-9.7,11.7-20.1,15.1-31.15
				c0-0.05,0.05-0.15,0.05-0.2c3.25-10.75,4.9-22.05,4.6-33.8c-0.35-16.65-4.55-34.2-13.3-52.2c-16.65-31.35-18.8-63.05-5.7-82.1
				c10.65-15.65,31.5-22.8,62.8-14.45c2.3,0.6,4.6,1.3,6.85,2.05c22.25,7.4,41.85,21.4,57.5,39.05
				c112.95,127.4,95.9,308.9-12.1,438.45c-10.7,12.85-22.3,25.15-34.75,36.9c-39.25,36.9-86.95,67.7-142,89.2
				c-6.85,2.7-13.85,5.2-20.95,7.6c32,2.3,64.25,0.65,97-8.05c49.55-13.1,100.15-42.25,152.45-97.8c11.2-11.9,26.25-17.7,41.25-17.7
				c17.15,0.05,34.25,7.85,45.2,23C3383.95,2675.55,3227.6,2940.95,2939.4,2958.95z"/>
		</g>
		<g>
			<path class="st2" d="M1429.4,3008.95c-161.65,271.65-557.75,159.4-573.35-55c-2.6-29.75,1.9-62.7,12.6-87.7
				c17.85-19.1,32.05-33.85,36.65-38.6c1.05-1.1,1.6-1.65,1.6-1.65c-0.05,0.45-0.1,0.85-0.15,1.3
				c-16.35,127.05,76.8,201.5,171.55,193.2c85.2-7.5,139.7-82.35,147.15-167.6c10.6-120.65,46.4-210.4,102.3-275.65
				C1299.4,2767.25,1353.4,2927.05,1429.4,3008.95z"/>
		</g>
		<g class="st3">
			<path class="st4" d="M1140.2,2227.45c-62.29,35.06-112.86,76.21-139.98,129.63c-17.8,35.05-49.14,62.05-87.37,71.18
				c-47.71,11.39-99.39-4.32-124.6-62.41c0,0,1.85-1.5,5-4.1c40.45,40.8,95.85,53.9,167.4-32.8
				C1007.25,2261.9,1062.35,2225.5,1140.2,2227.45z"/>
		</g>
		<g class="st3">
			<path class="st4" d="M1289.23,2290.09c-90.86,50.28-141.06,165.6-181.73,296.16c-2.05-130.09,20.74-248.47,128.56-326.76
				L1289.23,2290.09z"/>
		</g>
		<g>
			<path class="st2" d="M1249,2257.5c-140.25,93.4-141.25,216.45-151.25,349.75c-10.2,13.85-20.65,26.25-31.3,37.4
				c-139.8,102.5-479.85,20.5-371.55-300.1c-7.45,49.2,10.75,94.85,43.15,127.95c78.55,80.3,218.85,63.1,268.55-37.6
				C1087.75,2270.6,1171.8,2269.9,1249,2257.5z"/>
		</g>
		<g>
			<path class="st2" d="M2931.05,2613.95c-127.9,6.9-174.15-117.5-291.65-178.75c474.9,130.45,586.25-270,374.3-420.05
				c0,0,27.8-5.35,69.65-12.4c22.25,7.4,41.85,21.4,57.5,39.05C3304.7,2226.6,3194.95,2525.3,2931.05,2613.95z"/>
		</g>
		<g>
			<path class="st2" d="M1729.4,3367.25c-0.05-0.7-0.1-1.4-0.2-2.1c-2.55-30.55-9.6-60.1-20.55-87.95
				c94.1-16.6,75.75-167-9.25-311.6c-91.25-169.15-36.25-345.4,92.5-406.65c-60,116.25-68.85,228.75-23.75,302.95
				c1.6,4.3,3.4,8.55,5.35,12.7c16.8,35.65,40.95,72.4,70.15,110c32.9,42.35,53.4,93.35,55.7,146.95
				C1903.85,3238.2,1847.45,3342.95,1729.4,3367.25z"/>
		</g>
		<g class="st3">
			<path class="st4" d="M1457.84,2440.92l53.83-15.98c-215.52,134.78-172.69,493.31,60,676.33
				c-64.29-20.09-124.37-61.2-177.26-138.17C1291.06,2744.01,1272.1,2555.44,1457.84,2440.92z"/>
		</g>
		<g>
			<path class="st2" d="M2250.65,3050.2c-52.5,132.5-238.75,117.5-272.7,32.15c8.9-21.3,31.05-36.05,67.7-35.9
				c83.75-13.75,104.95-114.85,38.75-141.25c-58.65-40.8-108.35-85.95-144.3-137.9c-52.8-117.6-28.25-205.85,24.3-263.35
				c-43.5,112,60,206.25,147.4,243.75C2207.5,2787,2300.65,2905.2,2250.65,3050.2z"/>
		</g>
		<g>
			<path class="st2" d="M2939.4,2958.95c-180,8.25-349.1-48.9-436.95-152.5l-0.05-0.05l-15.5-19.95
				c-28.5-98.8-119.3-178.7-202.5-242.5c112.8-13.25,246.25,148.75,405,212.5c334.45,149,562.5-37.5,532.35-266.05
				c17.15,0.05,34.25,7.85,45.2,23C3383.95,2675.55,3227.6,2940.95,2939.4,2958.95z"/>
		</g>
		<g class="st3">
			<path class="st4" d="M2890.8,836.95c-82.55-64.2-179.7-110.3-285.2-133.7c-609.1-134.95-1329,430.3-1258.7,1056.1
				c-155.3,133.75-161.7,330.8-98.4,466.9h-25.6c-84.95-134.8-95-359.6,76.5-507.3c-70.3-625.8,649.6-1191.05,1258.7-1056.1
				C2684.6,690.9,2799.1,751.65,2890.8,836.95z"/>
		</g>
		<g class="st3">
			<path class="st4" d="M788.25,2356.45c11.3,1.35,22.2,7.25,29.7,17.95c2.85,4.05,5.75,8,8.75,11.8
				C812.55,2379.6,799.75,2369.1,788.25,2356.45z"/>
		</g>
		<g>
			<path class="st5" d="M1729.4,3389.77c-4.82,0-9.56-1.55-13.49-4.49c-5.16-3.86-8.41-9.75-8.94-16.17l-0.17-2.06
				c-8.43-99.3-66.58-186.99-155.58-234.6l-10.87-5.79c-42.67-22.7-83.5-44.42-110.99-76.83c-40.92,56.19-95.23,97.57-158.74,120.6
				c-64.91,23.54-139.27,27.37-209.4,10.8c-128.53-30.37-219.99-121.05-227.61-225.65c-4.98-56.91,12.51-125.53,55.61-145.94
				c19.09-9.04,49.77-12.05,87.55,24.88c19.27,18.06,40.42,24.34,57.65,16.93c24.75-10.64,39.69-46.67,39.96-96.37v-88.67
				c-76.8,52.01-201.58,57.78-296.71,7.05c-55.45-29.57-176.58-121.51-104.08-336.1c7.87-23.31,27.93-39.96,52.34-43.47
				c24.6-3.51,48.69,6.9,62.92,27.22c22.52,32.16,45.38,48.92,67.93,49.81c25.63,1.09,54.51-17.69,85.93-55.59
				c63.48-90.85,140.46-124.55,244.9-105.35c-33.92-65.51-50.47-143.08-46.11-220.21c4.34-76.74,31.38-186.67,134.3-280
				c-27.19-279.64,96.81-565.15,341.48-785.14c271.5-244.1,633.86-352.82,945.69-283.73c248.67,55.1,447.09,228.96,530.77,465.09
				c61.88,174.61,60.94,364.56-2.64,534.86c-62,166.07-175.1,290.93-319.44,353.23c-2.18,71.59-19.98,135.35-55.43,198.47
				c64.77,82.62,167.85,87.4,235.2,48.29c42.4-24.63,77.19-72.58,47.88-133.38c-21.64-40.99-22.25-82.58-1.56-108.62
				c10.39-13.07,35.19-33.03,84.55-19.88c28.15,7.5,54.21,24.07,75.36,47.93c74.96,84.54,100.63,197.98,70.42,311.24
				c-23.9,89.62-78.32,168.05-153.46,225.26c28.41-15.15,58.37-37.67,89.47-70.7c16.16-17.17,39.02-26.11,62.69-24.59
				c23.48,1.53,44.77,13.25,58.42,32.16c52.31,72.5,57.75,166.04,14.91,256.64c-47.59,100.66-166.97,212.5-359.32,224.52
				c-164.45,7.52-317.59-38.27-414.69-120.02c7.7,63.69-0.1,123.56-23.37,178.77c-28.53,67.65-79.3,124.4-146.82,164.13
				c-129.87,76.41-289.05,70.06-370.27-14.77c-0.27-0.28-0.52-0.56-0.78-0.85c-31.97-37.02-42.42-83.12-26.62-117.45
				c13.68-29.71,44.75-46.86,85.43-47.25c35.88-6.59,54.48-32.66,57.01-55.9c1.01-9.26,0.62-31.88-24.63-41.96
				c-1.59-0.63-3.11-1.45-4.51-2.43c-84.58-58.85-142.59-120.78-177.35-189.34c-6.25-12.32-16.61-21.73-28.43-25.83
				c-25.74-8.91-50.88,4.52-68.96,36.85c-20.18,36.08-21.29,80.82-2.97,119.69c15.18,32.2,37.28,66.79,67.57,105.76
				c37.12,47.76,58.01,103.02,60.41,159.82c4.59,108.54-51.72,230.63-187.88,258.71C1732.43,3389.62,1730.91,3389.77,1729.4,3389.77
				z M1429.39,2986.44c0.35,0,0.71,0.01,1.06,0.02c8.3,0.39,15.72,5.33,19.27,12.84c17.84,37.66,61.36,60.81,111.76,87.62
				l10.96,5.84c95.16,50.91,159.72,141.72,176.24,246.12c99.11-32.77,131.44-129.31,128.17-206.38
				c-2.01-47.4-19.64-93.77-50.98-134.1c-32.34-41.61-56.14-78.96-72.74-114.19c-24.51-51.99-22.86-112.11,4.4-160.85
				c34.53-61.73,86.15-70.14,122.95-57.4c23.08,7.99,42.21,25.04,53.85,48.01c31.04,61.24,83.71,117.32,160.96,171.39
				c34.7,15.07,54.31,49.14,50.13,87.56c-4.41,40.52-35.85,85.83-96.13,95.73c-1.24,0.2-2.55,0.26-3.74,0.3
				c-16.58,0.13-38.34,3.53-46.42,21.07c-8.26,17.95-0.46,45.54,19.43,68.79c67.31,69.75,202.4,72.66,314.54,6.68
				c131.1-77.13,180.56-216.34,132.3-372.4c-3.27-10.57,1.63-21.94,11.55-26.83c9.91-4.89,21.92-1.84,28.31,7.19
				c76.15,107.59,246.18,171.57,433.11,163.02c172.42-10.78,278.97-109.78,321.07-198.82c35.62-75.34,31.71-152.27-10.72-211.07
				c-5.76-7.98-14.82-12.93-24.85-13.59c-10.23-0.66-20.07,3.17-26.99,10.53c-79.47,84.43-164.41,120.31-267.42,112.87
				c-10.69-0.77-19.36-8.98-20.7-19.61s5-20.74,15.16-24.16c128.55-43.18,228.45-145.14,260.72-266.1
				c26.25-98.41,4.16-196.75-60.62-269.79c-15.27-17.22-33.69-29.08-53.28-34.3c-10.55-2.81-29.49-5.98-37.73,4.39
				c-7.38,9.28-8.56,31.98,6.27,59.9c0.13,0.24,0.25,0.48,0.37,0.73c35.48,73.06,9.73,148.53-65.59,192.29
				c-87.81,51-223.92,42.73-303.21-73.08c-4.97-7.26-5.25-16.75-0.72-24.3c38.74-64.5,56.79-129.14,56.79-203.42
				c0-9.21,5.62-17.5,14.17-20.9c288.29-114.8,430.38-498.12,310.27-837.03c-78.46-221.4-264.66-384.46-498.09-436.18
				c-297.88-66.01-644.99,38.7-905.86,273.26c-237.14,213.21-355.82,489.61-325.63,758.34c0.83,7.39-2.04,14.71-7.68,19.56
				c-179.28,154.38-142.94,383.16-59.88,496.3c5.78,7.87,5.82,18.57,0.1,26.48s-15.89,11.25-25.17,8.24
				c-114.79-37.16-187.23-15.5-250.01,74.77c-0.35,0.51-0.72,1-1.11,1.47c-41.06,49.78-82.49,74.18-122.99,72.61
				c-37.34-1.47-72-24.67-103.02-68.96c-4.51-6.44-11.86-9.6-19.66-8.49c-3.67,0.53-12.58,2.88-16.11,13.33
				c-59.26,175.41,26.33,251.97,82.63,281.99c94.9,50.61,228.44,35.25,280.18-32.24c5.86-7.66,15.95-10.72,25.08-7.62
				c9.13,3.1,15.27,11.67,15.27,21.31v140c-0.38,69.28-24.86,119.39-67.18,137.59c-33.93,14.59-73.76,4.97-106.54-25.75
				c-9.05-8.84-25.41-22.3-37.19-16.71c-17.63,8.35-34.21,53.6-30.01,101.67c6.21,85.22,83.79,159.62,193.1,185.45
				c108.15,25.56,253.86,2.2,338.48-140C1414.13,2990.6,1421.49,2986.44,1429.39,2986.44z"/>
		</g>
		<g>
			<path class="st5" d="M2726.9,1978.94c0.87-20.86-1.95-44.03-6.87-66.31c-4.99-22.4-12.19-44.51-21.65-65.59
				c-9.46-21.08-21.19-41.18-35.48-59.35c-14.27-18.16-31.17-34.34-50.59-47.26l-0.12-0.08c-3.45-2.3-4.39-6.96-2.09-10.41
				c2.14-3.22,6.38-4.23,9.73-2.49c22.24,11.66,42.43,27.28,59.98,45.4c17.58,18.13,32.6,38.66,45.26,60.51
				c12.67,21.87,22.99,45.05,31.07,69.15c7.94,24.24,13.98,48.95,15.76,76.43c0.8,12.42-8.62,23.15-21.04,23.95
				c-12.43,0.8-23.15-8.62-23.95-21.04c-0.05-0.8-0.06-1.58-0.03-2.36L2726.9,1978.94z"/>
		</g>
		<g>
			<path class="st5" d="M2704.89,2210.26c-38.87,33.5-83.41,59.64-130.12,77.95c-46.75,18.44-95.36,29.47-143.93,36.42
				c-4.11,0.59-7.91-2.26-8.5-6.37c-0.55-3.84,1.94-7.42,5.62-8.35c46.83-11.69,92.5-27.25,134.43-49.03
				c41.96-21.67,79.83-49.71,111.52-83.27c8.54-9.05,22.81-9.45,31.85-0.91c9.05,8.55,9.45,22.81,0.91,31.85
				c-0.53,0.56-1.08,1.09-1.65,1.58L2704.89,2210.26z"/>
		</g>
		<g>
			<path class="st5" d="M1251.52,2229.25c25.87,27.77,53.21,53.34,85.19,72.01c31.86,18.88,68.69,30.22,106.4,39.02l0.03,0.01
				c4.04,0.94,6.55,4.98,5.61,9.03c-0.87,3.73-4.37,6.15-8.08,5.77c-19.62-2.01-39.32-4.67-59.01-8.86
				c-19.66-4.19-39.37-9.98-58.31-18.1c-18.96-8.05-37.09-18.19-54.14-29.53c-17.07-11.34-33.13-23.79-48.61-36.64
				c-9.58-7.95-10.91-22.17-2.95-31.75c7.95-9.58,22.17-10.91,31.75-2.95c0.72,0.6,1.39,1.23,2.01,1.89L1251.52,2229.25z"/>
		</g>
		<g>
			<path class="st5" d="M1923.41,1774.42c21.79-38.06,55.3-68.66,92.4-92.22c37.38-23.44,79.46-39.7,123.55-47.28
				c43.94-7.55,90.81-5.9,133.96,9.76c21.49,7.77,41.77,19.11,59.26,33.53c17.4,14.52,32.24,31.76,42.72,51.12
				c2,3.69,0.63,8.31-3.07,10.31c-2.89,1.56-6.34,1.07-8.66-0.99l-0.1-0.1c-15.36-13.66-31.21-25.67-48.39-34.87
				c-17.05-9.35-35.05-16.2-53.6-20.84c-37.12-9.26-76.35-9.63-114.98-3.76c-38.67,5.97-76.71,18.35-112.56,35.65
				c-35.91,17.31-69.4,39.99-98.57,68.72l-0.11,0.1c-2.97,2.93-7.76,2.89-10.69-0.08
				C1922.15,1781.01,1921.77,1777.29,1923.41,1774.42z"/>
		</g>
		<g>
			<path class="st5" d="M1575.95,1915.25c0.4,8.25-0.95,16.85-4.2,25.3c-1.8,4.2-3.9,8.4-6.75,12.25c-2.95,3.85-6.4,7.45-10.4,10.6
				c-4.45,3.25-9.5,5.95-14.9,7.75c-2.2,7.65-5.35,15.2-9.6,22.25c-5.7,9.7-13.5,18.4-22.6,25.1c-18.25,13.7-41.15,19.3-62.75,17.85
				c-21.75-1.35-42.55-9.65-59.5-22.65c-17.1-12.95-29.7-30.65-38.35-49.5c-0.25-0.55-0.45-1.1-0.6-1.65l-0.1-0.35
				c-4.7-15.85-7.65-32.9-6.15-50.7c0.8-8.9,2.75-17.9,6.05-26.65c3.3-8.7,8.25-17,14.45-24.25c6.2-7.3,13.6-13.45,21.65-18.3
				c11.4-6.8,25.85-7.95,38-3.4c6.15,2.25,11.75,5.85,16.35,10.45c1.15,1.15,2.25,2.45,3.25,3.6l1.75,2.15l3.5,4.3l13.95,17.25
				c9.35,11.5,18.6,23.05,27.65,34.75c4.95,6.3,7.9,10.7,12.1,14.75c4.05,4,8.4,7.5,12.95,9.9c9.2,4.75,18.3,6,26.9,2.4
				c4.35-1.75,8.6-5,12.45-9.45c3.8-4.5,7.1-10.1,10.15-16.35l0.15-0.35c1.85-3.85,6.45-5.45,10.3-3.55
				C1574.25,1910,1575.8,1912.55,1575.95,1915.25z"/>
		</g>
		<g>
			<path class="st5" d="M1390.59,1693.12c18.47-6.87,38.09-9.85,58.13-9.67c20.01,0.26,40.62,4.07,60.14,12.59
				c19.44,8.4,37.75,22.18,50.05,40.29c12.39,17.97,18.66,39.44,16.91,59.9c-0.37,4.36-4.21,7.6-8.57,7.22
				c-2.2-0.19-4.12-1.26-5.43-2.84l-0.52-0.63c-3.06-3.71-5.6-7.39-8.08-10.98c-2.85-3.4-5.46-6.75-7.95-10.03
				c-2.92-3.02-5.44-6.16-8.17-9.03l-4.26-4.11c-1.4-1.35-2.6-2.85-4.2-3.99c-11.55-10.14-24.07-18.26-38.25-24.99
				c-14.15-6.71-29.82-11.75-46.39-16.13c-16.6-4.44-34.06-7.89-52.45-12.63l-0.17-0.04c-4.19-1.08-6.71-5.35-5.63-9.54
				C1386.4,1695.95,1388.29,1693.99,1390.59,1693.12z"/>
		</g>
		<g>
			<path class="st4" d="M1480.1,1959.25c-9.4,14.4-29.55,18-45.15,8c-15.7-10.05-20.8-30.05-11.4-44.65c3.25-5.1,7.8-8.85,13-11.15
				c6.45,8.05,13,16,19.65,23.9l7.55,9c2.95,3.3,6.1,6.5,9.5,9.45C1475.45,1955.7,1477.7,1957.55,1480.1,1959.25z"/>
		</g>
		<g>
			<path class="st5" d="M2300.4,1901.3c-0.8,19.35-5.6,38.5-13.7,56c-16.2,35.05-46,63.25-81.95,77.45
				c-17.85,7.15-37.4,10.65-56.35,10.65c-18.7-0.05-37.3-2.65-55.3-8.5c-17.9-5.75-35.45-14.3-50.85-27.5c-3.9-3.1-7.4-7-11-10.65
				c-3.35-4.05-6.75-8.05-9.5-12.7c-3.05-4.35-5.3-9.4-7.65-14.35l-1-2.8c-3-0.5-5.95-1.15-8.85-1.9
				c-9.65-2.5-18.75-6.25-27.05-10.9c-16.6-9.25-30.3-22.15-40.1-37.2c-2.25-3.5-1.25-8.2,2.25-10.5c2.75-1.8,6.25-1.55,8.75,0.35
				l0.3,0.25c12.1,9.35,26.15,15.65,40.1,18.35c6.95,1.3,13.9,1.75,20.5,1.25c3.35-0.2,6.6-0.65,9.7-1.4l2.35-0.5l0.3-0.05
				c0,0,0.7-0.05,1.05-0.1h0.6c1.45-0.55,3-0.95,4.6-1.15c12.25-1.65,24.2-6.75,35.15-14.55c5.55-3.9,10.7-8.3,15.8-13.5l71.8-71.8
				l1.05-1.1l1.5-1.35c1.95-1.9,4-3.75,6.15-5.4c4.2-3.45,8.85-6.35,13.6-9.05c9.65-5.1,20.25-8.55,31.2-9.95
				c10.95-1.3,22.35-0.6,33.2,2.4c10.9,3.15,20.9,8.2,29.7,15.2c8.8,6.95,16.3,15.85,21.5,25.55c5.25,9.65,8.6,19.95,10.3,30
				c0.9,5.05,1.5,10.05,1.7,14.95C2300.3,1891.6,2300.4,1896.45,2300.4,1901.3z"/>
		</g>
		<g>
			<path class="st4" d="M2097.7,1990.75c-9.8-4-18.85-9.15-26.15-15.5c-2.6-1.95-4.45-4.3-6.65-6.45c-1.55-1.95-3.25-3.8-4.5-5.8
				c10.25-4,19.8-9.3,28.35-15.4c7.85-5.55,15.2-11.95,21.6-18.4l25.95-25.95C2165.85,1931.8,2159.4,1978.45,2097.7,1990.75z"/>
		</g>
		<g>
			<path class="st6" d="M1380.1,1952.14l-0.7-2c0.1,0.3,0.25,0.55,0.4,0.85C1379.9,1951.39,1380,1951.74,1380.1,1952.14z"/>
		</g>
		<g>
			<path class="st5" d="M1864.22,2105.19c9.73-4.58,20.38-6.17,31.21-5.57c10.81,0.65,21.8,3.85,31.65,9.38
				c9.86,5.48,18.43,13.39,24.3,22.72c5.89,9.31,9.5,19.75,9.34,30.82c-0.05,3.64-3.05,6.54-6.69,6.49
				c-1.28-0.02-2.46-0.4-3.46-1.04l-0.26-0.17c-8.69-5.62-15.38-11.02-21.92-15.77c-6.53-4.73-12.5-9.05-18.89-12.95
				c-6.37-3.91-13.12-7.41-20.58-10.9c-7.46-3.56-15.6-6.83-24.62-11.35l-0.22-0.11c-3.17-1.59-4.46-5.45-2.87-8.62
				C1861.89,2106.79,1862.97,2105.78,1864.22,2105.19z"/>
		</g>
		<g>
			<path class="st5" d="M1933.52,2148.49c-10.26,17.01-23.34,32.17-38.47,44.54c-15.12,12.39-32.25,21.96-50.26,28.29
				c-18.01,6.35-36.85,9.45-55.41,9.53c-18.58,0.1-36.84-2.8-54.14-7.95c-3.98-1.18-6.24-5.37-5.06-9.35
				c1.08-3.63,4.65-5.83,8.29-5.3l0.11,0.02c16.54,2.41,33.17,2.55,49.18,0.13c16.01-2.4,31.36-7.37,45.22-14.67
				c27.83-14.52,49.22-38.49,60.63-66.04c4.77-11.52,17.99-16.99,29.51-12.22c11.52,4.78,16.99,17.99,12.22,29.51
				c-0.42,1.02-0.91,1.99-1.46,2.91L1933.52,2148.49z"/>
		</g>
		<g>
			<path class="st5" d="M2921.02,2636.71c-81.78,0-133.88-49.5-184.33-97.45c-32.08-30.48-65.24-62-107.69-84.13
				c-11.02-5.74-15.3-19.33-9.55-30.35c5.74-11.02,19.33-15.3,30.35-9.55c48.06,25.05,85.16,60.31,117.89,91.41
				c52.07,49.48,93.21,88.57,162.16,84.82c12.37-0.7,23.01,8.84,23.68,21.25c0.67,12.41-8.84,23.01-21.25,23.68
				C2928.46,2636.61,2924.71,2636.71,2921.02,2636.71z"/>
		</g>
		<g>
			<path class="st5" d="M2436.79,2423.32c29.8-9.39,60.06-18.77,92.6-23.14c16.23-2.15,33.01-2.88,49.8-1.66
				c16.8,1.22,33.5,4.32,49.66,8.78l1.89,0.77l21.23,7.77c11.71,4.29,17.72,17.26,13.44,28.97c-4.29,11.71-17.26,17.72-28.97,13.44
				c-1.16-0.42-2.38-1-3.42-1.59l-19.64-11.2l1.89,0.77c-13.21-5.75-26.79-10.32-40.82-13.36c-14.02-3.04-28.49-4.49-43.28-4.62
				c-29.61-0.26-60.24,4.52-90.84,9.65l-0.04,0.01c-4.09,0.69-7.97-2.07-8.66-6.17C2431.01,2427.99,2433.27,2424.42,2436.79,2423.32
				z"/>
		</g>
		<g>
			<path class="st5" d="M1473.77,2442.18c-23.96,11.42-45.39,27.25-63.57,46.12c-18.36,18.6-33.12,40.31-44.37,63.46
				c-11.17,23.23-18.54,48.11-22.29,73.38c-1.74,12.67-2.59,25.42-2.63,38.15c0.37,13.22,0.31,26.64,1.46,39.87
				c0.63,13.29,2.39,26.46,3.68,39.66c1.9,13.11,3.59,26.25,6.3,39.19c5.08,25.91,11.35,51.55,19.89,76.34
				c16.9,49.48,40.87,96.64,73.65,135.27l0.22,0.26c8.04,9.48,6.88,23.68-2.6,31.72c-9.03,7.66-22.41,6.91-30.6-1.38
				c-20.92-21.26-37.94-45.52-52.23-70.91c-14.25-25.45-25.59-52.22-34.68-79.57c-8.9-27.42-15.47-55.45-19.86-83.72
				c-2.4-14.11-3.72-28.34-5.22-42.53c-0.99-14.23-1.88-28.45-1.89-42.68c-0.47-14.24,0.31-28.37,0.69-42.65
				c0.72-14.78,2.89-29.44,5.82-43.88c3.03-14.44,7.34-28.56,12.48-42.33c5.21-13.75,11.83-26.92,19.13-39.6
				c7.25-12.73,15.92-24.6,25.3-35.75c9.34-11.19,19.73-21.47,30.9-30.69c22.1-18.55,47.64-33.25,75.03-41.75
				c3.96-1.23,8.18,0.99,9.41,4.95c1.12,3.62-0.62,7.44-3.94,9.01L1473.77,2442.18z"/>
		</g>
		<g>
			<path class="st5" d="M1097.75,2629.77c-0.57,0-1.14-0.02-1.71-0.06c-12.39-0.93-21.68-11.73-20.75-24.12
				c0.55-7.32,1.07-14.61,1.59-21.87c9.23-128.86,17.95-250.58,159.63-344.92c10.34-6.89,24.31-4.08,31.2,6.26
				c6.89,10.34,4.08,24.31-6.26,31.2c-123.32,82.11-130.91,188.03-139.69,310.68c-0.52,7.31-1.05,14.65-1.6,22.02
				C1119.28,2620.77,1109.41,2629.77,1097.75,2629.77z"/>
		</g>
		<g>
			<path class="st5" d="M712,2591.38c15-12.22,32.59-22.1,52.28-26.18c9.8-2.02,20.08-2.52,30.17-0.94
				c10.08,1.49,19.93,5.52,28.13,11.44c8.29,5.88,14.6,13.94,18.69,22.48c4.13,8.56,6.15,17.6,6.76,26.39
				c1.2,17.66-2.78,34.32-8.38,49.8c0.93-8.22,1.51-16.4,1.15-24.48c-0.41-8.06-1.58-15.97-3.84-23.33
				c-4.39-14.74-13.88-26.9-25.87-31.51c-11.85-4.92-25.24-3.14-36.94,2.42c-11.81,5.58-22.03,14.9-30.29,25.7L712,2591.38z"/>
		</g>
		<g>
			<path class="st5" d="M897.1,2689.17c-1.68-27.15,5.07-54.84,19.43-77.04c14.22-22.24,35.17-39.33,59.22-47.99
				c12.01-4.3,24.86-6.43,37.59-5.57c12.72,0.82,25.2,5.16,35.41,12.24c10.27,7.07,18.07,16.76,23.42,27.22
				c5.39,10.49,8.54,21.7,10.55,32.91c-3.82-10.76-8.72-21.06-15.32-29.93c-6.56-8.86-14.91-16.1-24.33-20.48
				c-9.4-4.4-19.69-6.11-29.71-5.08c-10.03,1.01-19.74,4.36-28.49,9.26c-17.56,9.85-31.25,25.84-38.69,43.54
				c-7.56,17.78-8.62,37.06-4.48,55L897.1,2689.17z"/>
		</g>
		<g>
			<path class="st5" d="M1367.54,3085.76c-8.66-6.64-17.42-13.05-26.99-17.89c-9.49-4.9-19.39-8.74-29.48-10.87
				c-20.19-4.35-40.83-1.01-56.98,9.12c-16.24,9.94-28.26,25.75-34.26,42.81c-6.01,17.11-5.41,35.35,1.27,48.87l-42.51,14.77
				c-3.75-13.79-4.2-27.96-2.13-41.18c2.08-13.25,6.56-25.67,12.81-36.8c12.57-22.17,32.09-39.69,55.04-48.74
				c22.93-9.29,48.78-8.3,70.01,0.39C1335.78,3054.87,1353.1,3069.53,1367.54,3085.76z"/>
		</g>
		<g>
			<path class="st5" d="M946.18,3105.15c12.93-16.39,31.02-29.69,51.24-35.16c20.13-5.63,41.33-3.7,59.12,4.25
				c17.82,7.83,32.53,22,39.68,39.13c7.4,17.12,6.59,35.9,1.07,51.82c1.91-16.87-1.71-33.87-10.92-46.38
				c-9.01-12.63-22.83-20.55-36.98-23.24c-14.18-2.78-28.64-0.38-40.06,5.99c-11.53,6.34-19.92,16.44-25.47,28.17L946.18,3105.15z"
				/>
		</g>
		<g>
			<path class="st5" d="M1749.53,2808.41c-6.69,2.4-13.16,5.24-18.98,8.85c-5.72,3.67-10.74,8.08-14.56,13.26
				c-7.86,10.19-9.77,24.29-4.75,37.53c4.95,13.2,16.28,24.57,30.27,30.8c14.03,6.38,30.67,7.37,46.5,3.74
				c-15.04,5.99-32.41,7.93-49.01,3.33c-16.47-4.49-32.06-15.24-41.27-31.34c-4.54-8.02-7.4-17.36-7.7-27.12
				c-0.39-9.76,2.12-19.71,6.61-28.42c4.49-8.75,10.82-16.29,17.87-22.56c7.12-6.19,14.93-11.18,22.95-15.53L1749.53,2808.41z"/>
		</g>
		<g>
			<path class="st5" d="M1839.78,2973.33c-10.76,8.49-19.77,20.84-25.46,34.96c-5.68,14.09-8.22,30.03-5.86,45.25
				c2.3,15.14,10.36,29.43,24.5,37.5c6.98,4.05,15.24,6.45,23.82,7.36c8.6,0.93,17.49,0.47,26.36-0.72
				c-8.41,3-17.18,5.39-26.39,6.34c-9.17,0.95-18.85,0.38-28.22-2.64c-9.36-2.97-18.24-8.47-25.38-15.81
				c-7.16-7.32-12.66-16.28-16.31-25.79c-7.35-19.11-8.54-39.99-5.14-60.2c3.48-20.21,11.75-40.22,25.64-57.46L1839.78,2973.33z"/>
		</g>
		<g>
			<path class="st5" d="M1893.59,3187.1c-10.3-4.22-21.18-5.6-31.67-2.36c-10.4,3.14-20.35,11.1-25.99,22.28
				c-5.71,11.06-7.14,25.03-2.33,38.03c4.67,13.11,15.59,24.29,28.7,32.16c-14.5-4.47-29.07-12.79-38.64-26.89
				c-9.64-13.9-13.12-32.72-9.06-50.47c3.87-17.76,15.26-34.59,32-45.19c8.32-5.31,17.87-8.96,27.69-10.76
				c9.84-1.83,19.87-1.85,29.55-0.62L1893.59,3187.1z"/>
		</g>
		<g class="st7">
			<path class="st5" d="M1743.5,2794.67c-87.06,38.23-31.1,131.77,44.52,107.91"/>
		</g>
		<g class="st7">
			<path class="st5" d="M1823.56,2957.74c-51.67,53.7-36.94,164.85,59.58,139.95"/>
		</g>
		<g class="st7">
			<path class="st5" d="M1898.71,3165.19c-73.07-17.1-110.04,79.67-36.42,112.03"/>
		</g>
		<g>
			<path class="st5" d="M1951.14,2786.49c10.18-9.01,22.16-15.62,34.45-19.55c12.32-3.97,24.91-5.4,37.07-4.93
				c24.29,1.08,47.32,9.07,66.07,23.54c9.27,7.3,17.38,16.64,22.34,27.78c2.62,5.48,3.92,11.57,4.62,17.53
				c-0.01,3.03,0.22,6.04-0.16,8.98c-0.51,2.92-0.64,5.9-1.66,8.64c-3.14,11.23-9.54,20.57-16.78,28.42
				c-7.27,7.92-15.89,14.09-24.45,19.96c7.4-7.34,14.62-14.83,20.02-23.43c5.42-8.5,9.35-17.82,10.16-27.04
				c0.45-2.28,0.03-4.58,0.06-6.8c-0.11-2.23-0.76-4.4-1.08-6.54c-1.38-4.18-2.97-8.2-5.59-11.72c-4.94-7.14-12-12.87-19.97-17.06
				c-16.04-8.31-35.14-11.04-52.28-8.53c-17.26,2.45-32.04,10.67-40.72,22.29L1951.14,2786.49z"/>
		</g>
		<g>
			<path class="st5" d="M2102.12,2901.29c12.88-3.16,26.96-4.65,41.21-2.06c14.2,2.47,27.94,9.55,37.85,19.51
				c10.08,9.9,16.41,22.13,19.84,34.49c3.43,12.41,4.09,25.21,2.01,37.56c-2.01,12.31-7.16,24.39-15.67,33.84
				c-8.39,9.52-20.14,15.68-31.88,17.49c-11.8,1.92-23.27,0.16-33.86-2.87c-10.72-2.87-20.47-7.9-29.99-12.89
				c10.28,3.29,20.57,6.47,31.08,7.37c10.39,1.11,20.9,0.72,30.08-2.53c18.71-6.31,28.43-24.4,27.84-42.55
				c-0.16-18.02-8.85-36.2-21.61-44.43c-12.59-8.42-27.35-7.1-42.57-0.26L2102.12,2901.29z"/>
		</g>
		<g>
			<path class="st5" d="M2108.45,3020.94c4.37,15.71,6.25,32.64,2.77,49.52c-1.15,4.22-1.75,8.35-3.65,12.39l-2.53,5.98
				c-0.93,1.95-2.21,3.79-3.32,5.65c-4.4,7.51-11.02,13.5-17.79,18.29c-14.28,9.08-30.16,10.86-44.35,9.94
				c-14.37-1.09-27.63-5.31-40.35-9.93c13.56,1,27.07,1.3,39.7-1.3c12.51-2.63,23.91-8.08,30.73-16.11
				c6.69-8.16,8.84-17.97,7.95-27.96c-0.87-10.03-5.03-20.19-10.77-29.33L2108.45,3020.94z"/>
		</g>
		<g class="st7">
			<path class="st5" d="M1967.19,2802.26c62.2-63.32,210.63,12.52,105.44,94.6"/>
		</g>
		<g class="st7">
			<path class="st5" d="M2109.29,2922.61c107.61-36.18,119.4,166.24-17.65,103.73"/>
		</g>
		<g class="st7">
			<path class="st5" d="M2087.65,3029.5c21.64,52.56-5.55,103.45-88.41,83.27l-21.28-30.42"/>
		</g>
		<g>
			<path class="st5" d="M2471.95,2780.57c8.57-8.97,18.7-16.82,30.07-22.44c11.34-5.64,23.86-8.98,36.32-9.53
				c25.04-1.08,48.88,8.84,65.41,24.97c16.69,16.18,25.59,38.59,25.86,60.06c0.21,10.75-1.43,21.28-4.48,31.17
				c-3.13,9.89-7.54,19.13-12.6,27.86c3.37-9.53,5.91-19.25,7.1-29.02c1.11-9.78,0.73-19.56-1.2-28.8
				c-3.78-18.52-14.58-34.48-29.03-43.96c-14.45-9.51-32.01-12.48-47.03-8.79c-15.13,3.74-27.19,13.76-35.52,26.87L2471.95,2780.57z
				"/>
		</g>
		<g>
			<path class="st5" d="M2652.98,2911.19c6.26-12.13,14.75-22.97,24.64-31.73c9.89-8.79,21.09-15.54,32.75-20.34
				c23.37-9.54,48.59-11.75,72.27-6.85c11.82,2.47,23.29,6.88,33.41,13.51c10.11,6.57,18.79,15.44,24.61,25.75
				c5.89,10.29,8.8,21.81,9.23,33.04c0.46,11.27-1.35,22.24-4.22,32.72c1.04-10.84,0.88-21.72-1.36-32.01
				c-2.2-10.27-6.61-19.8-12.97-27.44c-12.73-15.44-32.35-22.78-51.65-23.27c-19.37-0.62-38.75,4.87-54.2,14.71
				c-15.55,9.82-26.56,24.08-31.18,39.65L2652.98,2911.19z"/>
		</g>
		<g>
			<path class="st5" d="M2905.54,2959.35c0.98-13.58,4.55-26.97,10.37-38.9c5.8-11.96,13.7-22.44,22.71-31.18
				c18.13-17.48,40.23-28.5,63.08-33.99c22.77-5.34,47.26-5.33,68.89,3.74c10.71,4.52,20.4,11.55,27.35,20.55
				c7.05,8.95,10.99,19.68,12.7,30.33c-3.53-10.23-9.13-19.65-16.86-26.54c-7.66-6.95-17.02-11.42-26.76-13.67
				c-19.61-4.46-40.33-0.76-58.42,7c-18.13,7.83-34.11,20.16-44.72,34.96c-10.73,14.82-15.23,31.73-13.35,47.7H2905.54z"/>
		</g>
		<g>
			<path class="st5" d="M3155.87,2875.9c-1.52-18.8-1.17-37.43,1.79-56.1c3.04-18.5,8.79-37.59,20.78-53.69
				c5.97-7.96,13.59-14.9,22.29-19.58c8.7-4.69,18.13-7.12,27.29-7.9c18.43-1.39,35.63,2.98,51.75,8.65
				c-16.95-2.1-34.35-2.32-49.67,2.4c-7.59,2.4-14.45,6.04-19.96,10.85c-5.51,4.83-9.6,10.81-12.53,17.36
				c-5.84,13.18-7.19,28.59-6.26,43.97c0.97,15.4,4.16,31.02,8.76,45.77L3155.87,2875.9z"/>
		</g>
		<g>
			<path class="st5" d="M2792.86,2566.18c12.68-21.26,31.62-38.73,53.18-48.87c21.56-10.21,44.98-13.74,67.29-11.89
				c22.27,1.91,44.08,9.11,61.59,22.51c8.72,6.64,16.11,15.15,20.87,24.84c4.81,9.67,6.76,20.43,5.85,30.68
				c-0.97-10.28-4.78-19.94-10.65-27.76c-5.85-7.86-13.6-13.99-22.17-18.32c-17.17-8.72-36.89-11.3-55.48-9.46
				c-18.63,1.87-36.4,8.37-50.44,18.63c-14.1,10.3-24.02,24.23-29.71,39.63L2792.86,2566.18z"/>
		</g>
		<g>
			<path class="st5" d="M3064.8,2544.1c-7.11-9.06-13.22-19.26-17.32-30.42c-4.12-11.13-6.1-23.19-5.52-34.94
				c0.54-11.76,3.55-23.1,8.36-33.19c4.82-10.1,11.41-18.96,19-26.44c15.21-14.95,34.57-24.41,54.42-27.48
				c19.89-3.17,40.01,0.52,56.83,9.11c-18.26-5.11-37.43-4.43-54.07,1.8c-16.66,6.12-30.82,17.42-40.03,31.15
				c-9.34,13.67-13.25,29.86-10.77,43.97c2.32,14.2,10.57,26.14,21.91,35.64L3064.8,2544.1z"/>
		</g>
		<g>
			<path class="st5" d="M3199.66,2362.52c-21.38-6.09-41.87-19.06-54.64-37.76c-12.85-18.56-17.43-41.66-13.41-62.27
				c3.92-20.74,15.89-38.44,30.94-50.32c7.53-6,15.75-10.77,24.31-14.39c8.59-3.57,17.43-6.06,26.3-7.87
				c-8.33,3.6-16.3,7.8-23.59,12.8c-7.26,5.05-13.76,10.96-19.16,17.52c-10.88,13.07-16.8,29.17-16.39,44.46
				c0.35,15.33,7.03,29.32,17.1,38.65c10.17,9.41,23.48,14.14,37.36,15.05L3199.66,2362.52z"/>
		</g>
		<g class="st7">
			<path class="st5" d="M3017.55,1113.5c-52.42-147.97-152.2-270.44-280.14-352.97c0,0,0,0,0,0
				c251.33,270.12,218.63,835.75-269.16,889.26c-16.35,1.79-25.02,20.37-15.47,33.75c220.48,308.7-25.45,596.99-365.13,613.11
				c0,0,72.2,35.37,180.7,40.83l-0.07,0.04c2.58,0.13,5.05,0.18,7.59,0.29c0.77,0.03,1.53,0.06,2.31,0.09
				c452.06,18.3,466.83-282.92,460.11-378.96C3008.34,1820.02,3135.62,1446.68,3017.55,1113.5z"/>
		</g>
		<g class="st7">
			<path class="st5" d="M3028.05,2183.45c-59.3,297.85-559,125.05-559,125.05c141.4-11.15,199.6-72.8,222.45-111.5
				c0.15,0.2,0.3,0.4,0.45,0.6C2795,2342.5,2994.9,2291.8,3028.05,2183.45z"/>
		</g>
		<g class="st7">
			<path class="st5" d="M3128.75,2480.25c-10.9,11.1-22.3,23.2-34.25,36.35c-0.15,0.2-0.35,0.35-0.5,0.55
				c-53.7,59.1-102.4,82.6-142,89.2c-63.8,10.55-104.1-22.9-104.1-22.9c4.3-1.8,8.5-3.6,12.6-5.45l-47.5-1.8
				c28.05-56.5,93.95-69.45,139.9-52.9c138.4-110.65,86.2-255.6,60.05-308.7c6.6-9.7,11.7-20.1,15.1-31.15
				c0-0.05,0.05-0.15,0.05-0.2c3.25-10.75,4.9-22.05,4.6-33.8c-0.35-16.65-4.55-34.2-13.3-52.2c-16.65-31.35-18.8-63.05-5.7-82.1
				c10.65-15.65,31.5-22.8,62.8-14.45c2.3,0.6,4.6,1.3,6.85,2.05c22.25,7.4,41.85,21.4,57.5,39.05
				C3253.8,2169.2,3236.75,2350.7,3128.75,2480.25z"/>
		</g>
		<g class="st7">
			<path class="st5" d="M2939.4,2958.95c-121.05,5.55-237.15-18.45-326.9-66.3l-93.35-74.25l-29.75-23.65
				c50.35-61.85,142.3-20.65,134.75,57.95c224.8,52.6,502.15-0.5,403.9-246.8c49.55-13.1,100.15-42.25,152.45-97.8
				c11.2-11.9,26.25-17.7,41.25-17.7c17.15,0.05,34.25,7.85,45.2,23C3383.95,2675.55,3227.6,2940.95,2939.4,2958.95z"/>
		</g>
		<g class="st7">
			<path class="st5" d="M2612.5,2892.65c-18.3-9.75-35.5-20.5-51.45-32.15c-0.05-0.05-0.1-0.1-0.15-0.1
				c-28.5-25.25-48.3-43.15-51.65-46.25c-0.35-0.25-0.5-0.4-0.5-0.4c0.05,0.05,0.15,0.05,0.2,0.1c3.35,1.55,6.75,3.05,10.2,4.55
				L2612.5,2892.65z"/>
		</g>
		<g class="st7">
			<path class="st5" d="M2505.75,2927.7c-16,278.3-369.3,386.8-503.85,246.25c-8.1-9.4-14.5-19.3-19.2-29.25
				c-0.35-0.8-0.5-1.2-0.5-1.2c321.05,184,443.45-240.25,242.8-614.8l59.4,15.25c83.2,63.8,174,143.7,202.5,242.5l12.85,16.5
				c0,0,0,0,0,0.05v0.2c0.15,2.4,1.2,22.05,2.7,51.45C2503.4,2875.1,2504.6,2900.3,2505.75,2927.7z"/>
		</g>
		<g class="st7">
			<path class="st5" d="M1910.7,2717.8l-0.05,0.05c-8.75-14.05-21.8-25.2-37.5-30.6c-31.9-11.05-69.85,0.45-96,47.1
				c-20.9,37.4-24.15,81.9-10.9,122.15l-0.8,0.75c-42-74.2-32.3-184.45,26.45-298.3c-4.3,2.05-8.55,4.25-12.7,6.6
				C1831.8,2526,1898.05,2552.65,1910.7,2717.8z"/>
		</g>
		<g class="st7">
			<path class="st5" d="M1418.65,3025.9c-133.9,199.45-402.8,168.3-513.6,40.9c7.4-11.9,13.35-19.3,13.35-19.3
				c208.75,91.9,419.9,8,410.75-259.05c23.9,98.9,87.9,204.85,87.9,204.85S1417.65,3006.1,1418.65,3025.9z"/>
		</g>
		<g class="st7">
			<path class="st5" d="M1125,2439.6l-33.3,181.95c0,0-0.2,0.25-0.55,0.7c-7.25,8.25-15.55,15.75-24.7,22.4
				c-133.55,97.9-449.75,27.5-383.5-258.4c0.05-0.05,0.05-0.05,0.05-0.05C836.8,2728.25,1081.85,2566.05,1125,2439.6z"/>
		</g>
		<g class="st7">
			<path class="st4" d="M1987.01,962.38c46.55,44.5-21.61,125.92-111.93,220.41s-168.59,166.24-215.14,121.75
				c-46.55-44.5-11.07-157.17,79.25-251.65C1829.5,958.4,1940.46,917.88,1987.01,962.38z"/>
		</g>
		<g class="st7">
			<path class="st4" d="M2112.26,792.05c49.97-6.56,94.76,20.74,100.04,60.99c5.28,40.24-33.17,61.23-83.13,67.79
				c-49.97,6.56-92.53-3.79-97.81-44.03S2062.3,798.61,2112.26,792.05z"/>
		</g>
		<g class="st7">
			<path class="st4" d="M1484.74,2604.03c17.51-46.96,56.96-75.6,88.12-63.98c31.16,11.62,8.7,46.6-8.81,93.56
				c-17.51,46.96-23.44,88.1-54.6,76.48C1478.3,2698.47,1467.23,2650.98,1484.74,2604.03z"/>
		</g>
		<g class="st7">
			<path class="st4" d="M1582.06,2498.49c-9.76-13.63-3.54-34.8,13.89-47.28c17.43-12.48,39.48-11.54,49.24,2.09
				c9.76,13.63-1.32,28.01-18.75,40.49C1609,2506.27,1591.82,2512.13,1582.06,2498.49z"/>
		</g>
	</g>
</g>
</svg>
