<?xml version="1.0" encoding="utf-8"?>
<!-- Generator: Adobe Illustrator 25.4.1, SVG Export Plug-In . SVG Version: 6.00 Build 0)  -->
<svg version="1.1" id="Layer_1" xmlns="http://www.w3.org/2000/svg" xmlns:xlink="http://www.w3.org/1999/xlink" x="0px" y="0px"
	 viewBox="0 0 4000 4000" style="enable-background:new 0 0 4000 4000;" xml:space="preserve">
<style type="text/css">
	.st0{fill:#00D07E;}
	.st1{opacity:0.2;fill:#380177;}
	.st2{fill:#FF52B3;}
	.st3{fill:#C538A0;}
	.st4{fill:#B5A5D8;}
	.st5{fill:#FFCAE8;}
	.st6{fill:#FFA6DD;}
	.st7{fill:#380177;}
	.st8{fill:url(#SVGID_1_);}
	.st9{fill:url(#SVGID_00000060030364283637194520000005008671694678556346_);}
	.st10{fill:url(#SVGID_00000118385516666581015860000007653980614652310450_);}
	.st11{fill:#C644AD;}
	.st12{fill:#FDB6EA;}
	.st13{fill:#FF85C9;}
	.st14{fill:#DD7AB9;}
	.st15{fill:#FF4077;}
	.st16{fill:#FFFFFF;}
	.st17{opacity:0.35;}
	.st18{fill:url(#SVGID_00000179626402302666633650000009368151649550126492_);}
	.st19{fill:url(#SVGID_00000054233050646125516180000009391975016196198057_);}
	.st20{fill:#B7FFFF;}
	.st21{opacity:0.6;}
</style>
<g>
	<rect class="st0" width="4000" height="4000"/>
	<g>
		<ellipse class="st1" cx="2029.67" cy="3379.87" rx="1070.77" ry="99.4"/>
		<g id="Octopus">
			<g id="Tentacles_2_">
				<g>
					<path class="st2" d="M1353.99,1588.68c0,0-50.83,44.32-161.83,64.47c0,0-64.2-243.45-286.83-148.71
						c-193.58,82.38-129.29,358.86,135.54,404.44s375.1-89.34,421.42-128.54L1353.99,1588.68z"/>
					<g>
						<path class="st3" d="M1188.08,1640.6l0.06-0.11c-15.07-43.2-75.14-180.67-221.96-154.65c103.05,15.03,183.3,95.09,164,183.13
							c-21.99,100.34-118.06,69.45-158.37,15.86c-40.31-53.59,42.5-41.96,42.5-41.96c-59.42-53.22-94.4-9.15-94.4-9.15
							s-33.56,41,41.32,100.98c34.87,27.93,66.83,42.42,91.03,49.94c35.59,11.05,75.17,4.14,103.36-20.18
							C1209.98,1717.56,1188.08,1640.6,1188.08,1640.6z"/>
					</g>
					<g>
						<path class="st3" d="M1407.78,1683.89c-65.74,81.91-172.9,171.58-321.08,157.41c-265.01-25.35-292.78-192.39-292.82-192.64
							c-10.08,107.01,77.28,231.03,246.98,260.23c264.83,45.58,375.1-89.34,421.42-128.54L1407.78,1683.89z"/>
					</g>
					<g>
						<path class="st4" d="M1444.75,1749.31c-144.01,132.74-318.9,148.33-461.01,103.36c-137.84-43.62-179.17-127.66-184.7-140.3
							c0.52,2.08,1.06,4.15,1.64,6.22c0.17,0.59,0.31,1.18,0.48,1.77c0.89,3.04,1.87,6.08,2.91,9.11c0.37,1.09,0.78,2.17,1.17,3.25
							c0.73,2.03,1.49,4.06,2.29,6.09c0.48,1.21,0.97,2.41,1.47,3.61c0.81,1.95,1.66,3.9,2.53,5.85c0.52,1.15,1.03,2.3,1.56,3.45
							c1.09,2.31,2.23,4.62,3.4,6.91c0.37,0.73,0.71,1.46,1.09,2.18c1.55,2.95,3.18,5.88,4.87,8.79c0.57,0.98,1.17,1.95,1.76,2.92
							c1.2,2.01,2.43,4.01,3.7,5.99c0.72,1.12,1.46,2.24,2.2,3.36c1.24,1.87,2.52,3.74,3.83,5.59c0.76,1.07,1.51,2.15,2.29,3.22
							c1.54,2.11,3.13,4.2,4.75,6.29c0.58,0.75,1.14,1.51,1.73,2.25c2.2,2.77,4.48,5.5,6.82,8.21c0.69,0.8,1.42,1.58,2.13,2.38
							c1.73,1.95,3.48,3.89,5.28,5.8c0.93,0.99,1.89,1.97,2.84,2.95c1.69,1.74,3.41,3.46,5.16,5.17c0.98,0.96,1.96,1.91,2.96,2.86
							c1.98,1.87,4.01,3.72,6.07,5.56c0.79,0.71,1.56,1.42,2.36,2.12c2.85,2.48,5.76,4.92,8.75,7.32c0.75,0.6,1.53,1.18,2.29,1.77
							c2.31,1.82,4.65,3.61,7.04,5.38c1.12,0.83,2.26,1.64,3.4,2.45c2.14,1.53,4.32,3.05,6.52,4.54c1.19,0.81,2.38,1.61,3.59,2.4
							c2.41,1.58,4.86,3.12,7.35,4.65c1.01,0.62,1.99,1.25,3.01,1.86c3.49,2.09,7.04,4.14,10.67,6.12c0.68,0.37,1.4,0.73,2.09,1.1
							c2.99,1.61,6.02,3.19,9.11,4.72c1.28,0.64,2.59,1.26,3.89,1.88c2.6,1.25,5.22,2.47,7.89,3.67c1.4,0.63,2.81,1.25,4.23,1.87
							c2.81,1.22,5.67,2.39,8.55,3.55c1.23,0.49,2.45,1,3.69,1.48c4.12,1.6,8.29,3.14,12.55,4.6c0.47,0.16,0.95,0.3,1.42,0.46
							c3.81,1.29,7.67,2.53,11.59,3.72c1.43,0.43,2.88,0.84,4.33,1.26c3.06,0.89,6.14,1.74,9.27,2.56c1.61,0.42,3.22,0.83,4.85,1.24
							c3.19,0.79,6.43,1.54,9.69,2.26c1.47,0.33,2.94,0.67,4.42,0.98c4.73,0.99,9.5,1.93,14.37,2.76
							c264.83,45.58,375.1-89.34,421.42-128.54L1444.75,1749.31z"/>
					</g>
					<g>
						<path class="st5" d="M905.32,1504.45c-38.66,16.45-67,40.66-85.55,69.21c32.1-25.63,75.19-47.7,137.43-46.47
							c98.18,1.94,165.93,104.67,147.75,173.86c-18.18,69.2-91.66,66.62-91.66,66.62c68.53,47.96,123.78,13.41,123.78,13.41
							c31.9-20.84,46.34-48.84,52.34-74.4c6.55-27.93,3.15-57.05-7.88-83.42C1155.63,1561.37,1078.3,1430.84,905.32,1504.45z"/>
					</g>
					<g>
						<path class="st6" d="M1181.66,1623.59c-22.52-53.99-84.46-160.97-215.47-137.74c103.05,15.03,183.3,95.09,164,183.13
							c-6.59,30.05-19.82,48.32-36.21,57.75c-26.92,42.79-80.69,40.95-80.69,40.95c1.86,1.3,3.71,2.52,5.55,3.7
							c12.22,5.89,23.49,10.18,33.43,13.26c35.59,11.05,75.17,4.14,103.36-20.18c10.13-8.74,17.6-18.52,23.07-28.66
							c4.18-8.03,7.23-16.17,9.43-24.13c0.04-0.15,0.08-0.3,0.12-0.44c0.2-0.74,0.37-1.47,0.56-2.2c4.6-19.22,4.05-37.52,2.55-50.36
							C1189.64,1646.68,1186.35,1634.89,1181.66,1623.59z"/>
					</g>
					<g>
						<g>
							<path class="st7" d="M1145.12,1939.11c-32.89,0-68.72-2.95-107.79-9.68c-173.36-29.84-249.49-145.94-262-236.31
								c-12.63-91.23,32.52-173.21,117.82-213.96c66.18-31.61,126.93-35.25,180.55-10.82c78.96,35.97,118.39,122.57,132.43,160.78
								c90.86-19.83,133.79-55.83,134.24-56.21c4.73-4.05,11.08-5.79,17.2-4.72c6.14,1.08,11.5,4.82,14.57,10.24l108.3,191.67
								c4.92,8.72,2.96,19.7-4.68,26.17c-4.34,3.67-9.49,8.44-15.46,13.97C1412.47,1854.51,1321.1,1939.11,1145.12,1939.11z
								 M999.72,1494.19c-27.48,0-57.09,7.53-88.6,22.59c-69.38,33.14-104.71,96.93-94.5,170.63
								c10.58,76.43,76.59,174.92,227.78,200.94c227.82,39.21,335.72-60.69,387.56-108.7c1.35-1.25,2.66-2.46,3.93-3.64
								l-88.74-157.05c-25.47,15.89-75.01,40.86-151.28,54.71c-10.6,1.92-20.94-4.56-23.81-14.95
								c-0.31-1.12-32.97-114.9-115.82-152.52C1038.62,1498.19,1019.74,1494.19,999.72,1494.19z"/>
						</g>
						<g>
							<path class="st7" d="M1212.67,1649.45c9.88,59.19-14.39,127.41-70.66,154.52c-68.33,30.53-144.75-13.75-197.3-56.27
								c-27.26-24.05-55.76-58.87-50.57-98.23c5.93-35.72,46.4-60.22,80.17-46.25c31.68,13.69,56.17,39.19,73.15,68.37
								c0.51,0.9-0.63,1.89-1.44,1.31c-21.95-13.8-43.4-27.24-65.14-35.97c-8.89-3.49-18.66-7.29-28.08-5.2
								c-11.35,2.16-21.49,11.94-22.86,23.46c-0.37,14.04,8.34,26.15,16.95,37.52c21.24,25.6,54.06,45.55,85.03,60.03
								c51.05,25.15,104.97,25.43,129.67-33.45c8.1-19.09,12.71-42.9,9.98-63.09C1168.56,1629.46,1206.92,1623.19,1212.67,1649.45
								L1212.67,1649.45z"/>
						</g>
					</g>
				</g>
				<g>
					<path class="st2" d="M2696.01,1588.68c0,0,50.83,44.32,161.83,64.47c0,0,64.2-243.45,286.83-148.71
						c193.58,82.38,129.29,358.86-135.54,404.44s-375.1-89.34-421.42-128.54L2696.01,1588.68z"/>
					<g>
						<path class="st3" d="M2861.92,1640.6l-0.06-0.11c15.07-43.2,75.14-180.67,221.96-154.65c-103.05,15.03-183.3,95.09-164,183.13
							c21.99,100.34,118.06,69.45,158.37,15.86c40.31-53.59-42.5-41.96-42.5-41.96c59.42-53.22,94.4-9.15,94.4-9.15
							s33.56,41-41.32,100.98c-34.87,27.93-66.83,42.42-91.03,49.94c-35.59,11.05-75.17,4.14-103.36-20.18
							C2840.02,1717.56,2861.92,1640.6,2861.92,1640.6z"/>
					</g>
					<g>
						<path class="st3" d="M2642.22,1683.89c65.74,81.91,172.9,171.58,321.08,157.41c265.01-25.35,292.77-192.39,292.82-192.64
							c10.08,107.01-77.28,231.03-246.98,260.23c-264.83,45.58-375.1-89.34-421.42-128.54L2642.22,1683.89z"/>
					</g>
					<g>
						<path class="st4" d="M2605.25,1749.31c144.01,132.74,318.9,148.33,461.01,103.36c137.84-43.62,179.17-127.66,184.7-140.3
							c-0.52,2.08-1.06,4.15-1.64,6.22c-0.17,0.59-0.31,1.18-0.48,1.77c-0.89,3.04-1.87,6.08-2.91,9.11
							c-0.37,1.09-0.78,2.17-1.17,3.25c-0.73,2.03-1.49,4.06-2.29,6.09c-0.48,1.21-0.97,2.41-1.47,3.61
							c-0.81,1.95-1.66,3.9-2.53,5.85c-0.52,1.15-1.03,2.3-1.56,3.45c-1.09,2.31-2.23,4.62-3.4,6.91c-0.37,0.73-0.71,1.46-1.09,2.18
							c-1.55,2.95-3.18,5.88-4.87,8.79c-0.57,0.98-1.17,1.95-1.76,2.92c-1.2,2.01-2.43,4.01-3.7,5.99c-0.72,1.12-1.46,2.24-2.2,3.36
							c-1.24,1.87-2.52,3.74-3.83,5.59c-0.76,1.07-1.51,2.15-2.29,3.22c-1.54,2.11-3.13,4.2-4.75,6.29
							c-0.58,0.75-1.14,1.51-1.73,2.25c-2.2,2.77-4.48,5.5-6.82,8.21c-0.69,0.8-1.42,1.58-2.13,2.38c-1.73,1.95-3.48,3.89-5.28,5.8
							c-0.93,0.99-1.89,1.97-2.84,2.95c-1.69,1.74-3.41,3.46-5.16,5.17c-0.98,0.96-1.96,1.91-2.96,2.86
							c-1.98,1.87-4.01,3.72-6.07,5.56c-0.79,0.71-1.56,1.42-2.36,2.12c-2.85,2.48-5.76,4.92-8.75,7.32
							c-0.75,0.6-1.53,1.18-2.29,1.77c-2.31,1.82-4.65,3.61-7.04,5.38c-1.12,0.83-2.26,1.64-3.4,2.45
							c-2.14,1.53-4.32,3.05-6.52,4.54c-1.19,0.81-2.38,1.61-3.59,2.4c-2.41,1.58-4.86,3.12-7.35,4.65
							c-1.01,0.62-1.99,1.25-3.01,1.86c-3.49,2.09-7.04,4.14-10.67,6.12c-0.68,0.37-1.4,0.73-2.09,1.1
							c-2.99,1.61-6.02,3.19-9.11,4.72c-1.28,0.64-2.59,1.26-3.89,1.88c-2.6,1.25-5.22,2.47-7.89,3.67
							c-1.4,0.63-2.81,1.25-4.23,1.87c-2.81,1.22-5.67,2.39-8.55,3.55c-1.23,0.49-2.45,1-3.69,1.48c-4.12,1.6-8.29,3.14-12.55,4.6
							c-0.47,0.16-0.95,0.3-1.42,0.46c-3.81,1.29-7.67,2.53-11.59,3.72c-1.43,0.43-2.88,0.84-4.33,1.26
							c-3.06,0.89-6.14,1.74-9.27,2.56c-1.61,0.42-3.22,0.83-4.85,1.24c-3.19,0.79-6.43,1.54-9.69,2.26
							c-1.47,0.33-2.94,0.67-4.42,0.98c-4.73,0.99-9.5,1.93-14.37,2.76c-264.83,45.58-375.1-89.34-421.42-128.54L2605.25,1749.31z"
							/>
					</g>
					<g>
						<path class="st5" d="M3144.68,1504.45c38.66,16.45,67,40.66,85.55,69.21c-32.1-25.63-75.19-47.7-137.43-46.47
							c-98.18,1.94-165.93,104.67-147.75,173.86c18.18,69.2,91.66,66.62,91.66,66.62c-68.53,47.96-123.78,13.41-123.78,13.41
							c-31.9-20.84-46.34-48.84-52.34-74.4c-6.55-27.93-3.15-57.05,7.88-83.42C2894.37,1561.37,2971.7,1430.84,3144.68,1504.45z"/>
					</g>
					<g>
						<path class="st6" d="M2868.34,1623.59c22.52-53.99,84.46-160.97,215.47-137.74c-103.05,15.03-183.3,95.09-164,183.13
							c6.59,30.05,19.82,48.32,36.21,57.75c26.92,42.79,80.69,40.95,80.69,40.95c-1.86,1.3-3.71,2.52-5.55,3.7
							c-12.22,5.89-23.49,10.18-33.43,13.26c-35.59,11.05-75.17,4.14-103.36-20.18c-10.13-8.74-17.6-18.52-23.07-28.66
							c-4.18-8.03-7.23-16.17-9.43-24.13c-0.04-0.15-0.08-0.3-0.12-0.44c-0.2-0.74-0.37-1.47-0.56-2.2
							c-4.6-19.22-4.05-37.52-2.55-50.36C2860.36,1646.68,2863.65,1634.89,2868.34,1623.59z"/>
					</g>
					<g>
						<g>
							<path class="st7" d="M2904.88,1939.11c-176.01,0-267.35-84.59-315.17-128.87c-5.96-5.52-11.12-10.3-15.46-13.97
								c-7.64-6.46-9.61-17.45-4.69-26.16l108.3-191.67c3.08-5.45,8.45-9.23,14.63-10.29c6.15-1.05,12.44,0.7,17.15,4.78
								c0.85,0.72,43.8,36.47,134.23,56.2c14.04-38.21,53.48-124.8,132.43-160.78c53.62-24.43,114.37-20.79,180.55,10.82
								c85.31,40.75,130.46,122.74,117.82,213.96c-12.51,90.36-88.64,206.47-262,236.31
								C2973.62,1936.15,2937.76,1939.11,2904.88,1939.11z M2614.11,1776.01c1.27,1.17,2.58,2.39,3.93,3.63
								c51.85,48.01,159.73,147.91,387.57,108.7c151.19-26.02,217.19-124.51,227.78-200.94c10.21-73.7-25.12-137.49-94.5-170.63
								c-54.47-26.02-103.3-29.58-145.13-10.58c-82.84,37.62-115.5,151.4-115.82,152.55c-2.9,10.37-13.21,16.84-23.8,14.92
								c-76.26-13.85-125.81-38.81-151.28-54.71L2614.11,1776.01z"/>
						</g>
						<g>
							<path class="st7" d="M2878.36,1656.87c-3.25,30.09,6.45,65.46,26.27,88.7c20.18,24.1,52.31,27.67,81.58,19.21
								c42.7-13.28,87.94-38.57,116.93-72.06c8.62-11.38,17.31-23.49,16.95-37.52c-2-16.03-19.46-27.04-35.1-23.43
								c-29.14,7.81-53.69,24.34-80.98,41.15c-0.47,0.31-1.11,0.18-1.41-0.3c14.88-31.17,60.76-76.78,98.51-73.09
								c26.79,2.01,49.96,23.41,54.77,49.96c4.18,24.34-8.19,48.54-21.46,67.26c-25.29,33.64-60.46,56.49-97.12,75.49
								c-54.53,28.64-123.44,34.56-166.99-17.02c-28.74-35.32-40.54-80.79-32.97-125.75
								C2843.31,1622.7,2882.14,1629.85,2878.36,1656.87L2878.36,1656.87z"/>
						</g>
					</g>
				</g>
				<g>
					<linearGradient id="SVGID_1_" gradientUnits="userSpaceOnUse" x1="2983.9324" y1="2628.3994" x2="2983.9324" y2="1825.7805">
						<stop  offset="0.095" style="stop-color:#FF52B3"/>
						<stop  offset="0.3837" style="stop-color:#FF55B4"/>
						<stop  offset="0.6126" style="stop-color:#FF5FB9"/>
						<stop  offset="0.8204" style="stop-color:#FF70C0"/>
						<stop  offset="1" style="stop-color:#FF85C9"/>
					</linearGradient>
					<path class="st8" d="M2567.85,2124.22c0,0,97.25,58.58,285.74,56.97c0,0,29.43-432.03,424.41-343.44
						c343.44,77.03,324.18,564.91-96.29,727s-643.55-30.49-731.82-81.85L2567.85,2124.22z"/>
					<g>
						<path class="st3" d="M2856.38,2158.67l-0.14-0.16c11.26-77.84,66.97-329.46,316.06-332.63
							c-164.46,58.49-271.2,219.57-212.06,362.15c67.4,162.49,215.45,79.44,264.89-24.07c49.44-103.51-82.85-57.27-82.85-57.27
							c80.93-109.02,152.1-45.78,152.1-45.78s67.88,58.51-36.31,183.92c-48.52,58.41-96.46,93.16-133.84,113.63
							c-54.97,30.1-122.09,31.14-175.95-0.91C2844.44,2295.75,2856.38,2158.67,2856.38,2158.67z"/>
					</g>
					<g>
						<path class="st3" d="M2509.26,2302.39c133.46,117.3,337.33,234.41,576.13,162.87c427.08-127.96,420.53-419.16,420.52-419.61
							c49.93,177.59-54.76,415.24-324.2,519.11c-420.47,162.09-643.55-30.49-731.82-81.85L2509.26,2302.39z"/>
					</g>
					<g>
						<path class="st6" d="M2469,2424.82c277.78,178.07,569.72,148.23,788.94,26.59c212.63-117.99,254.25-273.28,259.39-296.42
							c-0.2,3.67-0.44,7.35-0.76,11.04c-0.09,1.05-0.14,2.09-0.23,3.14c-0.51,5.43-1.18,10.88-1.93,16.33
							c-0.27,1.96-0.61,3.92-0.91,5.87c-0.57,3.67-1.17,7.34-1.85,11.02c-0.4,2.19-0.84,4.38-1.28,6.57
							c-0.72,3.56-1.51,7.13-2.33,10.69c-0.49,2.11-0.96,4.22-1.49,6.34c-1.06,4.26-2.22,8.52-3.43,12.78
							c-0.38,1.34-0.72,2.69-1.11,4.03c-1.62,5.48-3.38,10.96-5.25,16.42c-0.63,1.84-1.32,3.66-1.97,5.5
							c-1.35,3.78-2.74,7.55-4.2,11.31c-0.83,2.13-1.69,4.25-2.56,6.38c-1.46,3.57-2.97,7.12-4.54,10.67
							c-0.91,2.06-1.8,4.12-2.75,6.17c-1.87,4.06-3.82,8.11-5.83,12.15c-0.72,1.45-1.4,2.92-2.14,4.37
							c-2.75,5.38-5.63,10.74-8.63,16.06c-0.89,1.57-1.84,3.13-2.75,4.7c-2.23,3.85-4.5,7.68-6.86,11.5
							c-1.22,1.98-2.48,3.94-3.74,5.91c-2.23,3.48-4.51,6.94-6.85,10.39c-1.31,1.93-2.62,3.86-3.97,5.78
							c-2.67,3.8-5.42,7.58-8.23,11.34c-1.08,1.45-2.11,2.91-3.21,4.34c-3.9,5.11-7.93,10.17-12.08,15.19
							c-1.04,1.25-2.14,2.49-3.2,3.73c-3.23,3.81-6.51,7.6-9.88,11.35c-1.58,1.75-3.2,3.49-4.81,5.23
							c-3.04,3.28-6.13,6.54-9.29,9.77c-1.7,1.74-3.41,3.49-5.15,5.21c-3.46,3.44-7.01,6.84-10.61,10.22
							c-1.46,1.37-2.88,2.76-4.36,4.11c-5.08,4.66-10.27,9.26-15.61,13.78c-1.01,0.85-2.06,1.68-3.08,2.53
							c-4.41,3.68-8.89,7.32-13.48,10.9c-1.91,1.49-3.86,2.95-5.8,4.43c-3.87,2.95-7.8,5.86-11.8,8.73
							c-2.1,1.51-4.22,3.02-6.35,4.51c-4.24,2.96-8.56,5.87-12.93,8.74c-1.87,1.23-3.7,2.48-5.6,3.7
							c-6.26,4.02-12.63,7.97-19.16,11.81c-0.72,0.42-1.46,0.82-2.18,1.24c-5.85,3.41-11.81,6.74-17.87,10.01
							c-2.21,1.19-4.47,2.34-6.71,3.51c-4.74,2.48-9.54,4.92-14.41,7.3c-2.51,1.23-5.03,2.45-7.57,3.65
							c-4.99,2.37-10.07,4.67-15.19,6.94c-2.32,1.03-4.61,2.07-6.96,3.08c-7.45,3.19-15,6.31-22.72,9.28
							c-420.47,162.09-643.55-30.49-731.82-81.85L2469,2424.82z"/>
					</g>
					<g>
						<path class="st5" d="M3278,1837.76c68.59,15.38,122.66,47.19,162.01,89.47c-60.68-33-138.29-56.46-240.08-34.39
							c-160.54,34.82-239.7,230.18-188.26,341.27s171.24,83.14,171.24,83.14c-97.52,103.06-198.98,62.42-198.98,62.42
							c-58.87-24.97-91.31-67.65-109.12-108.93c-19.46-45.1-22.97-95.39-13.09-143.51C2884.91,2014.34,2971.11,1768.92,3278,1837.76
							z"/>
					</g>
					<g>
						<path class="st6" d="M2861.61,2127.86c20.13-98.48,88.4-299.16,310.69-301.99c-164.46,58.49-271.2,219.57-212.06,362.15
							c20.19,48.67,47.62,75.29,77.46,85.95c57.54,63.67,145.22,43.28,145.22,43.28c-2.65,2.8-5.31,5.45-7.96,8.04
							c-18.22,13.88-35.38,24.74-50.73,33.15c-54.97,30.1-122.09,31.14-175.95-0.91c-19.35-11.51-34.67-25.65-46.8-41.01
							c-9.36-12.23-16.91-25-23-37.75c-0.11-0.24-0.23-0.47-0.34-0.71c-0.56-1.18-1.07-2.36-1.6-3.53
							c-13.55-30.99-18.35-62.1-19.89-84.28C2855.71,2169.44,2857.43,2148.45,2861.61,2127.86z"/>
					</g>
					<g>
						<g>
							<path class="st6" d="M2934.79,2245.62c-2.57-13.15,5.42-23.47,13.54-25.9c13.06-3.9,29.78,13.48,37.36,38.82
								c7.58,25.34,3.14,49.06-9.92,52.96c-7.39,2.21-15.95-2.39-23.36-11.4C2952.42,2300.11,2941.44,2279.56,2934.79,2245.62z"/>
						</g>
						<g>
							<path class="st6" d="M3041.46,1892.8c10.53-3.68,19.78-3.29,24.23,2.19c7.15,8.8-0.9,27.2-17.99,41.09
								c-17.09,13.89-36.74,18.01-43.9,9.2c-4.05-4.98-3.23-13.03,1.34-21.6C3005.15,1923.68,3018.51,1900.82,3041.46,1892.8z"/>
						</g>
						<g>
							<path class="st6" d="M3220.75,1816.55c12.56,1.26,21.04,8.53,22.1,16.45c1.7,12.73-16.96,25.72-41.68,29.02
								c-24.71,3.29-46.12-4.36-47.82-17.09c-0.96-7.2,4.59-14.49,14.07-20.05C3167.42,1824.87,3181.59,1812.62,3220.75,1816.55z"/>
						</g>
					</g>
					<g>
						<g>
							<path class="st7" d="M2952.42,2300.11c22.9,20.9,34.42,3.33,31.92-21.49c-1.17-13.54-5.53-27.28-12.52-38.93
								c-14.21-23.84-31.72-22.65-37.02,5.94c-0.69-7.31-0.14-15.17,4.25-22.25c4.4-7.82,16.1-9.74,23.57-5.35
								c14.65,7.71,22.36,22.49,27.5,37.24c5.15,18.03,8.28,42.32-7.44,56.28C2971.58,2320.17,2957.48,2309.77,2952.42,2300.11
								L2952.42,2300.11z"/>
						</g>
						<g>
							<path class="st7" d="M3005.15,1923.68c-8,24.05,8.38,26.67,26.32,16.98c13.96-7.68,28.55-20.23,32.66-36
								c2.69-12.99-12.96-13.81-22.67-11.86c5.34-3.03,11.56-5.26,18.58-4.22c7.65,0.81,13.18,9.57,12.17,16.91
								c-1.19,14.02-10.16,24.78-20.03,33.59c-12.02,9.58-30.49,20.07-46.5,12C2995.32,1945.1,2998.96,1930.55,3005.15,1923.68
								L3005.15,1923.68z"/>
						</g>
						<g>
							<path class="st7" d="M3167.42,1824.87c-22.57,18.3-8.05,31.29,15.3,32.61c12.73,0.9,26.11-1.12,37.95-5.86
								c24.19-9.61,25.65-25.74,0.08-35.08c6.92,0.38,14.18,2.01,20.19,7.15c14.52,13.52-2.99,31.62-16.29,36.96
								c-20.09,8.65-44.58,10.93-64.16-0.48C3142.8,1849.01,3150.64,1830.7,3167.42,1824.87L3167.42,1824.87z"/>
						</g>
					</g>
					<g>
						<g>
							<path class="st7" d="M2867.75,2649.51c-196.89,0-324.58-82.27-398.07-129.62c-11.66-7.51-21.73-14-30.27-18.97
								c-8.51-4.95-12.39-15.18-9.32-24.53l117.96-358.69c1.98-6.03,6.6-10.82,12.55-13.03c5.92-2.2,12.53-1.59,17.95,1.65l0,0
								c0.9,0.54,89.11,51.77,256.46,53.97c7.95-58.16,41.63-231.63,166.97-319.77c76.35-53.7,172.13-65.43,284.69-34.87
								c146.16,39.68,241.78,158.06,249.55,308.96c4.67,90.72-23.49,185.27-79.3,266.23c-61.49,89.22-154.07,159.53-267.72,203.35
								C3066.06,2631.68,2959.4,2649.51,2867.75,2649.51z M2474.86,2473.72c5.42,3.41,11.19,7.13,17.4,11.13
								c101.92,65.66,314,202.3,681.95,60.46c247.84-95.54,327.49-290.57,320.38-428.54c-6.91-134.29-88.73-235.55-218.84-270.87
								c-99.97-27.14-183.95-17.5-249.65,28.64c-132.75,93.22-151.56,306.2-151.73,308.34c-0.88,10.75-9.81,19.07-20.6,19.16
								c-141.95,1.19-233.58-30.64-273.65-48.43L2474.86,2473.72z"/>
						</g>
						<g>
							<path class="st7" d="M2874.44,2181.01c4.72,71.88,49.65,158.14,122.63,178.79c56.84,15.17,115.24-15.42,159.88-49.46
								c48.23-36.77,95.91-81.71,123.54-135.01c14.85-31.02,29.89-71.67,3.36-99.99c-22.36-23.9-55.76-24.16-81.67-5.49
								c-39.23,25.6-71.31,60.51-103.08,97.39c-0.66,0.91-2.14-0.01-1.67-0.99c22.08-51.2,79.44-136.93,139.68-142.19
								c40.39-4.06,79.9,22.54,93.36,60.52c18.12,56.62-17.38,122.94-51.02,166.46c-31.33,39.99-68.73,74.09-109.24,104.34
								c-13.95,9.85-28.75,19.36-43.93,27.24c-66.7,36.25-146.36,38.05-206.31-13.38c-53.88-47.02-85.28-116.54-87.21-187.88
								C2833.52,2153.82,2873.25,2153.58,2874.44,2181.01L2874.44,2181.01z"/>
						</g>
					</g>
				</g>
				<g>
					
						<linearGradient id="SVGID_00000042717117392051810820000009222039730481388467_" gradientUnits="userSpaceOnUse" x1="1066.0677" y1="2628.3994" x2="1066.0677" y2="1825.7805">
						<stop  offset="0.095" style="stop-color:#FF52B3"/>
						<stop  offset="0.3837" style="stop-color:#FF55B4"/>
						<stop  offset="0.6126" style="stop-color:#FF5FB9"/>
						<stop  offset="0.8204" style="stop-color:#FF70C0"/>
						<stop  offset="1" style="stop-color:#FF85C9"/>
					</linearGradient>
					<path style="fill:url(#SVGID_00000042717117392051810820000009222039730481388467_);" d="M1482.15,2124.22
						c0,0-97.25,58.58-285.74,56.97c0,0-29.43-432.03-424.41-343.44c-343.44,77.03-324.18,564.91,96.29,727
						s643.55-30.49,731.82-81.85L1482.15,2124.22z"/>
					<g>
						<path class="st3" d="M1193.62,2158.67l0.14-0.16c-11.26-77.84-66.97-329.46-316.06-332.63
							c164.46,58.49,271.2,219.57,212.06,362.15c-67.4,162.49-215.45,79.44-264.89-24.07c-49.44-103.51,82.85-57.27,82.85-57.27
							c-80.93-109.02-152.1-45.78-152.1-45.78s-67.88,58.51,36.31,183.92c48.52,58.41,96.46,93.16,133.84,113.63
							c54.97,30.1,122.09,31.14,175.95-0.91C1205.56,2295.75,1193.62,2158.67,1193.62,2158.67z"/>
					</g>
					<g>
						<path class="st3" d="M1540.74,2302.39c-133.46,117.3-337.33,234.41-576.13,162.87c-427.08-127.96-420.53-419.16-420.52-419.61
							c-49.93,177.59,54.76,415.24,324.2,519.11c420.47,162.09,643.55-30.49,731.82-81.85L1540.74,2302.39z"/>
					</g>
					<g>
						<path class="st6" d="M1581,2424.82c-277.78,178.07-569.72,148.23-788.94,26.59c-212.63-117.99-254.25-273.28-259.39-296.42
							c0.2,3.67,0.44,7.35,0.76,11.04c0.09,1.05,0.14,2.09,0.23,3.14c0.51,5.43,1.18,10.88,1.93,16.33
							c0.27,1.96,0.61,3.92,0.91,5.87c0.57,3.67,1.17,7.34,1.85,11.02c0.4,2.19,0.84,4.38,1.28,6.57c0.72,3.56,1.51,7.13,2.33,10.69
							c0.49,2.11,0.96,4.22,1.49,6.34c1.06,4.26,2.22,8.52,3.43,12.78c0.38,1.34,0.72,2.69,1.11,4.03
							c1.62,5.48,3.38,10.96,5.25,16.42c0.63,1.84,1.32,3.66,1.97,5.5c1.35,3.78,2.74,7.55,4.2,11.31c0.83,2.13,1.69,4.25,2.56,6.38
							c1.46,3.57,2.97,7.12,4.54,10.67c0.91,2.06,1.8,4.12,2.75,6.17c1.87,4.06,3.82,8.11,5.83,12.15c0.72,1.45,1.4,2.92,2.14,4.37
							c2.75,5.38,5.63,10.74,8.63,16.06c0.89,1.57,1.84,3.13,2.75,4.7c2.23,3.85,4.5,7.68,6.86,11.5c1.22,1.98,2.48,3.94,3.74,5.91
							c2.23,3.48,4.51,6.94,6.85,10.39c1.31,1.93,2.62,3.86,3.97,5.78c2.67,3.8,5.42,7.58,8.23,11.34c1.08,1.45,2.11,2.91,3.21,4.34
							c3.9,5.11,7.93,10.17,12.09,15.19c1.04,1.25,2.14,2.49,3.2,3.73c3.23,3.81,6.51,7.6,9.88,11.35c1.58,1.75,3.2,3.49,4.81,5.23
							c3.04,3.28,6.13,6.54,9.29,9.77c1.7,1.74,3.41,3.49,5.15,5.21c3.46,3.44,7.01,6.84,10.61,10.22c1.46,1.37,2.88,2.76,4.36,4.11
							c5.08,4.66,10.27,9.26,15.61,13.78c1.01,0.85,2.06,1.68,3.08,2.53c4.41,3.68,8.89,7.32,13.48,10.9
							c1.91,1.49,3.86,2.95,5.8,4.43c3.87,2.95,7.8,5.86,11.8,8.73c2.1,1.51,4.22,3.02,6.35,4.51c4.24,2.96,8.56,5.87,12.93,8.74
							c1.87,1.23,3.7,2.48,5.6,3.7c6.26,4.02,12.63,7.97,19.16,11.81c0.72,0.42,1.46,0.82,2.18,1.24
							c5.85,3.41,11.81,6.74,17.87,10.01c2.21,1.19,4.47,2.34,6.71,3.51c4.74,2.48,9.54,4.92,14.41,7.3
							c2.51,1.23,5.03,2.45,7.57,3.65c4.99,2.37,10.07,4.67,15.19,6.94c2.32,1.03,4.61,2.07,6.95,3.08c7.45,3.19,15,6.31,22.72,9.28
							c420.47,162.09,643.55-30.49,731.82-81.85L1581,2424.82z"/>
					</g>
					<g>
						<path class="st5" d="M772,1837.76c-68.59,15.38-122.66,47.19-162.01,89.47c60.68-33,138.29-56.46,240.08-34.39
							c160.54,34.82,239.7,230.18,188.26,341.27c-51.43,111.09-171.24,83.14-171.24,83.14c97.52,103.06,198.98,62.42,198.98,62.42
							c58.87-24.97,91.31-67.65,109.12-108.93c19.46-45.1,22.97-95.39,13.09-143.51C1165.09,2014.34,1078.89,1768.92,772,1837.76z"
							/>
					</g>
					<g>
						<path class="st6" d="M1188.39,2127.86c-20.13-98.48-88.4-299.16-310.69-301.99c164.46,58.49,271.2,219.57,212.06,362.15
							c-20.19,48.67-47.62,75.29-77.46,85.95c-57.54,63.67-145.22,43.28-145.22,43.28c2.65,2.8,5.31,5.45,7.96,8.04
							c18.22,13.88,35.38,24.74,50.73,33.15c54.97,30.1,122.09,31.14,175.95-0.91c19.35-11.51,34.67-25.65,46.8-41.01
							c9.36-12.23,16.91-25,23-37.75c0.11-0.24,0.23-0.47,0.34-0.71c0.56-1.18,1.07-2.36,1.6-3.53
							c13.55-30.99,18.35-62.1,19.89-84.28C1194.29,2169.44,1192.57,2148.45,1188.39,2127.86z"/>
					</g>
					<g>
						<g>
							<path class="st6" d="M1115.21,2245.62c2.57-13.15-5.42-23.47-13.54-25.9c-13.06-3.9-29.78,13.48-37.36,38.82
								c-7.58,25.34-3.14,49.06,9.92,52.96c7.39,2.21,15.95-2.39,23.36-11.4C1097.58,2300.11,1108.56,2279.56,1115.21,2245.62z"/>
						</g>
						<g>
							<path class="st6" d="M1008.54,1892.8c-10.53-3.68-19.78-3.29-24.23,2.19c-7.15,8.8,0.9,27.2,17.99,41.09
								c17.09,13.89,36.74,18.01,43.9,9.2c4.05-4.98,3.23-13.03-1.34-21.6C1044.85,1923.68,1031.49,1900.82,1008.54,1892.8z"/>
						</g>
						<g>
							<path class="st6" d="M829.25,1816.55c-12.56,1.26-21.04,8.53-22.1,16.45c-1.7,12.73,16.96,25.72,41.68,29.02
								c24.71,3.29,46.12-4.36,47.82-17.09c0.96-7.2-4.59-14.49-14.07-20.05C882.58,1824.87,868.41,1812.62,829.25,1816.55z"/>
						</g>
					</g>
					<g>
						<g>
							<path class="st7" d="M1097.58,2300.11c-8.96,16.34-29.25,21.61-37.92,1.28c-8.59-22.33-2.11-47.52,10.23-67.05
								c7.74-12.93,29.37-28.26,41.07-10.96c4.39,7.08,4.94,14.95,4.25,22.25c-5.3-28.55-22.78-29.82-37.02-5.94
								c-6.99,11.65-11.35,25.38-12.52,38.93C1063.16,2303.39,1074.66,2321.03,1097.58,2300.11L1097.58,2300.11z"/>
						</g>
						<g>
							<path class="st7" d="M1044.85,1923.68c10.37,12.14,7.67,29.92-11.08,30.26c-20.79-0.54-37.64-13.39-49-29.39
								c-7.68-10.35-12.34-32.59,5.18-35.97c7.02-1.04,13.24,1.19,18.58,4.22c-23.26-4.22-29.36,7.94-15.66,26.13
								c6.68,8.91,15.77,16.56,25.65,21.74C1036.43,1950.33,1052.87,1947.75,1044.85,1923.68L1044.85,1923.68z"/>
						</g>
						<g>
							<path class="st7" d="M882.58,1824.87c16.74,5.82,24.66,24.12,6.94,35.3c-19.58,11.42-44.07,9.14-64.16,0.49
								c-13.29-5.33-30.83-23.45-16.29-36.96c6.01-5.14,13.27-6.77,20.19-7.15c-25.53,9.33-24.16,25.45,0.08,35.08
								c11.83,4.74,25.22,6.76,37.95,5.86C890.58,1856.17,905.18,1843.18,882.58,1824.87L882.58,1824.87z"/>
						</g>
					</g>
					<g>
						<g>
							<path class="st7" d="M1182.25,2649.51c-91.66,0-198.28-17.82-321.46-65.3c-113.65-43.81-206.23-114.13-267.72-203.35
								c-55.81-80.97-83.97-175.52-79.3-266.23c7.77-150.9,103.39-269.28,249.56-308.96c112.55-30.55,208.34-18.82,284.69,34.87
								c125.34,88.15,159.01,261.62,166.97,319.78c167.37-2.19,255.56-53.44,256.46-53.97c5.44-3.23,12.07-3.83,17.99-1.62
								c5.92,2.22,10.54,6.98,12.51,12.99l117.96,358.69c3.07,9.35-0.81,19.58-9.32,24.53c-8.54,4.97-18.61,11.46-30.27,18.97
								C1506.83,2567.24,1379.11,2649.51,1182.25,2649.51z M878.37,1830.87c-32.46,0-67.2,5-104.13,15.03
								c-130.12,35.32-211.93,136.58-218.85,270.87c-7.1,137.97,72.54,333,320.38,428.54c367.94,141.84,580.03,5.21,681.95-60.46
								c6.21-4,11.98-7.72,17.4-11.13l-105.27-320.11c-40.06,17.79-131.7,49.72-273.64,48.43c-10.8-0.09-19.74-8.42-20.6-19.18
								c-0.17-2.13-18.98-215.11-151.73-308.32C982.47,1845.45,933.76,1830.87,878.37,1830.87z"/>
						</g>
						<g>
							<path class="st7" d="M1217.24,2181.38c-1.92,71.33-33.35,140.86-87.21,187.88c-69.62,58.86-156.69,46.68-228.93,0.52
								c-21.14-13.52-41.81-29.45-60.63-45.95c-42.31-37.47-81.73-79.37-106.43-131.23c-20.86-44.51-32.8-103.16,6.82-141.71
								c27.56-28.77,75.17-36.26,109.02-14.4c9.96,6.2,18.92,13.5,27.49,21.35c32.4,30.93,57.46,67.77,75.21,108.42
								c0.45,1.05-1.01,1.85-1.67,0.99c-31.06-35.33-94.16-108.71-140.17-110.82c-24.89-1-49.38,16.13-56.88,39.84
								c-7.18,26.79,4.1,54.34,15.66,79.08c32.79,61.98,90.24,113.1,148.53,152.53c110.61,72.95,202.84,29.8,246.15-90.06
								c6.2-18.43,10.74-38.11,11.38-57.3C1177.23,2153.45,1216.65,2154.19,1217.24,2181.38L1217.24,2181.38z"/>
						</g>
					</g>
				</g>
			</g>
			<g id="Head_1_">
				<g id="Head_2_">
					
						<linearGradient id="SVGID_00000149351355937929160930000016351883633168551330_" gradientUnits="userSpaceOnUse" x1="2027.3965" y1="2428.7451" x2="2027.3965" y2="880.6838">
						<stop  offset="0.095" style="stop-color:#FF52B3"/>
						<stop  offset="0.4663" style="stop-color:#FF54B4"/>
						<stop  offset="0.6622" style="stop-color:#FF5CB7"/>
						<stop  offset="0.817" style="stop-color:#FF6ABD"/>
						<stop  offset="0.9496" style="stop-color:#FF7DC5"/>
						<stop  offset="0.9944" style="stop-color:#FF85C9"/>
					</linearGradient>
					<path style="fill:url(#SVGID_00000149351355937929160930000016351883633168551330_);" d="M2668.94,2416.71l55.37-196.19
						c0,0,175.37,3.19,231.1-178.94c55.37-180.95-107.53-311.34-107.53-311.34s80.48-605.14-519.48-801.59
						c-195.3-63.95-406.71-63.95-602.01,0c-599.96,196.44-519.48,801.59-519.48,801.59s-162.89,130.39-107.53,311.34
						c55.73,182.13,231.1,178.94,231.1,178.94l55.37,208.23L2668.94,2416.71z"/>
					<g>
						<path class="st11" d="M2839.86,2018.3c91.48-166.1-55.52-306.19-139.7-329.43c0,0,52.24-305.29-213.37-594.17
							c0,0,320.78,127.8,352.17,628.81c0,0,3.46,1,9.37,2.83c-0.28,2.56-0.45,3.89-0.45,3.89s162.89,130.39,107.53,311.34
							c-55.73,182.13-231.1,178.94-231.1,178.94c-90.88,4.81-212.46-71.89-259.67-147.25
							C2464.64,2073.26,2748.38,2184.41,2839.86,2018.3z"/>
					</g>
					<g>
						<g>
							<path class="st12" d="M1726.39,982.81c195.3-63.95,406.71-63.95,602.01,0c448.77,146.94,516.82,522.52,522.63,702.49
								c4.88-143.68-21.63-592.62-522.63-756.66c-195.3-63.95-406.71-63.95-602.01,0c-501,164.04-527.51,612.99-522.63,756.66
								C1209.57,1505.33,1277.62,1129.75,1726.39,982.81z"/>
						</g>
					</g>
					<g>
						<path class="st11" d="M1214.94,2018.3c-91.48-166.1,55.52-306.19,139.7-329.43c0,0-52.24-305.29,213.37-594.17
							c0,0-320.78,127.8-352.17,628.81c0,0-3.46,1-9.37,2.83c0.28,2.56,0.45,3.89,0.45,3.89s-162.89,130.39-107.53,311.34
							c55.73,182.13,231.1,178.94,231.1,178.94c90.88,4.81,212.46-71.89,259.67-147.25
							C1590.16,2073.26,1306.41,2184.41,1214.94,2018.3z"/>
					</g>
					<g>
						<g>
							<path class="st7" d="M1329.96,2199.68c67.67,0.77,140.39-14.38,191.76-61.2c4.4-4.48,11.61,1.9,7.51,6.79
								c-44.74,55.11-115.19,82.18-183.5,94.09c-4.84,0.77-9.36,1.46-14.87,2C1301.18,2242.95,1300.15,2199.42,1329.96,2199.68
								L1329.96,2199.68z"/>
						</g>
						<g>
							<path class="st7" d="M1194.89,1713.21c63.93-35.3,142.19-43.02,212.07-23.26c6.1,1.67,4.28,10.87-2.08,9.95
								c-49.65-6.16-100.73,1.59-145.73,23.13c-12.67,6.04-24.89,12.9-36.18,21.1c-1.32,0.95-3.01,2.22-4.02,3.13
								c-8.13,8.35-21.5,8.53-29.85,0.4C1178.38,1737.54,1181.87,1719.5,1194.89,1713.21L1194.89,1713.21z"/>
						</g>
						<g>
							<path class="st7" d="M2724.28,2241.36c-0.19,0-0.31,0-0.35,0c-11.51-0.21-20.67-9.71-20.46-21.22
								c0.21-11.5,9.74-20.78,21.18-20.46c6.87,0.17,160.59-0.03,210.83-164.2c50.46-164.91-94.45-284-100.64-288.99
								c-5.67-4.57-8.57-11.78-7.61-19c0.19-1.46,18.85-150.05-34.46-319.67c-70.95-225.74-229.37-380.3-470.84-459.36
								c-189.92-62.18-399.11-62.18-589.04,0c-242.04,79.25-400.62,234.31-471.32,460.86c-52.89,169.49-34.18,316.7-33.99,318.17
								c0.96,7.24-1.93,14.46-7.64,19.02c-6.17,4.97-151.08,124.06-100.62,288.97c50.28,164.31,204.27,164.28,210.85,164.2
								c11.59-0.31,20.95,9.03,21.13,20.52c0.18,11.49-8.95,20.95-20.43,21.16c-1.91-0.04-191.77,1.22-251.41-193.68
								c-51.72-169.03,70.46-294.39,105.57-326.08c-3.6-39.09-10.87-172.12,36.75-324.69c51.53-165.11,179.78-383.82,498.13-488.06
								c198.29-64.93,416.69-64.93,614.98,0c318.36,104.24,446.61,322.94,498.13,488.06c47.61,152.57,40.35,285.61,36.75,324.69
								c35.11,31.69,157.29,157.05,105.57,326.08C2916.91,2238.61,2733.5,2241.36,2724.28,2241.36z"/>
						</g>
						<g>
							<path class="st7" d="M2723.78,2241.35c-73.43-9.84-149.95-37.56-197.92-96.35c-3.64-4.47,2.77-10.38,6.9-6.24
								c13.08,11.7,27.19,21.86,42.61,29.77c45.92,23.07,98.42,32.19,149.45,31.16C2754.73,2199.32,2753.71,2243.19,2723.78,2241.35
								L2723.78,2241.35z"/>
						</g>
						<g>
							<path class="st7" d="M2837.03,1748.02c-54.93-35.84-122.37-50.32-187.56-48.22c-6.16,0.43-7.4-8.73-1.18-9.77
								c68.79-13.17,142.16-7.72,206.77,20.59c1.75,0.73,4.28,2.15,6.17,3.15c10.28,5.52,14.13,18.33,8.61,28.61
								C2863.59,1754.4,2846.92,1757.21,2837.03,1748.02L2837.03,1748.02z"/>
						</g>
					</g>
				</g>
				<g id="Face">
					<g>
						<g>
							<g>
								
									<ellipse transform="matrix(0.9325 -0.3611 0.3611 0.9325 -568.8002 613.1929)" class="st13" cx="1356.3" cy="1828.52" rx="144.44" ry="69.81"/>
							</g>
							<g>
								
									<ellipse transform="matrix(0.9325 -0.3611 0.3611 0.9325 -642.3601 585.8817)" class="st13" cx="1246.44" cy="2011.68" rx="52.36" ry="30.27"/>
							</g>
							<g>
								<path class="st14" d="M1233.54,2045.44c-6.83-8.1-13.07-17.1-18.6-27.14c-2.98-5.41-5.7-10.8-8.18-16.15
									c-8.7,9.32-12.51,19.74-9.14,28.44C1201.83,2041.46,1216.13,2046.76,1233.54,2045.44z"/>
							</g>
							<g>
								
									<ellipse transform="matrix(0.3611 -0.9325 0.9325 0.3611 6.1403 3665.999)" class="st13" cx="2678.57" cy="1828.52" rx="69.81" ry="144.44"/>
							</g>
							<g>
								
									<ellipse transform="matrix(0.3611 -0.9325 0.9325 0.3611 -81.7508 3904.0388)" class="st13" cx="2808.35" cy="2011.68" rx="30.27" ry="52.36"/>
							</g>
						</g>
						<g>
							<path class="st14" d="M2821.26,2045.44c6.83-8.1,13.07-17.1,18.6-27.14c2.98-5.41,5.7-10.8,8.18-16.15
								c8.7,9.32,12.51,19.74,9.14,28.44C2852.96,2041.46,2838.67,2046.76,2821.26,2045.44z"/>
						</g>
					</g>
					<g>
						<g>
							<g>
								<path class="st7" d="M1680.75,1807.66c0,0,129.99,122.77,346.65,120.36c216.66-2.41,346.65-120.36,346.65-120.36
									s67.4,408.04-346.65,408.04S1680.75,1807.66,1680.75,1807.66z"/>
							</g>
							<g>
								<path class="st7" d="M2027.4,2235.7c-128.34,0-225.66-38.02-289.27-112.99c-107.32-126.5-78.4-310.53-77.11-318.3
									c1.2-7.29,6.34-13.33,13.34-15.69c7-2.36,14.72-0.67,20.1,4.39c1.42,1.33,125.06,114.96,326.74,114.96
									c1.99,0,3.97-0.01,5.98-0.03c205.86-2.29,332.21-114.07,333.46-115.2c5.43-4.9,13.11-6.45,20.01-4.03
									c6.9,2.41,11.94,8.39,13.13,15.6c1.28,7.77,30.21,191.79-77.11,318.3C2253.06,2197.68,2155.73,2235.7,2027.4,2235.7z
									 M1697.32,1846.5c-2.59,56.68,2.44,169.32,71.47,250.53c55.66,65.48,142.67,98.68,258.61,98.68
									c116.05,0,203.11-33.26,258.77-98.87c69.39-81.8,74.06-194.84,71.33-251.14c-51.38,35.86-166.42,100.52-329.88,102.33
									c-2.2,0.02-4.41,0.04-6.59,0.04C1860.97,1948.07,1748.23,1883.15,1697.32,1846.5z M1700.48,1810.92L1700.48,1810.92
									L1700.48,1810.92z"/>
							</g>
							<g>
								<path class="st15" d="M2027.4,2094.53c-59.78-138.82-250.76-173.32-228.29-50.55c10.11,55.25,57.35,89.05,106.26,109.51
									c77.87,32.59,166.2,32.59,244.07,0c48.91-20.47,96.15-54.26,106.26-109.51C2278.16,1921.21,2087.18,1955.71,2027.4,2094.53z
									"/>
							</g>
						</g>
						<g>
							<g>
								<g>
									<g>
										<path class="st16" d="M1776.83,1680.7c36.1-34.74,59.88-89.98,60.79-152.53c1.55-106.57-63.84-193.93-146.05-195.12
											c-82.21-1.19-150.1,84.23-151.65,190.8c-0.76,52.25,14.6,99.85,40.11,134.97
											C1630.53,1648.41,1701.38,1645.87,1776.83,1680.7z"/>
									</g>
									<g>
										<path class="st7" d="M1776.82,1693.73c-1.85,0-3.71-0.39-5.46-1.2c-74.09-34.2-143.51-30.28-188.69-20.94
											c-5,1.03-10.17-0.96-13.17-5.1c-28.24-38.88-43.37-89.6-42.6-142.82c0.79-54.41,17.98-105.45,48.4-143.73
											c31.21-39.27,72.71-60.62,116.46-59.91c43.89,0.63,84.61,23.1,114.67,63.26c29.3,39.15,45,90.67,44.21,145.07
											c-0.93,64.06-24.54,123-64.78,161.73C1783.38,1692.47,1780.13,1693.73,1776.82,1693.73z M1646.19,1639.02
											c37.99,0,81.87,6.49,127.69,26.12c31.56-33.93,49.94-83.36,50.72-137.15c0.71-48.68-13.15-94.52-39.02-129.08
											c-25.11-33.55-58.56-52.31-94.19-52.82c-35.62-0.51-69.61,17.26-95.68,50.07c-26.86,33.8-42.04,79.22-42.75,127.9
											c-0.64,44.57,11.02,86.97,32.97,120.38C1603.42,1641.27,1623.78,1639.02,1646.19,1639.02z"/>
									</g>
									<g>
										<path class="st7" d="M1498.76,1697.58c117.54-72.36,286.57-58.41,375.66,52.35c1.16,1.43,0.93,3.52-0.5,4.68
											c-1.21,0.98-2.91,0.95-4.1,0.07c-26.94-20.09-54.07-38.59-83.18-53.41c-88.23-46.22-196.41-41.61-285.81-0.16
											c-1.02,0.55-2.33,0.14-2.83-0.93C1497.57,1699.23,1497.9,1698.12,1498.76,1697.58L1498.76,1697.58z"/>
									</g>
								</g>
							</g>
							<g>
								<path class="st7" d="M1539.9,1350.28c27.41-89.12,119.46-145.01,205.02-90.66c24.46,15.02,44.31,35.28,59.8,58.16
									c-23.09-15.17-45.54-29.93-69.32-40.02C1653.31,1239.71,1590.93,1286.73,1539.9,1350.28L1539.9,1350.28z"/>
							</g>
						</g>
						<g>
							<g>
								<g>
									<g>
										<path class="st16" d="M2277.97,1680.7c-36.1-34.74-59.88-89.98-60.79-152.53c-1.55-106.57,63.84-193.93,146.05-195.12
											c82.21-1.19,150.1,84.23,151.65,190.8c0.76,52.25-14.6,99.85-40.11,134.97
											C2424.26,1648.41,2353.41,1645.87,2277.97,1680.7z"/>
									</g>
									<g>
										<path class="st7" d="M2277.97,1693.73c-3.3,0-6.56-1.26-9.04-3.64c-40.24-38.73-63.85-97.68-64.78-161.73
											c-0.79-54.4,14.91-105.93,44.21-145.07c30.06-40.16,70.78-62.63,114.67-63.26c89.1-1.36,163.21,90.05,164.86,203.64
											c0.77,53.22-14.36,103.94-42.6,142.82c-3.01,4.14-8.18,6.13-13.17,5.1c-45.19-9.32-114.6-13.26-188.69,20.94
											C2281.68,1693.34,2279.82,1693.73,2277.97,1693.73z M2364.92,1346.06c-0.51,0-1.01,0-1.51,0.01
											c-35.63,0.52-69.08,19.28-94.19,52.82c-25.87,34.56-39.72,80.41-39.02,129.08c0.78,53.78,19.16,103.22,50.72,137.15
											c72.84-31.2,140.78-29.19,187.95-20.71c21.95-33.41,33.61-75.81,32.97-120.38
											C2500.41,1425.49,2439.13,1346.06,2364.92,1346.06z"/>
									</g>
									<g>
										<path class="st7" d="M2553.96,1701.1c-89.4-41.45-197.58-46.06-285.81,0.16c-29.11,14.83-56.25,33.32-83.18,53.41
											c-1.47,1.11-3.55,0.82-4.66-0.65c-0.94-1.24-0.86-2.94,0.07-4.1c65.36-81.67,180.68-113.38,280.92-89.9
											c16.73,3.69,33.12,8.7,48.96,14.99c15.87,6.25,31.3,13.38,45.77,22.57C2558.07,1698.95,2556.34,1702.33,2553.96,1701.1
											L2553.96,1701.1z"/>
									</g>
								</g>
								<g>
									<path class="st7" d="M2291.47,1670.85c-26.39-25.39-43.77-65.77-44.43-111.48c-1.13-77.89,46.66-141.74,106.74-142.61
										c60.08-0.87,109.71,61.56,110.84,139.46c0.55,38.19-10.67,72.98-29.32,98.65
										C2398.39,1647.24,2346.61,1645.39,2291.47,1670.85z"/>
								</g>
								<g>
									
										<ellipse transform="matrix(0.0863 -0.9963 0.9963 0.0863 598.1193 3707.6543)" class="st16" cx="2320.37" cy="1527.75" rx="54.29" ry="42.14"/>
								</g>
								<g class="st17">
									
										<ellipse transform="matrix(0.403 -0.9152 0.9152 0.403 -27.9623 3142.345)" class="st16" cx="2394.57" cy="1592.61" rx="31.56" ry="24.49"/>
								</g>
								<g>
									<path class="st7" d="M1763.33,1670.85c26.38-25.39,43.77-65.77,44.43-111.48c1.13-77.89-46.66-141.74-106.74-142.61
										c-60.08-0.87-109.71,61.56-110.84,139.46c-0.55,38.19,10.67,72.98,29.32,98.65
										C1656.4,1647.24,1708.18,1645.39,1763.33,1670.85z"/>
								</g>
								<g>
									
										<ellipse transform="matrix(0.9963 -0.0863 0.0863 0.9963 -125.3435 155.3392)" class="st16" cx="1734.42" cy="1527.75" rx="42.14" ry="54.29"/>
								</g>
								<g class="st17">
									
										<ellipse transform="matrix(0.9152 -0.403 0.403 0.9152 -501.0178 804.0797)" class="st16" cx="1660.22" cy="1592.61" rx="24.49" ry="31.56"/>
								</g>
							</g>
							<g>
								<path class="st7" d="M2514.9,1350.28c-51.09-63.6-113.41-110.55-195.5-72.52c-23.78,10.08-46.23,24.85-69.32,40.02
									c17.23-25.8,41.03-48.3,69.08-63.65C2403.62,1208.8,2489.1,1266.11,2514.9,1350.28L2514.9,1350.28z"/>
							</g>
						</g>
					</g>
				</g>
			</g>
			<g id="Tentacles_1_">
				<g>
					
						<linearGradient id="SVGID_00000033337089078999201270000008991094166328807571_" gradientUnits="userSpaceOnUse" x1="1648.7821" y1="2238.2957" x2="1648.7821" y2="3085.054">
						<stop  offset="0.0559" style="stop-color:#FF52B3"/>
						<stop  offset="0.4171" style="stop-color:#FF55B4"/>
						<stop  offset="0.6321" style="stop-color:#FF5DB8"/>
						<stop  offset="0.8087" style="stop-color:#FF6BBE"/>
						<stop  offset="0.9636" style="stop-color:#FF7FC6"/>
						<stop  offset="1" style="stop-color:#FF85C9"/>
					</linearGradient>
					<path style="fill:url(#SVGID_00000033337089078999201270000008991094166328807571_);" d="M1330.49,2419.12
						c0,0,157.68-188.97,375.54-180.55s329.8,133.6,331,270.82c1.2,137.22-99.9,72.22-144.44,48.15
						c-44.53-24.07-120.36-27.68-144.44,69.81c-24.07,97.5,81.85,173.32,131.2,220.27s133.6,155.27-36.11,216.66
						s-442.94-16.85-530.81-186.56C1224.3,2707.49,1260.67,2500.96,1330.49,2419.12z"/>
					<path class="st12" d="M1742.11,2311.12c-151.95-0.19-291.26,118.83-306.21,312.75c-14.95,193.92,173.2,304.79,173.2,304.79
						c-244.97-204.23-124.55-536.02,105.35-562.5c229.9-26.48,296.1,145.64,296.1,145.64c5.91,26.02,7.55,49.95,7.1,70.4
						c12.1-12.1,19.72-34.6,19.38-72.81c-0.01-1.19-0.03-2.37-0.06-3.55c-0.86-37.29-15.45-73.09-40.99-100.27
						c-0.12-0.13-0.24-0.26-0.36-0.38C1895.23,2298.57,1742.11,2311.12,1742.11,2311.12z"/>
					<path class="st5" d="M1715.39,3084.98c45.68-0.14,89.43-6.82,127.85-20.71c169.71-61.39,85.46-169.71,36.11-216.66
						c-49.35-46.94-155.27-122.77-131.2-220.27c24.07-97.5,99.9-93.88,144.44-69.81c21.34,11.54,55.66,32.42,85.5,36
						c-17.92-91.15-81.57-167.34-161.33-167.88c-102.31-0.69-167.31,62.07-194.63,163.26c-27.32,101.19,27.32,192.5,110.32,281.61
						c83.01,89.11,69.8,115.53,69.8,115.53C1798.38,3034.18,1755.03,3065.87,1715.39,3084.98z"/>
					<path class="st3" d="M1843.24,3064.27c169.71-61.39,85.46-169.71,36.11-216.66c-49.35-46.94-155.27-122.77-131.2-220.27
						c24.07-97.5,99.9-93.88,144.44-69.81c44.53,24.07,145.64,89.07,144.44-48.15c-0.12-13.68-1.39-27.23-3.71-40.57
						c-18.73,92.74-99.95,19.87-198.91,7.67c-117.15-14.44-243.94,144.44-97.9,338.63c94.93,126.22,15.58,160.91-51.6,169.72
						c-47.01,6.17-94.83-0.02-139.42-16.16c-298.84-108.19-226.12-534.96-226.12-534.96l-0.08,0.07
						c-62.23,89.85-90.15,283.06-6.87,443.91C1400.3,3047.42,1673.53,3125.66,1843.24,3064.27z"/>
					<path class="st6" d="M1879.35,2847.61c-49.35-46.94-155.27-122.77-131.2-220.27c24.07-97.5,99.9-93.88,144.44-69.81
						c21.34,11.54,55.66,32.42,85.5,35.99c0,0,0,0,0,0c-6.23-31.68-17.99-61.53-34.02-87.05c-31.52-9.8-69.09-24.99-109.66-29.99
						c-117.15-14.44-243.94,144.44-97.9,338.63c42.35,56.31,47.74,92.08,41.26,110.19c31.98,45.68,24.49,60.75,24.49,60.75
						c-3.88,48.13-47.23,79.82-86.87,98.93c0,0,0,0,0,0c5.17-0.02,10.32-0.14,15.44-0.33c0.79-0.03,1.58-0.05,2.36-0.08
						c4.64-0.19,9.24-0.47,13.82-0.81c1.31-0.1,2.63-0.19,3.94-0.3c4.17-0.34,8.32-0.75,12.44-1.21c1.76-0.2,3.5-0.41,5.25-0.63
						c3.73-0.46,7.44-0.97,11.11-1.54c2.18-0.34,4.33-0.71,6.49-1.08c3.27-0.56,6.53-1.13,9.76-1.77c2.62-0.52,5.2-1.11,7.79-1.69
						c2.76-0.61,5.54-1.21,8.26-1.88c3.22-0.8,6.37-1.69,9.53-2.58c2.08-0.58,4.19-1.12,6.25-1.74c5.22-1.58,10.37-3.26,15.41-5.09
						C2012.95,3002.88,1928.7,2894.56,1879.35,2847.61z"/>
					<g>
						<path class="st6" d="M1650.04,2680.13c2.29,10.92,9.35,17.74,16.41,17.97c11.34,0.37,21.11-17.18,21.82-39.19
							s-7.9-40.15-19.24-40.52c-6.41-0.21-12.33,5.32-16.38,14.14C1652.65,2632.53,1645.22,2657.09,1650.04,2680.13z"/>
						<path class="st6" d="M1894.57,2475.61c7.5,6.16,9.1,14.91,6.32,20.69c-4.91,10.22-24.99,10.78-44.84,1.24
							s-31.95-25.56-27.04-35.79c3.06-6.36,11.98-8.98,23.06-7.75C1852.08,2454,1872.48,2457.48,1894.57,2475.61z"/>
						<path class="st6" d="M1749.27,2463.13c11.21-3.23,20.94-1.37,25.54,4.81c8.14,10.93-2.46,32.6-23.68,48.4
							c-21.22,15.8-45.02,19.75-53.15,8.82c-5.06-6.8-2.87-17.75,4.61-28.86C1702.59,2496.29,1719.1,2471.83,1749.27,2463.13z"/>
						<path class="st6" d="M1710.34,2802.25c-3.7-8.97-1.49-17.4,3.58-21.34c8.96-6.96,27.17,1.5,40.68,18.9
							c13.51,17.39,17.19,37.13,8.23,44.09c-5.57,4.33-14.73,2.69-24.1-3.35C1738.72,2840.55,1720.26,2826.3,1710.34,2802.25z"/>
						<path class="st6" d="M1843.72,2963.53c9.51,8.3,19.81,11.09,26.66,6.96c11-6.64,9.47-29.32-3.41-50.67
							c-12.88-21.35-32.24-33.27-43.24-26.64c-6.22,3.75-8.43,12.64-6.85,23.52C1816.88,2916.71,1822.54,2945.04,1843.72,2963.53z"
							/>
					</g>
					<g>
						<path class="st7" d="M1894.57,2475.61c12.9,9.41,14.41,27.32-3.75,32.01c-20.34,4.3-39.72-4.29-54.49-17.21
							c-9.87-8.28-19.57-28.84-3.31-36.19c6.59-2.64,13.15-1.92,19.05-0.21c-9.88,0.36-24.93,4.79-19.29,16.8
							c7.66,14.39,24.76,23.2,40.12,27.43C1892.57,2503.49,1907.95,2497.17,1894.57,2475.61L1894.57,2475.61z"/>
						<path class="st7" d="M1749.27,2463.13c9.82-4.72,27.36-4.65,31.09,8.89c4.27,20.6-12.75,38.19-27.65,49.59
							c-12.94,8.77-27.95,16.01-44.3,13.45c-8.59-0.96-16.86-9.46-15.7-18.37c0.71-8.3,4.97-14.93,9.88-20.38
							c-12.8,26.06,0.45,37.52,26.14,26.88c12.57-5.17,24.27-13.57,33.3-23.74C1778.84,2481.06,1780.15,2460.04,1749.27,2463.13
							L1749.27,2463.13z"/>
						<path class="st7" d="M1652.65,2632.53c3.39-15.6,19.17-24.21,30.8-9.49c12.15,16.87,12.11,38.07,6.26,56.8
							c-3.59,12.37-18.48,29.55-31.77,17.64c-5.08-4.96-7.07-11.26-7.89-17.35c4.32,8.9,14.45,20.87,23.16,10.86
							c10.07-12.82,11.23-32.02,8.89-47.78C1678.96,2623.11,1666.96,2611.59,1652.65,2632.53L1652.65,2632.53z"/>
						<path class="st7" d="M1710.34,2802.25c-4.46-8.08-4.73-23.11,6.73-26.57c17.43-4.24,33.03,10.16,42.58,22.21
							c7.62,10.81,13.92,23.33,11.91,37.25c-0.69,7.37-8.04,14.68-15.68,13.72c-7.08-0.58-12.63-4.15-17.15-8.31
							c9.01,4.09,24.45,6.83,24.76-6.43c-0.44-16.29-11.8-31.81-23.67-42.45C1724.57,2778.19,1707.98,2776.99,1710.34,2802.25
							L1710.34,2802.25z"/>
						<path class="st7" d="M1816.88,2916.71c-3.66-9.66-1.98-26.25,11.15-28.54c19.83-2.21,34.9,15.42,44.28,30.51
							c7.07,13.01,12.49,27.8,8.53,42.99c-1.7,8.04-10.59,15.1-18.91,13.14c-7.77-1.47-13.58-6.12-18.2-11.28
							c23.24,14.09,34.96,2.94,27.33-22c-3.7-12.2-10.5-23.91-19.15-33.28C1836.3,2890.89,1817.04,2887.62,1816.88,2916.71
							L1816.88,2916.71z"/>
					</g>
					<path class="st7" d="M1333.93,2422.05c-56.67,81.67-63.31,196.72-50.86,292.65c4.16,28.38,10.75,58.49,19.22,85.8
						c2.09,8.08,9.65,27.31,12.44,35.44c7.97,18.57,16.09,38.35,26.66,55.65c18.62,31.41,43.42,59.02,72.13,81.9
						c121.52,97.12,327.43,126.06,465.5,49.68c87.02-49.71,21.73-127.71-31.99-174.25c-40.71-36.52-81.31-71.27-107.8-122.79
						c-18.74-35.84-23.26-79.47-9.54-117.9c11.85-40.21,42.38-78.15,86.57-85.85c25.9-5.11,53.06-0.39,77.04,10.03
						c25.39,12.24,52.17,30.42,78.45,36.89c28.17,7.61,37.42-4.52,41.48-34.78c2.19-15.5,1.26-31.46-0.12-46.97
						c-0.59-2.63-0.36-7.58-1.33-10.19c0,0-2.62-10.02-2.62-10.02l-4.03-9.85c-49-97.15-204.16-139.98-305.39-121.48
						c-64.06,10.14-123.67,42.34-165.33,92.32c-41.15,49.92-68.8,114.1-78.72,178.05c-16.98,100.18,28.26,198.9,99.34,268.64
						c23.95,23.94,50.49,46.1,79.22,64.43c1.81,1.01,2.4,3.38,1.28,5.12c-0.99,1.56-2.97,2.1-4.6,1.34
						c-31.96-15.12-61.25-34.72-88.21-57.54c-85.86-72.02-136.09-173.13-122.32-286.61c28.22-199.46,176.54-333.82,382.01-308.62
						c96.24,12.27,212.59,63.31,248.93,159.89c4.68,14.14,6.64,29.56,7.3,44.33c1.64,24.99,0.69,48.93-7.98,73.2
						c-25.73,67.2-94.58,47.98-142.86,21.23c-11.5-5.92-21.71-12.18-33.02-17.52c-15.41-6.52-34.24-10.17-49.66-6.68
						c-31.39,5.85-47.04,36.2-54.6,65.64c-13.68,59.09,28.45,107.22,69.19,147.23c25.04,24.44,52.83,45.68,76.6,72.78
						c40.3,44.39,72.65,112.89,31.3,168.25c-23.09,31.74-61.01,50.3-96.54,63.37c-151.75,51.2-337.44,20.53-462.89-80.27
						c-35.31-28.77-65.46-65.19-86.36-105.94c-13.13-25.15-23.15-54.7-31.72-81.74c-2.58-9.27-5.75-23.17-8.24-32.5
						c-19.43-90.9-17.9-187.98,12.81-276.2c11.82-33.33,28.2-65.74,52.37-92.06C1331.12,2412.03,1337.36,2417.53,1333.93,2422.05
						L1333.93,2422.05z"/>
				</g>
				<g>
					
						<linearGradient id="SVGID_00000128465844963668686790000015009209536043787429_" gradientUnits="userSpaceOnUse" x1="2395.1997" y1="2238.2957" x2="2395.1997" y2="3085.054">
						<stop  offset="0.0559" style="stop-color:#FF52B3"/>
						<stop  offset="0.4171" style="stop-color:#FF55B4"/>
						<stop  offset="0.6321" style="stop-color:#FF5DB8"/>
						<stop  offset="0.8087" style="stop-color:#FF6BBE"/>
						<stop  offset="0.9636" style="stop-color:#FF7FC6"/>
						<stop  offset="1" style="stop-color:#FF85C9"/>
					</linearGradient>
					<path style="fill:url(#SVGID_00000128465844963668686790000015009209536043787429_);" d="M2713.5,2419.12
						c0,0-157.68-188.97-375.54-180.55s-329.8,133.6-331,270.82c-1.2,137.22,99.9,72.22,144.44,48.15
						c44.53-24.07,120.36-27.68,144.44,69.81c24.07,97.5-81.85,173.32-131.2,220.27c-49.35,46.94-133.6,155.27,36.11,216.66
						s442.94-16.85,530.81-186.56C2819.68,2707.49,2783.31,2500.96,2713.5,2419.12z"/>
					<path class="st12" d="M2301.87,2311.12c151.95-0.19,291.26,118.83,306.21,312.75c14.95,193.92-173.2,304.79-173.2,304.79
						c244.97-204.23,124.55-536.02-105.35-562.5c-229.9-26.48-296.1,145.64-296.1,145.64c-5.91,26.02-7.55,49.95-7.1,70.4
						c-12.1-12.1-19.72-34.6-19.38-72.81c0.01-1.19,0.03-2.37,0.06-3.55c0.86-37.29,15.45-73.09,40.99-100.27
						c0.12-0.13,0.24-0.26,0.36-0.38C2148.75,2298.57,2301.87,2311.12,2301.87,2311.12z"/>
					<path class="st5" d="M2328.59,3084.98c-45.68-0.14-89.43-6.82-127.85-20.71c-169.71-61.39-85.46-169.71-36.11-216.66
						c49.35-46.94,155.27-122.77,131.2-220.27c-24.07-97.5-99.9-93.88-144.44-69.81c-21.34,11.54-55.66,32.42-85.5,36
						c17.92-91.15,81.57-167.34,161.33-167.88c102.31-0.69,167.31,62.07,194.63,163.26c27.32,101.19-27.32,192.5-110.32,281.61
						c-83.01,89.11-69.8,115.53-69.8,115.53C2245.6,3034.18,2288.95,3065.87,2328.59,3084.98z"/>
					<path class="st3" d="M2200.74,3064.27c-169.71-61.39-85.46-169.71-36.11-216.66c49.35-46.94,155.27-122.77,131.2-220.27
						c-24.07-97.5-99.9-93.88-144.44-69.81c-44.53,24.07-145.64,89.07-144.44-48.15c0.12-13.68,1.39-27.23,3.71-40.57
						c18.73,92.74,99.95,19.87,198.91,7.67c117.15-14.44,243.94,144.44,97.9,338.63c-94.93,126.22-15.58,160.91,51.6,169.72
						c47.01,6.17,94.83-0.02,139.42-16.16c298.84-108.19,226.12-534.96,226.12-534.96l0.08,0.07
						c62.23,89.85,90.15,283.06,6.87,443.91C2643.68,3047.42,2370.46,3125.66,2200.74,3064.27z"/>
					<path class="st6" d="M2164.63,2847.61c49.35-46.94,155.27-122.77,131.2-220.27c-24.07-97.5-99.9-93.88-144.44-69.81
						c-21.34,11.54-55.66,32.42-85.5,35.99c0,0,0,0,0,0c6.23-31.68,17.99-61.53,34.02-87.05c31.52-9.8,69.09-24.99,109.66-29.99
						c117.15-14.44,243.94,144.44,97.9,338.63c-42.35,56.31-47.74,92.08-41.26,110.19c-31.98,45.68-24.49,60.75-24.49,60.75
						c3.88,48.13,47.23,79.82,86.87,98.93c0,0,0,0,0,0c-5.17-0.02-10.32-0.14-15.44-0.33c-0.79-0.03-1.58-0.05-2.36-0.08
						c-4.64-0.19-9.24-0.47-13.82-0.81c-1.31-0.1-2.63-0.19-3.94-0.3c-4.17-0.34-8.32-0.75-12.44-1.21c-1.76-0.2-3.5-0.41-5.25-0.63
						c-3.73-0.46-7.44-0.97-11.11-1.54c-2.18-0.34-4.33-0.71-6.49-1.08c-3.27-0.56-6.53-1.13-9.76-1.77
						c-2.62-0.52-5.2-1.11-7.79-1.69c-2.76-0.61-5.54-1.21-8.26-1.88c-3.22-0.8-6.37-1.69-9.53-2.58c-2.08-0.58-4.19-1.12-6.25-1.74
						c-5.22-1.58-10.37-3.26-15.41-5.09C2031.03,3002.88,2115.28,2894.56,2164.63,2847.61z"/>
					<g>
						<path class="st6" d="M2393.94,2680.13c-2.29,10.92-9.35,17.74-16.41,17.97c-11.34,0.37-21.11-17.18-21.82-39.19
							s7.9-40.15,19.24-40.52c6.41-0.21,12.33,5.32,16.38,14.14C2391.33,2632.53,2398.76,2657.09,2393.94,2680.13z"/>
						<path class="st6" d="M2149.41,2475.61c-7.5,6.16-9.1,14.91-6.32,20.69c4.91,10.22,24.99,10.78,44.84,1.24
							c19.85-9.54,31.95-25.56,27.04-35.79c-3.06-6.36-11.98-8.98-23.06-7.75C2191.9,2454,2171.5,2457.48,2149.41,2475.61z"/>
						<path class="st6" d="M2294.71,2463.13c-11.21-3.23-20.94-1.37-25.54,4.81c-8.14,10.93,2.46,32.6,23.68,48.4
							c21.22,15.8,45.01,19.75,53.15,8.82c5.06-6.8,2.88-17.75-4.61-28.86C2341.39,2496.29,2324.88,2471.83,2294.71,2463.13z"/>
						<path class="st6" d="M2333.65,2802.25c3.7-8.97,1.49-17.4-3.58-21.34c-8.96-6.96-27.17,1.5-40.68,18.9
							c-13.51,17.39-17.19,37.13-8.23,44.09c5.57,4.33,14.73,2.69,24.1-3.35C2305.26,2840.55,2323.72,2826.3,2333.65,2802.25z"/>
						<path class="st6" d="M2200.26,2963.53c-9.51,8.3-19.81,11.09-26.66,6.96c-11-6.64-9.47-29.32,3.41-50.67
							c12.88-21.35,32.24-33.27,43.24-26.64c6.22,3.75,8.43,12.64,6.85,23.52C2227.1,2916.71,2221.44,2945.04,2200.26,2963.53z"/>
					</g>
					<g>
						<path class="st7" d="M2149.41,2475.61c-13.36,21.54,1.96,27.88,21.66,22.63c15.36-4.23,32.47-13.05,40.12-27.43
							c5.63-12.01-9.41-16.44-19.29-16.8c5.9-1.71,12.46-2.43,19.05,0.21c16.26,7.37,6.57,27.9-3.31,36.19
							c-14.76,12.92-34.14,21.51-54.49,17.22C2135.04,2502.93,2136.47,2485.04,2149.41,2475.61L2149.41,2475.61z"/>
						<path class="st7" d="M2294.71,2463.13c-30.85-3.08-29.6,17.89-12.76,36.3c9.03,10.17,20.73,18.57,33.3,23.74
							c25.64,10.63,38.97-0.78,26.14-26.88c4.92,5.45,9.17,12.08,9.89,20.38c1.14,8.9-7.1,17.43-15.7,18.37
							c-16.35,2.57-31.37-4.68-44.3-13.44c-14.9-11.39-31.92-28.99-27.65-49.59C2267.36,2458.49,2284.88,2458.4,2294.71,2463.13
							L2294.71,2463.13z"/>
						<path class="st7" d="M2391.33,2632.53c-14.3-20.92-26.3-9.47-29.45,10.68c-2.34,15.76-1.17,34.97,8.89,47.78
							c8.72,10,18.84-1.96,23.16-10.86c-0.82,6.09-2.81,12.38-7.89,17.35c-13.31,11.9-28.18-5.25-31.77-17.64
							c-5.86-18.72-5.89-39.92,6.25-56.8C2372.14,2608.35,2387.93,2616.89,2391.33,2632.53L2391.33,2632.53z"/>
						<path class="st7" d="M2333.65,2802.25c2.35-25.23-14.19-24.09-29.48-10.59c-11.86,10.63-23.23,26.17-23.66,42.45
							c0.32,13.26,15.75,10.52,24.76,6.43c-4.52,4.16-10.07,7.73-17.15,8.31c-7.63,0.94-15-6.34-15.68-13.72
							c-2.02-13.93,4.29-26.44,11.91-37.25c9.54-12.06,25.16-26.45,42.58-22.21C2338.37,2779.16,2338.11,2794.16,2333.65,2802.25
							L2333.65,2802.25z"/>
						<path class="st7" d="M2227.1,2916.71c-0.17-29.06-19.39-25.85-35.02-8.45c-8.66,9.37-15.45,21.08-19.15,33.28
							c-7.62,24.89,4.06,36.11,27.33,21.99c-4.62,5.16-10.43,9.81-18.2,11.28c-8.31,1.94-17.21-5.09-18.91-13.14
							c-3.97-15.19,1.46-29.98,8.53-42.99c9.37-15.1,24.45-32.72,44.28-30.51C2229.08,2890.47,2230.76,2907.04,2227.1,2916.71
							L2227.1,2916.71z"/>
					</g>
					<path class="st7" d="M2716.94,2416.18c69.44,79.66,84.06,200.27,75.49,302.22c-2.01,20.99-5.78,45.63-10.31,66.04
						c-2.37,9.37-5.84,23.17-8.24,32.5c-1.34,4.33-8.89,27.13-10.41,31.93c-4.71,12.61-9.93,25.03-15.16,37.45
						c-51.83,113.82-169.25,184.14-287.34,209.83c-88.2,19.14-182.07,18.71-268.05-11.26c-35.53-13.07-73.45-31.64-96.54-63.37
						c-41.33-55.27-9-123.93,31.3-168.25c23.76-27.1,51.56-48.35,76.6-72.78c40.72-39.99,82.88-88.16,69.19-147.23
						c-7.55-29.43-23.23-59.8-54.6-65.64c-18.98-4.15-42.07,1.78-59.52,11.64c-24.57,13.37-47.14,26.6-76.21,34.1
						c-72.49,18.21-100.41-38.97-98.51-102.41c0.29-11.93,1.33-23.27,2.67-35.13c1.32-12.19,6.31-25.69,11.17-36.92
						c43.34-87.89,150.37-133.65,243.11-145.73c109.09-15.03,227.77,22.86,297.89,110.17c72.77,91.59,109.69,220.6,69.81,333.59
						c-32.83,92.93-108.9,166.38-196.21,209.01c-4.22,1.81-7.28-4.12-3.32-6.46c28.73-18.33,55.27-40.49,79.22-64.43
						c71.07-69.75,116.33-168.47,99.34-268.65c-15.47-95.02-66.43-191.89-152.94-239.21c-115.19-63.39-278.27-39.07-371.25,53.56
						c-12.28,13.58-23.18,29.31-29.28,46.62c0,0-2.62,10.02-2.62,10.02c-1.07,5.3-1.36,10.41-1.81,16.01
						c-2.21,21.39-1.81,60.02,12.83,73.65c21.99,15.88,71.59-16.15,94.15-27.87c27.11-15.2,59.5-22.78,90.35-16.76
						c50.61,9.2,79.72,53.83,90.68,99.93c19.47,74.3-32.09,144.51-82.46,191.13c-24.48,23.86-52.1,44.91-74.17,69.84
						c-42.34,48.15-62.82,101.62,3.2,139.89c26.96,16.19,58.77,26.78,89.88,33.69c167.93,33.75,378.45-25.04,459.36-186.62
						c4.48-11.28,10.69-23.05,15.04-34.31c0,0,8.55-23.54,8.55-23.54c31.64-95.35,38.51-200.88,13.41-298.56
						c-8.74-32.52-21.22-64.48-41.15-91.8C2706.44,2417.65,2713.12,2411.94,2716.94,2416.18L2716.94,2416.18z"/>
				</g>
			</g>
			<g>
				<g>
					<g>
						<path class="st20" d="M3088.57,1315.93c-40.81,0-74.01-33.2-74.01-74.01c0-40.81,33.2-74.01,74.01-74.01
							c40.81,0,74.01,33.2,74.01,74.01C3162.59,1282.73,3129.39,1315.93,3088.57,1315.93z M3088.57,1182.75
							c-32.63,0-59.17,26.55-59.17,59.17c0,32.63,26.55,59.17,59.17,59.17c32.63,0,59.18-26.55,59.18-59.17
							C3147.75,1209.3,3121.21,1182.75,3088.57,1182.75z"/>
					</g>
					<g>
						<g class="st21">
							
								<ellipse transform="matrix(0.7331 -0.6801 0.6801 0.7331 -3.8712 2445.4951)" class="st16" cx="3113.75" cy="1227.68" rx="17.15" ry="28.5"/>
						</g>
						<g class="st21">
							
								<ellipse transform="matrix(0.7071 -0.7071 0.7071 0.7071 52.94 2530.8801)" class="st16" cx="3081.51" cy="1201.54" rx="7.83" ry="7.83"/>
						</g>
					</g>
				</g>
				<g>
					<g>
						<path class="st20" d="M2962.96,1149.96c-41.83,0-75.85-34.03-75.85-75.85s34.03-75.86,75.85-75.86s75.86,34.03,75.86,75.86
							S3004.78,1149.96,2962.96,1149.96z M2962.96,1013.08c-33.65,0-61.02,27.38-61.02,61.02c0,33.65,27.37,61.02,61.02,61.02
							s61.02-27.37,61.02-61.02C3023.98,1040.46,2996.6,1013.08,2962.96,1013.08z"/>
					</g>
					<g>
						<g class="st21">
							
								<ellipse transform="matrix(0.7331 -0.6801 0.6801 0.7331 77.2028 2313.8892)" class="st16" cx="2986.62" cy="1058.58" rx="17.15" ry="28.5"/>
						</g>
						<g class="st21">
							
								<ellipse transform="matrix(0.9732 -0.2298 0.2298 0.9732 -158.1739 706.4005)" class="st16" cx="2954.38" cy="1032.44" rx="7.83" ry="7.83"/>
						</g>
					</g>
				</g>
				<g>
					<g>
						<path class="st20" d="M3021.98,962.29c-26.62,0-48.28-21.66-48.28-48.28s21.66-48.28,48.28-48.28s48.28,21.66,48.28,48.28
							S3048.6,962.29,3021.98,962.29z M3021.98,880.56c-18.44,0-33.45,15-33.45,33.45c0,18.44,15,33.44,33.45,33.44
							s33.45-15,33.45-33.44C3055.43,895.57,3040.43,880.56,3021.98,880.56z"/>
					</g>
					<g class="st21">
						<circle class="st16" cx="3031.4" cy="904.55" r="12.86"/>
					</g>
				</g>
				<g>
					<g>
						<path class="st20" d="M3130.95,1044.74c-21.55,0-39.08-17.53-39.08-39.08c0-21.55,17.53-39.08,39.08-39.08
							s39.08,17.53,39.08,39.08C3170.03,1027.21,3152.5,1044.74,3130.95,1044.74z M3130.95,981.42c-13.37,0-24.24,10.87-24.24,24.24
							c0,13.37,10.87,24.24,24.24,24.24s24.24-10.87,24.24-24.24C3155.2,992.29,3144.32,981.42,3130.95,981.42z"/>
					</g>
					<g class="st21">
						<circle class="st16" cx="3137.01" cy="1000.65" r="8.32"/>
					</g>
				</g>
				<g>
					<g>
						<g>
							<path class="st20" d="M2931.18,1313.46c-18.54,0-33.62-15.08-33.62-33.62s15.08-33.62,33.62-33.62s33.62,15.08,33.62,33.62
								S2949.71,1313.46,2931.18,1313.46z M2931.18,1256.11c-13.09,0-23.73,10.65-23.73,23.73c0,13.09,10.65,23.73,23.73,23.73
								s23.73-10.64,23.73-23.73C2954.91,1266.76,2944.26,1256.11,2931.18,1256.11z"/>
						</g>
					</g>
					<g class="st21">
						
							<ellipse transform="matrix(0.9732 -0.2298 0.2298 0.9732 -213.7492 708.077)" class="st16" cx="2933.82" cy="1271.94" rx="9.84" ry="9.84"/>
					</g>
				</g>
				<g>
					<g>
						<path class="st20" d="M2861.56,1003.15c-16.07,0-29.15-13.08-29.15-29.15c0-16.07,13.08-29.15,29.15-29.15
							c16.07,0,29.15,13.08,29.15,29.15C2890.7,990.08,2877.63,1003.15,2861.56,1003.15z M2861.56,959.69
							c-7.89,0-14.31,6.42-14.31,14.31c0,7.89,6.42,14.31,14.31,14.31s14.31-6.42,14.31-14.31
							C2875.87,966.11,2869.45,959.69,2861.56,959.69z"/>
					</g>
					<g class="st21">
						
							<ellipse transform="matrix(0.9732 -0.2298 0.2298 0.9732 -145.7896 683.7827)" class="st16" cx="2863.45" cy="967.95" rx="8.11" ry="8.11"/>
					</g>
				</g>
			</g>
			<g>
				<g>
					<g>
						<path class="st20" d="M963.8,1295.14c-38.26,0-69.39-31.13-69.39-69.39c0-38.26,31.13-69.39,69.39-69.39
							c38.26,0,69.39,31.13,69.39,69.39C1033.19,1264.02,1002.07,1295.14,963.8,1295.14z M963.8,1170.28
							c-30.59,0-55.48,24.89-55.48,55.48s24.89,55.48,55.48,55.48s55.48-24.89,55.48-55.48S994.4,1170.28,963.8,1170.28z"/>
					</g>
					<g>
						<g class="st21">
							
								<ellipse transform="matrix(0.6801 -0.7331 0.7331 0.6801 -588.0547 1077.0345)" class="st16" cx="940.2" cy="1212.4" rx="26.72" ry="16.08"/>
						</g>
						<g class="st21">
							<circle class="st16" cx="970.43" cy="1187.89" r="7.35"/>
						</g>
					</g>
				</g>
				<g>
					<g>
						<path class="st20" d="M1081.58,1139.53c-39.21,0-71.12-31.9-71.12-71.12c0-39.21,31.9-71.12,71.12-71.12
							s71.12,31.9,71.12,71.12C1152.7,1107.63,1120.79,1139.53,1081.58,1139.53z M1081.58,1011.2c-31.55,0-57.21,25.66-57.21,57.21
							s25.66,57.21,57.21,57.21c31.55,0,57.21-25.66,57.21-57.21S1113.13,1011.2,1081.58,1011.2z"/>
					</g>
					<g>
						<g class="st21">
							
								<ellipse transform="matrix(0.6801 -0.7331 0.7331 0.6801 -433.7094 1113.7069)" class="st16" cx="1059.4" cy="1053.86" rx="26.72" ry="16.08"/>
						</g>
						<g class="st21">
							<circle class="st16" cx="1089.62" cy="1029.35" r="7.35"/>
						</g>
					</g>
				</g>
				<g>
					<g>
						<path class="st20" d="M1026.24,963.58c-24.96,0-45.27-20.31-45.27-45.27c0-24.96,20.31-45.27,45.27-45.27
							c24.96,0,45.26,20.31,45.26,45.27C1071.5,943.27,1051.2,963.58,1026.24,963.58z M1026.24,886.95
							c-17.29,0-31.36,14.07-31.36,31.36c0,17.29,14.07,31.36,31.36,31.36c17.29,0,31.36-14.07,31.36-31.36
							C1057.6,901.02,1043.53,886.95,1026.24,886.95z"/>
					</g>
					<g class="st21">
						
							<ellipse transform="matrix(0.2298 -0.9732 0.9732 0.2298 -101.4552 1690.6931)" class="st16" cx="1017.41" cy="909.44" rx="12.06" ry="12.06"/>
					</g>
				</g>
				<g>
					<g>
						<path class="st20" d="M924.07,1040.88c-20.2,0-36.64-16.44-36.64-36.64c0-20.2,16.44-36.64,36.64-36.64
							c20.2,0,36.64,16.44,36.64,36.64C960.71,1024.45,944.28,1040.88,924.07,1040.88z M924.07,981.52
							c-12.53,0-22.73,10.2-22.73,22.73c0,12.53,10.2,22.73,22.73,22.73c12.53,0,22.73-10.2,22.73-22.73
							C946.8,991.71,936.61,981.52,924.07,981.52z"/>
					</g>
					<g class="st21">
						
							<ellipse transform="matrix(0.229 -0.9734 0.9734 0.229 -264.8927 1664.6613)" class="st16" cx="918.4" cy="999.55" rx="7.8" ry="7.8"/>
					</g>
				</g>
				<g>
					<g>
						<g>
							<path class="st20" d="M1111.38,1292.83c-17.38,0-31.52-14.14-31.52-31.52c0-17.38,14.14-31.52,31.52-31.52
								s31.52,14.14,31.52,31.52C1142.9,1278.69,1128.76,1292.83,1111.38,1292.83z M1111.38,1239.06
								c-12.27,0-22.25,9.98-22.25,22.25c0,12.27,9.98,22.25,22.25,22.25s22.25-9.98,22.25-22.25
								C1133.63,1249.04,1123.65,1239.06,1111.38,1239.06z"/>
						</g>
					</g>
					<g class="st21">
						<circle class="st16" cx="1108.9" cy="1253.9" r="9.22"/>
					</g>
				</g>
				<g>
					<g>
						<path class="st20" d="M1176.65,1001.89c-15.07,0-27.33-12.26-27.33-27.33c0-15.07,12.26-27.33,27.33-27.33
							c15.07,0,27.33,12.26,27.33,27.33C1203.98,989.63,1191.72,1001.89,1176.65,1001.89z M1176.65,961.14
							c-7.4,0-13.42,6.02-13.42,13.42s6.02,13.42,13.42,13.42s13.42-6.02,13.42-13.42S1184.05,961.14,1176.65,961.14z"/>
					</g>
					<g class="st21">
						
							<ellipse transform="matrix(0.2298 -0.9732 0.9732 0.2298 -38.0238 1889.7291)" class="st16" cx="1174.88" cy="968.89" rx="7.6" ry="7.6"/>
					</g>
				</g>
			</g>
		</g>
	</g>
</g>
</svg>
