<?xml version="1.0" encoding="utf-8"?>
<!-- Generator: Adobe Illustrator 25.4.1, SVG Export Plug-In . SVG Version: 6.00 Build 0)  -->
<svg version="1.1" id="Layer_1" xmlns="http://www.w3.org/2000/svg" xmlns:xlink="http://www.w3.org/1999/xlink" x="0px" y="0px"
	 viewBox="0 0 4000 4000" style="enable-background:new 0 0 4000 4000;" xml:space="preserve">
<style type="text/css">
	.st0{fill:#EBFF9D;}
	.st1{fill:#F72A2B;}
	.st2{fill:#C9F0F3;}
	.st3{opacity:0.3;}
	.st4{fill:#380175;}
	.st5{opacity:0.6;}
	.st6{fill:#FFFFFF;}
	.st7{fill:#822C44;}
</style>
<g>
	<g>
		<rect class="st0" width="4000" height="4000"/>
	</g>
	<g>
		<g>
			<path class="st1" d="M1421.49,2379.58L1264,2531.8c-368.43,261.27-772.3-42.42-561.31-382.47c4.25-6.83,8.71-13.66,13.44-20.49
				c17.42,106.68,55.22,151.42,103.19,165.24c35.6,10.27,74.31,2.1,103.56-20.65c87.7-68.23,209.38-80.12,313.59-21.88
				c17.8,9.89,35.06,21.88,51.56,35.97L1421.49,2379.58z"/>
		</g>
		<g>
			<path class="st1" d="M1235.98,2231.01l-46.03-2.2l-157.28-7.53c-182.55-54.79-175.4-410.54,3.82-478.66
				c-1.77,30.65,1.24,57.75,8.28,81.84c17.42,60.28,59.95,101.79,115.61,133.35L1235.98,2231.01z"/>
		</g>
		<g>
			<path class="st1" d="M3108.7,2032.92c-10.27,87.05-53.61,165.02-131.36,188.36l-170.61,19.79l-44.84,5.22l87.75-288.48
				c25.06-14.2,47.43-30.43,66.03-49.41c39.36-40.17,62.05-92.92,57.86-165.77C3076.38,1781.71,3122.57,1915.6,3108.7,2032.92z"/>
		</g>
		<g>
			<path class="st1" d="M3359.16,2395.5c-46.24,212.72-339.45,330.36-613.14,136.31c-35.97-73.4-94.26-119.21-166.42-147.81
				c-3.17-1.24-6.35-2.47-9.52-3.66l151.9-92.81c39.36-33.61,83.07-55.17,127.7-65.65c26.19-6.18,52.69-8.55,78.83-7.31
				c57.32,2.8,112.65,23.12,158.62,58.88c29.25,22.74,67.97,30.92,103.56,20.65c43.61-12.58,78.77-50.65,97.92-137.54
				c1.94-8.71,3.66-17.96,5.27-27.69c4.3,6.18,8.39,12.42,12.26,18.6v0.05C3361.36,2235.58,3375.29,2321.29,3359.16,2395.5z"/>
		</g>
		<g>
			<path class="st2" d="M2977.34,2221.28l-170.61,19.79l-10.75-31.35l27.37-62.27c183.47-15.06,270.25-282.08,150.18-404.84
				C3152.73,1810.74,3159.89,2166.49,2977.34,2221.28z"/>
		</g>
		<g>
			<path class="st2" d="M2746.02,2531.8c-35.97-73.4-94.26-119.21-166.42-147.81c9.89-7.1,20.97-14.14,33.28-21.24
				c84.8-9.03,182.5,59.63,279.98,106.2c75.98,36.24,162.76,45.38,243.36,21.13c152.6-45.87,223.63-185.02,169.91-342.57
				C3519.77,2488.3,3115.09,2793.5,2746.02,2531.8z"/>
		</g>
		<g>
			<path class="st2" d="M1034.6,2221.28l170.61,19.79l10.75-31.35l-27.37-62.27c-183.47-15.06-270.25-282.08-150.18-404.84
				C859.21,1810.74,852.05,2166.49,1034.6,2221.28z"/>
		</g>
		<g>
			<path class="st2" d="M1265.92,2531.8c35.97-73.4,94.26-119.21,166.42-147.81c-9.89-7.1-20.97-14.14-33.28-21.24
				c-84.8-9.03-182.5,59.63-279.98,106.2c-75.98,36.24-162.76,45.38-243.36,21.13c-152.6-45.87-223.63-185.02-169.91-342.57
				C492.17,2488.3,896.85,2793.5,1265.92,2531.8z"/>
		</g>
		<g class="st3">
			<path class="st4" d="M3108.7,2032.92c-10.27,87.05-53.61,165.02-131.36,188.36l-170.61,19.79l-44.84,5.22l87.75-288.48
				c25.06-14.2,47.43-30.43,66.03-49.41C2911.04,2161.16,2990.51,2156.33,3108.7,2032.92z"/>
		</g>
		<g class="st5">
			<path class="st6" d="M3196.99,2353.93c-50.92,9.62-102.92-6.61-142.38-40.11c-44.25-37.53-102.43-67.11-167.76-92.54l41.67-6.72
				c57.32,2.8,112.65,23.12,158.62,58.88c29.25,22.74,67.97,30.92,103.56,20.65c43.61-12.58,78.77-50.65,97.92-137.54
				C3328.99,2273.17,3274.52,2339.25,3196.99,2353.93z"/>
		</g>
		<g>
			<path class="st1" d="M3039.12,2854.59c-40.81,255.57-437.53,296.92-551.68,33.77l-0.16-0.38c-5.32-12.26-10-25.16-13.93-38.71
				c-0.97-2.9-1.77-5.86-2.58-8.87c-8.01,58.34-8.44,111.79-1.51,160.67c4.46,31.78,12.04,61.57,22.64,89.42
				c12.9,34.2,30.43,65.49,52.32,94.04c20.76,21.78,35.33,43.02,44.09,62.96c0.22,0.48,0.43,0.97,0.65,1.51c0,0,0,0,0,0.05
				c7.26,17.05,10.22,33.07,9.03,47.69v0.05c-3.66,47.53-50.6,79.53-133.3,78.77c-84.2-0.75-163.89-36.94-223.36-96.52
				c-37.42-37.48-69.69-79.15-94.69-126.58c-7.26-13.6-13.87-27.69-19.84-42.32v-0.05c-5.22-12.69-9.89-25.81-14.09-39.36
				l-0.05-0.05c-12.42-40.01-20.27-83.61-22.85-131.52c-0.32-5.7-1.02-11.4-2.26-16.94c-3.87-19.3-12.85-37.42-26.89-51.4
				c-0.32-0.27-0.59-0.54-0.86-0.81c-30.43-29.63-79.69-29.63-110.12,0c-0.27,0.27-0.54,0.54-0.86,0.81
				c-1.13,1.13-2.26,2.31-3.33,3.5c-4.36,4.79-8.12,10.05-11.34,15.59c-5.59,9.52-9.57,20-11.94,30.86
				c-1.34,6.02-2.2,12.21-2.53,18.39c-7.96,147.6-66.3,254.6-151.53,339.88c-59.47,59.58-139.16,95.76-223.36,96.52
				c-109.05,0.97-155.93-54.9-123.51-128.4c0.05,0,0.05-0.05,0.05-0.05c8.77-19.84,23.28-40.97,43.93-62.59
				c67.27-87.7,93.08-201.53,73.45-344.13c-0.7,2.53-1.4,5-2.1,7.47v0.16c-15.06,51.62-39.84,93.67-70.92,126.58
				c-153.51,162.82-459.79,102.86-495.33-120.02c-6.83-42.69,31.45-78.29,74.1-71.25c61.84,10.22,113.51-0.81,150.13-43.34
				c19.79-22.96,31.24-51.94,34.3-82.05c12.91-127.27,71.51-226.16,223.74-266.81c1.18-0.32,2.42-0.65,3.66-0.97
				c-368.33-147.87-352.57-502.91-189.97-631.8c-60.71-65.17-89.8-153.41-91.41-261.7c0-294.72,213.2-659.65,574.86-821.99
				c162.39-72.91,347.57-72.91,509.96,0c361.66,162.33,574.86,527.27,574.86,821.99c-1.61,108.29-30.7,196.53-91.41,261.7
				c162.6,128.89,178.36,483.93-189.97,631.8c154.97,40.06,214.38,139.48,227.4,267.78c3.07,30.11,14.52,59.09,34.31,82.05
				c17.8,20.65,39.09,33.88,63.39,40.81c25.76,7.42,54.9,7.8,86.73,2.53c9.19-1.51,18.17-1.08,26.62,1.02
				C3022.07,2792,3044.49,2821.09,3039.12,2854.59z"/>
		</g>
		<g class="st5">
			<path class="st6" d="M2429.58,2438.42h128.83c107.3,45.08,182.47,150.12,245.08,278.57c-20.47-157.64-93.02-273.29-244.56-325.26
				L2429.58,2438.42z"/>
		</g>
		<g class="st5">
			<path class="st6" d="M1392.35,2419.37c-11.02,2.85-21.62,6.02-31.67,9.46c7.47-4.52,15.32-8.76,23.61-12.74
				C1386.92,2417.17,1389.61,2418.29,1392.35,2419.37z"/>
		</g>
		<g class="st5">
			<path class="st6" d="M2546.74,2390.17c7.96-3.17,15.75-6.51,23.34-9.84c-6.4,3.66-12.96,7.26-19.68,10.81
				C2549.22,2390.82,2547.98,2390.5,2546.74,2390.17z"/>
		</g>
		<g class="st5">
			<path class="st6" d="M2570.08,2380.33c284.07-163.95,258.8-474.15,109.15-592.76c60.71-65.17,89.8-153.41,91.41-261.7
				c0-294.72-213.2-659.65-574.86-821.99c-154.43-69.31-329.45-72.75-485.87-10.16c13.07-6.67,26.35-12.96,39.84-19.03
				c162.39-72.91,347.57-72.91,509.96,0c361.66,162.33,574.86,527.27,574.86,821.99c-1.61,108.29-30.7,196.53-91.41,261.7
				C2902.27,1884.46,2914.58,2227.09,2570.08,2380.33z"/>
		</g>
		<g>
			<path class="st2" d="M2597.99,3296.74v0.05c-3.66,47.53-50.6,79.53-133.3,78.77c-84.2-0.75-163.89-36.94-223.36-96.52
				c-85.23-85.28-143.57-192.28-151.52-339.88c-0.32-5.7-1.02-11.4-2.26-16.94c0.11-1.08,0.11-1.67,0.11-1.67
				c-3.98-69.63-13.5-134.75-48.93-178.25c95.28,40.49,167.55,113.03,203.52,236.05c2.15,7.21,3.76,14.52,5.38,21.83
				c51.78,229.49,287.19,359.19,340.69,247.29c0.11-0.11,0.16-0.27,0.22-0.38c0,0,0.16,0.65,0.43,1.88c0,0,0,0,0,0.05
				C2590.24,3254.69,2594.17,3272.44,2597.99,3296.74z"/>
		</g>
		<g>
			<path class="st2" d="M1971.13,2742.31c-35.43,43.5-44.9,108.62-48.93,178.25c0,0,0,0.05,0,0.21c-1.34,6.02-2.2,12.21-2.53,18.39
				c-7.96,147.6-66.3,254.6-151.53,339.88c-59.47,59.58-139.16,95.76-223.36,96.52c-109.05,0.97-155.93-54.9-123.51-128.4
				c0.05,0,0.05-0.05,0.05-0.05c0.05,0,0.05,0,0.05,0c53.13,112.59,289.02-17.15,340.85-246.91c1.67-7.31,3.28-14.63,5.38-21.83
				C1803.58,2855.34,1875.9,2782.8,1971.13,2742.31z"/>
		</g>
		<g>
			<path class="st2" d="M3039.12,2854.59c-40.81,255.57-437.53,296.92-551.68,33.77l-0.16-0.38l-16.13-47.59
				c-16.08-121.14-58.82-222.5-151.47-286.76c246-14.79,262.13,168.03,377.74,309.18c138.14,150.99,319.88,21.56,294.23-78.45
				C3022.07,2792,3044.49,2821.09,3039.12,2854.59z"/>
		</g>
		<g>
			<path class="st2" d="M966.26,2854.59c40.81,255.57,437.53,296.92,551.68,33.77l0.16-0.38l16.13-47.59
				c16.08-121.14,58.82-222.5,151.47-286.76c-246-14.79-262.13,168.03-377.74,309.18c-138.14,150.99-319.88,21.56-294.23-78.45
				C983.3,2792,960.88,2821.09,966.26,2854.59z"/>
		</g>
		<g>
			<path class="st4" d="M2467.38,3399.79c-0.97,0-1.93-0.01-2.91-0.01c-89.03-0.8-174.37-37.59-240.27-103.61
				c-99.14-99.2-151.01-215.55-158.56-355.67c-1.13-20.57-8.8-39.04-21.63-52.07c-0.46-0.42-0.9-0.84-1.33-1.27
				c-20.82-20.27-55.08-20.27-76.13,0.23c-0.3,0.3-0.68,0.66-1.11,1.06c-12.82,13.03-20.48,31.49-21.62,52.08
				c-7.55,140.09-59.42,256.44-158.57,355.66c-65.89,66.01-151.22,102.81-240.26,103.6c-0.97,0.01-1.94,0.01-2.91,0.01
				c-74.2,0-127.8-25.66-147.29-70.64c-19.92-45.95-0.96-104.34,52.02-160.34c46.77-61.45,71.46-137.18,73.81-226
				c-23.79,37.86-54.73,69.73-91.91,94.28c-58.08,38.36-130.01,57.42-202.44,53.66c-121.83-6.31-255.59-80.61-279.81-232.34
				c-4.39-27.45,4.46-54.5,24.28-74.22c20.26-20.17,49.31-29.4,77.65-24.71c57.43,9.49,99.25-2.04,127.86-35.25
				c16.01-18.57,25.88-42.33,28.56-68.71c13.53-133.38,74.39-221.82,185.45-268.7c-192.25-97.99-241.74-244.24-253.77-327.07
				c-16.79-115.59,20.53-231.87,95.8-303.78c-52.59-65.95-80.01-152.91-81.59-258.92c0-154.67,55.35-323.02,155.84-474.38
				c108.62-163.6,258.46-291.56,433.3-370.04c168.33-75.59,361.43-75.59,529.78,0c174.84,78.48,324.67,206.44,433.3,370.04
				c100.5,151.37,155.84,319.71,155.84,474.02c-1.58,106.34-29.01,193.33-81.59,259.28c75.27,71.91,112.59,188.18,95.8,303.78
				c-12.03,82.83-61.51,229.08-253.76,327.07c111.06,46.88,171.92,135.32,185.45,268.71c2.69,26.38,12.56,50.14,28.56,68.7
				c28.6,33.22,70.43,44.73,127.86,35.26c28.37-4.69,57.4,4.56,77.66,24.71c19.82,19.72,28.67,46.78,24.28,74.23
				c-24.22,151.73-157.99,226.03-279.81,232.34c-72.45,3.82-144.37-15.3-202.45-53.66c-37.18-24.56-68.12-56.42-91.91-94.28
				c2.36,88.82,27.05,164.55,73.81,225.99c52.98,56,71.94,114.39,52.02,160.34C2595.17,3374.13,2541.57,3399.79,2467.38,3399.79z
				 M1538.69,2816.21c0.51,0,1.02,0.02,1.53,0.05c11.49,0.72,20.89,9.44,22.46,20.85c20.15,146.37-6.17,268.22-78.22,362.16
				c-0.53,0.69-1.09,1.34-1.69,1.97c-39.03,40.93-55.32,81.56-43.56,108.67c11.47,26.46,50.75,41.91,105.37,41.48
				c76.25-0.68,149.58-32.44,206.45-89.41c90.35-90.41,137.61-196.42,144.49-324.09c1.8-32.8,14.67-62.69,36.22-84.17
				c0.34-0.34,0.68-0.66,1.04-0.98c40-38.65,104.32-38.56,143.91-0.03c0,0.01,0.01,0.01,0.01,0.01c0,0-0.14-0.11-0.32-0.26
				c0.47,0.41,0.93,0.83,1.37,1.26c21.56,21.5,34.42,51.39,36.22,84.16c6.88,127.7,54.15,233.71,144.48,324.1
				c56.89,56.99,130.21,88.74,206.46,89.42c54.47,0.32,93.9-15.02,105.37-41.48c11.75-27.11-4.53-67.74-43.56-108.67
				c-0.6-0.63-1.16-1.28-1.69-1.97c-72.05-93.94-98.36-215.78-78.22-362.16c1.57-11.41,10.96-20.13,22.46-20.85
				c11.54-0.66,21.9,6.76,24.89,17.89c43.54,162.46,181.63,213.8,286.56,208.29c102.36-5.3,214.57-66.62,234.53-191.64c0,0,0,0,0,0
				c2.6-16.3-5.54-27.23-10.63-32.29c-9.26-9.21-22.6-13.44-35.63-11.27c-74.39,12.3-132.44-4.99-172.4-51.42
				c-22.5-26.1-36.35-59.09-40.04-95.39c-13.69-135-80.22-213.41-209.38-246.8c-10.12-2.62-17.42-11.44-18.09-21.87
				c-0.67-10.43,5.43-20.12,15.13-24.01c217.28-87.23,269.26-234.77,280.9-314.95c15.71-108.18-22.34-216.3-96.95-275.44
				c-5.29-4.19-8.59-10.41-9.1-17.14s1.82-13.37,6.42-18.32c54.79-58.83,83.37-141.45,84.92-245.57
				c0-272.11-192.55-634.37-560.58-799.55c-155.75-69.93-334.4-69.93-490.14,0c-368.02,165.18-560.58,527.44-560.58,799.91
				c1.55,103.75,30.12,186.38,84.92,245.21c4.6,4.94,6.93,11.58,6.42,18.32s-3.8,12.95-9.1,17.14
				c-74.61,59.14-112.67,167.26-96.95,275.44c11.65,80.18,63.63,227.71,280.91,314.94c9.7,3.9,15.81,13.58,15.13,24.01
				c-0.67,10.43-7.97,19.25-18.09,21.87c-129.16,33.38-195.69,111.81-209.38,246.79c-3.69,36.3-17.54,69.29-40.04,95.41
				c-39.97,46.42-97.98,63.74-172.41,51.41c-13.05-2.17-26.37,2.06-35.63,11.27c-5.09,5.06-13.23,15.99-10.62,32.28
				c19.96,125.03,132.17,186.35,234.53,191.65c104.93,5.54,243.01-45.84,286.55-208.29
				C1518.18,2823.52,1527.81,2816.21,1538.69,2816.21z M1932.58,2852.91c-0.04,0.03-0.08,0.07-0.12,0.11
				C1932.5,2852.99,1932.54,2852.95,1932.58,2852.91z M1933.32,2852.26c-0.01,0.01-0.03,0.02-0.04,0.03
				C1933.29,2852.28,1933.31,2852.27,1933.32,2852.26z M2076.14,2852.26c0.01,0,0.01,0.01,0.02,0.02
				C2076.15,2852.27,2076.15,2852.26,2076.14,2852.26z"/>
		</g>
		<g>
			<path class="st4" d="M1463.63,2367.14c31.56,12.92,62.77,26.93,93.07,42.83c30.26,15.91,59.66,33.71,86.79,54.47
				c3.55,2.71,4.22,7.79,1.51,11.34c-2.45,3.2-6.81,4.06-10.25,2.21l-0.04-0.02c-29.03-15.57-59.57-27.91-90.71-38.34
				c-31.16-10.42-62.97-18.93-95.07-26.38c-13.06-3.03-21.19-16.07-18.16-29.13c3.03-13.06,16.07-21.19,29.13-18.16
				c1.24,0.29,2.44,0.67,3.59,1.13L1463.63,2367.14z"/>
		</g>
		<g>
			<path class="st4" d="M2560.95,2413.24c-32.1,7.45-63.91,15.97-95.07,26.38c-31.14,10.44-61.68,22.77-90.71,38.34l-0.04,0.02
				c-3.94,2.11-8.84,0.63-10.95-3.3c-1.9-3.55-0.89-7.88,2.21-10.25c27.12-20.75,56.52-38.56,86.79-54.47
				c30.3-15.9,61.51-29.91,93.07-42.83l0.03-0.01c12.41-5.08,26.58,0.86,31.66,13.27c5.08,12.41-0.86,26.58-13.27,31.66
				C2563.48,2412.55,2562.15,2412.96,2560.95,2413.24z"/>
		</g>
		<g>
			<path class="st4" d="M2324.28,2547.03c24.26,15.15,46.67,33.71,66.24,55.08c19.6,21.35,36.34,45.41,50.19,70.96
				c27.77,51.24,44.12,107.66,54.43,164.17c2.4,13.16-6.32,25.78-19.48,28.18c-13.16,2.4-25.78-6.32-28.18-19.48
				c-0.14-0.76-0.24-1.58-0.31-2.34c-4.54-53.77-14.64-107.15-35.49-156.46c-10.41-24.6-23.56-48.07-39.72-69.5
				c-16.13-21.44-35.29-40.78-56.88-57.35c-3.54-2.71-4.2-7.78-1.49-11.32C2316.15,2545.64,2320.8,2544.87,2324.28,2547.03z"/>
		</g>
		<g>
			<path class="st4" d="M1695.75,2560.28c-21.59,16.57-40.75,35.91-56.88,57.35c-16.16,21.43-29.3,44.9-39.72,69.5
				c-20.85,49.31-30.95,102.68-35.49,156.46c-1.11,13.33-12.82,23.24-26.15,22.13c-13.33-1.11-23.24-12.82-22.13-26.16
				c0.06-0.77,0.18-1.59,0.31-2.34c10.31-56.51,26.66-112.92,54.43-164.17c13.85-25.55,30.59-49.61,50.19-70.96
				c19.57-21.37,41.98-39.93,66.24-55.08c3.78-2.36,8.76-1.21,11.13,2.57C1699.9,2553.15,1698.99,2557.78,1695.75,2560.28z"/>
		</g>
		<g>
			<path class="st4" d="M1583.78,2683.78c-14.84-8.33-31.2-11.27-47.42-5.54c-16.15,5.54-31.05,19.51-39.56,37.12
				c-8.51,17.51-10.91,38.98-2.6,57.67c4.08,9.3,10.86,17.66,19.45,24.15c8.58,6.54,18.75,11.25,29.41,14.71
				c-11.08-1.5-22.23-4.3-32.63-9.58c-10.37-5.23-19.87-13.13-26.76-23.29c-6.94-10.11-11.18-22.21-12.63-34.6
				c-1.48-12.42-0.33-25.14,3.01-37.33c6.76-24.22,22.22-47.26,46.34-61.44c11.97-7.02,26.07-11.38,40.42-12.26
				c14.38-0.94,28.7,1.47,41.88,5.86L1583.78,2683.78z"/>
		</g>
		<g>
			<path class="st4" d="M1509.45,2910.74c-7.71-5.4-15.72-10.26-24.06-14.09c-8.34-3.68-16.98-6.31-25.67-7.45
				c-8.68-1.14-17.41-0.74-25.67,1.55c-8.27,2.26-15.87,6.7-22.25,12.82c-12.98,12.21-18.98,32.32-16.54,52.42
				c2.3,20.29,12.53,39.97,26.11,56.84c-16.39-14.08-30.96-31.95-37.93-54.25c-3.45-11.07-4.89-23.13-3.49-35.31
				c1.35-12.15,5.63-24.43,13.1-34.99c7.36-10.57,17.57-19.57,29.38-25.46c11.79-5.95,24.85-9.11,37.79-9.92
				c12.97-0.82,25.83,0.59,38.12,3.43c12.24,2.97,23.9,7.31,35.14,12.39L1509.45,2910.74z"/>
		</g>
		<g class="st3">
			<path class="st4" d="M1593.24,2661.51c-102.01-43.33-168.62,125.35-50.17,150.37"/>
		</g>
		<g class="st3">
			<path class="st4" d="M1421.49,3012.73l-0.11,0.11l-0.05-0.05C1421.38,3012.83,1421.44,3012.78,1421.49,3012.73z"/>
		</g>
		<g>
			<path class="st4" d="M1187.88,3059.53c3.68-9.67,7.51-19.25,12.6-28.5c2.32-4.66,5.29-9.16,8.03-13.64
				c3.12-4.39,6.11-8.76,9.71-12.85c6.99-8.23,15.2-15.77,24.76-21.56c9.52-5.79,20.43-9.69,31.56-10.75
				c22.49-2.22,43.88,7.79,57.22,22.79c13.7,14.96,20.65,34.33,21.21,53.1c-4.1-18.36-14.4-34.81-28.46-45.16
				c-13.88-10.57-31.67-14.09-46.26-9.55c-14.76,4.44-26.09,15.93-33.79,29.9c-2.03,3.42-3.62,7.22-5.31,10.88
				c-1.4,3.91-3,7.62-4.09,11.7c-2.55,7.87-4.12,16.29-5.59,24.62L1187.88,3059.53z"/>
		</g>
		<g>
			<path class="st4" d="M1031.97,2966.54c15.49-4.92,31.39-7.88,47.6-8.31c16.09-0.33,32.95,1.7,48.23,9.62
				c7.54,4.04,14.42,9.84,19.22,16.96c4.84,7.13,7.25,15.34,8.01,23.17c1.43,15.85-2.9,30.42-8.22,43.93
				c2.39-14.31,3.15-29.23-1.01-42.09c-2.06-6.35-5.31-11.99-9.73-16.11c-4.43-4.12-9.77-6.88-15.57-8.52
				c-11.77-3.11-24.94-2.03-37.52,1.06c-12.63,3.14-24.89,8.35-36.1,14.85L1031.97,2966.54z"/>
		</g>
		<g>
			<path class="st4" d="M1923.76,2896.7c-10.83-3.05-23.39-1.97-33.82,4.72c-10.55,6.41-18.29,18.13-20.22,32.02
				c-2.04,13.93,2.08,29.54,10.02,43.43c7.78,14.11,19.21,26.59,31.73,37.83c-14.58-8.35-28.81-18.25-40.47-31.57
				c-11.67-13.07-21.17-30.03-22.79-49.88c-1.75-19.64,5.45-41.3,20.82-56.41c14.97-15.46,37.56-23.81,59.95-22.85L1923.76,2896.7z"
				/>
		</g>
		<g>
			<path class="st4" d="M1901.45,3061.21c-15.97-5.3-32.76-7.9-48.06-4.62c-15.15,3.15-28.87,12.44-35.73,27.45
				c-7.22,14.79-6.91,33.89-0.89,51.43c5.89,17.77,17.31,34,30.94,48.08c-15.92-11.39-30.7-25.53-40.75-43.68
				c-5.03-9.02-8.87-18.98-10.78-29.65c-1.97-10.64-1.74-22.05,1.15-33.17c2.85-11.1,8.47-21.94,16.62-30.71
				c8.05-8.84,18.26-15.73,29.18-20.32c22.06-9.28,45.84-9.73,67.88-6.74L1901.45,3061.21z"/>
		</g>
		<g>
			<path class="st4" d="M1821.07,3222.69c-13.67-9.45-28.75-16.73-44.29-18.29c-7.73-0.82-15.56-0.35-23.02,1.85
				c-7.44,2.21-14.51,6.07-20.66,11.43c-12.48,10.64-20.31,27.56-22.05,45.6c-1.84,18.14,2.36,37.27,10.75,54.64
				c-11.41-15.5-19.72-34.2-21.5-54.65c-1.81-20.23,3.02-42.48,16.96-60.13c6.85-8.8,15.79-16.32,26.04-21.66
				c10.26-5.35,21.73-8.36,33.2-9.35c11.48-0.97,23.03-0.05,33.98,2.39c10.97,2.42,21.44,6.14,31.49,10.56L1821.07,3222.69z"/>
		</g>
		<g class="st3">
			<path class="st4" d="M1926.38,2875.35c-60.78-7.44-108.09,73.46-14.9,139.35"/>
		</g>
		<g class="st3">
			<path class="st4" d="M1906.22,3040.24c-101.11-23.02-139.78,74.44-58.52,143.31"/>
		</g>
		<g class="st3">
			<path class="st4" d="M1831.52,3203.89c-93.62-52.04-157.37,35.64-109.72,114.03"/>
		</g>
		<g>
			<path class="st4" d="M1653.89,3356.84c-4.83-11.22-11.67-21.49-20.95-28.75c-9.18-7.24-20.88-11.42-33.04-10.23
				c-12.09,1.17-24.19,7.92-32.84,18.64c-8.77,10.68-14.03,24.63-16.69,39.09c-0.42-14.66,1.59-30.06,8.78-44.18
				c7.01-14.04,19.88-26.43,36.5-31.89c16.55-5.56,35.65-3.48,51.59,4.23c16.13,7.65,29.16,20.22,39.18,34.17L1653.89,3356.84z"/>
		</g>
		<g>
			<path class="st4" d="M2410.63,2639.24c13.18-4.38,27.5-6.8,41.88-5.86c14.35,0.88,28.45,5.23,40.42,12.26
				c24.12,14.18,39.58,37.23,46.34,61.44c3.34,12.19,4.49,24.91,3.01,37.33c-1.46,12.4-5.7,24.49-12.63,34.6
				c-6.89,10.16-16.38,18.06-26.76,23.29c-10.4,5.28-21.55,8.08-32.63,9.58c10.67-3.46,20.84-8.17,29.42-14.71
				c8.59-6.49,15.37-14.84,19.45-24.15c8.31-18.69,5.91-40.16-2.6-57.67c-8.51-17.6-23.42-31.58-39.56-37.12
				c-16.21-5.73-32.58-2.79-47.42,5.54L2410.63,2639.24z"/>
		</g>
		<g>
			<path class="st4" d="M2479.87,2868.72c11.23-5.08,22.9-9.43,35.13-12.39c12.3-2.83,25.16-4.24,38.12-3.43
				c12.93,0.81,26,3.96,37.79,9.92c11.81,5.89,22.02,14.89,29.38,25.46c7.47,10.55,11.75,22.84,13.1,34.99
				c1.4,12.18-0.03,24.24-3.49,35.31c-6.97,22.3-21.54,40.17-37.93,54.25c13.59-16.87,23.82-36.55,26.12-56.84
				c2.44-20.09-3.56-40.21-16.54-52.42c-6.37-6.13-13.98-10.57-22.25-12.82c-8.26-2.29-16.99-2.69-25.67-1.55
				c-8.69,1.14-17.33,3.77-25.67,7.45c-8.34,3.83-16.35,8.69-24.06,14.09L2479.87,2868.72z"/>
		</g>
		<g>
			<path class="st4" d="M2783.86,3070.51c-1.47-8.33-3.04-16.75-5.59-24.62c-1.09-4.08-2.69-7.78-4.09-11.7
				c-1.69-3.65-3.28-7.46-5.3-10.88c-7.7-13.97-19.04-25.45-33.79-29.9c-14.6-4.54-32.38-1.03-46.27,9.55
				c-14.05,10.35-24.36,26.79-28.46,45.16c0.56-18.77,7.5-38.14,21.21-53.1c13.34-15,34.73-25.01,57.22-22.79
				c11.12,1.05,22.04,4.95,31.56,10.75c9.56,5.79,17.76,13.33,24.76,21.56c3.61,4.09,6.6,8.46,9.72,12.85
				c2.74,4.48,5.71,8.98,8.03,13.64c5.09,9.25,8.92,18.83,12.6,28.5L2783.86,3070.51z"/>
		</g>
		<g>
			<path class="st4" d="M2966.45,3001.1c-11.2-6.5-23.46-11.71-36.1-14.85c-12.58-3.09-25.75-4.17-37.52-1.06
				c-5.8,1.64-11.15,4.4-15.57,8.52c-4.41,4.12-7.67,9.76-9.73,16.11c-4.16,12.86-3.4,27.78-1.01,42.09
				c-5.32-13.51-9.65-28.08-8.22-43.93c0.75-7.84,3.17-16.04,8.01-23.17c4.81-7.12,11.69-12.92,19.23-16.96
				c15.29-7.92,32.14-9.94,48.23-9.62c16.2,0.43,32.11,3.39,47.59,8.31L2966.45,3001.1z"/>
		</g>
		<g>
			<path class="st4" d="M2086.95,2875.35c16.34-3.79,35.3-1.02,50.37,9.69c15.28,10.31,25.91,28.49,27.79,48.21
				c2.06,19.81-4.27,39.7-14.04,56.14c-9.72,16.77-22.86,30.59-36.8,42.87l-24.83-35.12c13.16-7.31,25.68-15.87,35.4-26.53
				c9.84-10.52,17.12-23.2,18.77-37.17c1.7-13.81-2.62-29-13.25-40.21C2120.02,2881.8,2103.82,2875.12,2086.95,2875.35z"/>
		</g>
		<g>
			<path class="st4" d="M2108.93,3040.24c18.62-5.85,39.13-9,59.68-4.04c10.19,2.48,20.23,7.09,28.91,14.03
				c8.75,6.86,15.76,16.27,20.31,26.8c4.59,10.53,6.76,22.18,6.5,33.67c-0.18,11.51-2.51,22.87-6.32,33.56
				c-7.62,21.54-21.16,39.99-36.66,55.69l-27.81-32.82c14.05-9.77,26.71-21.69,35.03-36.07c8.35-14.2,12.64-31.03,8.92-47.03
				c-3.27-16.08-15.51-30.24-32.3-37.64C2148.38,3038.8,2128.33,3037.8,2108.93,3040.24z"/>
		</g>
		<g class="st3">
			<path class="st4" d="M2086.95,2875.35c60.78-7.44,108.09,73.46,14.9,139.35"/>
		</g>
		<g class="st3">
			<path class="st4" d="M2108.93,3040.24c101.11-23.02,139.78,74.44,58.52,143.31"/>
		</g>
		<g>
			<path class="st4" d="M2183.63,3208.29c15.95-10.68,34.29-19.42,54.93-21c10.23-0.81,20.94,0.16,31.2,3.55
				c10.25,3.39,19.96,9.11,28.14,16.71c16.61,15.16,25.98,37.55,27.71,60.12c1.84,22.74-3.79,45.66-13.88,65.83l-36.76-22.34
				c9.71-12.71,16.59-27.62,18.37-43.46c1.8-15.7-1.5-32.48-11.3-45.61c-4.82-6.57-11.12-12.22-18.57-16.39
				c-7.45-4.15-16.04-6.68-25.01-7.65C2220.38,3195.97,2201.29,3200.68,2183.63,3208.29z"/>
		</g>
		<g class="st3">
			<path class="st4" d="M2597.99,3296.74v0.05c-3.66,47.53-50.6,79.53-133.3,78.77c-61.46-0.54-120.55-20-171.1-53.66
				c-0.59-0.38-1.24-0.81-1.83-1.18l-108.13-112.43c11.51-6.4,22.53-10.7,32.96-13.12c39.25-9.25,70.01,7.37,84.26,35.22
				c103.45,27.26,168.46-29.63,168.41-229.33c4.46,31.78,12.04,61.57,22.64,89.42c12.9,34.2,30.43,65.49,52.32,94.04
				c20.76,21.78,35.33,43.02,44.09,62.96c0.22,0.48,0.43,0.97,0.65,1.51c0,0,0,0,0,0.05
				C2596.21,3266.09,2599.17,3282.11,2597.99,3296.74z"/>
		</g>
		<g class="st3">
			<path class="st4" d="M2293.59,3321.9c-0.11,0.16-0.16,0.27-0.27,0.43l-1.56-1.61C2292.35,3321.1,2293,3321.53,2293.59,3321.9z"/>
		</g>
		<g>
			<path class="st4" d="M2343.17,3351.79c6.09-13.36,14.91-26.17,27.68-35.52c12.59-9.32,29.5-14.78,46.83-12.34
				c17.29,2.31,33.66,12.65,44.42,26.8c10.97,14.16,16.8,31.17,19.64,47.98l-37.55,2.58c0.6-12.32-0.84-24.65-5.83-35.29
				c-4.9-10.61-13.49-19.41-24.92-23.73c-11.38-4.31-25.26-3.52-37.81,2.12C2362.98,3329.95,2351.94,3339.97,2343.17,3351.79z"/>
		</g>
		<g>
			<path class="st4" d="M3031.72,2654.82c-92.7,0-196.14-29.84-299.69-103.28c-10.9-7.73-13.47-22.83-5.74-33.74
				c7.73-10.9,22.83-13.47,33.74-5.74c203.95,144.63,404.74,103.91,505,4.85c68.73-67.91,110.17-185.56,39.11-324.15
				c-21.03,69.05-56.23,109.99-106.73,124.56c-42.54,12.28-89.33,3-125.11-24.82c-98.23-76.39-235.82-70.89-334.6,13.39
				c-10.17,8.66-25.43,7.46-34.11-2.7c-8.67-10.17-7.46-25.44,2.71-34.12c116.44-99.34,279.16-105.42,395.71-14.78
				c23.6,18.36,54.26,24.53,81.99,16.53c16.15-4.66,65.27-18.83,85.99-145.87c1.59-9.74,8.94-17.54,18.56-19.71
				c9.66-2.19,19.61,1.73,25.22,9.85c54.49,78.85,80.49,162.49,75.17,241.88c-4.95,73.92-36.04,141.13-89.91,194.35
				C3237.02,2612.62,3141.96,2654.82,3031.72,2654.82z"/>
		</g>
		<g>
			<path class="st4" d="M2977.33,2245.49c-10.41,0-20.02-6.77-23.16-17.25c-3.84-12.8,3.42-26.29,16.22-30.13
				c81.5-24.46,113.53-116.47,116.33-194.43c2.84-79.22-24.43-175.2-89.42-221.15c-6.75,84.01-51.43,148.5-135.69,196.33
				c-11.62,6.61-26.39,2.52-32.99-9.1s-2.52-26.39,9.1-32.99c82.19-46.66,116.62-106.1,111.63-192.76
				c-0.47-8.19,3.23-16.05,9.85-20.91s15.25-6.01,22.9-3.1c111.24,42.27,156.99,173.8,152.98,285.41
				c-4.33,120.84-62.11,212.45-150.78,239.05C2981.97,2245.16,2979.63,2245.49,2977.33,2245.49z"/>
		</g>
		<g>
			<path class="st4" d="M3120.56,2620.6c-4.78-14.67-7.14-31.1-3.28-47.65c1.88-8.22,5.25-16.4,10.32-23.81
				c5.09-7.38,11.9-13.95,20.15-18.84c8.21-4.9,17.91-8.08,28.07-8.6c10.14-0.6,20.62,1.32,30.11,5.36
				c9.52,4.01,18.01,10.01,25.14,16.92c7.17,6.92,13.07,14.72,18.11,22.84l-43.78,20.62c-3.34-11.49-8.7-21.84-16.81-28.49
				c-7.93-6.63-19.14-9.88-30.78-6.64c-5.76,1.53-11.47,4.5-16.51,8.73c-5.01,4.25-9.32,9.74-12.65,16.01
				C3121.86,2589.62,3119.67,2605.14,3120.56,2620.6z"/>
		</g>
		<g>
			<path class="st4" d="M3042.4,2624.04c4.43-11.96,5.59-24.25,1.41-35.04c-3.93-10.81-14.1-19.78-27.05-22.25
				c-12.89-2.5-27.96,2.29-39.29,13.29c-11.51,10.86-19.37,26.37-24.45,42.69c1.19-17.02,4.97-34.66,15.1-50.37
				c5.05-7.79,11.82-14.94,20.28-20.27c8.43-5.35,18.5-8.8,29.1-9.52c21.16-1.54,44,8.85,57.31,27.56
				c6.77,9.18,11.29,19.98,13.58,30.96c2.32,11.01,2.5,22.14,1.38,32.85L3042.4,2624.04z"/>
		</g>
		<g>
			<path class="st4" d="M2795.99,2563.74c2.35-16.85,8.88-34.42,22.95-47.43c7.02-6.32,15.87-11.64,26.22-13.49
				c5.13-1.12,10.53-1.04,15.93-0.49c5.31,0.9,10.74,2.28,15.6,4.79c9.96,4.71,18.15,12.28,24.36,20.63
				c6.3,8.38,10.89,17.59,14.28,26.9c6.89,18.71,9.57,37.9,10.64,56.75l-48.31-2.79c2.78-15.13,4.18-30.45,2.55-44.82
				c-0.75-7.21-2.36-14.1-4.97-20.28c-2.57-6.22-6.19-11.66-10.97-15.63c-2.32-2.16-5.07-3.54-7.94-4.92
				c-2.95-1.01-6.12-2.01-9.48-2.06c-6.74-0.53-13.99,1.54-20.71,5.15C2812.54,2533.47,2802.14,2547.82,2795.99,2563.74z"/>
		</g>
		<g>
			<path class="st4" d="M2668.69,2441.82c5.82-7.09,12.98-13.37,21.39-17.95c8.41-4.56,18.02-7.34,27.97-7.91
				c9.94-0.58,20.2,0.98,29.79,4.68c9.58,3.73,18.53,9.48,26.13,16.84c15.36,14.67,24.53,36.1,25.91,57.74
				c0.79,10.83-0.13,21.67-2.2,32.17c-2.13,10.5-5.61,20.47-9.61,30.19l-37.89-20.37c4.34-6.54,8.38-13.31,11.38-20.39
				c2.93-7.08,5.08-14.41,6.06-21.87c2.04-14.86-0.98-30.47-9.87-43.35c-8.7-12.88-23.28-22.69-40.02-24.9
				c-8.32-1.17-17.09-0.51-25.52,2.1C2683.78,2431.44,2675.78,2435.98,2668.69,2441.82z"/>
		</g>
		<g>
			<path class="st4" d="M3111.47,1970.86c-10.23-0.52-21.79,3.62-31.64,11.85c-9.84,8.14-17.9,19.86-21.9,32.87
				c-3.97,12.94-3.61,27.52,4.23,39.27c3.86,5.85,9.56,10.78,16.25,14.37c6.7,3.62,14.25,5.98,22.04,7.59
				c-7.93,0.16-16.04-0.4-24.05-2.6c-7.98-2.18-15.86-6.17-22.35-12.29c-6.51-6.07-11.41-14.13-14.21-22.81
				c-2.83-8.7-3.74-17.95-3.15-27.02c1.29-18.16,7.91-35.86,19.28-51.11c11.27-15.14,28.53-28.14,49.82-32.75L3111.47,1970.86z"/>
		</g>
		<g class="st3">
			<path class="st4" d="M3108.65,1949.53c-64.92,8.61-95.91,120.61-8.18,127.27"/>
		</g>
		<g>
			<path class="st4" d="M3069.75,2140.03c-8.77-9.64-19.78-17.18-32.05-20.19c-12.17-3.13-25.55-1.27-35.34,6.77
				c-4.78,4.06-8.61,9.6-10.87,16.21c-2.29,6.59-2.88,14.15-2.18,21.8c1.54,15.41,7.97,30.84,16.24,45.1
				c-11.11-12.17-21.17-26.02-26.76-42.87c-2.68-8.41-4.15-17.63-3.12-27.18c0.98-9.51,4.57-19.24,10.73-27.47
				c6.19-8.19,14.82-14.58,24.31-18.7c9.52-4.15,19.9-5.84,30.13-5.76c20.61,0.21,40.3,8.05,56.66,19.43L3069.75,2140.03z"/>
		</g>
		<g>
			<path class="st4" d="M2946.55,2221.1c0.07-11.5-1.4-22.77-5.67-31.9c-4.22-9.08-11.54-15.61-21.89-17.28
				c-10.29-1.55-22.44,2.34-31.91,10.24c-9.54,7.87-16.55,19.58-19.33,32.75c-0.34-13.41,3.71-27.54,12.47-39.18
				c8.68-11.51,22.16-20.85,38.74-22.62c8.22-0.78,17.05,0.62,25,4.28c7.98,3.62,14.86,9.36,20.21,15.85
				c10.72,13.14,16.19,28.42,19.75,43.26L2946.55,2221.1z"/>
		</g>
		<g>
			<path class="st4" d="M978.29,2654.82c-110.26,0.01-205.29-42.2-267.32-103.48c-53.87-53.22-84.96-120.42-89.91-194.35
				c-5.32-79.39,20.68-163.04,75.17-241.88c5.61-8.12,15.57-12.04,25.22-9.85c9.63,2.17,16.97,9.97,18.56,19.71
				c20.72,127.04,69.84,141.21,85.99,145.87c27.77,8.02,58.39,1.83,82-16.53c116.56-90.63,279.28-84.57,395.71,14.78
				c10.17,8.68,11.38,23.95,2.71,34.12c-8.67,10.17-23.95,11.37-34.11,2.7c-98.78-84.28-236.38-89.8-334.6-13.39
				c-35.79,27.82-82.55,37.09-125.12,24.82c-50.5-14.57-85.7-55.51-106.72-124.56c-71.05,138.59-29.62,256.24,39.11,324.15
				c100.27,99.06,301.06,139.78,505-4.85c10.9-7.73,26-5.16,33.74,5.74c7.73,10.9,5.16,26.01-5.74,33.74
				C1174.45,2624.98,1070.98,2654.82,978.29,2654.82z"/>
		</g>
		<g>
			<path class="st4" d="M1032.69,2245.49c-2.3,0-4.64-0.33-6.96-1.03c-88.67-26.6-146.45-118.2-150.78-239.05
				c-4-111.61,41.75-243.14,152.98-285.41c7.66-2.91,16.29-1.74,22.9,3.1c6.62,4.85,10.32,12.72,9.85,20.91
				c-5,86.66,29.43,146.1,111.63,192.76c11.62,6.6,15.7,21.37,9.1,32.99s-21.37,15.69-32.99,9.1
				c-84.26-47.83-128.94-112.32-135.69-196.33c-64.99,45.95-92.26,141.93-89.42,221.15c2.8,77.96,34.82,169.98,116.33,194.43
				c12.8,3.84,20.06,17.33,16.22,30.13C1052.71,2238.72,1043.09,2245.49,1032.69,2245.49z"/>
		</g>
		<g>
			<path class="st4" d="M889.45,2620.6c0.89-15.47-1.3-30.99-8.11-43.56c-3.32-6.27-7.63-11.75-12.65-16.01
				c-5.04-4.23-10.74-7.2-16.51-8.73c-11.64-3.24-22.85,0.01-30.78,6.64c-8.11,6.65-13.47,17.01-16.81,28.49l-43.78-20.62
				c5.04-8.11,10.94-15.91,18.11-22.84c7.14-6.91,15.62-12.91,25.15-16.92c9.49-4.03,19.97-5.96,30.11-5.36
				c10.16,0.52,19.86,3.7,28.08,8.6c8.24,4.89,15.05,11.47,20.15,18.84c5.08,7.41,8.43,15.58,10.32,23.81
				C896.6,2589.5,894.24,2605.94,889.45,2620.6z"/>
		</g>
		<g>
			<path class="st4" d="M920.24,2633.93c-1.12-10.71-0.93-21.84,1.38-32.85c2.29-10.98,6.81-21.77,13.58-30.96
				c13.31-18.71,36.16-29.1,57.31-27.56c10.6,0.72,20.68,4.17,29.1,9.52c8.46,5.34,15.23,12.49,20.28,20.27
				c10.13,15.71,13.91,33.35,15.1,50.37c-5.08-16.32-12.94-31.83-24.45-42.69c-11.33-11-26.4-15.78-39.29-13.29
				c-12.95,2.47-23.12,11.44-27.05,22.25c-4.18,10.79-3.02,23.08,1.41,35.04L920.24,2633.93z"/>
		</g>
		<g>
			<path class="st4" d="M1190.57,2569.7c-1.29-12.97-5.77-25.48-13.88-33.94c-7.97-8.34-19.29-12.69-30.94-7.89
				c-11.85,4.43-21.93,17.83-27.64,32.87c-6.01,15.16-8.76,32.17-9.9,49.26c-2.85-16.89-4.32-34.39-1.81-52.31
				c1.22-8.95,3.55-18.02,7.73-26.8c4.11-8.75,10.29-17.32,19.19-23.78c4.33-3.37,9.52-5.78,14.92-7.73
				c5.49-1.6,11.33-2.76,17.18-2.58c11.79-0.06,23.13,3.96,32.84,9.78c19.55,11.99,32,31.4,39.21,51.2L1190.57,2569.7z"/>
		</g>
		<g>
			<path class="st4" d="M1326.07,2456.98c-8.14-10.79-19.67-18.22-33.43-19.52c-6.81-0.67-14.06,0.09-21.02,2.51
				c-6.94,2.44-13.59,6.39-19.34,11.64c-11.61,10.44-19.15,26.24-20.62,43.44c-0.81,8.59-0.24,17.48,1.33,26.31
				c1.64,8.84,4.53,17.49,7.92,26.05c-4.96-7.71-9.59-15.79-13.07-24.54c-3.42-8.75-5.93-18.03-6.93-27.73
				c-2.15-19.3,2.51-40.54,15.16-57.65c6.24-8.54,14.31-16.01,23.76-21.67c9.46-5.64,20.36-9.33,31.81-10.6
				c11.44-1.28,23.44,0.01,34.65,3.82c11.22,3.82,21.51,10.07,30.31,17.63L1326.07,2456.98z"/>
		</g>
		<g>
			<path class="st4" d="M904.2,1928.21c21.29,4.62,38.55,17.61,49.82,32.75c11.37,15.25,18,32.94,19.28,51.11
				c0.59,9.07-0.31,18.32-3.15,27.02c-2.8,8.69-7.7,16.75-14.21,22.81c-6.49,6.12-14.37,10.11-22.35,12.29
				c-8.01,2.2-16.12,2.77-24.05,2.6c7.79-1.61,15.35-3.97,22.04-7.59c6.69-3.59,12.39-8.52,16.25-14.37
				c7.85-11.75,8.2-26.33,4.24-39.27c-4-13.01-12.06-24.73-21.9-32.87c-9.85-8.23-21.41-12.37-31.64-11.85L904.2,1928.21z"/>
		</g>
		<g>
			<path class="st4" d="M912.51,2107.16c16.35-11.38,36.05-19.22,56.66-19.43c10.23-0.09,20.62,1.61,30.13,5.76
				c9.49,4.12,18.11,10.51,24.31,18.7c6.16,8.23,9.74,17.96,10.73,27.47c1.03,9.55-0.44,18.77-3.12,27.18
				c-5.59,16.85-15.65,30.7-26.76,42.87c8.27-14.25,14.7-29.69,16.24-45.1c0.7-7.65,0.11-15.21-2.18-21.8
				c-2.25-6.61-6.08-12.15-10.87-16.21c-9.79-8.03-23.16-9.9-35.34-6.77c-12.27,3.01-23.28,10.55-32.05,20.19L912.51,2107.16z"/>
		</g>
		<g>
			<path class="st4" d="M1123.53,2216.63c0.68-9.55-1.7-19.57-7.46-28.04c-5.71-8.39-14.79-15-25.05-16.67
				c-10.17-1.68-21.53,2.52-29.65,11.96c-8.2,9.3-13.33,21.95-16.59,34.92c0.23-13.37,2.04-27.27,8.83-40.24
				c3.41-6.42,8.3-12.5,14.79-17.09c6.45-4.61,14.41-7.57,22.65-8.36c16.61-1.45,33.16,5.18,45.61,16.19
				c12.54,11.04,21.22,26.86,24.34,43.89L1123.53,2216.63z"/>
		</g>
		<g>
			<path class="st4" d="M1397.29,1761.11c14.96-21.74,36.37-38.92,60.48-50.94c24.14-12.1,51.33-18.71,78.66-19.35
				c27.33-0.73,54.74,4.52,79.48,14.95c24.7,10.54,46.89,25.89,64.08,45.47c3.03,3.45,2.69,8.7-0.76,11.72
				c-2.32,2.04-5.47,2.55-8.2,1.61l-0.24-0.08c-23.33-8.13-45.26-15.37-67.33-19.75c-21.96-4.56-43.8-6.5-65.52-5.66
				c-21.72,0.86-43.25,4.43-64.79,10.25c-21.59,5.87-42.84,14.24-65.44,24.12l-0.19,0.08c-4.23,1.85-9.16-0.08-11.01-4.31
				C1395.32,1766.45,1395.72,1763.41,1397.29,1761.11z"/>
		</g>
		<g>
			<path class="st4" d="M2607.69,1773.42c-22.59-9.88-43.85-18.25-65.44-24.12c-21.54-5.82-43.07-9.38-64.79-10.25
				c-21.72-0.84-43.55,1.11-65.52,5.66c-22.07,4.39-44,11.63-67.33,19.75l-0.22,0.08c-4.33,1.51-9.07-0.78-10.58-5.11
				c-1.02-2.92-0.3-6.04,1.6-8.22c17.19-19.57,39.38-34.92,64.08-45.47c24.74-10.43,52.15-15.68,79.48-14.95
				c27.33,0.64,54.52,7.25,78.66,19.35c24.11,12.03,45.52,29.2,60.48,50.94c2.62,3.8,1.66,9.01-2.15,11.62
				c-2.46,1.69-5.52,1.89-8.07,0.78L2607.69,1773.42z"/>
		</g>
		<g>
			<path class="st7" d="M2340.01,1970.47"/>
		</g>
		<g>
			<path class="st4" d="M2565.54,1906.19c0,44.38-33.97,80.4-78.31,108.44c-34.06,21.55-76.11,28.11-114.24,15.05
				c-28.05-9.61-48.5-27.88-39.01-56.27c0,0,127.24-82.93,129.4-83.95C2465.55,1888.44,2497.91,1852.89,2565.54,1906.19z"/>
		</g>
		<g>
			<ellipse class="st6" cx="2402.41" cy="1970.7" rx="31.14" ry="29.13"/>
		</g>
		<g>
			<path class="st4" d="M2218.85,1958.12c20.88,8.83,41.49,13.51,60.83,11.31c9.69-1.09,19.16-3.48,28.39-7.24
				c4.65-1.67,9.22-3.96,13.76-6.15c4.52-2.49,9.02-4.99,13.07-7.56l3.13-1.88c1.04-0.62,2.3-1.64,3.45-2.44
				c2.34-1.69,4.66-3.43,7.04-5.06l14.23-9.91c9.56-6.49,19.19-12.85,28.91-19.1c19.44-12.47,38.95-24.86,58.16-37.7
				c0.61-0.41,1.24-0.78,1.88-1.12l0.1-0.05c16.06-8.49,34.67-13.23,53.22-13.05c18.54,0.15,36.84,5.09,52.41,14.06
				c15.6,8.92,28.89,21.27,38.44,35.94c9.27,14.74,14.35,32.59,10.83,49.98c-0.98,4.85-5.7,7.98-10.55,7
				c-1.81-0.37-3.39-1.26-4.6-2.48l-0.47-0.47c-10.93-11.05-19.35-19.97-28.14-28.37c-8.51-8.48-17.83-15.77-27.93-21.1
				c-10.06-5.31-20.69-9.09-31.55-9.85c-10.83-0.89-21.71,1.36-31.71,6.45l1.98-1.17c-19.39,12.97-38.48,26.39-57.64,39.73
				c-9.59,6.66-19.25,13.2-28.99,19.61l-14.72,9.45c-2.44,1.59-4.95,3.08-7.43,4.61c-1.3,0.76-2.36,1.52-3.86,2.29l-4.5,2.3
				c-6,3.26-12.05,5.61-18.04,8.05c-6.2,2.19-12.37,4.37-18.89,5.9c-12.94,3.03-26.61,4.58-40.14,3.36
				c-3.38-0.27-6.74-0.64-10.06-1.32l-4.97-0.9l-4.87-1.28c-3.25-0.82-6.38-1.94-9.47-3.11c-3.14-1.06-6.09-2.48-9.06-3.82
				c-11.72-5.71-22.13-12.96-31.07-21.4c-3.29-3.11-3.44-8.29-0.34-11.58C2212.1,1957.48,2215.79,1956.83,2218.85,1958.12z"/>
		</g>
		<g>
			<path class="st7" d="M1669.45,1970.47"/>
		</g>
		<g>
			<path class="st4" d="M1443.92,1906.19c0,44.38,33.97,80.4,78.31,108.44c34.06,21.55,76.11,28.11,114.24,15.05
				c28.05-9.61,48.5-27.88,39.01-56.27c0,0-127.24-82.93-129.4-83.95C1543.91,1888.44,1511.55,1852.89,1443.92,1906.19z"/>
		</g>
		<g>
			<ellipse class="st6" cx="1607.06" cy="1970.7" rx="31.14" ry="29.13"/>
		</g>
		<g>
			<path class="st4" d="M1799.44,1971.62c-8.94,8.44-19.36,15.69-31.07,21.4c-2.97,1.34-5.92,2.76-9.06,3.82
				c-3.09,1.17-6.23,2.29-9.47,3.11l-4.87,1.28l-4.97,0.9c-3.32,0.68-6.67,1.06-10.06,1.32c-13.54,1.22-27.2-0.33-40.14-3.36
				c-6.52-1.53-12.69-3.71-18.89-5.9c-5.99-2.43-12.05-4.78-18.04-8.05l-4.5-2.3c-1.5-0.77-2.56-1.53-3.85-2.29
				c-2.48-1.53-4.99-3.02-7.43-4.61l-14.72-9.45c-9.74-6.41-19.41-12.96-28.99-19.61c-19.16-13.34-38.25-26.76-57.64-39.73
				l1.98,1.17c-10-5.09-20.88-7.34-31.72-6.45c-10.85,0.77-21.48,4.54-31.55,9.85c-10.09,5.33-19.42,12.63-27.92,21.1
				c-8.79,8.4-17.22,17.32-28.14,28.37l-0.47,0.47c-3.48,3.52-9.15,3.55-12.66,0.07c-1.32-1.3-2.14-2.91-2.48-4.59
				c-3.52-17.4,1.56-35.24,10.83-49.98c9.55-14.67,22.84-27.02,38.44-35.94c15.57-8.97,33.86-13.91,52.41-14.06
				c18.55-0.18,37.16,4.56,53.22,13.05l0.07,0.04c0.65,0.35,1.3,0.74,1.9,1.14c19.21,12.84,38.72,25.23,58.16,37.7
				c9.71,6.25,19.35,12.61,28.9,19.1l14.23,9.91c2.38,1.63,4.7,3.37,7.05,5.06c1.14,0.8,2.4,1.82,3.45,2.44l3.13,1.88
				c4.05,2.57,8.55,5.07,13.07,7.56c4.54,2.2,9.11,4.49,13.76,6.15c9.23,3.76,18.7,6.15,28.39,7.24
				c19.35,2.2,39.96-2.48,60.84-11.31c4.17-1.77,8.98,0.17,10.75,4.33C1802.73,1965.69,1801.85,1969.33,1799.44,1971.62z"/>
		</g>
		<g>
			<path class="st6" d="M2170.04,2102.05c-89.53,64.55-256.04,60.32-332.4,2.32c-9.45-7.17-23.06-0.16-23.19,11.7
				c-2.92,268.28,382.3,261.23,378.66-2.26C2192.95,2101.98,2179.64,2095.13,2170.04,2102.05z"/>
		</g>
		<g>
			<path class="st4" d="M2001.57,2335.97c-37.93,0-75.72-9.55-108.64-28.67c-65.41-37.99-100.92-105.99-100-191.45
				c0.16-13.78,7.96-26.11,20.38-32.18c12.24-5.99,26.55-4.62,37.34,3.59c65.07,49.42,222.57,58.08,306.81-2.65h0
				c10.93-7.88,25.2-9.03,37.23-2.97c12.1,6.09,19.74,18.3,19.93,31.88c1.16,84.02-35.85,154.23-101.55,192.66
				C2079.12,2326.03,2040.27,2335.97,2001.57,2335.97z M1836.17,2129.55c2.73,63.01,30.26,112.6,78.37,140.55
				c53.33,30.97,122.74,30.56,176.81-1.06c49.38-28.88,77.52-79,80.08-142.04C2079.89,2184.16,1923.11,2185.27,1836.17,2129.55z
				 M2182.62,2119.5L2182.62,2119.5c0,0,0,0-0.01,0.01C2182.61,2119.51,2182.61,2119.51,2182.62,2119.5z M2170.04,2102.06h0.05
				H2170.04z"/>
		</g>
		<g>
			<path class="st4" d="M1831.89,2144.77c13.31,19.65,28.65,37.71,47.21,51.81c18.45,14.16,40.46,23.76,64.3,27.42l0.04,0.01
				c3.86,0.59,6.51,4.21,5.92,8.07c-0.54,3.5-3.55,6-6.99,6c-13.13,0.01-26.46-1.56-39.48-4.87c-13.03-3.29-25.71-8.35-37.63-14.75
				c-23.93-12.84-44.61-30.73-62.72-50.1l-0.08-0.09c-7.12-7.62-6.72-19.57,0.9-26.69c7.62-7.12,19.57-6.72,26.69,0.9
				C1830.72,2143.17,1831.37,2144,1831.89,2144.77z"/>
		</g>
		<g>
			<path class="st4" d="M2207.81,2168.34c-18.11,19.37-38.79,37.27-62.72,50.1c-11.92,6.41-24.6,11.46-37.63,14.75
				c-13.02,3.32-26.35,4.89-39.48,4.87c-3.91,0-7.07-3.18-7.07-7.08c0-3.54,2.61-6.47,6-6.99l0.04-0.01
				c23.84-3.66,45.85-13.26,64.3-27.42c18.56-14.09,33.9-32.15,47.21-51.81c5.85-8.63,17.59-10.89,26.22-5.04
				c8.64,5.85,10.89,17.59,5.04,26.22c-0.54,0.8-1.13,1.54-1.76,2.23L2207.81,2168.34z"/>
		</g>
		<g>
			<g class="st3">
				<path class="st4" d="M1834.58,2444.77c-22.13-12.05-43.4-24.01-63.78-35.89c0.11,0.06,0.21,0.12,0.32,0.18
					c-469.7-263.24-514.72-484.32-297.83-682.33c-93.93-533.99,53.78-841.51,364.95-1035.1c-0.01,0.01-0.03,0.01-0.04,0.02
					c-586.99,226.62-729.03,814.56-536.89,1086.74c-98.84,107.4-124.31,268.99-52.28,432.25c29.2,66.18,80.91,113.63,140.09,150.24
					c78.38,41.69,164.17,68.27,226.31,95.93c120.31,53.55,220.21-12.71,220.21-12.71l0,0
					C1835.63,2444.1,1835.25,2444.35,1834.58,2444.77z"/>
			</g>
		</g>
		<g class="st3">
			<path class="st4" d="M1768.15,3279.05c-59.47,59.58-139.16,95.76-223.36,96.52c-109.05,0.97-155.93-54.9-123.51-128.4
				c0.05,0,0.05-0.05,0.05-0.05c8.77-19.84,23.28-40.97,43.93-62.59c67.27-87.7,93.08-201.53,73.45-344.13c-0.7,2.53-1.4,5-2.1,7.47
				c14.03-148.35,133.57-282.72,133.57-282.72l78.16-29.44c8.15-3.07,15.31,6.26,10.28,13.37
				c-37.11,52.46-114.07,185.81-88.43,361.05c20.83,142.35-22.53,224.28-58.11,265.77c-40.5,47.24-6.15,120.73,56.07,120.45
				C1694.01,3296.23,1726.74,3291.24,1768.15,3279.05z"/>
		</g>
		<g class="st3">
			<path class="st4" d="M1238.08,2906.53c24.95,35.38,72.91,77.05,160.72,76.03c-39.2-73.56,27.64-147.17,122.65-92.81l-71.46,87.91
				c5.11-0.91,10.38-1.94,15.7-3.06c-13.6,14.46-28.44,27.15-44.2,38.12c-0.05,0.05-0.11,0.11-0.16,0.05
				c-161.58,112.65-418.6,44.84-450.97-158.19c-6.83-42.69,31.45-78.29,74.1-71.25c61.84,10.22,113.51-0.81,150.13-43.34
				c19.79-22.96,31.24-51.94,34.3-82.05c12.91-127.27,71.51-226.16,223.74-266.81l176.21,71.19c0,0-206.91-48.5-252.34,147.65
				c-29.52,127.49-89.26,194.11-127.49,225.08C1227.38,2852.6,1222.11,2883.78,1238.08,2906.53z"/>
		</g>
		<g class="st3">
			<path class="st4" d="M2381.4,2609.99c19.36,25.59,35.27,52.1,48.18,79.42C2413.39,2664.24,2397.37,2637.62,2381.4,2609.99z"/>
		</g>
		<g class="st3">
			<path class="st4" d="M3039.12,2854.59c-40.81,255.57-437.53,296.92-551.68,33.77l-0.16-0.38c-5.32-12.26-10-25.16-13.93-38.71
				c-1.99-18.07-4.79-35.92-8.44-53.5l-44.79-134.26c88.99-37.8,151.04,85.82,86.73,134.53c111.9,132.49,232.02,170.61,371.44-15.22
				c25.76,7.42,54.9,7.8,86.73,2.53c9.19-1.51,18.17-1.08,26.62,1.02C3022.07,2792,3044.49,2821.09,3039.12,2854.59z"/>
		</g>
		<g class="st3">
			<path class="st6" d="M2447.55,1177.57c-44.39,53.15-136.67-14.12-244.55-104.23c-107.88-90.11-190.52-168.92-146.12-222.08
				c44.39-53.15,167.84-23.19,275.72,66.91C2440.48,1008.29,2491.95,1124.42,2447.55,1177.57z"/>
		</g>
		<g class="st3">
			<path class="st6" d="M2639.33,1299.71c10.64,53.14-15.43,103.17-58.23,111.73s-68.09-31.18-78.73-84.32s-2.6-99.56,40.2-108.13
				C2585.38,1210.43,2628.69,1246.57,2639.33,1299.71z"/>
		</g>
		<g class="st3">
			<path class="st6" d="M2328.31,2640.62c33.09,42.54,37.02,94.82,8.79,116.78c-28.23,21.96-47.57-18.35-80.65-60.89
				c-33.09-42.54-67.39-71.2-39.16-93.16C2245.51,2581.39,2295.22,2598.08,2328.31,2640.62z"/>
		</g>
		<g class="st3">
			<path class="st6" d="M2369.93,2789.28c17.99-1.23,33.85,16.41,35.43,39.41c1.58,23-11.73,42.65-29.72,43.88
				c-17.99,1.23-24.89-17.03-26.47-40.03C2347.6,2809.55,2351.94,2790.52,2369.93,2789.28z"/>
		</g>
		<g class="st3">
			<path class="st4" d="M2647.96,2325.54c-188.02,77.57-370.56,133.1-539.03,132.01c66.78,13.17,128.81,28.31,173.19,50.79
				c16.83,8.53,37.04,6.73,52.4-4.22l85.58-61.04L2647.96,2325.54z"/>
		</g>
		<g class="st3">
			<path class="st4" d="M3359.16,2395.5c-46.24,212.72-339.45,330.36-613.14,136.31c-35.97-73.4-94.26-119.21-166.42-147.81
				c-3.17-1.24-6.35-2.47-9.52-3.66l151.9-92.81c39.36-33.61,83.07-55.17,127.7-65.65
				C2907.38,2525.78,3089.98,2555.57,3359.16,2395.5z"/>
		</g>
		<g class="st3">
			<path class="st4" d="M1189.96,2228.81l-157.28-7.53c-182.55-54.79-175.4-410.54,3.82-478.66c-1.77,30.65,1.24,57.75,8.28,81.84
				v0.16c0,0-159.11,220.62,115.61,385.1C1171.35,2216.28,1181.19,2222.62,1189.96,2228.81z"/>
		</g>
		<g class="st3">
			<path class="st4" d="M1421.49,2379.58L1264,2531.8c-368.43,261.27-772.3-42.42-561.31-382.47c1.83-0.65,2.85-0.97,2.85-0.97
				c-9.68,527.43,539.53,280.47,520.66,105.77l10.27-2.58c17.8,9.89,35.06,21.88,51.56,35.97L1421.49,2379.58z"/>
		</g>
	</g>
</g>
</svg>
