<?xml version="1.0" encoding="utf-8"?>
<!-- Generator: Adobe Illustrator 25.4.1, SVG Export Plug-In . SVG Version: 6.00 Build 0)  -->
<svg version="1.1" id="Layer_1" xmlns="http://www.w3.org/2000/svg" xmlns:xlink="http://www.w3.org/1999/xlink" x="0px" y="0px"
	 viewBox="0 0 4000 4000" style="enable-background:new 0 0 4000 4000;" xml:space="preserve">
<style type="text/css">
	.st0{fill:#FFA666;}
	.st1{fill:#00A4FF;}
	.st2{opacity:0.6;}
	.st3{fill:#FFFFFF;}
	.st4{fill:#380175;}
	.st5{fill:#E43841;}
	.st6{opacity:0.3;}
	.st7{opacity:0.25;}
</style>
<g>
	<g>
		<rect class="st0" width="4000" height="4000"/>
	</g>
	<g>
		<g>
			<path class="st1" d="M3379.15,2081.4c-0.5-0.3-0.75-0.45-0.75-0.45c-16.65-10.35-39.05-11.5-57.45,2.55
				c-10.9,8.35-20.85,17.25-28.45,26.5c-21.75,26.45-82.6,60.65-160.6,73.6c-0.05,0.05-0.05,0.05-0.05,0.05
				c-35.2,5.9-73.9,7.45-114.1,2h-0.05c-13.8-1.85-27.8-4.55-41.9-8.15c0.05-0.1,0.1-0.15,0.15-0.25c0.3-0.4,0.6-0.85,0.9-1.25
				c167.2-236.8,194.2-462.85,130-634.9c-35.1-94.15-97.5-172.1-179.2-226.85c-24.75-16.65-51.3-31.1-79.4-43.25
				c-2.85-1.25-5.75-2.15-8.65-2.95h-0.05c-11.45-3.05-22.95-2.55-33.3,0.8c-25.5,8.2-44.45,33.15-40.7,63.3
				c3.75,30.1,15.55,61.85,44.45,84.1c117.9,90.7,102.85,249.55,28.3,372.35c-13.1,21.6-28,42.05-44.35,60.8
				c-0.05,0.1-0.1,0.15-0.15,0.15c-27.85,31.95-59.8,59.05-94,78.5c-16.55,9.45-33.6,17.1-50.95,22.6
				c-68.55,21.85-141.6,10.9-205.5-52.3C2780,1455,2523.85,942.75,2145,760c-144.4-69.65-311.95-93.9-469.8-66.6
				c-19.1,3.3-38.1,7.35-56.85,12.2c-51.05,13.05-100.65,31.9-147.6,56.6c-0.1,0.05-0.15,0.1-0.2,0.1h-0.05l-0.05,0.05
				c-214.15,112.6-373.1,347.8-365.45,726c-102.7,127.35-167.1,264,67.9,473.3c3.15,2.8,6.4,5.65,9.7,8.5
				c22.4,19.5,37.2,46.2,41.45,75.35c0.55,3.45,0.95,6.95,1.15,10.5c10.85,180.8-87.8,336.1-212.4,300.15
				c-27.95-8.05-52.2-25.4-71.1-47.55c-79.55-93.2-127.9-259.15-216.95-313.3c-16.8-10.2-35.05-16.45-55.25-17.45
				c-7.7-0.4-15.15,0.75-22,3.15c-23,8.1-39.7,30.25-39.05,56.05c0.75,28.5,13.95,69.15,57.8,124.2c0,0,44.65,58.25,52.7,234.75
				c2.4,53.25,15.4,105.25,38.15,152.45c19.8,41.4,47.15,79.2,81.45,110.95c89.8,83.15,214.85,121.95,351.45,60.6
				c-0.35,23.4,0.85,46.15,3.55,68.2v0.3c22.25,184,145.1,320.8,302.45,408.6c227.4,126.85,526.85,151.35,698.75,68
				c44.2-21.45,52.4-77.35,24.05-111.8c-5.7-6.95-12.9-13.05-21.6-17.8c-35.45-19.35-85.95-40.4-157.75-59.95
				c-29.45-8-62.45-15.8-99.45-23.05c-209.6-46.9-340.9-168.9-387.45-372.35c-0.05-0.1-0.05-0.15-0.05-0.15
				c118.95,172,308.6,268.55,547.5,312.5c23,2.95,45.35,7.5,67.15,13.6c63.4,17.65,121.8,48.25,175.85,90.3
				c93.25,72.45,173.45,178.8,243.65,311.05c28.15,53.05,106.1,45.8,124.8-11.25c10.45-31.8,14.45-68.45,12.65-108.15
				c-5.3-116.05-60.15-258.05-148.9-380.2c-11.2-15.5-23-30.6-35.25-45.35c10.15,10.4,20.95,20.25,32.4,29.6
				c1.1,0.9,2.25,1.85,3.4,2.75c5.35,4.3,10.9,8.5,16.55,12.6l0.1,0.1c139.6,101.15,354.2,132.9,513.85,78.95l0.05-0.05
				c30.25-10.2,58.5-23.5,83.9-40c52-33.75,41.55-112.45-17.15-132.35c-24.5-8.3-52.3-15.55-82.1-19.5
				c-87.95-11.65-171.8-44.35-242.45-98.05c-42.9-32.65-85.45-69.15-120.95-107.65c-6.35-6.8-12.45-13.7-18.25-20.6l-0.05-0.1
				c-20-23.7-36.95-48.05-49.4-72.55c-2.65-5.2-5.1-10.45-7.35-15.65c365.25,106.5,688.25-53.2,748.95-346
				C3406.15,2111.45,3395.55,2091.95,3379.15,2081.4z M2242.5,2652.5c-109.6-33.4-200.4-96-263.75-201.25
				c161.25,14,294.3,119.85,412.55,274.2C2345,2693.7,2295.1,2668.55,2242.5,2652.5z"/>
		</g>
		<g class="st2">
			<path class="st3" d="M2698.35,1940l1.45-11.95c34.2-19.45,66.15-46.55,94-78.5c0.05,0,0.1-0.05,0.15-0.15
				c16.35-18.75,31.25-39.2,44.35-60.8c74.55-122.8,89.6-281.65-28.3-372.35c-28.9-22.25-40.7-54-44.45-84.1
				c-3.75-30.15,15.2-55.1,40.7-63.3c18.55-0.35,33.35-0.8,33.35-0.8s-67.95,42.8-5.45,111.1
				C2896.65,1447.5,3099.7,1653.35,2698.35,1940z"/>
		</g>
		<g class="st2">
			<path class="st3" d="M990.3,2398.4c0,0-100.3-42.15-170.3-213.4c-67.8-165.9-125.05-193.35-128.6-194.95l33.35,5.25
				c89.05,54.15,137.4,220.1,216.95,313.3c18.9,22.15,43.15,39.5,71.1,47.55c124.6,35.95,223.25-119.35,212.4-300.15
				c-0.2-3.55-0.6-7.05-1.15-10.5h0.05C1305.15,2297.05,1161.4,2458.25,990.3,2398.4z"/>
		</g>
		<g class="st2">
			<path class="st3" d="M1157.1,1505c-136.35,163.8-90.85,312.7,15.8,456.65c-235-209.3-170.6-345.95-67.9-473.3
				c-7.65-378.2,151.3-613.4,365.45-726l0.05-0.05h0.05c0.05,0,0.1-0.05,0.2-0.1c46.95-24.7,96.55-43.55,147.6-56.6
				C1349.2,797.25,1193.55,1000,1157.1,1505z"/>
		</g>
		<g class="st2">
			<path class="st3" d="M1741.97,3288.08c-523.87-166.1-630.97-680.21-339.47-1076.83l-47.79,22.24l-24.73,28.59
				C1034.87,2654.68,1193.55,3189.59,1741.97,3288.08z"/>
		</g>
		<g>
			<path class="st3" d="M2218.8,3153.3c-19.8,66.1-237.15,21.7-237.15,21.7c-463.3-23.35-678.45-499.15-491.65-800
				c1.6,114.25,20.75,217,62.5,305c0,0,0,0.05,0.05,0.15C1599.1,2883.6,1730.4,3005.6,1940,3052.5c127.25,25.05,207.2,55.7,257.2,83
				C2205.9,3140.25,2213.1,3146.35,2218.8,3153.3z"/>
		</g>
		<g>
			<path class="st3" d="M1424.65,1828.95c-42.15,146.05-173.4,59.8-207.15-121.45l0.6-1.45c17,4.65,35.05,16.45,50.65,36.45
				C1334.1,1802.3,1391.75,1836.55,1424.65,1828.95z"/>
		</g>
		<g>
			<path class="st3" d="M1726.95,1698.6c10.45-10.6,20.45-23.7,29.45-39.2c6.35-10.9,12.75-21.8,19.65-32.45
				c76.2-117.3,165.35-234.4,250.9-283.85C2101.9,1570.5,1885.15,1755,1726.95,1698.6z"/>
		</g>
		<g>
			<path class="st3" d="M3401.45,2134c-60.7,292.8-383.7,452.5-748.95,346c2.25,5.2,4.7,10.45,7.35,15.65l-156.7-230.05
				c376.85,195.65,797.1,61.05,875.25-184.65c0,0,0.25,0.15,0.75,0.45C3395.55,2091.95,3406.15,2111.45,3401.45,2134z"/>
		</g>
		<g>
			<path class="st3" d="M2976.85,2176l-173.75-41c206.9-135,326.9-621.25,124.5-820.75h0.05
				C3158.65,1469.1,3235.5,1809.65,2976.85,2176z"/>
		</g>
		<g>
			<path class="st3" d="M1193.55,2788.2c-2.7-22.05-3.9-44.8-3.55-68.2c-136.6,61.35-261.65,22.55-351.45-60.6
				c-73.4-68-115.05-163.5-119.6-263.4c-8.05-176.5-52.7-234.75-52.7-234.75c-43.85-55.05-57.05-95.7-57.8-124.2
				c-0.65-25.8,16.05-47.95,39.05-56.05c0.05,0,0.1,0,0.1,0s-39.25,33.15,19.05,88.15C725,2124.15,770,2186.65,790,2290
				c20,103.35,80.2,370.95,399.8,316.65L1193.55,2788.2z"/>
		</g>
		<g>
			<path class="st3" d="M2295,2425c-192.5-140-395-121.65-395-121.65c1.05,5.1,2.25,10.05,3.55,14.95l-1.9-3.3
				c0,0-98.3,103.35,23.35,255c272.5,297.5,637.5,247.5,799.05,718.1l0.05-0.05c-5.95-130.75-74.8-294.4-184.15-425.55
				c132.7,136,384.95,185.3,566.3,124l0.05-0.05C2707.6,3017.9,2435.8,2527.4,2295,2425z M2242.5,2652.5
				c-109.6-33.4-200.4-96-263.75-201.25c161.25,14,294.3,119.85,412.55,274.2C2345,2693.7,2295.1,2668.55,2242.5,2652.5z"/>
		</g>
		<g>
			<path class="st4" d="M2646.01,3465.91c-33.41,0-63.26-17.84-79.21-47.89c-131.4-247.53-285.03-379.42-469.67-403.2
				c-0.4-0.05-0.8-0.11-1.19-0.19c-208.94-38.41-368.25-113.29-483.27-227.69c60.7,127.2,170.21,207.29,331.98,243.54
				c111.16,21.89,199.76,50.58,263.33,85.26c31.59,17.24,50.68,50.39,49.82,86.51c-0.86,35.75-21.26,67.59-53.24,83.1
				c-71.19,34.52-160.75,51.07-256.95,51.08c-168.11,0.01-356.56-50.52-503.28-143.98c-170.66-108.7-267.77-263.79-276.26-439.52
				c-121.35,42.22-245.43,14.98-344.79-77.04c-76.81-71.13-121.84-170.18-126.79-278.9c-7.3-160.51-45.86-218.83-48.14-222.13
				c-40.31-50.74-61.3-96.92-62.36-137.25c-0.58-22.08,8.24-43.68,24.2-59.28c16.09-15.71,38.12-24.09,60.43-22.97
				c95.84,4.8,150.64,105.87,203.64,203.6c26.27,48.45,53.44,98.54,84.58,135.02c17.16,20.1,37.99,34.12,60.22,40.54
				c34.5,9.95,67.09,2.89,96.91-20.98c58.32-46.68,93.18-149.64,86.77-256.21c-1.61-26.74-14.33-52.32-34.9-70.2
				c-117.84-102.41-176.06-197.05-177.97-289.34c-1.76-85.05,44.92-157.31,92.51-217.21c-2.33-166.21,27.05-313.01,87.35-436.45
				c55.93-114.48,136.74-206.21,240.21-272.64c106.42-68.33,233.73-106.76,368.16-111.16c129.97-4.22,260.24,23.2,376.69,79.37
				c220.19,106.21,391.66,316.42,447.48,548.59c35.65,148.27,41.39,372.55-128.74,607.1c49.58,41.54,107.46,53.23,168.49,33.78
				c105.67-33.69,205.59-157.85,227.48-282.67c15.56-88.73-10.43-164.18-73.19-212.46c-29.88-22.98-47.73-56.35-53.07-99.17
				c-3.64-29.22,8.26-57.22,31.83-74.9c23.91-17.93,54.61-21.55,82.13-9.65c141.86,61.3,242.76,176.29,284.11,323.8
				c50.55,180.34,5.16,388.12-127.79,588.18c128.17,20.15,237.42-37.23,261.64-66.64c8.13-9.87,18.95-19.99,32.16-30.07
				c24.45-18.65,57.18-20.05,83.4-3.55c26.15,16.46,39.02,46.48,32.8,76.49c-27.15,130.97-106.87,242.04-224.46,312.74
				c-137.77,82.84-318.25,105.22-501.81,63.51c33.83,50.97,89.89,106.76,164.91,163.79c65.61,49.87,145.75,82.27,231.78,93.67
				c28.31,3.75,57.37,10.65,86.39,20.5c35.6,12.08,60.6,42.72,65.25,79.95c4.6,36.87-11.9,72.34-43.06,92.57
				c-72.68,47.18-167.04,69.59-264.71,69.59c-103.33,0.01-210.37-25.07-299.51-72.46c9.14,15.33,17.88,31.04,26.2,47.06
				c75.8,146.08,101.37,293.27,68.38,393.73c-11.58,35.28-41.75,59.17-78.73,62.33C2651.39,3465.8,2648.69,3465.91,2646.01,3465.91z
				 M2103.49,2970.26c199.89,25.99,364.45,165.56,503.05,426.66c8.76,16.5,25.1,25.41,43.74,23.8c14.65-1.25,32.8-10.2,39.81-31.53
				c28.85-87.87,3.73-225.42-65.57-358.96c-28.57-55.06-62.33-105.88-99.86-151.18c-0.28-0.28-0.55-0.56-0.82-0.84
				c-1.06-1.09-1.99-2.26-2.79-3.49c-82.29-97.9-182.25-169.31-285.11-200.7c-123.12-37.53-213.55-106.61-276.46-211.17
				c-4.36-7.25-4.29-16.33,0.19-23.52c4.48-7.18,12.6-11.2,21.04-10.5c152.01,13.22,291.57,105,426.61,280.57
				c53.82,37.37,104.59,84.3,150.08,138.75c70.36,71.31,180.28,121.13,301.96,136.79c122.09,15.71,238.23-5.2,318.63-57.39
				c16.83-10.93,25.4-29.34,22.91-49.25c-2.53-20.28-15.64-36.32-35.06-42.92c-26.24-8.91-52.43-15.13-77.84-18.5
				c-93.76-12.43-181.29-47.86-253.1-102.46c-104.77-79.65-173.1-155.55-203.07-225.59c-3.42-8-1.93-17.26,3.85-23.77
				c5.77-6.51,14.77-9.12,23.14-6.68c188.78,55.05,377.23,38.41,517.03-45.64c106.71-64.17,179.02-164.78,203.59-283.31
				c3.62-17.47-8.81-26.83-12.7-29.28c-3.93-2.47-17.84-9.68-32.13,1.24c-10.47,7.99-18.79,15.69-24.72,22.9
				c-37.27,45.26-179.58,116.16-339.67,74.99c-7.17-1.85-12.97-7.1-15.52-14.05c-2.55-6.95-1.51-14.71,2.77-20.75
				c139.8-197.35,189.7-402.69,140.51-578.19c-37.61-134.18-129.47-238.82-258.63-294.63c-12.51-5.41-26.44-3.78-37.28,4.35
				c-10.65,7.99-15.82,20.14-14.17,33.33c3.79,30.45,15.86,53.69,35.85,69.07c76.68,58.99,108.67,149.87,90.08,255.9
				c-24.93,142.19-135.91,278.8-258.13,317.76c-82.81,26.41-163.83,5.89-228.15-57.75c-8.03-7.94-8.93-20.61-2.1-29.6
				c171.97-226.46,167.29-443.59,133.08-585.87c-52.74-219.38-214.93-418.1-423.27-518.59c-227.42-109.69-502.58-98.27-700.99,29.13
				c-203.99,130.98-312.92,371.93-306.74,678.49c0.11,5.29-1.66,10.45-4.98,14.58c-96.37,119.5-163.17,243.9,74.83,450.73
				c29.63,25.75,47.97,62.73,50.3,101.46c7.37,122.36-33.28,237.78-103.56,294.04c-41.31,33.06-88.86,43.11-137.5,29.08
				c-30.73-8.86-59.07-27.72-81.97-54.55c-34.22-40.09-62.54-92.3-89.92-142.79c-49.24-90.81-95.75-176.58-166.34-180.12
				c-9.8-0.48-19.58,3.24-26.73,10.22c-7.13,6.97-10.92,16.17-10.66,25.9c0.55,20.93,10.18,57.14,52.9,110.8
				c2.25,2.93,49.32,66.29,57.57,247.72c4.34,95.42,45.32,185.79,112.41,247.92c55.24,51.15,171.18,126.52,326.95,56.59
				c7.02-3.14,15.16-2.5,21.58,1.73c6.43,4.23,10.25,11.45,10.13,19.14c-3.33,221.95,137.37,358.6,255.99,434.16
				c107.31,68.36,241.59,114.79,378.09,130.75c132.51,15.5,252.67,1.15,338.33-40.38c17-8.25,27.43-24.58,27.89-43.69
				c0.47-19.5-9.4-36.67-26.38-45.93c-59.6-32.52-143.97-59.66-250.76-80.67c-0.19-0.03-0.38-0.08-0.57-0.12
				c-220.63-49.36-356.73-180.39-404.52-389.44c-2.4-10.52,2.99-21.26,12.86-25.61c9.87-4.36,21.44-1.08,27.58,7.79
				C1680.3,2825.24,1854.48,2924.38,2103.49,2970.26z M2026.21,2481.18c54.8,71.71,128.14,120.92,222.85,149.79
				c15.61,4.77,31.14,10.37,46.56,16.78C2208.32,2556.54,2119.28,2501.53,2026.21,2481.18z"/>
		</g>
		<g>
			<path class="st4" d="M1167.5,2720.42c-0.76-45.74,0.95-91.7,5.93-137.64l1.81-17.23l2.5-17.2l2.65-17.19
				c1.09-5.7,2.31-11.39,3.51-17.08l3.89-17c1.58-5.61,3.23-11.2,4.93-16.77l5.14-16.68l6.01-16.43
				c16.15-43.68,37.17-85.6,63.48-123.57c26-38.17,56.47-72.71,89.67-103.75c3.03-2.84,7.79-2.68,10.62,0.36
				c2.6,2.78,2.68,7.01,0.34,9.88c-28.18,34.63-53.71,71-74.79,109.45c-20.86,38.55-37.81,78.81-49.37,120.64l-4.36,15.65
				l-3.51,15.89l-3.62,15.84l-3.06,15.99l-3.34,15.93l-2.68,16.1l-2.82,16.09l-2.01,16.26c-5.28,43.39-6.53,87.46-5.93,131.61
				l0,0.17c0.17,12.42-9.77,22.63-22.19,22.8C1177.88,2742.71,1167.67,2732.85,1167.5,2720.42z"/>
		</g>
		<g>
			<path class="st4" d="M2071.41,3199.33c-44.29,0-81.82-3.44-91.25-4.38c-116.66-5.96-222.3-39.48-314.01-99.63
				c-83.33-54.66-151.85-130.28-198.14-218.67c-88.34-168.68-86.43-364.94,4.99-512.2c4.69-7.55,13.78-11.1,22.34-8.73
				c8.56,2.38,14.52,10.11,14.65,18.99c1.61,115.59,21.99,215.41,60.57,296.7c4.74,9.98,0.49,21.91-9.49,26.64
				c-9.99,4.74-21.91,0.48-26.64-9.49c-32.21-67.86-52.49-147.34-60.55-237.04c-49.29,124.87-39.54,274.58,29.58,406.55
				c93.26,178.07,267.92,286.29,479.22,296.93c0.33,0.02,0.67,0.04,1,0.08c48.26,4.85,182.47,11.07,223.52-18.11
				c9.01-6.4,21.49-4.28,27.89,4.72c6.4,9,4.29,21.49-4.71,27.89C2196.55,3193.63,2128.39,3199.33,2071.41,3199.33z"/>
		</g>
		<g>
			<path class="st4" d="M3069.83,3007.89c-286.39,0.03-506-255.48-653.45-427c-52.79-61.4-98.37-114.43-133.15-139.72
				c-146.23-106.35-300.13-118.22-357.82-118.54c12.48,42.25,34.42,79.25,67.92,114.93c7.56,8.05,7.16,20.71-0.89,28.27
				c-8.06,7.56-20.71,7.16-28.27-0.89c-44.18-47.07-71.58-98.6-83.75-157.55c-1.15-5.58,0.13-11.39,3.53-15.97s8.58-7.49,14.26-8
				c8.58-0.77,212.24-17.37,408.57,125.41c38.54,28.03,85.54,82.7,139.96,146c148.63,172.89,373.26,434.12,658.01,411.69
				c11.01-0.89,20.64,7.35,21.51,18.36c0.87,11.01-7.35,20.64-18.37,21.51C3095.08,3007.4,3082.37,3007.89,3069.83,3007.89z"/>
		</g>
		<g>
			<path class="st4" d="M1881.2,2310.17l-18.25-86.77c-0.86-4.1,1.76-8.12,5.85-8.97c3.37-0.71,6.69,0.95,8.24,3.85l41.75,78.23
				c5.25,9.84,1.53,22.08-8.31,27.33c-9.84,5.25-22.08,1.53-27.33-8.31C1882.25,2313.82,1881.59,2311.96,1881.2,2310.17z"/>
		</g>
		<g>
			<path class="st4" d="M2113.29,1992.54c31.67,2.01,63.25,7.76,93.91,16.94c30.67,9.18,60.24,22.12,88.3,37.65
				c56.34,31.04,105.46,73.31,149.55,118.98c22.04,22.93,43.07,46.73,62.56,71.61c19.49,24.88,37.71,50.58,55.74,76.27
				c36.06,51.39,70.57,103.42,105.64,154.69c6.24,9.12,3.91,21.56-5.21,27.8c-9.12,6.24-21.55,3.93-27.79-5.19
				c-35.41-51.6-69.59-103.65-105.48-154.11c-17.95-25.22-36.53-49.87-55.37-74.17c-18.84-24.29-37.68-48.48-57.8-71.48
				c-40.1-46.05-85-87.76-136.05-120.47c-51.01-32.62-108.81-54.81-169.59-63.63c-4.1-0.59-6.95-4.4-6.35-8.5
				c0.56-3.89,4.02-6.65,7.87-6.42L2113.29,1992.54z"/>
		</g>
		<g>
			<path class="st4" d="M2880.71,2379.66c-129.7,0-263.78-32.45-386.77-96.29c-9.8-5.09-13.63-17.16-8.54-26.96
				c5.09-9.81,17.17-13.63,26.97-8.54c201.79,104.75,434.4,120.93,622.24,43.26c115.8-47.88,195.61-124.67,224.73-216.25
				c3.35-10.53,14.59-16.36,25.12-13c10.52,3.34,16.35,14.59,13,25.12c-32.76,103.01-120.68,188.63-247.57,241.09
				C3066.43,2362.61,2974.71,2379.66,2880.71,2379.66z"/>
		</g>
		<g>
			<path class="st4" d="M2609.11,2085.18c31.61,3.5,62.95,8.72,94.08,14.65c31.15,5.87,62.02,12.73,92.72,19.58
				c30.69,6.9,61.17,13.97,91.49,20.54c30.34,6.55,60.52,12.49,90.75,17.69l0.12,0.02c10.9,1.87,18.22,12.22,16.34,23.12
				c-1.76,10.22-11.06,17.28-21.18,16.58c-32.37-2.35-64.22-8.01-95.41-15.12c-31.22-7.09-61.81-15.69-92.09-24.77
				c-30.27-9.15-60.29-18.59-90.23-28.27c-29.95-9.64-59.89-19.24-89.82-29.38c-3.95-1.32-6.08-5.6-4.75-9.55
				C2602.28,2086.86,2605.67,2084.8,2609.11,2085.18z"/>
		</g>
		<g>
			<path class="st4" d="M2803.14,2155c-6.53,0-12.93-3.19-16.77-9.07c-6.04-9.25-3.43-21.64,5.82-27.68
				c108.56-70.85,197.45-250.42,216.14-436.69c15.29-152.37-18.36-277.75-94.76-353.07c-7.87-7.75-7.96-20.42-0.2-28.29
				c7.75-7.86,20.42-7.96,28.28-0.2c85.19,83.97,123,220.9,106.47,385.55c-19.82,197.49-116.08,389.19-234.08,466.2
				C2810.68,2153.95,2806.89,2155,2803.14,2155z"/>
		</g>
		<g>
			<path class="st4" d="M2425.74,1912.36l-93.27-141.02c-2.29-3.47-1.34-8.14,2.13-10.43c3.09-2.04,7.13-1.51,9.6,1.08
				l116.73,122.31c8.61,9.02,8.28,23.32-0.75,31.93s-23.33,8.28-31.94-0.75C2427.33,1914.54,2426.45,1913.42,2425.74,1912.36z"/>
		</g>
		<g>
			<path class="st4" d="M1108.76,2633.9c-104.38,0-187.2-38.19-246.94-114.08c-56.08-71.24-78.33-158.21-91.46-226.02
				c-20.68-106.83-68.65-164.1-117.42-210.08c-26.04-24.56-38.91-49.4-38.24-73.86c0.74-27.11,18.04-42.49,20.01-44.15l25.81,30.56
				l0.35-0.3c-0.25,0.23-6.17,5.89-6.19,15.62c-0.02,12.28,8.87,27.16,25.71,43.04c51.07,48.15,106.36,113.32,129.25,231.59
				c16.9,87.34,68.34,353.15,376.79,300.75c10.87-1.87,21.22,5.48,23.07,16.37s-5.48,21.22-16.37,23.07
				C1163.62,2631.4,1135.48,2633.9,1108.76,2633.9z"/>
		</g>
		<g>
			<path class="st4" d="M2724.06,3308.09c-8.31,0-16.06-5.21-18.91-13.51c-96.48-281.03-267.61-371.54-448.8-467.36
				c-117.17-61.97-238.32-126.04-346.09-243.7c-0.3-0.32-0.58-0.65-0.85-1c-131.09-163.41-23.33-280.14-22.22-281.3
				c7.61-8,20.28-8.32,28.27-0.7c7.98,7.59,8.31,20.2,0.76,28.21c-3.67,3.95-83.85,93.35,23.97,228.26
				c102.99,112.24,220.86,174.58,334.85,234.87c188.38,99.63,366.31,193.74,467.93,489.74c3.59,10.45-1.98,21.82-12.42,25.41
				C2728.4,3307.73,2726.21,3308.09,2724.06,3308.09z"/>
		</g>
		<g>
			<path class="st4" d="M1355.48,1922.82c-1.25,0-2.47-0.03-3.64-0.09c-67.01-3.25-131.78-92.23-154-211.57
				c-0.71-3.81-0.3-7.74,1.18-11.31l0.6-1.45c3.86-9.31,14.02-14.28,23.75-11.64c22.2,6.07,42.94,20.61,60.06,42.08
				c72.46,66.05,118.89,84.76,136.71,80.63c6.9-1.61,14.14,0.58,19.02,5.73c4.88,5.15,6.66,12.49,4.7,19.3
				C1422,1910.24,1380.55,1922.82,1355.48,1922.82z M1248.3,1749.19c25.25,81.63,71.04,131.92,105.47,133.59
				c20.37,0.86,33.89-16.48,42.59-34.91c-36.66-7.96-83.92-38.29-141.11-90.62c-0.82-0.75-1.58-1.58-2.27-2.46
				C1251.46,1752.85,1249.9,1750.98,1248.3,1749.19z"/>
		</g>
		<g>
			<path class="st4" d="M1454.85,1721c2.93,9.75,5.82,19.58,7.93,29.79c2.21,10.17,3.92,20.62,4.33,31.71
				c0.33,11.05-0.16,22.86-5.04,35.63c-2.69,6.34-6.51,12.88-12.31,18.46c-5.86,5.49-13.17,9.53-20.6,11.86l-1.94,0.61
				c-10.68,3.35-22.06-2.59-25.41-13.27c-3.35-10.68,2.59-22.06,13.27-25.41c1.65-0.52,3.42-0.82,5.08-0.91
				c2.23-0.11,4.05-0.41,5.95-1.17c1.82-0.88,3.76-2.63,5.68-5.08c3.71-5.26,6.37-13.51,7.86-22.23c1.57-8.78,2.08-18.27,2.01-27.85
				c0.06-9.59-0.69-19.34-1.5-29.13l-0.02-0.21c-0.34-4.14,2.73-7.78,6.88-8.13C1450.62,1715.36,1453.85,1717.66,1454.85,1721z"/>
		</g>
		<g>
			<path class="st4" d="M1760.25,2049l-95.45,66.45c-3.7,2.55-7.6,4.6-11.7,6.15c-16.4,6.3-35.25,4.4-49.85-6.2
				c-72.65-52.85-94.7-146.35-65-220.8c15.05-37.6,54.05-59.9,93.65-51.25c34.9,7.6,67.8,32.3,95.05,65.2
				c20.4,24.55,37.65,53.65,50.25,83.65C1785.8,2012.65,1778.5,2036.35,1760.25,2049z"/>
		</g>
		<g>
			<path class="st4" d="M1152.72,1775.57c-3.25-9.51-5.73-19.65-5.87-30.63c-0.15-10.88,2.36-22.91,9.32-33.48
				c6.81-10.6,18.03-18.83,30.23-22.72c12.24-4.03,25.06-4.11,36.94-1.98l1.23,0.21c10.99,1.96,18.31,12.46,16.35,23.45
				s-12.46,18.31-23.45,16.35c-1.59-0.28-3.2-0.8-4.62-1.41c-6.16-2.72-12.65-4.21-18.67-3.77c-6.03,0.41-11.63,2.52-16.3,6.76
				c-4.68,4.2-8.21,10.77-9.86,18.5c-1.69,7.72-1.68,16.35-0.74,25.09l0.04,0.41c0.44,4.13-2.54,7.84-6.67,8.28
				C1157.08,1781,1153.84,1778.82,1152.72,1775.57z"/>
		</g>
		<g>
			<path class="st4" d="M2016.92,1325.8c16.12-8.08,33.28-14.84,51.51-18.76c18.13-3.99,37.56-4.78,56.11-0.82
				c18.56,3.83,35.73,12.28,50.02,23.28c14.38,11.01,26.15,24.3,36.29,38.31c2.43,3.36,1.68,8.05-1.68,10.48
				c-3.1,2.25-7.35,1.78-9.89-0.95l-0.11-0.13c-11.04-11.82-23.18-22.35-36.5-30.1c-13.29-7.78-27.68-12.56-42.2-13.69
				c-14.52-1.23-29.14,1.19-43.15,6.18c-14.04,4.94-27.51,12.23-40.33,20.81c-9.2,6.16-21.65,3.7-27.8-5.5
				c-6.16-9.19-3.7-21.65,5.5-27.8c0.67-0.45,1.36-0.85,2.06-1.21L2016.92,1325.8z"/>
		</g>
		<g>
			<path class="st4" d="M1607.47,1631.01c2.55,15.99,6.23,31.77,12.44,45.85c6.07,14.02,14.99,26.43,25.83,32.58
				c5.39,3.07,11.1,4.45,16.89,4.58c5.84-0.05,11.83-1.43,17.73-3.94c11.86-5.15,22.91-14.56,32.35-25.53
				c7.22-8.4,19.88-9.35,28.27-2.13s9.35,19.87,2.13,28.27c-0.55,0.64-1.13,1.24-1.75,1.79l-0.19,0.17
				c-13.97,12.5-30.25,23.68-50.02,29.41c-9.86,2.76-20.66,3.92-31.43,2.45c-10.75-1.6-21.2-5.98-29.52-12.38
				c-8.33-6.41-14.7-14.34-19.51-22.57c-4.83-8.27-8.21-16.88-10.78-25.5c-5.11-17.28-6.81-34.65-7.4-51.76
				c-0.14-4.15,3.11-7.62,7.25-7.76c3.83-0.13,7.09,2.63,7.67,6.32L1607.47,1631.01z"/>
		</g>
		<g>
			<path class="st5" d="M1760.25,2049l-95.45,66.45c-3.7,2.55-7.6,4.6-11.7,6.15c-68.4-85.35-11.85-199.1,73.85-213.05
				c20.4,24.55,37.65,53.65,50.25,83.65C1785.8,2012.65,1778.5,2036.35,1760.25,2049z"/>
		</g>
		<g>
			<path class="st4" d="M1787.14,1728.71c-23.03,0-45.6-3.68-66.9-11.27c-6.44-2.29-11.25-7.71-12.78-14.38
				c-1.53-6.66,0.45-13.64,5.25-18.5c9.62-9.77,18.5-21.61,26.4-35.21c6.59-11.32,13.08-22.36,20.16-33.28
				c98.94-152.31,183.23-247.26,257.68-290.29c5.21-3.02,11.51-3.52,17.13-1.37c5.62,2.14,9.99,6.71,11.87,12.43
				c37.32,113.22,9.48,229.74-74.47,311.69C1918.38,1700.36,1851.02,1728.71,1787.14,1728.71z M1762.5,1686.95
				c60.09,9.01,128.3-15.57,181.03-67.05c66.56-64.98,92.38-155.15,71.48-245.35c-63.77,45.22-136.75,131.75-222.2,263.28
				c-6.59,10.17-12.81,20.76-19.14,31.62C1770.14,1675.57,1766.41,1681.41,1762.5,1686.95z"/>
		</g>
		<g>
			<path class="st4" d="M1633.76,2145.23c-14.93,0-29.76-4.55-42.27-13.65c-76.06-55.3-106.26-158.08-71.79-244.38
				c18.91-47.34,67.88-74.01,116.47-63.41c74.56,16.26,131.25,93.65,159.45,160.65c12.14,28.84,2.07,62.9-23.93,80.99l-95.49,66.43
				C1663.39,2140.78,1648.53,2145.23,1633.76,2145.23z M1614.9,1861.49c-24.9,0-48.12,15.65-58.06,40.54
				c-27.78,69.56-3.32,152.49,58.17,197.19c11.13,8.1,26.54,8.01,38.34-0.2l0,0l95.49-66.43c10.59-7.37,14.76-21.1,9.9-32.64
				c-30.53-72.57-82-126.38-131.1-137.09C1623.39,1861.94,1619.12,1861.49,1614.9,1861.49z"/>
		</g>
		<g>
			<path class="st4" d="M732.64,2500.37c-5.84,0-11.55-2.92-14.87-8.24c-5.11-8.2-2.61-19,5.6-24.11
				c11.66-7.27,27.2-19.84,35.02-38.5c6.52-15.56,5.87-32.96-1.69-45.42c-7.4-12.2-22.86-19.38-35.18-16.32
				c-9.39,2.3-18.87-3.42-21.18-12.8c-2.32-9.38,3.42-18.87,12.8-21.18c27.22-6.69,58.11,6.82,73.48,32.15
				c13.26,21.87,14.82,51.41,4.05,77.1c-9.01,21.49-25.88,40.41-48.79,54.68C739,2499.52,735.8,2500.37,732.64,2500.37z"/>
		</g>
		<g>
			<path class="st4" d="M866.71,2687.18c-1.99,0-4.02-0.34-6.01-1.07c-9.08-3.32-13.75-13.36-10.43-22.45
				c8.22-22.48,9.92-45.92,4.79-65.99c-5.47-21.43-19.2-39.79-36.71-49.13c-18-9.59-40.65-9.24-56.35,0.88
				c-8.12,5.24-18.95,2.9-24.19-5.23c-5.23-8.12-2.89-18.96,5.23-24.19c26.45-17.03,62.47-17.96,91.77-2.35
				c26.44,14.08,46.18,40.09,54.17,71.35c6.96,27.23,4.94,57.2-5.84,86.67C880.56,2682.77,873.85,2687.18,866.71,2687.18z"/>
		</g>
		<g>
			<path class="st4" d="M1073.13,2760.18c-7.62,0-14.63-5.02-16.82-12.71c-7.69-26.98-31.17-49.56-58.43-56.18
				c-27.27-6.62-58.49,2.67-77.69,23.12c-6.62,7.06-17.69,7.39-24.74,0.78c-7.05-6.62-7.39-17.7-0.78-24.74
				c27.98-29.79,71.72-42.81,111.46-33.18c39.73,9.65,72.63,41.29,83.84,80.61c2.65,9.3-2.74,18.98-12.04,21.63
				C1076.33,2759.96,1074.72,2760.18,1073.13,2760.18z"/>
		</g>
		<g>
			<path class="st4" d="M1557.73,2759.25c-1.73,0-3.49-0.26-5.23-0.8c-32.87-10.28-61.88-33.13-79.58-62.68
				c-17.7-29.55-24.16-65.9-17.71-99.74c5.95-31.25,22.64-56.15,45.78-68.31c8.56-4.49,19.14-1.2,23.63,7.36
				c4.49,8.55,1.2,19.14-7.36,23.63c-13.44,7.06-23.78,23.46-27.67,43.87c-4.86,25.52,0.01,52.92,13.36,75.21s35.22,39.51,60,47.26
				c9.22,2.89,14.36,12.71,11.48,21.93C1572.08,2754.46,1565.18,2759.25,1557.73,2759.25z"/>
		</g>
		<g>
			<path class="st4" d="M1662.13,2937.68c-0.33,0-0.66-0.01-0.99-0.03c-23.17-1.28-49.43-2.75-73.95-11.98
				c-29.34-11.05-51.47-32.74-59.21-58.01c-5.99-19.59-3.42-41.86,6.88-59.57s28.39-30.95,48.39-35.41
				c9.42-2.11,18.79,3.83,20.89,13.27c2.1,9.43-3.84,18.79-13.27,20.89c-10.64,2.38-20.28,9.42-25.76,18.86
				c-5.49,9.43-6.86,21.28-3.67,31.72c4.58,14.97,18.82,28.24,38.08,35.5c19.49,7.34,41.89,8.59,63.55,9.79
				c9.65,0.53,17.04,8.79,16.5,18.44C1679.07,2930.47,1671.35,2937.68,1662.13,2937.68z"/>
		</g>
		<g>
			<path class="st4" d="M1761.14,3052.12c-19.7,0-37.53-5.74-50.73-16.44c-14.36-11.63-23.95-29.55-27.01-50.46
				c-2.78-18.95,0.08-37.34,2.87-51.25c1.9-9.48,11.15-15.62,20.6-13.71c9.48,1.9,15.62,11.13,13.71,20.61
				c-2.24,11.13-4.55,25.66-2.55,39.28c1.76,12.02,7.02,22.35,14.42,28.35c7.78,6.3,19.48,9.29,32.89,8.5
				c13.8-0.84,28.22-5.44,42.16-9.88c9.21-2.92,19.05,2.15,21.98,11.36s-2.15,19.05-11.36,21.99c-15.23,4.85-32.5,10.35-50.64,11.46
				C1765.34,3052.06,1763.23,3052.12,1761.14,3052.12z"/>
		</g>
		<g>
			<path class="st4" d="M1928.24,3139.49c-23.21,0-46.22-9.87-61.85-27.3c-19.56-21.82-26.09-53.83-16.64-81.56
				c3.12-9.16,13.06-14.04,22.21-10.92c9.15,3.12,14.04,13.06,10.92,22.21c-5.35,15.7-1.51,34.55,9.57,46.9
				c11.08,12.36,29.4,18.22,45.59,14.6c16.19-3.62,30.27-16.73,35.04-32.62c2.78-9.26,12.53-14.52,21.79-11.74
				c9.26,2.77,14.51,12.53,11.74,21.79c-8.42,28.08-32.33,50.34-60.93,56.73C1939.93,3138.87,1934.07,3139.49,1928.24,3139.49z"/>
		</g>
		<g>
			<path class="st4" d="M2057.9,2613.32c-32.62,0-65.2-15.43-84.6-42.08c-25.63-35.19-25.6-86.25,0.07-121.4
				c5.7-7.8,16.65-9.52,24.45-3.81c7.81,5.7,9.51,16.65,3.81,24.45c-16.68,22.83-16.7,57.29-0.05,80.15
				c16.65,22.86,49.46,33.41,76.3,24.55c9.19-3.02,19.07,1.96,22.1,11.13s-1.96,19.07-11.13,22.1
				C2078.83,2611.73,2068.36,2613.32,2057.9,2613.32z"/>
		</g>
		<g>
			<path class="st4" d="M2213.19,2728.75c-30.67,0-60.25-13.07-80.02-35.62c-21.94-25.01-30.04-59.96-21.13-91.2
				c2.65-9.3,12.33-14.67,21.63-12.03c9.29,2.65,14.68,12.33,12.03,21.63c-5.6,19.62-0.18,42.59,13.79,58.52
				c13.76,15.69,35.79,24.7,57.53,23.59c21.34-1.12,42.79-11.91,57.37-28.87c6.3-7.33,17.35-8.16,24.68-1.87
				c7.33,6.3,8.16,17.35,1.86,24.68c-21,24.43-50.92,39.38-82.08,41.01C2216.95,2728.7,2215.07,2728.75,2213.19,2728.75z"/>
		</g>
		<g>
			<path class="st4" d="M2383.56,2832.55c-6.63,0-13.25-0.68-19.76-2.09c-32.96-7.12-61.08-32.42-71.64-64.45
				c-10.56-32.02-3-69.08,19.26-94.41c6.38-7.27,17.44-7.97,24.7-1.6c7.26,6.38,7.98,17.44,1.6,24.7
				c-14.01,15.95-18.96,40.21-12.31,60.36c6.65,20.16,25.05,36.71,45.8,41.2c20.74,4.47,44.34-3,58.72-18.61
				c6.55-7.11,17.61-7.57,24.73-1.02c7.11,6.55,7.56,17.62,1.02,24.73C2437.32,2821.26,2410.48,2832.55,2383.56,2832.55z"/>
		</g>
		<g>
			<path class="st4" d="M2165.32,2517.18c-1.35,0-2.71-0.16-4.08-0.48c-9.4-2.25-15.2-11.68-12.96-21.08
				c5.92-24.79-8.1-53.63-31.25-64.3c-23.14-10.65-54.18-2.56-69.17,18.04c-5.69,7.82-16.63,9.55-24.45,3.86
				c-7.81-5.68-9.54-16.63-3.86-24.44c24.72-33.97,73.96-46.83,112.12-29.24c38.16,17.57,60.4,63.35,50.65,104.21
				C2180.41,2511.77,2173.23,2517.18,2165.32,2517.18z"/>
		</g>
		<g>
			<path class="st4" d="M2313.53,2641.84c-2.44,0-4.91-0.51-7.27-1.59c-8.79-4.02-12.65-14.4-8.63-23.19
				c10.49-22.92,4.61-53.29-13.67-70.65c-18.28-17.36-48.92-21.66-71.25-9.99c-8.57,4.48-19.14,1.16-23.61-7.42
				c-4.47-8.56-1.15-19.14,7.42-23.61c35.55-18.55,82.47-11.99,111.55,15.63c29.08,27.62,38.08,74.13,21.4,110.59
				C2326.51,2638.04,2320.16,2641.84,2313.53,2641.84z"/>
		</g>
		<g>
			<path class="st4" d="M2477.63,2806.01c-9.64,0-17.47-7.8-17.5-17.45c-0.11-37.07-10.48-69.19-29.21-90.45
				c-20.92-23.74-54.16-33.33-79.08-22.84c-8.9,3.76-19.17-0.42-22.92-9.32c-3.75-8.91,0.42-19.17,9.33-22.92
				c38.97-16.45,87.89-3.3,118.94,31.95c31.2,35.41,37.86,81.26,37.95,113.49c0.03,9.66-7.79,17.52-17.45,17.55
				C2477.67,2806.01,2477.65,2806.01,2477.63,2806.01z"/>
		</g>
		<g>
			<path class="st4" d="M2610.43,2926.38c-2.1,0-4.24-0.38-6.32-1.19c-9.01-3.49-13.49-13.63-10-22.64
				c7.69-19.84,1.36-45.31-14.71-59.25c-16.08-13.94-42.19-16.61-60.74-6.19c-8.44,4.72-19.1,1.72-23.83-6.7
				c-4.73-8.43-1.73-19.1,6.7-23.83c31.8-17.84,73.25-13.61,100.8,10.27c27.55,23.9,37.59,64.33,24.42,98.34
				C2624.07,2922.13,2617.45,2926.38,2610.43,2926.38z"/>
		</g>
		<g>
			<path class="st4" d="M2740.35,2976.25c-9.67,0-17.5-7.84-17.5-17.5c0-12.5-9.42-24.98-21.45-28.41
				c-12.02-3.44-26.61,2.22-33.2,12.85c-5.1,8.21-15.88,10.74-24.1,5.65c-8.21-5.09-10.74-15.88-5.65-24.1
				c14.88-23.98,45.37-35.8,72.53-28.06c27.15,7.73,46.86,33.84,46.86,62.07C2757.85,2968.41,2750.01,2976.25,2740.35,2976.25z"/>
		</g>
		<g>
			<path class="st4" d="M2823.52,2512.57c-9.27,0-17-7.28-17.46-16.64c-1.08-21.79-20.32-42.08-42.03-44.32
				c-21.67-2.2-44.68,13.71-50.19,34.82c-2.44,9.35-12,14.96-21.35,12.52c-9.35-2.44-14.96-11.99-12.52-21.35
				c9.94-38.14,48.48-64.84,87.64-60.81c39.2,4.04,71.44,38.04,73.39,77.41c0.48,9.65-6.96,17.87-16.61,18.34
				C2824.1,2512.57,2823.81,2512.57,2823.52,2512.57z"/>
		</g>
		<g>
			<path class="st4" d="M2874.43,2524.82c-7.9,0-15.06-5.38-17-13.4c-8.54-35.37,14.63-68.42,41.94-82.8
				c23.5-12.38,52.42-14.27,77.34-5.06c24.92,9.2,45.66,29.44,55.48,54.13c3.57,8.98-0.81,19.16-9.79,22.73
				c-8.98,3.57-19.16-0.82-22.73-9.79c-6.21-15.62-19.33-28.41-35.09-34.23c-15.77-5.82-34.05-4.63-48.92,3.2
				c-15.15,7.98-28.36,26.47-24.22,43.62c2.27,9.39-3.51,18.85-12.91,21.12C2877.17,2524.66,2875.79,2524.82,2874.43,2524.82z"/>
		</g>
		<g>
			<path class="st4" d="M3062.15,2492.57c-8.29,0-15.65-5.91-17.19-14.36c-7.17-39.14,14.44-81.72,50.27-99.05
				c35.83-17.32,82.62-7.82,108.85,22.09c6.37,7.27,5.64,18.33-1.62,24.7c-7.27,6.37-18.33,5.64-24.69-1.62
				c-15.95-18.2-45.51-24.2-67.29-13.66c-21.78,10.53-35.43,37.44-31.08,61.24c1.74,9.51-4.56,18.62-14.06,20.36
				C3064.25,2492.47,3063.19,2492.57,3062.15,2492.57z"/>
		</g>
		<g>
			<path class="st4" d="M3224.62,2414.87c-9.63,0-17.46-7.79-17.5-17.43c-0.06-15.93-0.13-32.4,3.64-49.2
				c3.23-14.39,10.78-34.5,28.35-48.56c24.62-19.71,58.01-18.6,80.12-17.88c9.66,0.32,17.23,8.41,16.91,18.07
				s-8.44,17.15-18.07,16.91c-22.44-0.72-43.69-0.51-57.1,10.22c-7.53,6.03-13.23,16.29-16.07,28.91
				c-2.91,12.94-2.85,27.4-2.79,41.39c0.04,9.66-7.76,17.53-17.43,17.57C3224.67,2414.87,3224.64,2414.87,3224.62,2414.87z"/>
		</g>
		<g>
			<path class="st4" d="M2883.1,2167.24c-2.22,0-4.48-0.42-6.65-1.32c-8.94-3.68-13.2-13.91-9.52-22.84
				c12.2-29.66,39.02-53.27,69.99-61.63c30.97-8.36,66.03-1.43,91.49,18.06c7.68,5.87,9.13,16.86,3.26,24.54
				c-5.87,7.67-16.86,9.14-24.53,3.26c-17.01-13.02-40.41-17.64-61.1-12.07c-20.68,5.58-38.59,21.35-46.74,41.16
				C2896.51,2163.15,2889.98,2167.24,2883.1,2167.24z"/>
		</g>
		<g>
			<path class="st4" d="M3041.97,2063c-5.56,0-11.03-2.65-14.43-7.57c-20.63-29.95-26.63-66.06-16.06-96.61
				c12.48-36.06,48.54-60.06,83.87-55.9c9.6,1.14,16.45,9.85,15.31,19.44c-1.14,9.6-9.88,16.47-19.44,15.31
				c-18.74-2.23-39.67,12.39-46.66,32.59c-6.84,19.78-2.32,44.8,11.81,65.31c5.48,7.96,3.47,18.86-4.48,24.34
				C3048.85,2062,3045.39,2063,3041.97,2063z"/>
		</g>
		<g>
			<path class="st4" d="M3115.45,1873.88c-2.21,0-4.46-0.42-6.63-1.31c-36.5-14.96-60.11-54.31-56.15-93.55
				c3.97-39.25,34.98-73.07,73.74-80.42c9.48-1.82,18.65,4.43,20.45,13.93c1.8,9.5-4.44,18.65-13.94,20.45
				c-23.49,4.46-43.03,25.76-45.43,49.56s12.47,48.57,34.6,57.65c8.94,3.66,13.22,13.89,9.55,22.83
				C3128.88,1869.79,3122.34,1873.88,3115.45,1873.88z"/>
		</g>
		<g class="st6">
			<path class="st4" d="M1470.25,762.4c0,0,0.1-0.05,0.25-0.1l-0.05,0.05C1470.4,762.35,1470.3,762.4,1470.25,762.4z"/>
		</g>
		<g class="st6">
			<path class="st4" d="M2583.87,1981l-5.98-19.35L2475,1925l-43.36-41.34l-4.52-0.52C2719.44,1449.46,2467.45,962.25,2100,785
				c-144.4-69.65-311.95-93.9-469.8-66.6c-30.11,9.41-59.79,19.09-86.83,28.12c323.06-37.78,953.39,245.76,673.44,947.14
				c-20.53,51.44-17.1,109.38,9.2,158.12c72.76,134.87,171.82,222.37,373.44,125.2C2594.28,1978.52,2589.08,1979.85,2583.87,1981z"
				/>
		</g>
		<g class="st6">
			<path class="st4" d="M2976.85,2176c-0.3,0.4-0.6,0.85-0.9,1.25l-355.4-81.85c268.5-8.75,500-78.7,486.3-554.3
				C3171.05,1713.15,3144.05,1939.2,2976.85,2176z"/>
		</g>
		<g class="st6">
			<path class="st4" d="M3401.45,2134c-60.7,292.8-383.7,452.5-748.95,346c2.25,5.2,4.7,10.45,7.35,15.65l-63.4-98.3
				c276.35,84.15,475.6,45.8,535.4-213.7c0,0,0,0,0.05-0.05c78-12.95,138.85-47.15,160.6-73.6c7.6-9.25,17.55-18.15,28.45-26.5
				c18.4-14.05,40.8-12.9,57.45-2.55c0,0,0.25,0.15,0.75,0.45C3395.55,2091.95,3406.15,2111.45,3401.45,2134z"/>
		</g>
		<g class="st6">
			<path class="st4" d="M1876.97,2240c230.04-99.49,378.19,5.83,417.13,384.33c-97.12-91.71-198.62-151.52-306.6-164.17
				C1935.43,2399.52,1894.62,2329.45,1876.97,2240z"/>
		</g>
		<g class="st6">
			<path class="st4" d="M3190.2,2946.45c-25.4,16.5-53.65,29.8-83.9,40l-0.05,0.05c-159.65,53.95-374.25,22.2-513.85-78.95l-0.1-0.1
				l-115.05-130.35c256.45,191.6,498.55,83.95,246.8-188.75c0,0,1.2,0.2,3.5,0.55c35.5,38.5,78.05,75,120.95,107.65
				c70.65,53.7,154.5,86.4,242.45,98.05c29.8,3.95,57.6,11.2,82.1,19.5C3231.75,2834,3242.2,2912.7,3190.2,2946.45z"/>
		</g>
		<g class="st6">
			<path class="st4" d="M1876.97,2240c0,0-278.64,135.44-35.3,405.22c0,0,207.99,166.81,500.66,49.96
				c0,0-263.28-82.85-354.83-235.02C1895.96,2307.98,1876.97,2240,1876.97,2240z"/>
		</g>
		<g class="st6">
			<path class="st4" d="M2572.35,2892.1c-0.2-1.25-0.45-2.5-0.7-3.75c0,0,1.45,2.3,4.1,6.5
				C2574.6,2893.95,2573.45,2893,2572.35,2892.1z"/>
		</g>
		<g class="st6">
			<path class="st4" d="M2711.45,3396.2c-18.7,57.05-96.65,64.3-124.8,11.25c-70.2-132.25-150.4-238.6-243.65-311.05
				c188.35,74.9,265.75,12.05,232.2-188.55c88.75,122.15,143.6,264.15,148.9,380.2C2725.9,3327.75,2721.9,3364.4,2711.45,3396.2z"/>
		</g>
		<g class="st6">
			<path class="st4" d="M1552.5,2680c53.18,241.13,224.11,347.89,454.2,387.12c-652.14,41.53-695.04-288.79-685.63-498.8
				C1330.48,2358.32,1490,2375,1490,2375S1500.25,2614.19,1552.5,2680z"/>
		</g>
		<g class="st6">
			<path class="st4" d="M1254.5,2398.4c-64.35,134.2-64.5,319.7-64.5,321.6c-136.6,61.35-261.65,22.55-351.45-60.6
				c-34.3-31.75-61.65-69.55-81.45-110.95C1030.4,2701.45,1197.8,2490.35,1254.5,2398.4z"/>
		</g>
		<g class="st6">
			<path class="st4" d="M1276.05,2359.5c-0.8,1.75-8.05,16.9-21.55,38.9C1261,2384.8,1268.15,2371.8,1276.05,2359.5z"/>
		</g>
		<g class="st6">
			<path class="st4" d="M2194.75,3265.1c-171.9,83.35-471.35,58.85-698.75-68c449.65,109.75,584.1,43.85,539-122.1l4.45,0.55
				c71.8,19.55,122.3,40.6,157.75,59.95c8.7,4.75,15.9,10.85,21.6,17.8C2247.15,3187.75,2238.95,3243.65,2194.75,3265.1z"/>
		</g>
		<g class="st7">
			<path class="st3" d="M1459.63,1145.87c-26.29,96.91-49.14,175.05-105.14,159.86c-56-15.19-80.08-106.07-53.79-202.98
				c26.29-96.91,93-163.15,148.99-147.96C1505.69,969.98,1485.92,1048.96,1459.63,1145.87z"/>
		</g>
		<g class="st7">
			<path class="st3" d="M1611.68,874.17c0,24.39-29.71,35.83-66.36,35.83s-66.36-11.44-66.36-35.83c0-24.39,29.71-44.17,66.36-44.17
				S1611.68,849.77,1611.68,874.17z"/>
		</g>
	</g>
</g>
</svg>
