<?xml version="1.0" encoding="utf-8"?>
<!-- Generator: Adobe Illustrator 25.4.1, SVG Export Plug-In . SVG Version: 6.00 Build 0)  -->
<svg version="1.1" id="Layer_1" xmlns="http://www.w3.org/2000/svg" xmlns:xlink="http://www.w3.org/1999/xlink" x="0px" y="0px"
	 viewBox="0 0 4000 4000" style="enable-background:new 0 0 4000 4000;" xml:space="preserve">
<style type="text/css">
	.st0{fill:#02DAFF;}
	.st1{fill:#FF6740;}
	.st2{opacity:0.6;}
	.st3{fill:#FFFFFF;}
	.st4{fill:#C9F0F3;}
	.st5{fill:#380175;}
	.st6{opacity:0.3;}
</style>
<g>
	<g>
		<rect class="st0" width="4000" height="4000"/>
	</g>
	<g>
		<g>
			<path class="st1" d="M2755.74,3054.59c-0.79-0.84-1.21-1.26-1.21-1.26c-10.84,119.23-73.93,206.26-155.59,248.35
				c-48.62,25.04-103.86,34.15-158.59,24.52c-2.89-0.47-5.79-1-8.68-1.63c-27.31-5.74-37.15-39.41-18.21-59.93
				c14.73-16,28.2-34.57,37.78-54.51c23.15-47.93,23.99-103.76-33.46-150.75c-12.94-10.58-27.04-19.63-41.72-27.57
				c-139.7-75.66-266.03-145.01-308.17-265.71h-115.76c-42.15,120.7-168.48,190.05-308.17,265.71
				c-14.68,7.95-28.78,16.99-41.72,27.57c-81.29,66.51-45.93,150.64,4.31,205.26c18.94,20.52,9.1,54.19-18.21,59.93
				c-149.17,31.57-305.17-77.14-322.85-271.24c-195.79,200.15-430.56,130.07-543.32-17.1c-78.35-102.13-97.87-241.46-4.79-353.32
				c16.36-19.68,47.93-10.37,51.88,14.94c20.26,130.12,154.43,160.69,245.56,100.71c3.37-2.21,6.68-4.52,9.94-7
				c-82.55-38.78-109.34-117.12-106.97-216.04c0.05-4.21,0.21-8.52,0.42-12.84c11.63-139.43-36.67-220.3-136.07-251.3
				c-23.78-7.42-27.52-39.73-6.47-53.04c61.67-39.09,131.49-48.46,190.68-31.78c71.24,20.1,127.12,78.08,134.7,167.74
				c13.21,86.24,70.93,118.7,132.28,97.45c19.26-6.63,35.78-19.2,48.99-34.73c29.78-34.99,64.77-59.82,105.97-72.35
				c25.52-7.84,53.46-10.94,84.03-8.84c0.32,0,0.68,0.05,1,0.05c-1.79-0.74-3.58-1.47-5.37-2.21
				c-28.73-11.79-55.04-24.73-79.03-38.57c-272.34-157.43-246.98-435.82-101.5-551.16c-59.4-63.77-87.87-150.11-89.45-256.08
				c0-288.39,208.62-645.55,562.57-804.4c16.31-7.31,32.83-13.89,49.56-19.63l0.05-0.05c146.22-50.88,306.75-44.3,449.29,19.68
				c353.95,158.85,562.57,516.01,562.57,804.4c-1.58,105.97-30.04,192.31-89.45,256.08c159.11,126.12,174.53,447.24-185.89,591.93
				c80.45-5.84,142.54,24.26,191,81.13c13.21,15.52,29.73,28.1,48.99,34.73c61.35,21.26,119.07-11.21,132.28-97.45
				c13.94-164.06,189.47-222.09,325.38-135.96c13.1,8.31,16.63,23.99,11.58,36.41c-2.95,7.52-9.1,13.84-18.05,16.63
				c-99.39,30.99-147.69,111.86-136.07,251.3c4.89,102.6-19.31,184.63-100.76,226.04c-1.89,1-3.84,1.89-5.79,2.84
				c12.58,9.52,26.15,17.26,40.3,22.99c88.03,36.36,197.1-0.42,215.2-116.7c3.95-25.31,35.52-34.62,51.88-14.94
				c0.63,0.79,1.32,1.58,1.95,2.37C3526.93,2958.1,3086.33,3390.39,2755.74,3054.59z"/>
		</g>
		<g class="st2">
			<path class="st3" d="M1377.19,2388.37c9.21,4.16,18.63,8.21,28.36,12.1c-21.2-1.53-41.2-0.58-59.93,2.74
				C1355.67,2397.36,1366.19,2392.42,1377.19,2388.37z"/>
		</g>
		<g class="st2">
			<path class="st3" d="M2546.69,2375.9c80.45-5.84,142.54,24.26,191,81.13c13.21,15.52,29.73,28.1,48.99,34.73
				c9.73,3.37,19.36,5.37,28.68,6c-25.26,24.94-60.25,31.15-96.45,18.57c-19.26-6.63-35.78-19.21-48.99-34.73
				c-48.46-56.88-110.55-86.97-191-81.13c360.42-144.69,345-465.81,185.89-591.93c59.4-63.77,87.87-150.11,89.45-256.08
				c0-288.39-208.62-645.55-562.57-804.4c-133.8-60.09-283.55-69.51-422.35-28.41c156.69-67.45,334.17-66.14,490.12,3.84
				c353.95,158.85,562.57,516.01,562.57,804.4c-1.58,105.97-30.04,192.31-89.45,256.08
				C2891.7,1910.08,2907.11,2231.2,2546.69,2375.9z"/>
		</g>
		<g class="st2">
			<path class="st3" d="M3264.91,2682.91c62.17,176.37-228.88,273.31-334.25,114.23c-83.03-107.31-184.19-192.61-310.3-247.6
				c0,0,132.67,41.16,277.46,173.32c144.79,132.16,224.37,121.15,299.41,73.15C3272.27,2748.01,3264.91,2682.91,3264.91,2682.91z"/>
		</g>
		<g>
			<path class="st4" d="M2598.94,3301.68c-51.2,26.36-109.76,35.04-167.27,22.89c-27.31-5.74-37.15-39.41-18.21-59.93
				c14.73-16,28.2-34.57,37.78-54.51c165.74-40.3,281.29-290.28,115.76-456.76C2769.68,2871.75,2833.14,3133.52,2598.94,3301.68z"/>
		</g>
		<g>
			<path class="st4" d="M3255.91,2294.76c-2.95,7.52-9.1,13.84-18.05,16.63c-99.39,30.99-147.69,111.86-136.07,251.3
				c4.89,102.6-19.31,184.63-100.76,226.04l-205.2-153.59c152.01,56.4,197.73-61.93,226.72-205.31
				c25.2-118.28,110.39-159.43,216.52-173.74L3255.91,2294.76z"/>
		</g>
		<g>
			<path class="st4" d="M2755.74,3054.59c-0.79-0.84-1.21-1.26-1.21-1.26c-19.31-178.74-95.66-248.3-290.39-358.9
				c128.54-7.52,259.87,60.35,373.26,215.25c33.62,45.93,80.13,81.45,134.65,97.76c200.47,60.04,372.15-152.43,328.96-324.54
				c0,0,1.26,0.79,3.58,2.37C3526.93,2958.1,3086.33,3390.39,2755.74,3054.59z"/>
		</g>
		<g>
			<path class="st4" d="M1421.07,3301.68c51.2,26.36,109.76,35.04,167.27,22.89c27.31-5.74,37.15-39.41,18.21-59.93
				c-14.73-16-28.2-34.57-37.78-54.51c-165.74-40.3-281.29-290.28-115.76-456.76C1250.33,2871.75,1186.87,3133.52,1421.07,3301.68z"
				/>
		</g>
		<g>
			<path class="st4" d="M764.1,2294.76c2.95,7.52,9.1,13.84,18.05,16.63c99.39,30.99,147.69,111.86,136.07,251.3
				c-4.89,102.6,19.31,184.63,100.76,226.04l205.2-153.59c-152.01,56.4-197.73-61.93-226.72-205.31
				c-25.2-118.28-110.39-159.43-216.52-173.74L764.1,2294.76z"/>
		</g>
		<g>
			<path class="st4" d="M1264.27,3054.59c0.79-0.84,1.21-1.26,1.21-1.26c19.31-178.74,95.66-248.3,290.39-358.9
				c-128.54-7.52-259.87,60.35-373.26,215.25c-33.62,45.93-80.13,81.45-134.65,97.76C847.49,3067.48,675.81,2855.01,719,2682.9
				c0,0-1.26,0.79-3.58,2.37C493.07,2958.1,933.68,3390.39,1264.27,3054.59z"/>
		</g>
		<g>
			<path class="st5" d="M2482.67,3353.58c-18.69,0-37.41-1.92-55.89-5.83c-20.96-4.43-37.37-19.3-43.91-39.77
				c-6.6-20.64-1.55-43.4,13.16-59.38c31.54-34.26,48.35-72.02,46.12-103.59c-1.74-24.71-14.99-47.36-39.37-67.3
				c-10.83-8.87-23.28-17.07-38.03-25.06c-134.92-73.11-262.67-142.33-313.13-262.85h-83.23
				c-50.46,120.52-178.21,189.75-313.13,262.85c-14.75,8-27.19,16.2-38.02,25.06c-24.38,19.95-37.63,42.59-39.37,67.31
				c-2.23,31.57,14.58,69.33,46.12,103.59c14.71,15.98,19.76,38.74,13.16,59.38c-6.54,20.47-22.95,35.34-43.91,39.78
				c-76.7,16.24-157.67-1.78-222.17-49.38c-62.6-46.19-105.07-115.05-122.29-196.95c-75.89,65.13-161.64,99.29-250.27,99.29
				c-0.21,0-0.4,0-0.61,0c-89.1-0.16-176.56-34.89-246.27-97.79c-117.65-106.16-173.44-289.73-52.45-435.15
				c13.49-16.22,34.48-22.79,54.75-17.17c20.6,5.7,35.44,22.41,38.74,43.61c7.55,48.56,34.05,84.32,74.63,100.69
				c34.38,13.86,75.11,12.12,111.04-3.45c-61.49-45.41-88.96-121.1-83.77-229.92c0.01-0.28,0.03-0.56,0.06-0.84
				c10.35-124.23-28.74-198.39-119.5-226.71c-19.76-6.17-33.73-22.82-36.45-43.46c-2.76-20.94,6.56-40.94,24.33-52.2
				c78-49.41,172.86-57.08,247.59-20.01c65.62,32.56,107.13,95.63,113.98,173.13c5.62,35.83,19.75,61.5,40.86,74.24
				c16.9,10.21,37.71,11.48,60.18,3.72c13.96-4.82,27.33-14.41,38.68-27.72c34.79-40.82,75.46-67.89,121.55-80.99
				c-170.78-94.55-215.12-223.21-225.84-297.01c-15.53-106.93,20.27-212.77,94.06-282.19c-51.38-64.48-78.2-149.54-79.78-253.26
				c0-282.23,198.04-656.46,576.55-826.35c164.72-73.93,353.64-73.92,518.33,0c378.51,169.89,576.55,544.12,576.55,825.99
				c-1.58,104.05-28.4,189.13-79.78,253.61c73.79,69.42,109.59,175.26,94.06,282.19c-10.72,73.8-55.06,202.46-225.83,297.01
				c46.08,13.11,86.75,40.17,121.54,81c11.34,13.31,24.72,22.9,38.67,27.72c22.47,7.77,43.28,6.49,60.19-3.72
				c21.11-12.74,35.23-38.41,40.86-74.24c6.86-77.5,48.36-140.57,113.98-173.13c74.73-37.07,169.6-29.4,247.58,20.01
				c17.77,11.26,27.1,31.26,24.34,52.2c-2.72,20.64-16.69,37.29-36.45,43.46c-90.77,28.32-129.85,102.48-119.5,226.71
				c0.02,0.28,0.04,0.56,0.06,0.84c5.19,108.82-22.29,184.51-83.77,229.92c35.93,15.59,76.67,17.32,111.04,3.45
				c40.57-16.37,67.08-52.13,74.62-100.69c3.3-21.21,18.15-37.92,38.75-43.62c20.27-5.61,41.25,0.97,54.74,17.17
				c121,145.43,65.2,328.99-52.45,435.16c-69.7,62.9-157.16,97.63-246.26,97.79c-0.2,0-0.41,0-0.61,0
				c-88.64,0-174.37-34.16-250.26-99.29c-17.23,81.9-59.7,150.76-122.29,196.95C2599.99,3334.51,2541.53,3353.58,2482.67,3353.58z
				 M1952.13,2742.43h115.76c10.07,0,19.03,6.37,22.35,15.87c39.51,113.14,164.62,180.93,297.08,252.71
				c17.41,9.43,32.28,19.26,45.45,30.04c34.87,28.54,53.92,62.39,56.62,100.62c4.3,60.96-34.82,113.25-58.52,139
				c-4.83,5.25-3.44,11.21-2.9,12.91c0.77,2.42,2.92,6.65,8.61,7.85c63.45,13.41,130.62-1.57,184.25-41.15
				c62.96-46.46,102.07-120.73,110.12-209.12c0.83-9.19,6.94-17.07,15.64-20.16c8.71-3.1,18.41-0.84,24.86,5.75
				c161.79,165.42,350.23,134.78,465.2,31.03c100.87-91.02,149.67-247.24,47.77-369.71c-0.57-0.68-2.32-2.76-5.71-1.82
				c-1.47,0.41-4.01,1.63-4.58,5.25c-10.21,65.69-47.04,114.46-103.7,137.32c-61.27,24.71-133.88,13.82-189.51-28.42
				c-6.6-5.01-10.09-13.11-9.22-21.34s5.98-15.42,13.48-18.95c68.51-32.19,98.06-97.63,92.98-205.91
				c-12.16-147.36,39.18-240.03,152.62-275.42c2.08-0.65,3.3-2.15,3.6-4.45c0.2-1.47,0.1-4.21-2.73-6.01
				c-64.1-40.62-141.18-47.35-201.19-17.59c-51.43,25.52-82.65,73.66-87.92,135.56c-0.05,0.53-0.11,1.05-0.19,1.58
				c-9.78,63.88-39.83,94.19-63.32,108.36c-28.9,17.44-64.45,20.25-100.12,7.92c-21.93-7.58-42.42-22.02-59.24-41.76
				c-46.08-54.09-102.06-77.9-171.26-72.91c-11.64,0.8-22.15-6.92-24.79-18.28c-2.63-11.37,3.42-22.96,14.25-27.3
				c214.48-86.1,264.53-223.06,275.27-297.03c14.16-97.44-23.23-197.29-95.25-254.38c-5.18-4.11-8.41-10.19-8.9-16.77
				c-0.5-6.59,1.78-13.09,6.28-17.92c53.58-57.52,81.54-138.36,83.1-240.29c0-266.27-188.44-620.78-548.59-782.42
				c-152.37-68.4-327.17-68.4-479.55,0c-360.16,161.65-548.59,516.14-548.59,782.78c1.55,101.56,29.5,182.4,83.09,239.93
				c4.5,4.83,6.78,11.33,6.28,17.92c-0.49,6.59-3.72,12.67-8.9,16.77c-72.01,57.09-109.4,156.94-95.24,254.38
				c10.74,73.97,60.8,210.92,275.27,297.03c10.83,4.35,16.88,15.94,14.25,27.3c-2.63,11.37-13.03,19.17-24.79,18.28
				c-69.16-4.99-125.18,18.82-171.26,72.91c-16.83,19.74-37.31,34.18-59.25,41.76c-35.65,12.32-71.21,9.52-100.12-7.92
				c-23.49-14.17-53.54-44.48-63.32-108.36c-0.08-0.52-0.14-1.05-0.19-1.58c-5.27-61.9-36.49-110.04-87.92-135.56
				c-60-29.77-137.09-23.03-201.2,17.59c-2.83,1.79-2.92,4.53-2.73,6.01c0.45,3.47,2.83,4.2,3.6,4.45
				c113.43,35.39,164.78,128.07,152.62,275.43c-5.08,108.28,24.47,173.71,92.98,205.9c7.5,3.53,12.61,10.71,13.48,18.95
				s-2.63,16.33-9.22,21.34c-55.63,42.25-128.25,53.14-189.51,28.42c-56.66-22.86-93.49-71.63-103.71-137.33
				c-0.56-3.62-3.11-4.84-4.57-5.25c-3.4-0.95-5.15,1.13-5.72,1.82c-101.89,122.47-53.09,278.69,47.77,369.71
				c114.97,103.75,303.41,134.39,465.2-31.03c6.46-6.6,16.16-8.85,24.86-5.75s14.81,10.97,15.64,20.16
				c8.05,88.39,47.16,162.66,110.12,209.12c53.64,39.58,120.82,54.58,184.25,41.15c5.69-1.21,7.83-5.43,8.6-7.85
				c0.54-1.7,1.94-7.66-2.89-12.91c-23.71-25.74-62.82-78.04-58.52-138.99c2.7-38.23,21.75-72.09,56.62-100.62
				c13.18-10.78,28.04-20.61,45.45-30.04c132.46-71.77,257.56-139.56,297.08-252.71C1933.1,2748.8,1942.06,2742.43,1952.13,2742.43z
				"/>
		</g>
		<g>
			<path class="st5" d="M2730.94,3055.37c-2.36-42.14-11.81-83.74-28.75-122.5c-16.86-38.8-41.12-74.6-70.51-106.2
				c-29.37-31.66-63.65-59.2-100.41-83.24c-36.79-24.05-76.05-44.7-116.49-62.98l-0.07-0.03c-3.97-1.8-5.74-6.47-3.95-10.45
				c1.73-3.82,6.15-5.59,10.02-4.12c42.08,16.11,83.38,34.79,122.86,57.39c39.43,22.6,77.08,49.24,110.51,81.25
				c33.41,31.93,62.41,69.45,83.72,111.54c21.42,42,34.84,88.28,40.23,135.21l0.01,0.09c1.49,13-7.83,24.75-20.83,26.24
				c-12.99,1.49-24.74-7.83-26.24-20.83C2731.01,3056.31,2730.97,3055.81,2730.94,3055.37z"/>
		</g>
		<g>
			<path class="st5" d="M2981.64,2810.92c-37.68-28.1-72.37-58.62-106.73-88.73c-34.35-30.12-68.34-60.01-104.21-86.99
				c-35.81-26.92-73.65-50.99-114.7-67.66c-40.91-16.81-85.22-25.26-129.79-23.32c-4.36,0.19-8.04-3.18-8.23-7.54
				c-0.18-4.19,2.94-7.76,7.06-8.19h0.05c46.63-4.78,94.61,1.47,139.15,16.86c44.7,15.22,86.01,38.35,124.69,64.08
				c77.41,51.64,145.68,113.76,219.93,162.74c10.92,7.2,13.93,21.89,6.73,32.82c-7.2,10.92-21.89,13.93-32.82,6.73
				C2982.4,2811.47,2981.99,2811.17,2981.64,2810.92z"/>
		</g>
		<g>
			<path class="st5" d="M2554.12,2398.35c-48.69,10.51-96.17,29.39-137.63,59.68l-0.02,0.02c-3.54,2.58-8.5,1.81-11.08-1.73
				c-2.27-3.1-1.95-7.29,0.55-10.02c18.11-19.84,38.84-37.66,61.36-53.14c22.52-15.5,46.8-28.67,71.98-39.77l0.22-0.1
				c12.04-5.3,26.09,0.16,31.39,12.19c5.3,12.04-0.16,26.09-12.19,31.39C2557.24,2397.51,2555.62,2398.02,2554.12,2398.35z"/>
		</g>
		<g>
			<path class="st5" d="M2113.87,2619.67c-15.99,19.36-28.46,41.33-34.79,66.01c-6.5,24.62-6.72,51.62-3.49,78.77
				c0.53,4.35-2.57,8.3-6.91,8.83c-3.85,0.46-7.39-1.93-8.52-5.49c-4.27-13.58-7.86-27.6-10.12-42.12
				c-2.27-14.51-3.16-29.55-2.18-44.72c0.96-15.17,3.83-30.43,8.43-45.16c4.59-14.75,10.85-28.94,18.2-42.43l0.11-0.21
				c6.28-11.54,20.74-15.81,32.28-9.52s15.81,20.74,9.52,32.28C2115.71,2617.22,2114.79,2618.54,2113.87,2619.67z"/>
		</g>
		<g>
			<path class="st5" d="M1241.91,3051.25c5.39-46.92,18.81-93.2,40.23-135.21c21.31-42.08,50.31-79.61,83.73-111.54
				c33.43-32.01,71.08-58.65,110.51-81.25c39.48-22.61,80.79-41.28,122.87-57.39c4.07-1.56,8.64,0.48,10.2,4.55
				c1.5,3.92-0.33,8.3-4.1,10.01l-0.09,0.04c-40.44,18.28-79.71,38.93-116.49,62.98c-36.75,24.04-71.04,51.58-100.41,83.24
				c-29.38,31.6-53.65,67.39-70.5,106.2c-16.95,38.76-26.39,80.36-28.75,122.5c-0.73,13.06-11.91,23.06-24.98,22.32
				s-23.06-11.91-22.33-24.98c0.02-0.44,0.06-0.87,0.11-1.31V3051.25z"/>
		</g>
		<g>
			<path class="st5" d="M1011.17,2772.16c74.25-48.98,142.52-111.11,219.93-162.74c38.68-25.72,80-48.86,124.69-64.08
				c44.54-15.39,92.51-21.64,139.15-16.86h0.03c4.34,0.44,7.5,4.32,7.05,8.66c-0.43,4.17-4.06,7.26-8.2,7.08
				c-44.58-1.94-88.88,6.51-129.79,23.32c-41.05,16.67-78.89,40.74-114.71,67.66c-35.86,26.98-69.85,56.87-104.2,86.99
				c-34.37,30.11-69.05,60.63-106.74,88.73c-10.48,7.83-25.32,5.67-33.15-4.81c-7.82-10.48-5.66-25.33,4.82-33.15
				C1010.4,2772.7,1010.82,2772.4,1011.17,2772.16z"/>
		</g>
		<g>
			<path class="st5" d="M1480.76,2353.39c25.18,11.1,49.45,24.27,71.97,39.77c22.52,15.48,43.26,33.3,61.37,53.14
				c2.95,3.24,2.72,8.25-0.51,11.21c-2.84,2.59-7.04,2.73-10.02,0.55l-0.03-0.02c-41.46-30.28-88.95-49.17-137.63-59.68
				c-12.85-2.77-21.03-15.44-18.25-28.3c2.77-12.85,15.44-21.03,28.3-18.25c1.56,0.34,3.05,0.82,4.46,1.43L1480.76,2353.39z"/>
		</g>
		<g>
			<path class="st5" d="M1928.99,2761.11c8.08-24.92,13.18-49.98,11.94-75.43c-1.07-25.42-8.96-50.93-21.67-74.78l-0.05-0.1
				c-2.06-3.86-0.6-8.66,3.26-10.72c3.42-1.82,7.57-0.88,9.91,2.04c9.01,11.25,17.21,23.44,24.01,36.64
				c6.81,13.18,12.18,27.4,15.74,42.18c3.59,14.78,5.37,30.06,5.69,45.23c0.34,15.19-0.74,30.25-2.56,44.94l-0.03,0.26
				c-1.61,13.04-13.5,22.31-26.54,20.69c-13.04-1.61-22.31-13.5-20.7-26.54C1928.2,2764.04,1928.56,2762.49,1928.99,2761.11z"/>
		</g>
		<g>
			<path class="st5" d="M896.66,2395.99c17.91-2.27,37.18,2.21,51.29,12.88c14.22,10.45,23.5,26.03,25.93,42.49
				c1.21,8.21,0.67,16.68-1.87,24.44c-2.56,7.76-7.08,14.64-12.67,19.94c-5.59,5.33-12.14,9.12-18.86,11.82
				c-6.8,2.61-13.78,4.06-20.72,5.03c6.59-2.46,12.93-5.36,18.6-9.12c5.6-3.84,10.49-8.45,14-13.73c3.53-5.26,5.62-11.12,6.19-16.98
				c0.52-5.88-0.48-11.72-2.56-17.06c-4.15-10.71-12.78-19.27-22.46-23.27c-9.72-4.14-20-3.82-29.4-0.37L896.66,2395.99z"/>
		</g>
		<g>
			<path class="st5" d="M916.02,2529.57c10.42-0.62,21.17,0.3,31.48,3.31c10.31,2.95,20.1,8.15,28.16,15.22
				c8.07,7.05,14.48,15.86,18.32,25.55c3.83,9.7,5.22,20.09,4.25,29.99c-0.93,9.92-4.38,19.2-9.17,27.2
				c-4.82,8.02-11.04,14.76-17.85,20.35c-13.79,11.11-29.76,17.63-45.75,21.97c14.77-7.57,28.48-17.2,38.33-29.42
				c9.79-12.13,15.13-26.98,13.4-40.35c-0.83-6.65-3.22-12.8-6.72-17.93c-3.53-5.14-8.3-9.13-13.5-11.91
				c-10.48-5.66-22.95-5.8-34.79-2.33L916.02,2529.57z"/>
		</g>
		<g>
			<path class="st5" d="M933.7,2713.92c12.45-13.37,27.87-22.67,44-27.89c16.14-5.2,33.26-6.53,49.55-3.06
				c8.11,1.76,16.01,4.72,23,9.19c6.99,4.43,13,10.29,17.36,16.99c8.88,13.55,10.42,29.36,8.82,43.58
				c-1.82-14.31-7.28-28.12-16.95-36.9c-9.53-8.89-22.18-12.48-34.49-11.95c-12.34,0.46-24.41,4.63-34.52,11.01
				c-10.13,6.38-18.26,15.06-23.3,24.54L933.7,2713.92z"/>
		</g>
		<g class="st6">
			<path class="st5" d="M900.4,2414.02c63.67-13.18,100.5,79.58,19.36,98.56"/>
		</g>
		<g class="st6">
			<path class="st5" d="M919.1,2550.39c73.09-10.81,105.68,85.28,6.36,122.77"/>
		</g>
		<g class="st6">
			<path class="st5" d="M1076.44,2752.74c-0.27-74.2-88.7-74.98-126-26.05l60.17,57.52"/>
		</g>
		<g>
			<path class="st5" d="M1074.5,3171.45c-4.27-11.41-6.05-23.77-5.17-35.56c0.84-11.82,4.17-22.96,9.06-32.85
				c9.88-19.79,25.41-35.11,43.68-44.97c9.16-4.88,19.18-8.28,29.56-9.43c10.34-1.18,21.06,0.09,30.48,4.16
				c9.46,4.01,17.29,10.69,23.01,18.39c5.78,7.72,9.69,16.35,12.68,25.09c-4.59-8.05-9.99-15.56-16.57-21.55
				c-6.55-6-14.33-10.24-22.43-11.95c-16.31-3.53-32.8,2.76-45.32,12.97c-12.6,10.25-21.9,24.48-25.76,38.95
				c-3.97,14.58-1.84,28.56,5.02,39.16L1074.5,3171.45z"/>
		</g>
		<g>
			<path class="st5" d="M1010.4,3175.34c1.61-16.09,0.19-32.27-6.66-45.53c-3.39-6.61-8.09-12.44-14.02-17
				c-6-4.45-13.23-7.55-21.14-8.96c-15.9-2.9-33.85,1.85-49.21,11.36c-15.59,9.46-28.58,23.7-39.06,39.64
				c7.39-17.55,17.72-34.57,32.71-48.04c14.76-13.36,34.48-23.62,56.87-23.97c11.07-0.17,22.58,2.17,33.09,7.24
				c10.46,5.15,19.73,12.91,26.94,22.08c14.6,18.56,20.67,41.43,22.57,63.17h-42.09V3175.34z"/>
		</g>
		<g class="st6">
			<path class="st5" d="M1093.62,3162.66c-33.34-72.52,83.39-160.92,124.18-66.37"/>
		</g>
		<g class="st6">
			<path class="st5" d="M1031.44,3175.34c0-98.35-103.07-112.36-151.14-20.49"/>
		</g>
		<g>
			<path class="st5" d="M721.92,3037.75c8.75-6.63,18.1-12.58,28.16-17.36c10.05-4.79,20.93-8.2,32.13-9.89
				c11.2-1.68,22.8-1.5,33.96,1.04c11.15,2.52,21.79,7.67,30.53,14.96c8.81,7.22,15.42,16.89,19,27.28
				c3.64,10.38,4.41,21.34,2.77,31.52c-3.18,20.6-14.37,37.63-26.99,51.87c9.91-16.29,17.15-34.63,16.49-52.56
				c-0.4-17.81-9.64-33.67-23.52-40.99c-13.72-7.71-30.47-7.63-45.2-2.35c-14.92,5.12-28.01,15.43-38.99,27.59L721.92,3037.75z"/>
		</g>
		<g>
			<path class="st5" d="M659.04,2873.55c18.11,1.92,35.88,6.98,51.84,16.06c7.94,4.57,15.45,10.1,21.87,16.94
				c6.41,6.81,11.72,14.89,15,23.76c3.33,8.86,4.22,18.47,3.12,27.37c-1.09,8.95-4.15,17.19-8.18,24.5
				c-8.16,14.65-19.78,25.92-32.03,35.64c9.81-12.17,18.26-25.57,22.32-39.72c4.21-14.09,2.78-28.47-4.25-38.77
				c-6.96-10.4-18.35-17.31-30.86-20.97c-12.52-3.71-26.07-4.38-39.09-2.74L659.04,2873.55z"/>
		</g>
		<g>
			<path class="st5" d="M1284,2961.75c19.7,7.32,36.75,20.42,48.35,36.91c11.64,16.41,18.02,36.38,16.93,55.98
				c-1.03,19.66-10.17,37.86-23.25,50.26c-6.5,6.29-13.83,11.35-21.47,15.46c-7.72,4-15.75,7.04-23.85,9.52
				c7.44-4.1,14.53-8.65,20.93-13.89c6.32-5.34,11.94-11.33,16.36-17.9c8.98-13.11,12.51-28.58,10.24-42.76
				c-2.27-14.22-9.82-26.99-19.97-36.25c-10.16-9.34-22.88-15.07-35.68-16.82L1284,2961.75z"/>
		</g>
		<g>
			<path class="st5" d="M1293.12,3167.81c18.94-9.71,39.04-15.32,60.04-16.18c10.48-0.32,21.27,0.51,31.93,4.06
				c5.31,1.59,10.52,4.27,15.39,7.35c4.74,3.43,9.25,7.33,12.56,12.23c7.01,9.57,9.15,21,9.11,31.08
				c-0.09,10.24-2.29,19.74-5.13,28.74c-6.08,17.9-14.91,34.03-24.74,49.32c6.72-16.86,12.15-34.3,14.47-51.65
				c1-8.65,1.17-17.29-0.34-25.12c-1.53-7.79-4.65-14.66-9.56-18.92c-2.29-2.29-5.23-3.75-8.12-5.13c-3.15-1.08-6.29-2.08-9.86-2.35
				c-6.94-0.86-14.58-0.01-22.02,1.73c-14.95,3.57-29.54,11-41.28,20.42L1293.12,3167.81z"/>
		</g>
		<g>
			<path class="st5" d="M1427.48,3308.89c3.09-8.87,6.69-17.66,11.54-26.16c4.96-8.46,11.11-16.65,19-23.49
				c7.84-6.81,17.51-12.21,27.82-14.4c10.27-2.29,20.67-1.68,29.95,0.81c18.66,5.19,33.12,16.84,43.99,30.11
				c10.85,13.41,18.13,29.04,21.56,45.08c-6.76-14.96-16.87-27.93-29.01-37.66c-12.07-9.67-26.52-16.22-40.16-16.8
				c-6.77-0.26-13.11,0.99-18.43,3.55c-5.36,2.52-9.64,6.55-13.15,11.37c-3.5,4.85-6.16,10.65-8.16,16.92
				c-1.94,6.35-3.11,13.21-3.96,20.17L1427.48,3308.89z"/>
		</g>
		<g>
			<path class="st5" d="M3114.23,2432.06c-9.4-3.46-19.68-3.77-29.39,0.37c-9.68,4-18.31,12.56-22.46,23.27
				c-2.08,5.33-3.09,11.18-2.56,17.06c0.57,5.86,2.66,11.72,6.19,16.98c3.51,5.28,8.4,9.89,14,13.73c5.67,3.75,12.01,6.66,18.6,9.12
				c-6.94-0.97-13.93-2.43-20.72-5.03c-6.72-2.7-13.27-6.49-18.87-11.82c-5.59-5.29-10.11-12.17-12.67-19.94
				c-2.53-7.76-3.08-16.23-1.87-24.44c2.43-16.46,11.71-32.03,25.93-42.49c14.11-10.66,33.38-15.14,51.29-12.88L3114.23,2432.06z"/>
		</g>
		<g>
			<path class="st5" d="M3096.19,2571.21c-11.84-3.47-24.31-3.33-34.79,2.33c-5.2,2.78-9.97,6.77-13.5,11.91
				c-3.5,5.14-5.89,11.28-6.72,17.93c-1.73,13.37,3.6,28.22,13.4,40.35c9.84,12.22,23.56,21.86,38.33,29.42
				c-16-4.34-31.97-10.85-45.75-21.97c-6.82-5.59-13.03-12.33-17.85-20.35c-4.79-7.99-8.24-17.28-9.17-27.2
				c-0.97-9.89,0.41-20.29,4.24-29.99c3.84-9.69,10.25-18.51,18.32-25.55c8.07-7.07,17.86-12.28,28.16-15.22
				c10.32-3.01,21.06-3.94,31.48-3.31L3096.19,2571.21z"/>
		</g>
		<g class="st6">
			<path class="st5" d="M3117.96,2414.02c-63.67-13.18-100.5,79.58-19.36,98.56"/>
		</g>
		<g class="st6">
			<path class="st5" d="M3093.8,2656.03l-0.89,17.15c-1.26-0.47-2.47-0.95-3.63-1.42
				C3090.96,2666.65,3092.43,2661.39,3093.8,2656.03z"/>
		</g>
		<g>
			<path class="st5" d="M3051.19,2739.44c-5.03-9.48-13.16-18.16-23.3-24.54c-10.1-6.38-22.18-10.55-34.52-11.01
				c-12.3-0.53-24.96,3.06-34.48,11.95c-9.68,8.78-15.13,22.59-16.96,36.9c-1.6-14.22-0.05-30.03,8.83-43.58
				c4.35-6.7,10.37-12.56,17.36-16.99c6.98-4.48,14.89-7.43,23-9.19c16.28-3.47,33.4-2.13,49.55,3.06
				c16.14,5.22,31.55,14.52,44.01,27.89L3051.19,2739.44z"/>
		</g>
		<g>
			<path class="st5" d="M2924.75,3162.66c6.25-17.62,3.79-36.59-4.32-51.84c-8.03-15.35-21.02-27.71-35.54-35.06
				c-14.49-7.46-30.83-8.76-42.01-2.99c-11.33,5.42-18.5,17.56-22.98,31.85l-38.65-16.67c5.31-9.68,11.74-19.17,20.33-27.38
				c8.5-8.19,19.48-14.83,31.38-17.76c11.88-3.03,24.09-2.37,34.82,0.67c10.79,3.04,20.31,8.25,28.53,14.59
				c16.36,12.76,28.19,29.95,33.91,48.86c2.82,9.43,3.96,19.33,3.05,28.92C2932.37,3145.44,2929.38,3154.64,2924.75,3162.66z"/>
		</g>
		<g class="st6">
			<path class="st5" d="M2804.51,3098.37l-3.95-2.1c0.05-0.11,0.11-0.26,0.16-0.37L2804.51,3098.37z"/>
		</g>
		<g>
			<path class="st5" d="M2965.87,3175.34c1.89-21.74,7.97-44.61,22.57-63.17c7.22-9.18,16.49-16.94,26.94-22.08
				c10.52-5.06,22.02-7.41,33.1-7.24c22.38,0.35,42.1,10.61,56.87,23.97c14.99,13.47,25.31,30.48,32.71,48.04
				c-10.47-15.94-23.48-30.18-39.06-39.64c-15.36-9.51-33.3-14.25-49.21-11.36c-7.91,1.4-15.14,4.51-21.14,8.96
				c-5.94,4.57-10.63,10.4-14.02,17c-6.85,13.26-8.27,29.44-6.66,45.53h-42.1V3175.34z"/>
		</g>
		<g>
			<path class="st5" d="M3282.27,3053.31c-15.35-11.42-32.8-20.09-50.82-22.29c-8.94-1.16-17.88-0.76-26.1,1.34
				c-8.24,2.08-15.63,6.08-21.44,11.27c-5.88,5.15-9.92,11.73-12.01,18.69c-2.11,6.96-2.44,14.32-1.02,21.61
				c2.67,14.66,11.72,28.51,22.79,40.57l-33.59,25.37c-5.78-9.33-10.91-19.2-14.69-29.87c-3.8-10.62-6.06-22.19-6.01-33.98
				c0-11.77,2.83-23.85,8.47-34.36c5.57-10.54,13.99-19.37,23.81-25.14c9.77-5.86,20.64-9.08,31.31-9.76
				c10.7-0.69,21.15,0.89,30.83,4.01C3253.29,3026.97,3269.25,3039.34,3282.27,3053.31z"/>
		</g>
		<g>
			<path class="st5" d="M3359.45,2894.59c-15.55,1.88-30.59,6.56-43.3,14.2c-12.71,7.5-22.82,18.58-26.53,30.56
				c-3.73,11.99-1.01,23.96,5.46,34.7c6.47,10.8,16.36,20.34,27.34,28.75l-29.44,30.09c-11.08-13.48-21.25-28.61-27.01-46.62
				c-2.84-8.95-4.39-18.68-3.74-28.44c0.63-9.74,3.47-19.42,8.38-27.5c9.89-16.37,25.6-26.04,41.21-31.12
				C3327.58,2894.06,3343.87,2893,3359.45,2894.59z"/>
		</g>
		<g class="st6">
			<path class="st5" d="M2986.92,3175.34c0-98.35,103.07-112.36,151.14-20.49"/>
		</g>
		<g class="st6">
			<path class="st5" d="M3282.26,3053.31c-78.2-71.3-170.16-1.92-105.39,83.86"/>
		</g>
		<g class="st6">
			<path class="st5" d="M3359.45,2894.6c-68.92,0.41-120.38,56.11-51.75,123.25"/>
		</g>
		<g>
			<path class="st5" d="M2745.76,3002.27c-12.81,1.75-25.52,7.48-35.68,16.82c-10.15,9.26-17.7,22.03-19.98,36.25
				c-2.27,14.18,1.26,29.65,10.24,42.76c4.43,6.57,10.04,12.55,16.36,17.9c6.41,5.24,13.5,9.79,20.94,13.89
				c-8.1-2.48-16.13-5.51-23.85-9.52c-7.64-4.12-14.97-9.17-21.47-15.46c-13.08-12.4-22.23-30.6-23.26-50.26
				c-1.08-19.6,5.29-39.57,16.93-55.98c11.6-16.49,28.66-29.59,48.36-36.91L2745.76,3002.27z"/>
		</g>
		<g class="st6">
			<path class="st5" d="M2740.06,2982.01c-66.68,18.75-92.62,111.17-2.41,147.87"/>
		</g>
		<g>
			<path class="st5" d="M2702.77,3203.41c-11.74-9.42-26.33-16.86-41.27-20.42c-7.45-1.75-15.07-2.6-22.02-1.73
				c-3.57,0.28-6.72,1.27-9.87,2.35c-2.88,1.37-5.83,2.83-8.12,5.13c-4.91,4.25-8.03,11.13-9.57,18.92
				c-1.5,7.83-1.33,16.47-0.33,25.12c2.32,17.35,7.75,34.79,14.47,51.65c-9.83-15.29-18.65-31.42-24.74-49.32
				c-2.85-9-5.05-18.5-5.13-28.74c-0.03-10.08,2.1-21.51,9.11-31.08c3.3-4.9,7.82-8.8,12.56-12.23c4.86-3.08,10.08-5.76,15.39-7.35
				c10.66-3.54,21.44-4.38,31.92-4.06c21,0.85,41.11,6.47,60.05,16.18L2702.77,3203.41z"/>
		</g>
		<g class="st6">
			<path class="st5" d="M2714.01,3185.61c-57.56-36.32-154.06-29.26-87.93,98.81"/>
		</g>
		<g>
			<path class="st5" d="M2549.87,3318.38c-0.84-6.95-2.02-13.81-3.95-20.17c-2.01-6.27-4.66-12.07-8.16-16.92
				c-3.51-4.82-7.79-8.85-13.14-11.37c-5.32-2.56-11.66-3.81-18.43-3.55c-13.63,0.58-28.1,7.13-40.16,16.8
				c-12.14,9.73-22.26,22.71-29.01,37.66c3.42-16.04,10.7-31.67,21.56-45.08c10.87-13.27,25.34-24.92,43.99-30.11
				c9.28-2.49,19.67-3.1,29.95-0.81c10.31,2.19,19.98,7.59,27.82,14.4c7.89,6.84,14.04,15.03,18.99,23.49
				c4.86,8.5,8.45,17.29,11.55,26.16L2549.87,3318.38z"/>
		</g>
		<g class="st6">
			<path class="st5" d="M2547.22,3268.37c10.05,9.37,18.26,24.1,23.15,45.25l-109.81,5.95c-6.63,2.47-13.36,4.68-20.2,6.63
				c-2.89-0.47-5.79-1-8.68-1.63c-27.31-5.74-37.15-39.41-18.21-59.93c14.73-16,28.2-34.57,37.78-54.51
				c23.15-47.93,23.99-103.76-33.46-150.75c-12.94-10.58-27.04-19.63-41.72-27.57c-139.7-75.66-266.03-145.01-308.17-265.71h-109.86
				c0.11-1.95,0.32-3.89,0.63-5.79c14.42-92.08-26.41-143.64-26.41-143.64c38.36-43.57,85.13-58.56,154.38,2l0,0
				c18.31-24.83,57-17.17,64.86,12.67c41.04,155.74,159.22,248.26,334.29,294.14c22.94,6.05,45.04,15.1,65.24,27.52
				C2679.44,3032.13,2648.87,3181.14,2547.22,3268.37z"/>
		</g>
		<g>
			<path class="st5" d="M2173.26,2170.05c-8.66,16.47-18.86,32.45-31.39,46.87c-12.48,14.39-27.46,27.16-44.52,36.31
				c-16.99,9.28-35.94,14.38-54.54,15.82c-18.66,1.47-36.99-0.53-54.48-4.43c-4.26-0.95-6.94-5.18-5.99-9.43
				c0.88-3.93,4.54-6.52,8.45-6.15l0.11,0.01c16.62,1.55,33.2,1.13,48.82-2.14c15.61-3.25,30.17-9.35,42.56-18.37
				c25.02-17.92,41.44-45.75,52.55-75.65c4.06-10.92,16.2-16.48,27.12-12.43c10.92,4.06,16.48,16.2,12.42,27.11
				c-0.3,0.82-0.65,1.61-1.04,2.36L2173.26,2170.05z"/>
		</g>
		<g>
			<path class="st5" d="M2103.89,2140.2c9.3-5.82,19.71-8.03,30.21-8.07c10.51-0.01,21.17,2.42,30.81,7.02
				c9.67,4.54,18.36,11.09,25.2,19.02c6.76,8.02,11.92,17.23,13.85,27.86c0.89,4.92-2.36,9.63-7.28,10.52
				c-1.52,0.27-3.02,0.15-4.38-0.29l-0.48-0.16c-9.48-3.09-16.98-6.59-24.19-9.69l-20.22-9.06c-6.59-2.83-13.1-5.74-20.12-9.05
				c-7.03-3.35-14.52-6.84-23.06-12.3l-0.42-0.27c-4.27-2.73-5.52-8.41-2.78-12.69C2101.78,2141.86,2102.79,2140.89,2103.89,2140.2z
				"/>
		</g>
		<g>
			<path class="st5" d="M1383.58,1765.18c9.48-14.03,21.37-26.88,35.79-37.53c14.39-10.64,31.77-18.37,50.12-22.18
				c18.37-3.91,37.44-3.56,55.3-0.52c17.91,3.11,34.74,8.71,50.45,15.45c31.51,13.48,59.05,31.07,85.82,46.86
				c26.86,15.66,52.35,30.89,81.46,31.35l0.56,0.01c4.42,0.07,7.94,3.71,7.88,8.12c-0.05,3.27-2.07,6.05-4.91,7.25
				c-16.86,7.08-36.22,7.13-53.57,4.18c-17.46-3.12-33.68-8.84-49.11-15.04c-30.75-12.69-58.71-27.74-86.44-39.2
				c-27.7-11.48-54.79-19.25-81.59-17.71c-13.4,0.8-26.92,3.72-40.36,9.12c-13.47,5.34-26.62,12.89-40.3,21.05l-0.32,0.19
				c-3.82,2.28-8.75,1.03-11.03-2.79C1381.69,1771.04,1381.89,1767.68,1383.58,1765.18z"/>
		</g>
		<g>
			<g>
				<path class="st5" d="M1664.42,1977.09v0.05c1.16,87.08-127.44,90.76-193.1-14.89c-6.84-11-10.1-24.15-8.16-36.99
					c8-53.35,90.39-65.14,148.69,7.73C1627.49,1953.63,1645.11,1968.04,1664.42,1977.09z"/>
			</g>
			<g>
				<ellipse class="st3" cx="1609.79" cy="1974.51" rx="28.28" ry="32.4"/>
			</g>
			<g>
				<path class="st5" d="M1796.88,1982.56c-26.31,13.51-55.93,23.5-88.36,23.59c-16.12,0.13-32.76-2.61-48.62-8.29
					c-3.9-1.55-7.89-3.03-11.65-4.91c-3.72-1.96-7.41-4.02-11.05-6.13c-3.4-2.43-6.85-4.81-10.19-7.33
					c-3.27-2.58-6.25-5.44-9.32-8.21c-3.17-2.7-5.73-5.85-8.55-8.81l-4.16-4.48l-3.71-4.62l-3.73-4.6l-3.42-4.17
					c-1.96-2.33-3.88-4.68-6.09-6.96c-8.5-9.25-18.12-17.1-28.44-23.12c-10.32-5.96-21.44-9.95-32.32-11.25
					c-10.83-1.29-21.42,0.36-29.08,4.74c-7.75,4.33-12.36,10.71-13.97,19.24c-0.86,4.11-0.7,8.32,0.29,12.69
					c0.51,2.17,1.24,4.33,2.17,6.44c0.46,1.06,0.99,2.09,1.55,3.12l0.88,1.51l1.29,1.96c13.78,21.76,32.22,40.31,53.77,52.68
					c10.72,6.2,22.22,10.84,33.84,13.25c11.57,2.55,23.32,2.74,33.56,0.38c10.31-2.33,18.58-7.43,23.93-14.38
					c2.62-3.56,4.59-7.66,5.98-12.24c1.38-4.6,1.75-9.86,1.89-15.25l0.03-1.35c0.29-11.61,9.94-20.79,21.56-20.49
					c11.5,0.29,20.62,9.79,20.49,21.26c-0.1,8.95-0.81,18.12-3.49,27.34c-2.68,9.17-6.95,18.21-12.93,26.17
					c-12.12,16.01-30.26,26.01-47.89,29.92c-17.77,4.07-35.44,3.35-51.87-0.19c-16.52-3.45-31.95-9.78-46.07-17.92
					c-28.33-16.27-51.36-39.85-68.29-66.52l-1.66-2.53c-0.62-1.04-1.25-2.07-1.83-3.14c-1.17-2.12-2.27-4.29-3.25-6.52
					c-1.97-4.45-3.55-9.11-4.68-13.94c-2.25-9.59-2.66-20.07-0.66-30.04c1.82-9.82,5.86-19.69,11.96-28.13
					c6.12-8.44,14.18-15.23,22.86-20.07c17.52-9.75,36.86-11.8,54.41-9.79c17.68,2.11,34.03,8.26,48.55,16.63
					c14.5,8.44,27.29,19.04,38.22,30.91c2.78,2.89,5.43,6.07,8.08,9.25l6.55,7.84l3.14,3.68l3.33,3.26c2.27,2.1,4.33,4.49,6.78,6.29
					c9.3,8.01,19.11,14.58,29.62,20.19c10.54,5.63,22.26,9.35,34.74,11.56c12.5,2.07,25.73,2.73,39.27,1.89
					c13.53-0.88,27.31-2.86,41.29-5.3l0.2-0.03c4.33-0.76,8.46,2.14,9.22,6.47C1801.71,1977.62,1799.91,1981.01,1796.88,1982.56z"/>
			</g>
		</g>
		<g>
			<path class="st5" d="M2623.57,1776.4c-13.69-8.16-26.84-15.71-40.31-21.05c-13.43-5.4-26.96-8.32-40.36-9.12
				c-26.8-1.55-53.9,6.22-81.59,17.71c-27.73,11.46-55.68,26.51-86.43,39.2c-15.43,6.21-31.65,11.93-49.11,15.04
				c-17.36,2.94-36.72,2.89-53.58-4.18c-4.07-1.71-5.99-6.4-4.28-10.47c1.27-3.02,4.17-4.85,7.25-4.9l0.57-0.01
				c29.11-0.45,54.6-15.68,81.46-31.35c26.77-15.79,54.32-33.38,85.82-46.86c15.72-6.75,32.55-12.34,50.46-15.45
				c17.86-3.04,36.93-3.39,55.3,0.52c18.35,3.81,35.73,11.53,50.12,22.18c14.42,10.64,26.3,23.5,35.79,37.53
				c2.49,3.68,1.52,8.68-2.16,11.17c-2.67,1.8-6.03,1.79-8.62,0.25L2623.57,1776.4z"/>
		</g>
		<g>
			<g>
				<path class="st5" d="M2353.84,1977.09v0.05c-1.16,87.08,127.44,90.76,193.1-14.89c6.84-11,10.1-24.15,8.16-36.99
					c-8-53.35-90.39-65.14-148.69,7.73C2390.77,1953.63,2373.15,1968.04,2353.84,1977.09z"/>
			</g>
			<g>
				<ellipse class="st3" cx="2408.47" cy="1974.51" rx="28.28" ry="32.4"/>
			</g>
			<g>
				<path class="st5" d="M2226.59,1967.66c13.98,2.45,27.75,4.42,41.29,5.3c13.54,0.84,26.77,0.18,39.27-1.89
					c12.49-2.22,24.21-5.93,34.74-11.56c10.52-5.61,20.33-12.18,29.62-20.19c2.46-1.8,4.52-4.19,6.79-6.29l3.33-3.26l3.14-3.68
					l6.55-7.84c2.64-3.18,5.29-6.37,8.07-9.25c10.94-11.88,23.73-22.48,38.22-30.91c14.52-8.36,30.88-14.51,48.55-16.63
					c17.56-2.01,36.89,0.04,54.42,9.79c8.67,4.84,16.74,11.64,22.86,20.07c6.11,8.44,10.15,18.31,11.97,28.13
					c1.99,9.97,1.58,20.44-0.66,30.04c-1.13,4.82-2.71,9.48-4.68,13.94c-0.97,2.24-2.08,4.4-3.25,6.52
					c-0.57,1.07-1.22,2.09-1.83,3.14l-1.66,2.53c-16.93,26.67-39.96,50.25-68.29,66.52c-14.12,8.14-29.55,14.47-46.06,17.92
					c-16.43,3.54-34.1,4.26-51.87,0.19c-17.62-3.91-35.77-13.92-47.89-29.92c-5.98-7.96-10.26-17-12.93-26.17
					c-2.68-9.22-3.39-18.4-3.49-27.34c-0.13-11.62,9.17-21.14,20.79-21.27c11.51-0.13,20.97,9.01,21.26,20.48l0.03,1.37
					c0.14,5.39,0.51,10.64,1.89,15.25c1.39,4.58,3.35,8.68,5.98,12.24c5.35,6.95,13.61,12.05,23.93,14.38
					c10.24,2.36,21.99,2.17,33.55-0.38c11.62-2.4,23.12-7.05,33.84-13.25c21.55-12.37,39.99-30.91,53.77-52.68l1.3-1.96l0.88-1.51
					c0.56-1.02,1.09-2.06,1.55-3.12c0.93-2.11,1.67-4.27,2.17-6.44c1-4.37,1.16-8.58,0.29-12.69c-1.6-8.53-6.21-14.91-13.97-19.24
					c-7.66-4.38-18.25-6.03-29.08-4.74c-10.88,1.3-22,5.3-32.32,11.25c-10.32,6.02-19.95,13.87-28.44,23.12
					c-2.21,2.28-4.14,4.63-6.09,6.96l-3.42,4.17l-3.73,4.6l-3.72,4.62l-4.15,4.48c-2.83,2.95-5.39,6.11-8.55,8.81
					c-3.08,2.77-6.05,5.63-9.32,8.21c-3.33,2.52-6.78,4.91-10.19,7.33c-3.64,2.11-7.33,4.17-11.04,6.13
					c-3.76,1.88-7.75,3.36-11.65,4.91c-15.87,5.68-32.5,8.42-48.62,8.29c-32.44-0.1-62.06-10.09-88.37-23.59
					c-3.91-2.01-5.46-6.81-3.45-10.73c1.63-3.18,5.11-4.79,8.45-4.21L2226.59,1967.66z"/>
			</g>
		</g>
		<g class="st6">
			<path class="st3" d="M2439.13,1196.22c-43.44,52.01-133.74-13.82-239.31-101.99s-186.43-165.3-142.99-217.31
				s164.24-22.7,269.81,65.48S2482.58,1144.21,2439.13,1196.22z"/>
		</g>
		<g class="st6">
			<path class="st3" d="M2626.8,1315.73c10.41,52-15.1,100.95-56.98,109.34c-41.88,8.38-66.63-30.51-77.04-82.51
				c-10.41-52-2.54-97.42,39.34-105.8C2574,1228.37,2616.39,1263.73,2626.8,1315.73z"/>
		</g>
		<g>
			<g class="st6">
				<path class="st5" d="M1853.89,2426.2c-298.02-166.74-650.5-494.12-391.31-618.03c-197.3-336.35-116.35-676.68,253-1021.22
					c-302.12,174.15-477.61,496.45-477.61,760.93c1.58,105.97,30.04,192.31,89.45,256.08c-144.67,114.69-170.51,390.61,97.02,548.49
					l-10.91-5.32l54.42,26.56l4.37,2.16l104.86,51.2c4.28,3.51,8.73,6.77,13.23,9.9c-3.94-2.74-7.81-5.6-11.58-8.63l38.35,18.72
					c6.37,5.22,13.01,10,19.86,14.38c0,0,0,0-0.01,0c35.84,13.37,75.1,16.95,113.66,10.08c32.69-5.83,64.57-7.26,92.92-6.49
					C1865.23,2465.59,1872.87,2436.55,1853.89,2426.2z"/>
			</g>
		</g>
		<g class="st6">
			<path class="st5" d="M933.37,2573.52c0,0-5.79,0.89-15.57,2c0.05-4.21,0.21-8.52,0.42-12.84
				c11.63-139.43-36.67-220.3-136.07-251.3c-23.78-7.42-27.52-39.73-6.47-53.04c61.67-39.09,131.49-48.46,190.68-31.78
				C966.36,2226.57,872.23,2278.87,933.37,2573.52z"/>
		</g>
		<g class="st6">
			<path class="st5" d="M1308.58,2579.73l-128.38,83.82c0,0-114.65,21.52-79.13-269.24c13.21,86.24,70.93,118.7,132.28,97.45
				c19.26-6.63,35.78-19.2,48.99-34.73c29.78-34.99,64.77-59.82,105.97-72.35l17.26,3.68
				C1405.55,2388.37,1287.64,2450.82,1308.58,2579.73z"/>
		</g>
		<g class="st6">
			<path class="st5" d="M863.08,3087.06c-1.47,15.26-8.16,32.31-21.57,50.09l-105.39-83.82c0.68-0.63,1.37-1.26,2.05-1.79
				C799.67,2997.45,868.71,3029.34,863.08,3087.06z"/>
		</g>
		<g class="st6">
			<path class="st5" d="M1422.44,2535.59c-143.59,80.5-258.03,208.94-343.16,385.36c-25.05,51.83-62.72,96.92-111.39,127.65
				c-33.52,21.1-69.51,34.57-104.81,38.46c5.63-57.72-63.4-89.61-124.91-35.52c-5.52-4.68-10.84-9.73-16-15.31
				c-78.35-102.13-97.87-241.46-4.79-353.32c16.36-19.68,47.93-10.37,51.88,14.94c20.26,130.12,154.43,160.69,245.56,100.71
				c6.37-0.05,9.94-0.53,9.94-0.53C1151.78,2669.55,1284.43,2582.73,1422.44,2535.59z"/>
		</g>
		<g class="st6">
			<path class="st5" d="M1554.39,2694.37l138.17-59.46c-385.55,363.99-339.39,561.82-101.72,685.93
				c-146.41,6.14-288.58,0.67-319.55-308.94C1291.58,2879.15,1382.01,2771.87,1554.39,2694.37z"/>
		</g>
		<g class="st6">
			<path class="st5" d="M1470.02,2535.59c64.63,6.58,125.9,9.52,175.4-0.3c14.4-2.86,24.89,13.18,16.94,25.52
				C1604.2,2651.05,1540.09,2642.64,1470.02,2535.59z"/>
		</g>
		<g class="st6">
			<path class="st5" d="M2926.64,3112.42c5.52,16,5.79,33.52-1.89,50.25l-16.99-9.1c-1.84,3.1-3.79,6.1-5.89,9.1l-97.34-64.3
				l-3.79-2.47l-51.98-34.36c-1.21-168.11-122.91-286.5-308.12-378.63l-110.97-40.99
				C2761.26,2584.1,2990.51,2914.95,2926.64,3112.42z"/>
		</g>
		<g class="st6">
			<path class="st5" d="M3099.27,2550.37l-5.47,105.65c-1.37,5.37-2.84,10.63-4.52,15.73c-17.68,56.19-50.04,97.34-103.23,116.97
				L2694.39,2571c74.19,53.46,239.83,88.87,337.22,42.25c-6.68-34.73,21.05-67.56,63.82-63.35
				C3096.69,2550,3097.95,2550.16,3099.27,2550.37z"/>
		</g>
		<g class="st6">
			<path class="st3" d="M1849.31,2772.04c-29.92,43.42-77.54,62.53-106.36,42.67s3.08-49.79,33.01-93.22
				c29.92-43.42,46.54-83.89,75.36-64.03S1879.24,2728.61,1849.31,2772.04z"/>
		</g>
		<g class="st6">
			<path class="st3" d="M1722.89,2854.75c6.46,16.42-5.32,36.43-26.32,44.69c-20.99,8.26-43.25,1.64-49.71-14.78
				s8.54-28.25,29.53-36.51C1697.4,2839.89,1716.44,2838.33,1722.89,2854.75z"/>
		</g>
		<g class="st6">
			<path class="st5" d="M2546.69,2535.59c0,0-90.64-26.83-210.72-2.48c-29.54,5.99-54.28-23.16-42.87-51.06
				c33.13-81.02,124.67-202.16,373.4-169.22c0,0-81.65,22.36-187.54,101.19C2478.95,2414.02,2600.77,2432.77,2546.69,2535.59z"/>
		</g>
	</g>
</g>
</svg>
