<?xml version="1.0" encoding="iso-8859-1"?>
<!-- Uploaded to: SVG Repo, www.svgrepo.com, Generator: SVG Repo Mixer Tools -->
<svg fill="#000000" height="800px" width="800px" version="1.1" id="Layer_1" xmlns="http://www.w3.org/2000/svg" xmlns:xlink="http://www.w3.org/1999/xlink" 
	 viewBox="0 0 512 512" xml:space="preserve">
<g>
	<g>
		<path d="M392.647,0h-274.15C98.296,0,82.286,16.404,82.286,36.567v438.866c0,20.163,16.01,36.567,36.212,36.567h274.15
			c20.204,0,37.067-16.404,37.067-36.567V36.567C429.714,16.404,412.852,0,392.647,0z M411.429,475.433
			c0,10.08-8.661,18.281-18.781,18.281h-274.15c-10.12,0-17.926-8.201-17.926-18.281V36.567c0-10.08,7.807-18.281,17.926-18.281
			h274.15c10.12,0,18.781,8.201,18.781,18.281V475.433z"/>
	</g>
</g>
<g>
	<g>
		<path d="M190.688,67.932l-28.682-28.683c-1.715-1.714-4.04-2.677-6.465-2.677c-2.425,0-4.75,0.963-6.465,2.677l-28.683,28.683
			c-3.57,3.571-3.57,9.359,0,12.931l28.683,28.683c1.715,1.714,4.04,2.677,6.465,2.677c2.425,0,4.75-0.963,6.465-2.677
			l28.682-28.683C194.258,77.291,194.258,71.503,190.688,67.932z M155.54,90.151l-15.753-15.753l15.753-15.753l15.752,15.753
			L155.54,90.151z"/>
	</g>
</g>
<g>
	<g>
		<path d="M391.83,433.646l-28.682-28.683c-1.715-1.714-4.04-2.677-6.465-2.677c-2.425,0-4.75,0.963-6.465,2.677l-28.683,28.683
			c-3.57,3.571-3.57,9.359,0,12.931l28.683,28.683c1.715,1.714,4.04,2.677,6.465,2.677c2.425,0,4.75-0.963,6.465-2.677
			l28.682-28.683C395.401,443.005,395.401,437.218,391.83,433.646z M356.683,455.865l-15.753-15.753l15.753-15.753l15.752,15.753
			L356.683,455.865z"/>
	</g>
</g>
<g>
	<g>
		<path d="M327.576,326.389l-54.857-173.714c-1.201-3.804-4.73-6.389-8.719-6.389h-18.286c-3.989,0-7.518,2.586-8.719,6.39
			L182.138,326.39c-1.52,4.815,1.151,9.951,5.965,11.472c4.819,1.52,9.952-1.151,11.472-5.965l18.193-57.611h72.517v-1.637
			l19.281,59.248c1.232,3.899,5.12,6.392,9.002,6.392c0.912,0,1.982-0.137,2.898-0.426
			C326.282,336.34,329.096,331.204,327.576,326.389z M223.544,256l28.872-91.429h4.884L286.171,256H223.544z"/>
	</g>
</g>
</svg>