<svg xmlns="http://www.w3.org/2000/svg" xmlns:xlink="http://www.w3.org/1999/xlink" width="1080" zoomAndPan="magnify" viewBox="0 0 810 809.999993" height="1080" preserveAspectRatio="xMidYMid meet" version="1.0"><defs><clipPath id="9b48ef501a"><path d="M 162.179688 68.324219 L 642.929688 68.324219 L 642.929688 795 L 162.179688 795 Z M 162.179688 68.324219 " clip-rule="nonzero"/></clipPath><clipPath id="f20e8a266f"><path d="M 166.277344 74.519531 L 638.777344 74.519531 L 638.777344 789 L 166.277344 789 Z M 166.277344 74.519531 " clip-rule="nonzero"/></clipPath></defs><g clip-path="url(#9b48ef501a)"><path fill="#3d80db" d="M 608.289062 794.667969 L 196.820312 794.667969 C 177.667969 794.667969 162.179688 779.191406 162.179688 760.042969 L 162.179688 103.359375 C 162.179688 84.210938 177.667969 68.730469 196.820312 68.730469 L 608.15625 68.730469 C 627.308594 68.730469 642.792969 84.210938 642.792969 103.359375 L 642.792969 760.042969 C 642.929688 779.191406 627.445312 794.667969 608.289062 794.667969 Z M 608.289062 794.667969 " fill-opacity="1" fill-rule="nonzero"/></g><path fill="#3d80db" d="M 402.488281 356.472656 C 379.257812 333.253906 341.628906 333.253906 318.535156 356.472656 C 295.308594 379.691406 295.308594 417.308594 318.535156 440.390625 L 402.488281 524.308594 L 486.4375 440.390625 C 509.667969 417.171875 509.667969 379.558594 486.4375 356.472656 C 463.34375 333.253906 425.71875 333.253906 402.488281 356.472656 Z M 402.488281 356.472656 " fill-opacity="1" fill-rule="nonzero"/><path fill="#3d80db" d="M 205.921875 165.414062 C 199.265625 158.761719 188.398438 158.761719 181.742188 165.414062 C 175.085938 172.070312 175.085938 182.933594 181.742188 189.585938 L 205.921875 213.757812 L 229.964844 189.585938 C 236.621094 182.933594 236.621094 172.070312 229.964844 165.414062 C 223.308594 158.761719 212.578125 158.761719 205.921875 165.414062 Z M 205.921875 165.414062 " fill-opacity="1" fill-rule="nonzero"/><path fill="#3d80db" d="M 178.347656 144.503906 L 178.347656 139.480469 L 182.558594 138.933594 L 202.660156 86.925781 L 209.316406 86.925781 L 229.152344 138.933594 L 233.363281 139.480469 L 233.363281 144.503906 L 216.925781 144.503906 L 216.925781 139.480469 L 221.273438 138.664062 L 217.46875 128.070312 L 194.375 128.070312 L 190.4375 138.664062 L 194.78125 139.480469 L 194.78125 144.503906 Z M 196.820312 121.554688 L 215.160156 121.554688 L 206.738281 98.0625 L 206.328125 96.703125 L 206.058594 96.703125 L 205.652344 98.0625 Z M 196.820312 121.554688 " fill-opacity="1" fill-rule="nonzero"/><path fill="#3d80db" d="M 599.1875 697.988281 C 605.84375 704.640625 616.710938 704.640625 623.367188 697.988281 C 630.027344 691.332031 630.027344 680.46875 623.367188 673.816406 L 599.1875 649.644531 L 575.007812 673.816406 C 568.351562 680.46875 568.351562 691.332031 575.007812 697.988281 C 581.800781 704.640625 592.53125 704.640625 599.1875 697.988281 Z M 599.1875 697.988281 " fill-opacity="1" fill-rule="nonzero"/><path fill="#3d80db" d="M 626.765625 719.035156 L 626.765625 724.058594 L 622.554688 724.601562 L 602.449219 776.609375 L 595.792969 776.609375 L 575.824219 724.601562 L 571.613281 724.058594 L 571.613281 719.035156 L 588.1875 719.035156 L 588.1875 724.058594 L 583.839844 724.875 L 587.640625 735.464844 L 610.734375 735.464844 L 614.675781 724.875 L 610.328125 724.058594 L 610.328125 719.035156 Z M 608.289062 741.847656 L 590.085938 741.847656 L 598.511719 765.339844 L 598.917969 766.695312 L 599.1875 766.695312 L 599.597656 765.339844 Z M 608.289062 741.847656 " fill-opacity="1" fill-rule="nonzero"/><g clip-path="url(#f20e8a266f)"><path fill="#ffffff" d="M 604.730469 788.871094 L 200.324219 788.871094 C 181.496094 788.871094 166.277344 773.648438 166.277344 754.816406 L 166.277344 108.976562 C 166.277344 90.144531 181.496094 74.921875 200.324219 74.921875 L 604.597656 74.921875 C 623.421875 74.921875 638.644531 90.144531 638.644531 108.976562 L 638.644531 754.816406 C 638.777344 773.648438 623.558594 788.871094 604.730469 788.871094 Z M 604.730469 788.871094 " fill-opacity="1" fill-rule="nonzero"/></g><path fill="#3d80db" d="M 402.460938 357.910156 C 379.628906 335.074219 342.648438 335.074219 319.949219 357.910156 C 297.121094 380.746094 297.121094 417.738281 319.949219 440.441406 L 402.460938 522.976562 L 484.972656 440.441406 C 507.800781 417.605469 507.800781 380.613281 484.972656 357.910156 C 462.273438 335.074219 425.292969 335.074219 402.460938 357.910156 Z M 402.460938 357.910156 " fill-opacity="1" fill-rule="nonzero"/><path fill="#3d80db" d="M 209.269531 170.007812 C 202.726562 163.464844 192.046875 163.464844 185.503906 170.007812 C 178.960938 176.550781 178.960938 187.234375 185.503906 193.777344 L 209.269531 217.550781 L 232.898438 193.777344 C 239.441406 187.234375 239.441406 176.550781 232.898438 170.007812 C 226.359375 163.464844 215.808594 163.464844 209.269531 170.007812 Z M 209.269531 170.007812 " fill-opacity="1" fill-rule="nonzero"/><path fill="#3d80db" d="M 182.164062 149.441406 L 182.164062 144.5 L 186.304688 143.964844 L 206.0625 92.816406 L 212.605469 92.816406 L 232.097656 143.964844 L 236.238281 144.5 L 236.238281 149.441406 L 220.082031 149.441406 L 220.082031 144.5 L 224.355469 143.699219 L 220.617188 133.28125 L 197.917969 133.28125 L 194.046875 143.699219 L 198.320312 144.5 L 198.320312 149.441406 Z M 200.324219 126.871094 L 218.347656 126.871094 L 210.070312 103.765625 L 209.667969 102.433594 L 209.402344 102.433594 L 209 103.765625 Z M 200.324219 126.871094 " fill-opacity="1" fill-rule="nonzero"/><path fill="#3d80db" d="M 595.785156 693.785156 C 602.328125 700.328125 613.007812 700.328125 619.550781 693.785156 C 626.09375 687.242188 626.09375 676.558594 619.550781 670.011719 L 595.785156 646.242188 L 572.019531 670.011719 C 565.480469 676.558594 565.480469 687.242188 572.019531 693.785156 C 578.695312 700.328125 589.246094 700.328125 595.785156 693.785156 Z M 595.785156 693.785156 " fill-opacity="1" fill-rule="nonzero"/><path fill="#3d80db" d="M 622.890625 714.484375 L 622.890625 719.425781 L 618.75 719.960938 L 598.992188 771.109375 L 592.449219 771.109375 L 572.824219 719.960938 L 568.683594 719.425781 L 568.683594 714.484375 L 584.972656 714.484375 L 584.972656 719.425781 L 580.699219 720.226562 L 584.4375 730.644531 L 607.136719 730.644531 L 611.007812 720.226562 L 606.734375 719.425781 L 606.734375 714.484375 Z M 604.730469 736.921875 L 586.839844 736.921875 L 595.117188 760.023438 L 595.519531 761.359375 L 595.785156 761.359375 L 596.1875 760.023438 Z M 604.730469 736.921875 " fill-opacity="1" fill-rule="nonzero"/></svg>