<svg xmlns="http://www.w3.org/2000/svg" xmlns:xlink="http://www.w3.org/1999/xlink" width="1080" zoomAndPan="magnify" viewBox="0 0 810 809.999993" height="1080" preserveAspectRatio="xMidYMid meet" version="1.0"><defs><clipPath id="98560784eb"><path d="M 157.34375 30.472656 L 650.84375 30.472656 L 650.84375 776.722656 L 157.34375 776.722656 Z M 157.34375 30.472656 " clip-rule="nonzero"/></clipPath></defs><g clip-path="url(#98560784eb)"><path fill="#ffffff" d="M 615.285156 776.300781 L 192.902344 776.300781 C 173.242188 776.300781 157.34375 760.40625 157.34375 740.746094 L 157.34375 66.453125 C 157.34375 46.792969 173.242188 30.898438 192.902344 30.898438 L 615.144531 30.898438 C 634.808594 30.898438 650.707031 46.792969 650.707031 66.453125 L 650.707031 740.746094 C 650.84375 760.40625 634.949219 776.300781 615.285156 776.300781 Z M 615.285156 776.300781 " fill-opacity="1" fill-rule="nonzero"/></g><path fill="#3d80db" d="M 404.023438 326.355469 C 380.179688 302.511719 341.554688 302.511719 317.847656 326.355469 C 294 350.195312 294 388.820312 317.847656 412.523438 L 404.023438 498.691406 L 490.203125 412.523438 C 514.046875 388.679688 514.046875 350.058594 490.203125 326.355469 C 466.496094 302.511719 427.871094 302.511719 404.023438 326.355469 Z M 404.023438 326.355469 " fill-opacity="1" fill-rule="nonzero"/><path fill="#3d80db" d="M 202.246094 130.171875 C 195.414062 123.339844 184.257812 123.339844 177.425781 130.171875 C 170.59375 137.003906 170.59375 148.160156 177.425781 154.992188 L 202.246094 179.8125 L 226.929688 154.992188 C 233.761719 148.160156 233.761719 137.003906 226.929688 130.171875 C 220.09375 123.339844 209.078125 123.339844 202.246094 130.171875 Z M 202.246094 130.171875 " fill-opacity="1" fill-rule="nonzero"/><path fill="#3d80db" d="M 173.9375 108.699219 L 173.9375 103.542969 L 178.261719 102.984375 L 198.898438 49.582031 L 205.734375 49.582031 L 226.089844 102.984375 L 230.414062 103.542969 L 230.414062 108.699219 L 213.542969 108.699219 L 213.542969 103.542969 L 218.003906 102.703125 L 214.097656 91.828125 L 190.394531 91.828125 L 186.347656 102.703125 L 190.8125 103.542969 L 190.8125 108.699219 Z M 192.902344 85.136719 L 211.730469 85.136719 L 203.082031 61.015625 L 202.664062 59.621094 L 202.386719 59.621094 L 201.96875 61.015625 Z M 192.902344 85.136719 " fill-opacity="1" fill-rule="nonzero"/><path fill="#3d80db" d="M 605.941406 677.023438 C 612.777344 683.855469 623.929688 683.855469 630.765625 677.023438 C 637.597656 670.191406 637.597656 659.039062 630.765625 652.207031 L 605.941406 627.386719 L 581.121094 652.207031 C 574.289062 659.039062 574.289062 670.191406 581.121094 677.023438 C 588.09375 683.855469 599.109375 683.855469 605.941406 677.023438 Z M 605.941406 677.023438 " fill-opacity="1" fill-rule="nonzero"/><path fill="#3d80db" d="M 634.25 698.636719 L 634.25 703.796875 L 629.925781 704.355469 L 609.289062 757.757812 L 602.457031 757.757812 L 581.957031 704.355469 L 577.636719 703.796875 L 577.636719 698.636719 L 594.648438 698.636719 L 594.648438 703.796875 L 590.1875 704.632812 L 594.089844 715.507812 L 617.796875 715.507812 L 621.839844 704.632812 L 617.378906 703.796875 L 617.378906 698.636719 Z M 615.285156 722.0625 L 596.601562 722.0625 L 605.246094 746.183594 L 605.664062 747.578125 L 605.941406 747.578125 L 606.363281 746.183594 Z M 615.285156 722.0625 " fill-opacity="1" fill-rule="nonzero"/></svg>