<svg xmlns="http://www.w3.org/2000/svg" xmlns:xlink="http://www.w3.org/1999/xlink" width="1080" zoomAndPan="magnify" viewBox="0 0 810 809.999993" height="1080" preserveAspectRatio="xMidYMid meet" version="1.0"><path fill="#3d80db" d="M 810 405 C 810 628.757812 628.757812 810 405 810 C 181.242188 810 0 628.757812 0 405 C 0 181.242188 181.242188 0 405 0 C 628.757812 0 810 181.242188 810 405 Z M 810 405 " fill-opacity="1" fill-rule="evenodd"/><path fill="#ffffff" d="M 405 436.152344 C 319.003906 436.152344 249.230469 366.382812 249.230469 280.382812 C 249.230469 194.386719 319.003906 124.617188 405 124.617188 C 490.996094 124.617188 560.769531 194.386719 560.769531 280.382812 C 560.769531 366.382812 490.996094 436.152344 405 436.152344 Z M 111.960938 582.675781 C 112.285156 579.914062 113.417969 577.320312 115.203125 575.046875 C 153.660156 527.019531 214.34375 498.460938 295.960938 498.460938 L 514.039062 498.460938 C 595.65625 498.460938 656.339844 527.019531 694.796875 575.046875 C 696.582031 577.320312 697.714844 579.914062 698.039062 582.675781 C 638.003906 681.652344 529.289062 747.691406 405 747.691406 C 280.710938 747.691406 171.996094 681.652344 111.960938 582.675781 Z M 111.960938 582.675781 " fill-opacity="1" fill-rule="evenodd"/></svg>