<svg xmlns="http://www.w3.org/2000/svg" xmlns:xlink="http://www.w3.org/1999/xlink" width="1080" zoomAndPan="magnify" viewBox="0 0 810 809.999993" height="1080" preserveAspectRatio="xMidYMid meet" version="1.0"><defs><clipPath id="dd239b3e8e"><path d="M 38.332031 81 L 771.832031 81 L 771.832031 729 L 38.332031 729 Z M 38.332031 81 " clip-rule="nonzero"/></clipPath></defs><g clip-path="url(#dd239b3e8e)"><path fill="#ff5757" d="M 771.480469 179.292969 L 771.480469 494.449219 C 771.480469 548.648438 729.234375 592.742188 677.300781 592.742188 L 537.609375 592.742188 L 410.675781 725.210938 C 408.398438 727.589844 405.308594 728.925781 402.085938 728.925781 C 398.867188 728.925781 395.777344 727.589844 393.5 725.214844 L 266.550781 592.742188 L 132.832031 592.742188 C 80.902344 592.742188 38.652344 548.648438 38.652344 494.449219 L 38.652344 179.292969 C 38.652344 125.09375 80.902344 81 132.832031 81 L 677.300781 81 C 729.234375 81 771.480469 125.09375 771.480469 179.292969 Z M 771.480469 179.292969 " fill-opacity="1" fill-rule="nonzero"/><path fill="#ff5757" d="M 677.300781 81 L 132.832031 81 C 80.902344 81 38.652344 125.09375 38.652344 179.292969 L 38.652344 494.449219 C 38.652344 548.648438 80.902344 592.742188 132.832031 592.742188 L 266.550781 592.742188 L 393.5 725.214844 C 395.777344 727.589844 398.867188 728.925781 402.085938 728.925781 C 405.308594 728.925781 408.398438 727.589844 410.675781 725.210938 L 537.609375 592.742188 L 677.300781 592.742188 C 729.234375 592.742188 771.480469 548.648438 771.480469 494.449219 L 771.480469 179.292969 C 771.480469 125.09375 729.234375 81 677.300781 81 Z M 535.917969 446.980469 C 536.171875 448.269531 535.773438 449.605469 534.855469 450.546875 C 533.933594 451.484375 532.609375 451.910156 531.3125 451.683594 L 464.28125 439.9375 C 457.191406 443.507812 449.75 446.441406 442.140625 448.664062 C 441.394531 448.882812 423.796875 453.941406 405.066406 453.941406 C 369.78125 453.941406 336.605469 440.203125 311.65625 415.257812 C 286.703125 390.3125 272.960938 357.144531 272.960938 321.867188 C 272.960938 286.589844 286.703125 253.421875 311.65625 228.476562 C 336.605469 203.53125 369.78125 189.792969 405.066406 189.792969 C 440.355469 189.792969 473.527344 203.53125 498.480469 228.476562 C 523.433594 253.421875 537.171875 286.589844 537.171875 321.867188 C 537.171875 341.515625 531.664062 359.738281 531.410156 360.566406 C 529.210938 367.765625 526.375 374.816406 522.972656 381.542969 Z M 535.917969 446.980469 " fill-opacity="1" fill-rule="nonzero"/></g><path fill="#feffff" d="M 531.410156 360.566406 C 529.210938 367.765625 526.375 374.816406 522.972656 381.542969 L 535.917969 446.980469 C 536.171875 448.269531 535.773438 449.605469 534.855469 450.546875 C 533.933594 451.484375 532.609375 451.910156 531.3125 451.683594 L 464.28125 439.9375 C 457.191406 443.507812 449.75 446.441406 442.140625 448.664062 C 441.394531 448.882812 423.796875 453.941406 405.066406 453.941406 C 369.78125 453.941406 336.605469 440.203125 311.65625 415.257812 C 286.703125 390.3125 272.960938 357.144531 272.960938 321.867188 C 272.960938 286.589844 286.703125 253.421875 311.65625 228.476562 C 336.605469 203.53125 369.78125 189.792969 405.066406 189.792969 C 440.355469 189.792969 473.527344 203.53125 498.480469 228.476562 C 523.433594 253.421875 537.171875 286.589844 537.171875 321.867188 C 537.171875 341.515625 531.664062 359.738281 531.410156 360.566406 Z M 531.410156 360.566406 " fill-opacity="1" fill-rule="nonzero"/></svg>