<svg xmlns="http://www.w3.org/2000/svg" xmlns:xlink="http://www.w3.org/1999/xlink" width="1080" zoomAndPan="magnify" viewBox="0 0 810 809.999993" height="1080" preserveAspectRatio="xMidYMid meet" version="1.0"><path fill="#ff5757" d="M 0 405 C 0 628.675781 181.324219 810 405 810 C 628.675781 810 810 628.675781 810 405 C 810 181.324219 628.675781 0 405 0 C 181.324219 0 0 181.324219 0 405 " fill-opacity="1" fill-rule="nonzero"/><path fill="#ff5757" d="M 35.53125 405 C 35.53125 609.050781 200.949219 774.46875 405 774.46875 C 609.050781 774.46875 774.46875 609.050781 774.46875 405 C 774.46875 200.949219 609.050781 35.53125 405 35.53125 C 200.949219 35.53125 35.53125 200.949219 35.53125 405 " fill-opacity="1" fill-rule="nonzero"/><path fill="#ffffff" d="M 338.6875 264.109375 C 338.6875 264.109375 338.6875 473.882812 338.6875 474.464844 C 338.6875 476.082031 345.414062 481.132812 346.496094 482.242188 C 352.488281 488.355469 358.039062 494.949219 363.742188 501.195312 C 375.933594 514.550781 388.554688 526.523438 399.058594 541.453125 C 413.765625 562.347656 425.691406 585.027344 436.664062 608.050781 C 441.3125 617.789062 444.804688 629.375 452.175781 637.179688 C 457.746094 643.078125 471.203125 652.953125 480.203125 650.140625 C 491.542969 646.601562 498.632812 636.679688 500.046875 627.457031 C 502.585938 610.542969 504.046875 593.222656 500.230469 576.371094 C 496.796875 561.191406 490.777344 546.585938 482.457031 533.429688 C 477.304688 525.292969 464.710938 507.179688 466.738281 497.042969 C 467.605469 492.703125 520.988281 496.050781 525.550781 496.132812 C 539.464844 496.371094 553.375 496.695312 567.292969 496.832031 C 593.503906 497.09375 624.128906 481.367188 613.050781 449.804688 C 608.457031 436.703125 596.304688 435.089844 587.625 426.257812 C 597.417969 416.382812 606.519531 407.050781 603.082031 391.488281 C 600.40625 379.347656 591.886719 375.613281 582.289062 369.714844 C 573.886719 364.550781 583.789062 356.863281 583.789062 356.863281 C 588.261719 351.28125 592.140625 345.046875 593.058594 337.8125 C 593.660156 333.085938 592.933594 328.214844 591.128906 323.804688 C 588.871094 318.273438 584.84375 313.519531 579.878906 310.21875 C 574.492188 306.628906 565.507812 306.027344 570.4375 300.863281 C 578.015625 292.910156 576.429688 287.765625 575.6875 279.425781 C 573.785156 257.996094 555.507812 258.597656 538.964844 258.710938 C 526.734375 258.796875 514.507812 259.046875 502.28125 259.320312 C 471.160156 259.996094 439.925781 260.902344 408.808594 261.859375 C 385.472656 262.566406 362.242188 263.3125 338.6875 264.109375 " fill-opacity="1" fill-rule="nonzero"/><path fill="#ffffff" d="M 297.738281 243.640625 L 225.371094 243.640625 C 208.386719 243.640625 194.621094 257.402344 194.621094 274.386719 L 194.621094 470.1875 C 194.621094 487.164062 208.386719 500.933594 225.371094 500.933594 L 297.738281 500.933594 C 314.714844 500.933594 328.488281 487.164062 328.488281 470.1875 L 328.488281 274.386719 C 328.488281 257.402344 314.714844 243.640625 297.738281 243.640625 " fill-opacity="1" fill-rule="nonzero"/></svg>