<svg xmlns="http://www.w3.org/2000/svg" xmlns:xlink="http://www.w3.org/1999/xlink" width="1080" zoomAndPan="magnify" viewBox="0 0 810 809.999993" height="1080" preserveAspectRatio="xMidYMid meet" version="1.0"><path fill="#3d80db" d="M 405 0 C 181.324219 0 0 181.324219 0 405 C 0 628.675781 181.324219 810 405 810 C 628.675781 810 810 628.675781 810 405 C 810 181.324219 628.675781 0 405 0 Z M 651.796875 428.507812 C 651.796875 437.355469 645.777344 445.066406 637.191406 447.210938 L 590.140625 458.972656 C 586.183594 472.574219 580.769531 485.554688 574.074219 497.734375 L 599.03125 539.332031 C 603.585938 546.917969 602.390625 556.632812 596.132812 562.886719 L 562.886719 596.132812 C 556.632812 602.386719 546.921875 603.582031 539.335938 599.03125 L 497.734375 574.070312 C 485.558594 580.765625 472.578125 586.179688 458.976562 590.140625 L 447.214844 637.191406 C 445.066406 645.773438 437.355469 651.796875 428.507812 651.796875 L 381.492188 651.796875 C 372.644531 651.796875 364.933594 645.773438 362.785156 637.191406 L 351.023438 590.140625 C 337.421875 586.179688 324.441406 580.765625 312.261719 574.070312 L 270.664062 599.03125 C 263.078125 603.582031 253.367188 602.386719 247.109375 596.132812 L 213.867188 562.886719 C 207.609375 556.632812 206.414062 546.917969 210.964844 539.332031 L 235.925781 497.734375 C 229.230469 485.554688 223.816406 472.574219 219.859375 458.972656 L 172.808594 447.210938 C 164.222656 445.066406 158.203125 437.355469 158.203125 428.507812 L 158.203125 381.492188 C 158.203125 372.644531 164.222656 364.933594 172.808594 362.785156 L 219.859375 351.023438 C 223.816406 337.421875 229.230469 324.441406 235.925781 312.265625 L 210.964844 270.664062 C 206.414062 263.078125 207.609375 253.367188 213.867188 247.113281 L 247.109375 213.867188 C 253.367188 207.609375 263.078125 206.414062 270.664062 210.96875 L 312.261719 235.925781 C 324.441406 229.234375 337.421875 223.816406 351.023438 219.859375 L 362.785156 172.808594 C 364.929688 164.222656 372.644531 158.203125 381.492188 158.203125 L 428.507812 158.203125 C 437.355469 158.203125 445.066406 164.222656 447.214844 172.808594 L 458.976562 219.859375 C 472.578125 223.816406 485.558594 229.234375 497.734375 235.925781 L 539.335938 210.96875 C 546.921875 206.414062 556.632812 207.609375 562.886719 213.867188 L 596.132812 247.113281 C 602.386719 253.367188 603.585938 263.078125 599.03125 270.664062 L 574.074219 312.265625 C 580.765625 324.441406 586.183594 337.421875 590.140625 351.023438 L 637.191406 362.785156 C 645.777344 364.933594 651.796875 372.644531 651.796875 381.492188 Z M 651.796875 428.507812 " fill-opacity="1" fill-rule="nonzero"/><path fill="#3d80db" d="M 482.125 405 C 482.125 406.261719 482.09375 407.523438 482.03125 408.785156 C 481.96875 410.046875 481.875 411.304688 481.753906 412.558594 C 481.628906 413.816406 481.472656 415.066406 481.289062 416.316406 C 481.105469 417.566406 480.886719 418.808594 480.640625 420.046875 C 480.394531 421.285156 480.121094 422.515625 479.8125 423.738281 C 479.507812 424.964844 479.167969 426.179688 478.804688 427.386719 C 478.4375 428.597656 478.039062 429.792969 477.617188 430.980469 C 477.191406 432.171875 476.734375 433.347656 476.253906 434.515625 C 475.769531 435.679688 475.257812 436.832031 474.71875 437.976562 C 474.179688 439.117188 473.613281 440.242188 473.015625 441.355469 C 472.421875 442.46875 471.800781 443.566406 471.152344 444.648438 C 470.503906 445.730469 469.828125 446.796875 469.125 447.847656 C 468.425781 448.898438 467.699219 449.929688 466.945312 450.941406 C 466.195312 451.957031 465.417969 452.953125 464.617188 453.925781 C 463.816406 454.902344 462.992188 455.859375 462.144531 456.792969 C 461.296875 457.726562 460.425781 458.640625 459.535156 459.535156 C 458.640625 460.425781 457.726562 461.296875 456.792969 462.144531 C 455.859375 462.992188 454.902344 463.816406 453.925781 464.617188 C 452.953125 465.417969 451.957031 466.195312 450.941406 466.945312 C 449.929688 467.699219 448.898438 468.425781 447.847656 469.125 C 446.796875 469.828125 445.730469 470.503906 444.648438 471.152344 C 443.566406 471.800781 442.46875 472.421875 441.355469 473.015625 C 440.242188 473.613281 439.117188 474.179688 437.976562 474.71875 C 436.832031 475.257812 435.679688 475.769531 434.515625 476.253906 C 433.347656 476.734375 432.171875 477.191406 430.980469 477.617188 C 429.792969 478.039062 428.597656 478.4375 427.386719 478.804688 C 426.179688 479.167969 424.964844 479.507812 423.738281 479.8125 C 422.515625 480.121094 421.285156 480.394531 420.046875 480.640625 C 418.808594 480.886719 417.566406 481.105469 416.316406 481.289062 C 415.066406 481.472656 413.816406 481.628906 412.558594 481.753906 C 411.304688 481.875 410.046875 481.96875 408.785156 482.03125 C 407.523438 482.09375 406.261719 482.125 405 482.125 C 403.738281 482.125 402.476562 482.09375 401.214844 482.03125 C 399.953125 481.96875 398.695312 481.875 397.441406 481.753906 C 396.183594 481.628906 394.933594 481.472656 393.683594 481.289062 C 392.433594 481.105469 391.191406 480.886719 389.953125 480.640625 C 388.714844 480.394531 387.484375 480.121094 386.261719 479.8125 C 385.035156 479.507812 383.820312 479.167969 382.613281 478.804688 C 381.402344 478.4375 380.207031 478.039062 379.019531 477.617188 C 377.828125 477.191406 376.652344 476.734375 375.484375 476.253906 C 374.320312 475.769531 373.167969 475.257812 372.023438 474.71875 C 370.882812 474.179688 369.757812 473.613281 368.644531 473.015625 C 367.53125 472.421875 366.433594 471.800781 365.351562 471.152344 C 364.269531 470.503906 363.203125 469.828125 362.152344 469.125 C 361.101562 468.425781 360.070312 467.699219 359.058594 466.945312 C 358.042969 466.195312 357.046875 465.417969 356.074219 464.617188 C 355.097656 463.816406 354.140625 462.992188 353.207031 462.144531 C 352.269531 461.296875 351.359375 460.425781 350.464844 459.535156 C 349.574219 458.640625 348.703125 457.726562 347.855469 456.792969 C 347.007812 455.859375 346.183594 454.902344 345.382812 453.925781 C 344.582031 452.953125 343.804688 451.957031 343.054688 450.941406 C 342.300781 449.929688 341.574219 448.898438 340.875 447.847656 C 340.171875 446.796875 339.496094 445.730469 338.847656 444.648438 C 338.199219 443.566406 337.578125 442.46875 336.984375 441.355469 C 336.386719 440.242188 335.820312 439.117188 335.28125 437.976562 C 334.742188 436.832031 334.230469 435.679688 333.746094 434.515625 C 333.261719 433.347656 332.808594 432.171875 332.382812 430.980469 C 331.960938 429.792969 331.5625 428.597656 331.195312 427.386719 C 330.832031 426.179688 330.492188 424.964844 330.1875 423.738281 C 329.878906 422.515625 329.605469 421.285156 329.359375 420.046875 C 329.113281 418.808594 328.894531 417.566406 328.710938 416.316406 C 328.527344 415.066406 328.371094 413.816406 328.246094 412.558594 C 328.125 411.304688 328.03125 410.046875 327.96875 408.785156 C 327.90625 407.523438 327.875 406.261719 327.875 405 C 327.875 403.738281 327.90625 402.476562 327.96875 401.214844 C 328.03125 399.953125 328.125 398.695312 328.246094 397.441406 C 328.371094 396.183594 328.527344 394.933594 328.710938 393.683594 C 328.894531 392.433594 329.113281 391.191406 329.359375 389.953125 C 329.605469 388.714844 329.878906 387.484375 330.1875 386.261719 C 330.492188 385.035156 330.832031 383.820312 331.195312 382.613281 C 331.5625 381.402344 331.960938 380.207031 332.382812 379.019531 C 332.808594 377.828125 333.261719 376.652344 333.746094 375.484375 C 334.230469 374.320312 334.742188 373.167969 335.28125 372.023438 C 335.820312 370.882812 336.386719 369.757812 336.984375 368.644531 C 337.578125 367.53125 338.199219 366.433594 338.847656 365.351562 C 339.496094 364.269531 340.171875 363.203125 340.875 362.152344 C 341.574219 361.101562 342.300781 360.070312 343.054688 359.058594 C 343.804688 358.042969 344.582031 357.046875 345.382812 356.074219 C 346.183594 355.097656 347.007812 354.140625 347.855469 353.207031 C 348.703125 352.269531 349.574219 351.359375 350.464844 350.464844 C 351.359375 349.574219 352.269531 348.703125 353.207031 347.855469 C 354.140625 347.007812 355.097656 346.183594 356.074219 345.382812 C 357.046875 344.582031 358.042969 343.804688 359.058594 343.054688 C 360.070312 342.300781 361.101562 341.574219 362.152344 340.875 C 363.203125 340.171875 364.269531 339.496094 365.351562 338.847656 C 366.433594 338.199219 367.53125 337.578125 368.644531 336.984375 C 369.757812 336.386719 370.882812 335.820312 372.023438 335.28125 C 373.167969 334.742188 374.320312 334.230469 375.484375 333.746094 C 376.652344 333.261719 377.828125 332.808594 379.019531 332.382812 C 380.207031 331.960938 381.402344 331.5625 382.613281 331.195312 C 383.820312 330.832031 385.035156 330.492188 386.261719 330.1875 C 387.484375 329.878906 388.714844 329.605469 389.953125 329.359375 C 391.191406 329.113281 392.433594 328.894531 393.683594 328.710938 C 394.933594 328.527344 396.183594 328.371094 397.441406 328.246094 C 398.695312 328.125 399.953125 328.03125 401.214844 327.96875 C 402.476562 327.90625 403.738281 327.875 405 327.875 C 406.261719 327.875 407.523438 327.90625 408.785156 327.96875 C 410.046875 328.03125 411.304688 328.125 412.558594 328.246094 C 413.816406 328.371094 415.066406 328.527344 416.316406 328.710938 C 417.566406 328.894531 418.808594 329.113281 420.046875 329.359375 C 421.285156 329.605469 422.515625 329.878906 423.738281 330.1875 C 424.964844 330.492188 426.179688 330.832031 427.386719 331.195312 C 428.597656 331.5625 429.792969 331.960938 430.980469 332.382812 C 432.171875 332.808594 433.347656 333.265625 434.515625 333.746094 C 435.679688 334.230469 436.832031 334.742188 437.976562 335.28125 C 439.117188 335.820312 440.242188 336.386719 441.355469 336.984375 C 442.46875 337.578125 443.566406 338.199219 444.648438 338.847656 C 445.730469 339.496094 446.796875 340.171875 447.847656 340.875 C 448.898438 341.574219 449.929688 342.300781 450.941406 343.054688 C 451.957031 343.804688 452.953125 344.582031 453.925781 345.382812 C 454.902344 346.183594 455.859375 347.007812 456.792969 347.855469 C 457.726562 348.703125 458.640625 349.574219 459.535156 350.464844 C 460.425781 351.359375 461.296875 352.269531 462.144531 353.207031 C 462.992188 354.140625 463.816406 355.097656 464.617188 356.074219 C 465.417969 357.046875 466.195312 358.042969 466.945312 359.058594 C 467.699219 360.070312 468.425781 361.101562 469.125 362.152344 C 469.828125 363.203125 470.503906 364.269531 471.152344 365.351562 C 471.800781 366.433594 472.421875 367.53125 473.015625 368.644531 C 473.613281 369.757812 474.179688 370.882812 474.71875 372.023438 C 475.257812 373.167969 475.769531 374.320312 476.253906 375.484375 C 476.734375 376.652344 477.191406 377.828125 477.617188 379.019531 C 478.039062 380.207031 478.4375 381.402344 478.804688 382.613281 C 479.167969 383.820312 479.507812 385.035156 479.8125 386.261719 C 480.121094 387.484375 480.394531 388.714844 480.640625 389.953125 C 480.886719 391.191406 481.105469 392.433594 481.289062 393.683594 C 481.472656 394.933594 481.628906 396.183594 481.753906 397.441406 C 481.875 398.695312 481.96875 399.953125 482.03125 401.214844 C 482.09375 402.476562 482.125 403.738281 482.125 405 Z M 482.125 405 " fill-opacity="1" fill-rule="nonzero"/></svg>