<svg xmlns="http://www.w3.org/2000/svg" xmlns:xlink="http://www.w3.org/1999/xlink" width="1080" zoomAndPan="magnify" viewBox="0 0 810 809.999993" height="1080" preserveAspectRatio="xMidYMid meet" version="1.0"><path fill="#3d80db" d="M 331.085938 203.890625 L 331.085938 606.109375 C 331.097656 608.089844 330.875 610.042969 330.417969 611.96875 C 329.957031 613.894531 329.277344 615.738281 328.375 617.5 C 327.46875 619.261719 326.371094 620.894531 325.074219 622.390625 C 323.78125 623.886719 322.324219 625.210938 320.710938 626.359375 C 319.160156 627.480469 317.5 628.40625 315.730469 629.136719 C 313.957031 629.867188 312.128906 630.382812 310.234375 630.679688 C 308.34375 630.976562 306.445312 631.046875 304.535156 630.894531 C 302.625 630.742188 300.761719 630.371094 298.941406 629.773438 L 204.398438 598.386719 C 203.175781 597.964844 201.992188 597.449219 200.851562 596.84375 C 199.707031 596.238281 198.617188 595.546875 197.582031 594.773438 C 196.546875 593.996094 195.578125 593.144531 194.671875 592.21875 C 193.769531 591.292969 192.941406 590.304688 192.191406 589.25 C 191.441406 588.195312 190.777344 587.089844 190.199219 585.933594 C 189.621094 584.773438 189.136719 583.578125 188.746094 582.347656 C 188.351562 581.113281 188.058594 579.859375 187.859375 578.578125 C 187.660156 577.300781 187.5625 576.015625 187.566406 574.71875 L 187.566406 235.28125 C 187.5625 233.984375 187.660156 232.699219 187.859375 231.421875 C 188.058594 230.140625 188.351562 228.886719 188.746094 227.652344 C 189.136719 226.421875 189.621094 225.226562 190.199219 224.066406 C 190.777344 222.910156 191.441406 221.804688 192.191406 220.75 C 192.941406 219.695312 193.769531 218.707031 194.671875 217.78125 C 195.578125 216.855469 196.546875 216.003906 197.582031 215.226562 C 198.617188 214.453125 199.707031 213.761719 200.851562 213.15625 C 201.992188 212.550781 203.175781 212.035156 204.398438 211.613281 L 298.941406 180.226562 C 300.761719 179.628906 302.625 179.257812 304.535156 179.105469 C 306.445312 178.953125 308.34375 179.023438 310.234375 179.320312 C 312.128906 179.617188 313.957031 180.132812 315.730469 180.863281 C 317.5 181.59375 319.160156 182.519531 320.710938 183.640625 C 322.324219 184.789062 323.78125 186.113281 325.074219 187.609375 C 326.371094 189.105469 327.46875 190.738281 328.375 192.5 C 329.277344 194.261719 329.957031 196.105469 330.417969 198.03125 C 330.875 199.957031 331.097656 201.910156 331.085938 203.890625 Z M 331.085938 203.890625 " fill-opacity="1" fill-rule="nonzero"/><path fill="#3d80db" d="M 405 0 C 398.371094 0 391.746094 0.164062 385.128906 0.488281 C 378.507812 0.8125 371.898438 1.300781 365.304688 1.949219 C 358.707031 2.601562 352.128906 3.410156 345.574219 4.382812 C 339.019531 5.355469 332.488281 6.488281 325.988281 7.78125 C 319.488281 9.074219 313.023438 10.527344 306.59375 12.136719 C 300.164062 13.746094 293.777344 15.515625 287.433594 17.4375 C 281.09375 19.363281 274.800781 21.441406 268.558594 23.675781 C 262.320312 25.90625 256.136719 28.292969 250.011719 30.828125 C 243.890625 33.367188 237.832031 36.050781 231.839844 38.882812 C 225.847656 41.71875 219.929688 44.699219 214.085938 47.820312 C 208.238281 50.945312 202.472656 54.210938 196.789062 57.621094 C 191.101562 61.027344 185.503906 64.574219 179.992188 68.253906 C 174.484375 71.9375 169.066406 75.753906 163.742188 79.699219 C 158.417969 83.648438 153.195312 87.726562 148.070312 91.929688 C 142.945312 96.136719 137.929688 100.464844 133.019531 104.914062 C 128.109375 109.367188 123.308594 113.933594 118.621094 118.621094 C 113.933594 123.308594 109.367188 128.109375 104.914062 133.019531 C 100.464844 137.929688 96.136719 142.945312 91.929688 148.070312 C 87.726562 153.195312 83.648438 158.417969 79.699219 163.742188 C 75.753906 169.066406 71.9375 174.484375 68.253906 179.992188 C 64.574219 185.503906 61.027344 191.101562 57.621094 196.789062 C 54.210938 202.472656 50.945312 208.238281 47.820312 214.085938 C 44.699219 219.929688 41.71875 225.847656 38.882812 231.839844 C 36.050781 237.832031 33.367188 243.890625 30.828125 250.011719 C 28.292969 256.136719 25.90625 262.320312 23.675781 268.558594 C 21.441406 274.800781 19.363281 281.09375 17.4375 287.433594 C 15.515625 293.777344 13.746094 300.164062 12.136719 306.59375 C 10.527344 313.023438 9.074219 319.488281 7.78125 325.988281 C 6.488281 332.488281 5.355469 339.019531 4.382812 345.574219 C 3.410156 352.128906 2.601562 358.707031 1.949219 365.304688 C 1.300781 371.898438 0.8125 378.507812 0.488281 385.128906 C 0.164062 391.746094 0 398.371094 0 405 C 0 411.628906 0.164062 418.253906 0.488281 424.871094 C 0.8125 431.492188 1.300781 438.101562 1.949219 444.695312 C 2.601562 451.292969 3.410156 457.871094 4.382812 464.425781 C 5.355469 470.980469 6.488281 477.511719 7.78125 484.011719 C 9.074219 490.511719 10.527344 496.976562 12.136719 503.40625 C 13.746094 509.835938 15.515625 516.222656 17.4375 522.566406 C 19.363281 528.90625 21.441406 535.199219 23.675781 541.441406 C 25.90625 547.679688 28.292969 553.863281 30.828125 559.988281 C 33.367188 566.109375 36.050781 572.167969 38.882812 578.160156 C 41.71875 584.152344 44.699219 590.070312 47.820312 595.914062 C 50.945312 601.761719 54.210938 607.527344 57.621094 613.210938 C 61.027344 618.898438 64.574219 624.496094 68.253906 630.007812 C 71.9375 635.515625 75.753906 640.933594 79.699219 646.257812 C 83.648438 651.582031 87.726562 656.804688 91.929688 661.929688 C 96.136719 667.054688 100.464844 672.070312 104.914062 676.980469 C 109.367188 681.890625 113.933594 686.691406 118.621094 691.378906 C 123.308594 696.066406 128.109375 700.632812 133.019531 705.085938 C 137.929688 709.535156 142.945312 713.863281 148.070312 718.070312 C 153.195312 722.273438 158.417969 726.351562 163.742188 730.300781 C 169.066406 734.246094 174.484375 738.0625 179.992188 741.746094 C 185.503906 745.425781 191.101562 748.972656 196.789062 752.378906 C 202.472656 755.789062 208.238281 759.054688 214.085938 762.179688 C 219.929688 765.300781 225.847656 768.28125 231.839844 771.117188 C 237.832031 773.949219 243.890625 776.632812 250.011719 779.171875 C 256.136719 781.707031 262.320312 784.09375 268.558594 786.324219 C 274.800781 788.558594 281.09375 790.636719 287.433594 792.5625 C 293.777344 794.484375 300.164062 796.253906 306.59375 797.863281 C 313.023438 799.472656 319.488281 800.925781 325.988281 802.21875 C 332.488281 803.511719 339.019531 804.644531 345.574219 805.617188 C 352.128906 806.589844 358.707031 807.398438 365.304688 808.050781 C 371.898438 808.699219 378.507812 809.1875 385.128906 809.511719 C 391.746094 809.835938 398.371094 810 405 810 C 411.628906 810 418.253906 809.835938 424.871094 809.511719 C 431.492188 809.1875 438.101562 808.699219 444.695312 808.050781 C 451.292969 807.398438 457.871094 806.589844 464.425781 805.617188 C 470.980469 804.644531 477.511719 803.511719 484.011719 802.21875 C 490.511719 800.925781 496.976562 799.472656 503.40625 797.863281 C 509.835938 796.253906 516.222656 794.484375 522.566406 792.5625 C 528.90625 790.636719 535.199219 788.558594 541.441406 786.324219 C 547.679688 784.09375 553.863281 781.707031 559.988281 779.171875 C 566.109375 776.632812 572.167969 773.949219 578.160156 771.117188 C 584.152344 768.28125 590.070312 765.300781 595.914062 762.179688 C 601.761719 759.054688 607.527344 755.789062 613.210938 752.378906 C 618.898438 748.972656 624.496094 745.425781 630.007812 741.746094 C 635.515625 738.0625 640.933594 734.246094 646.257812 730.300781 C 651.582031 726.351562 656.804688 722.273438 661.929688 718.070312 C 667.054688 713.863281 672.070312 709.535156 676.980469 705.085938 C 681.890625 700.632812 686.691406 696.066406 691.378906 691.378906 C 696.066406 686.691406 700.632812 681.890625 705.085938 676.980469 C 709.535156 672.070312 713.863281 667.054688 718.070312 661.929688 C 722.273438 656.804688 726.351562 651.582031 730.300781 646.257812 C 734.246094 640.933594 738.0625 635.515625 741.746094 630.007812 C 745.425781 624.496094 748.972656 618.898438 752.378906 613.210938 C 755.789062 607.527344 759.054688 601.761719 762.179688 595.914062 C 765.300781 590.070312 768.28125 584.152344 771.117188 578.160156 C 773.949219 572.167969 776.632812 566.109375 779.171875 559.988281 C 781.707031 553.863281 784.09375 547.679688 786.324219 541.441406 C 788.558594 535.199219 790.636719 528.90625 792.5625 522.566406 C 794.484375 516.222656 796.253906 509.835938 797.863281 503.40625 C 799.472656 496.976562 800.925781 490.511719 802.21875 484.011719 C 803.511719 477.511719 804.644531 470.980469 805.617188 464.425781 C 806.589844 457.871094 807.398438 451.292969 808.050781 444.695312 C 808.699219 438.101562 809.1875 431.492188 809.511719 424.871094 C 809.835938 418.253906 810 411.628906 810 405 C 810 398.371094 809.835938 391.75 809.511719 385.128906 C 809.183594 378.507812 808.695312 371.902344 808.046875 365.304688 C 807.394531 358.707031 806.582031 352.132812 805.609375 345.578125 C 804.636719 339.019531 803.503906 332.492188 802.210938 325.992188 C 800.914062 319.492188 799.464844 313.027344 797.851562 306.597656 C 796.242188 300.167969 794.472656 293.78125 792.550781 287.441406 C 790.625 281.097656 788.546875 274.808594 786.3125 268.566406 C 784.078125 262.324219 781.695312 256.144531 779.15625 250.019531 C 776.621094 243.898438 773.933594 237.839844 771.101562 231.847656 C 768.265625 225.859375 765.289062 219.941406 762.164062 214.09375 C 759.039062 208.25 755.773438 202.484375 752.363281 196.800781 C 748.957031 191.113281 745.410156 185.515625 741.730469 180.007812 C 738.046875 174.496094 734.230469 169.078125 730.285156 163.753906 C 726.335938 158.429688 722.257812 153.207031 718.054688 148.085938 C 713.847656 142.960938 709.519531 137.945312 705.070312 133.03125 C 700.617188 128.121094 696.050781 123.324219 691.363281 118.636719 C 686.675781 113.949219 681.878906 109.382812 676.96875 104.929688 C 672.054688 100.480469 667.039062 96.152344 661.914062 91.945312 C 656.792969 87.742188 651.570312 83.664062 646.246094 79.714844 C 640.921875 75.769531 635.503906 71.953125 629.992188 68.269531 C 624.484375 64.589844 618.886719 61.042969 613.199219 57.636719 C 607.515625 54.226562 601.75 50.960938 595.90625 47.835938 C 590.058594 44.710938 584.140625 41.734375 578.152344 38.898438 C 572.160156 36.066406 566.101562 33.378906 559.980469 30.84375 C 553.855469 28.304688 547.671875 25.921875 541.433594 23.6875 C 535.191406 21.453125 528.902344 19.375 522.558594 17.449219 C 516.21875 15.527344 509.832031 13.757812 503.402344 12.148438 C 496.972656 10.535156 490.507812 9.085938 484.007812 7.789062 C 477.507812 6.496094 470.980469 5.363281 464.421875 4.390625 C 457.867188 3.417969 451.292969 2.605469 444.695312 1.953125 C 438.097656 1.304688 431.492188 0.816406 424.871094 0.492188 C 418.25 0.164062 411.628906 0 405 0 Z M 645.59375 414.492188 L 585.476562 475.242188 L 566.242188 456.132812 L 603.449219 418.542969 L 414.617188 418.542969 L 414.617188 391.457031 L 511.691406 391.457031 L 511.691406 244.519531 C 511.691406 243.78125 511.652344 243.046875 511.578125 242.3125 C 511.503906 241.578125 511.394531 240.851562 511.25 240.128906 C 511.105469 239.402344 510.925781 238.691406 510.710938 237.984375 C 510.496094 237.28125 510.246094 236.585938 509.964844 235.90625 C 509.679688 235.222656 509.367188 234.558594 509.015625 233.910156 C 508.667969 233.257812 508.289062 232.628906 507.878906 232.015625 C 507.46875 231.402344 507.03125 230.808594 506.5625 230.242188 C 506.09375 229.671875 505.601562 229.125 505.078125 228.601562 C 504.558594 228.082031 504.011719 227.585938 503.441406 227.121094 C 502.871094 226.652344 502.28125 226.210938 501.667969 225.800781 C 501.054688 225.390625 500.425781 225.011719 499.773438 224.664062 C 499.125 224.316406 498.457031 224 497.777344 223.71875 C 497.097656 223.4375 496.402344 223.1875 495.699219 222.972656 C 494.992188 222.757812 494.277344 222.578125 493.554688 222.433594 C 492.832031 222.285156 492.105469 222.175781 491.371094 222.105469 C 490.636719 222.03125 489.902344 221.992188 489.164062 221.992188 L 358.171875 221.992188 L 358.171875 588.007812 L 489.164062 588.007812 C 489.902344 588.007812 490.636719 587.96875 491.371094 587.894531 C 492.105469 587.824219 492.832031 587.714844 493.554688 587.566406 C 494.277344 587.421875 494.992188 587.242188 495.699219 587.027344 C 496.402344 586.8125 497.097656 586.5625 497.777344 586.28125 C 498.457031 586 499.125 585.683594 499.773438 585.335938 C 500.425781 584.988281 501.054688 584.609375 501.667969 584.199219 C 502.28125 583.789062 502.871094 583.347656 503.441406 582.878906 C 504.011719 582.414062 504.558594 581.917969 505.078125 581.398438 C 505.601562 580.875 506.09375 580.328125 506.5625 579.757812 C 507.03125 579.191406 507.46875 578.597656 507.878906 577.984375 C 508.289062 577.371094 508.667969 576.742188 509.015625 576.089844 C 509.367188 575.441406 509.679688 574.777344 509.964844 574.09375 C 510.246094 573.414062 510.496094 572.71875 510.710938 572.015625 C 510.925781 571.308594 511.105469 570.597656 511.25 569.871094 C 511.394531 569.148438 511.503906 568.421875 511.578125 567.6875 C 511.652344 566.953125 511.691406 566.21875 511.691406 565.480469 L 511.691406 441.195312 L 538.902344 441.195312 L 538.902344 565.480469 C 538.898438 567.109375 538.8125 568.730469 538.648438 570.351562 C 538.484375 571.96875 538.242188 573.578125 537.917969 575.171875 C 537.597656 576.769531 537.199219 578.34375 536.722656 579.902344 C 536.246094 581.457031 535.695312 582.988281 535.070312 584.488281 C 534.445312 585.992188 533.75 587.460938 532.980469 588.894531 C 532.210938 590.328125 531.375 591.722656 530.46875 593.074219 C 529.5625 594.425781 528.59375 595.730469 527.5625 596.988281 C 526.527344 598.246094 525.4375 599.453125 524.285156 600.601562 C 523.132812 601.753906 521.929688 602.84375 520.671875 603.878906 C 519.414062 604.910156 518.109375 605.878906 516.757812 606.785156 C 515.40625 607.691406 514.011719 608.527344 512.578125 609.296875 C 511.144531 610.066406 509.675781 610.761719 508.171875 611.390625 C 506.667969 612.015625 505.140625 612.566406 503.582031 613.039062 C 502.027344 613.515625 500.453125 613.914062 498.855469 614.238281 C 497.261719 614.558594 495.652344 614.800781 494.035156 614.964844 C 492.414062 615.128906 490.792969 615.214844 489.164062 615.21875 L 357.285156 615.21875 C 357.035156 616.703125 356.71875 618.171875 356.339844 619.625 C 355.960938 621.078125 355.519531 622.515625 355.015625 623.929688 C 354.507812 625.347656 353.941406 626.738281 353.316406 628.105469 C 352.6875 629.46875 352.003906 630.804688 351.257812 632.113281 C 350.515625 633.417969 349.714844 634.691406 348.859375 635.925781 C 348.003906 637.164062 347.097656 638.359375 346.136719 639.515625 C 345.179688 640.671875 344.167969 641.785156 343.113281 642.855469 C 342.054688 643.921875 340.953125 644.941406 339.804688 645.914062 C 338.660156 646.886719 337.472656 647.804688 336.246094 648.671875 C 335.015625 649.542969 333.753906 650.355469 332.457031 651.113281 C 331.15625 651.867188 329.828125 652.566406 328.46875 653.210938 C 327.109375 653.851562 325.722656 654.429688 324.3125 654.949219 C 322.902344 655.46875 321.472656 655.925781 320.019531 656.320312 C 318.570312 656.714844 317.105469 657.046875 315.625 657.3125 C 314.148438 657.578125 312.660156 657.777344 311.160156 657.914062 C 309.664062 658.050781 308.164062 658.121094 306.660156 658.125 C 301.078125 658.109375 295.636719 657.222656 290.335938 655.46875 L 195.917969 624.078125 C 194.632812 623.652344 193.367188 623.175781 192.121094 622.648438 C 190.875 622.125 189.648438 621.550781 188.449219 620.925781 C 187.246094 620.304688 186.070312 619.636719 184.921875 618.921875 C 183.769531 618.207031 182.652344 617.449219 181.558594 616.648438 C 180.46875 615.84375 179.414062 615 178.390625 614.117188 C 177.367188 613.230469 176.378906 612.304688 175.425781 611.34375 C 174.476562 610.378906 173.5625 609.382812 172.6875 608.347656 C 171.816406 607.3125 170.984375 606.246094 170.195312 605.148438 C 169.40625 604.046875 168.660156 602.917969 167.960938 601.761719 C 167.257812 600.601562 166.605469 599.417969 165.996094 598.210938 C 165.386719 597 164.828125 595.769531 164.316406 594.515625 C 163.804688 593.261719 163.34375 591.992188 162.933594 590.703125 C 162.519531 589.414062 162.160156 588.109375 161.851562 586.789062 C 161.542969 585.472656 161.285156 584.144531 161.078125 582.808594 C 160.875 581.46875 160.722656 580.125 160.621094 578.777344 C 160.523438 577.425781 160.476562 576.074219 160.480469 574.71875 L 160.480469 235.28125 C 160.476562 233.925781 160.523438 232.574219 160.621094 231.222656 C 160.722656 229.875 160.875 228.53125 161.078125 227.191406 C 161.285156 225.855469 161.542969 224.527344 161.851562 223.210938 C 162.160156 221.890625 162.519531 220.585938 162.933594 219.296875 C 163.34375 218.007812 163.804688 216.738281 164.316406 215.484375 C 164.828125 214.230469 165.386719 213 165.996094 211.789062 C 166.605469 210.582031 167.257812 209.398438 167.960938 208.238281 C 168.660156 207.082031 169.40625 205.953125 170.195312 204.851562 C 170.984375 203.753906 171.816406 202.6875 172.6875 201.652344 C 173.5625 200.617188 174.472656 199.621094 175.425781 198.65625 C 176.378906 197.695312 177.363281 196.769531 178.390625 195.882812 C 179.414062 195 180.46875 194.15625 181.558594 193.351562 C 182.648438 192.550781 183.769531 191.792969 184.917969 191.078125 C 186.070312 190.363281 187.246094 189.695312 188.449219 189.074219 C 189.648438 188.449219 190.875 187.875 192.121094 187.351562 C 193.367188 186.824219 194.632812 186.347656 195.917969 185.921875 L 290.335938 154.53125 C 291.210938 154.242188 292.09375 153.972656 292.988281 153.730469 C 293.878906 153.484375 294.777344 153.265625 295.679688 153.070312 C 296.582031 152.875 297.492188 152.703125 298.402344 152.554688 C 299.316406 152.410156 300.230469 152.285156 301.152344 152.1875 C 302.070312 152.089844 302.992188 152.019531 303.914062 151.972656 C 304.835938 151.921875 305.761719 151.902344 306.683594 151.902344 C 307.609375 151.90625 308.535156 151.933594 309.457031 151.984375 C 310.378906 152.035156 311.300781 152.113281 312.21875 152.214844 C 313.136719 152.316406 314.050781 152.441406 314.964844 152.59375 C 315.875 152.742188 316.785156 152.917969 317.6875 153.117188 C 318.589844 153.316406 319.484375 153.542969 320.375 153.789062 C 321.265625 154.039062 322.148438 154.308594 323.023438 154.605469 C 323.902344 154.902344 324.769531 155.21875 325.625 155.5625 C 326.484375 155.90625 327.332031 156.269531 328.171875 156.660156 C 329.011719 157.046875 329.839844 157.457031 330.65625 157.890625 C 331.472656 158.324219 332.277344 158.777344 333.070312 159.253906 C 333.859375 159.730469 334.640625 160.226562 335.40625 160.746094 C 336.171875 161.265625 336.921875 161.800781 337.65625 162.359375 C 338.394531 162.917969 339.113281 163.496094 339.820312 164.09375 C 340.527344 164.691406 341.214844 165.308594 341.886719 165.945312 C 342.558594 166.578125 343.210938 167.230469 343.847656 167.902344 C 344.484375 168.570312 345.105469 169.257812 345.703125 169.960938 C 346.304688 170.664062 346.882812 171.382812 347.445312 172.117188 C 348.007812 172.851562 348.546875 173.601562 349.066406 174.363281 C 349.589844 175.128906 350.089844 175.90625 350.566406 176.695312 C 351.046875 177.488281 351.503906 178.289062 351.9375 179.105469 C 352.375 179.921875 352.785156 180.746094 353.175781 181.585938 C 353.566406 182.421875 353.9375 183.269531 354.28125 184.128906 C 354.625 184.984375 354.949219 185.851562 355.246094 186.726562 C 355.546875 187.601562 355.820312 188.484375 356.070312 189.371094 C 356.320312 190.261719 356.546875 191.15625 356.75 192.058594 C 356.953125 192.960938 357.132812 193.867188 357.285156 194.78125 L 489.164062 194.78125 C 490.792969 194.785156 492.414062 194.871094 494.035156 195.035156 C 495.652344 195.199219 497.261719 195.441406 498.855469 195.761719 C 500.453125 196.085938 502.027344 196.484375 503.582031 196.960938 C 505.140625 197.433594 506.667969 197.984375 508.171875 198.609375 C 509.675781 199.238281 511.144531 199.933594 512.578125 200.703125 C 514.011719 201.472656 515.40625 202.308594 516.757812 203.214844 C 518.109375 204.121094 519.414062 205.089844 520.671875 206.121094 C 521.929688 207.15625 523.132812 208.246094 524.285156 209.398438 C 525.4375 210.546875 526.527344 211.753906 527.5625 213.011719 C 528.59375 214.269531 529.5625 215.574219 530.46875 216.925781 C 531.375 218.277344 532.210938 219.671875 532.980469 221.105469 C 533.75 222.539062 534.445312 224.007812 535.070312 225.511719 C 535.695312 227.011719 536.246094 228.542969 536.722656 230.097656 C 537.199219 231.65625 537.597656 233.230469 537.917969 234.828125 C 538.242188 236.421875 538.484375 238.03125 538.648438 239.648438 C 538.8125 241.269531 538.898438 242.890625 538.902344 244.519531 L 538.902344 391.457031 L 603.449219 391.457031 L 566.242188 353.867188 L 585.476562 334.757812 L 645.59375 395.507812 C 646.210938 396.132812 646.765625 396.816406 647.25 397.546875 C 647.734375 398.28125 648.140625 399.054688 648.476562 399.871094 C 648.808594 400.683594 649.0625 401.523438 649.230469 402.386719 C 649.402344 403.25 649.488281 404.121094 649.488281 405 C 649.488281 405.878906 649.402344 406.75 649.230469 407.613281 C 649.0625 408.476562 648.808594 409.316406 648.476562 410.128906 C 648.140625 410.941406 647.734375 411.71875 647.25 412.453125 C 646.765625 413.183594 646.210938 413.867188 645.59375 414.492188 Z M 645.59375 414.492188 " fill-opacity="1" fill-rule="nonzero"/></svg>