<svg xmlns="http://www.w3.org/2000/svg" xmlns:xlink="http://www.w3.org/1999/xlink" width="1080" zoomAndPan="magnify" viewBox="0 0 810 809.999993" height="1080" preserveAspectRatio="xMidYMid meet" version="1.0"><defs><clipPath id="a45dc74795"><path d="M 296 132.960938 L 785.230469 132.960938 L 785.230469 675.925781 L 296 675.925781 Z M 296 132.960938 " clip-rule="nonzero"/></clipPath><clipPath id="c57e5372db"><path d="M 23.867188 132.960938 L 785.230469 132.960938 L 785.230469 619 L 23.867188 619 Z M 23.867188 132.960938 " clip-rule="nonzero"/></clipPath><clipPath id="c7cfc17e38"><path d="M 242 132.960938 L 785.230469 132.960938 L 785.230469 675.925781 L 242 675.925781 Z M 242 132.960938 " clip-rule="nonzero"/></clipPath></defs><g clip-path="url(#a45dc74795)"><path fill="#145ad1" d="M 296.398438 675.925781 L 785.230469 132.960938 L 307.277344 526.34375 Z M 296.398438 675.925781 " fill-opacity="1" fill-rule="nonzero"/></g><g clip-path="url(#c57e5372db)"><path fill="#3d80db" d="M 23.867188 408.222656 L 785.230469 132.960938 L 597.398438 618.421875 Z M 23.867188 408.222656 " fill-opacity="1" fill-rule="nonzero"/></g><path fill="#004aad" d="M 610.097656 585.585938 L 612.273438 579.980469 L 70.335938 391.429688 L 61.371094 394.667969 L 610.097656 585.585938 " fill-opacity="1" fill-rule="nonzero"/><path fill="#004aad" d="M 629.304688 535.957031 L 631.472656 530.351562 L 149.707031 362.734375 L 140.742188 365.96875 L 629.304688 535.957031 " fill-opacity="1" fill-rule="nonzero"/><path fill="#004aad" d="M 648.507812 486.324219 L 650.679688 480.71875 L 229.078125 334.035156 L 220.121094 337.273438 L 648.507812 486.324219 " fill-opacity="1" fill-rule="nonzero"/><path fill="#004aad" d="M 667.714844 436.695312 L 669.882812 431.089844 L 308.457031 305.339844 L 299.492188 308.578125 L 667.714844 436.695312 " fill-opacity="1" fill-rule="nonzero"/><path fill="#004aad" d="M 686.914062 387.0625 L 689.082031 381.457031 L 387.828125 276.636719 L 378.863281 279.878906 L 686.914062 387.0625 " fill-opacity="1" fill-rule="nonzero"/><path fill="#004aad" d="M 706.125 337.433594 L 708.289062 331.828125 L 467.199219 247.945312 L 458.242188 251.183594 L 706.125 337.433594 " fill-opacity="1" fill-rule="nonzero"/><path fill="#004aad" d="M 725.324219 287.796875 L 727.492188 282.199219 L 546.578125 219.25 L 537.613281 222.484375 L 725.324219 287.796875 " fill-opacity="1" fill-rule="nonzero"/><path fill="#004aad" d="M 744.523438 238.171875 L 746.699219 232.566406 L 625.949219 190.554688 L 616.984375 193.789062 L 744.523438 238.171875 " fill-opacity="1" fill-rule="nonzero"/><path fill="#004aad" d="M 763.726562 188.535156 L 765.898438 182.929688 L 705.320312 161.855469 L 696.355469 165.101562 L 763.726562 188.535156 " fill-opacity="1" fill-rule="nonzero"/><g clip-path="url(#c7cfc17e38)"><path fill="#527999" d="M 785.230469 132.960938 L 242.355469 488.300781 L 296.398438 675.925781 L 349.53125 527.582031 L 785.230469 132.960938 " fill-opacity="1" fill-rule="nonzero"/></g><path fill="#004aad" d="M 315.578125 622.359375 L 319.75 610.726562 L 279.242188 464.160156 L 272.988281 468.25 L 315.578125 622.359375 " fill-opacity="1" fill-rule="nonzero"/><path fill="#004aad" d="M 354.410156 523.15625 L 360.320312 517.804688 L 335.464844 427.359375 L 329.09375 431.527344 L 354.410156 523.15625 " fill-opacity="1" fill-rule="nonzero"/><path fill="#004aad" d="M 407.402344 475.164062 L 413.304688 469.816406 L 391.636719 390.59375 L 385.289062 394.738281 L 407.402344 475.164062 " fill-opacity="1" fill-rule="nonzero"/><path fill="#004aad" d="M 460.386719 427.175781 L 466.289062 421.824219 L 447.808594 353.820312 L 441.460938 357.972656 L 460.386719 427.175781 " fill-opacity="1" fill-rule="nonzero"/><path fill="#004aad" d="M 513.371094 379.183594 L 519.28125 373.839844 L 503.980469 317.054688 L 497.644531 321.207031 L 513.371094 379.183594 " fill-opacity="1" fill-rule="nonzero"/><path fill="#004aad" d="M 566.363281 331.195312 L 572.265625 325.851562 L 560.15625 280.289062 L 553.816406 284.441406 L 566.363281 331.195312 " fill-opacity="1" fill-rule="nonzero"/><path fill="#004aad" d="M 619.347656 283.203125 L 625.25 277.859375 L 616.328125 243.515625 L 609.988281 247.667969 L 619.347656 283.203125 " fill-opacity="1" fill-rule="nonzero"/><path fill="#004aad" d="M 672.332031 235.21875 L 678.234375 229.871094 L 672.507812 206.75 L 666.160156 210.902344 L 672.332031 235.21875 " fill-opacity="1" fill-rule="nonzero"/><path fill="#004aad" d="M 725.324219 187.222656 L 731.226562 181.878906 L 728.679688 169.984375 L 722.332031 174.132812 L 725.324219 187.222656 " fill-opacity="1" fill-rule="nonzero"/></svg>