<svg width="21" height="20" viewBox="0 0 21 20" fill="none" xmlns="http://www.w3.org/2000/svg">
  <path d="M 11 0 C 9.687 0 8.386 0.259 7.173 0.761 C 5.96 1.264 4.858 2 3.929 2.929 C 2.054 4.804 1 7.348 1 10 C 0.991 12.309 1.791 14.549 3.26 16.33 L 1.26 18.33 C 1.121 18.471 1.027 18.649 0.99 18.843 C 0.953 19.037 0.973 19.238 1.05 19.42 C 1.133 19.6 1.268 19.751 1.437 19.854 C 1.606 19.958 1.802 20.008 2 20 L 11 20 C 13.652 20 16.196 18.946 18.071 17.071 C 19.946 15.196 21 12.652 21 10 C 21 7.348 19.946 4.804 18.071 2.929 C 16.196 1.054 13.652 0 11 0 Z"/>
</svg>