<svg width="28" height="28" viewBox="0 0 28 28" fill="none" xmlns="http://www.w3.org/2000/svg">
<g clip-path="url(#clip0_9_530)">
<path d="M14.1167 21.6417L14 21.7583L13.8717 21.6417C8.33001 16.6133 4.66668 13.2883 4.66668 9.91667C4.66668 7.58333 6.41668 5.83333 8.75001 5.83333C10.5467 5.83333 12.2967 7 12.915 8.58667H15.085C15.7033 7 17.4533 5.83333 19.25 5.83333C21.5833 5.83333 23.3333 7.58333 23.3333 9.91667C23.3333 13.2883 19.67 16.6133 14.1167 21.6417ZM19.25 3.5C17.22 3.5 15.2717 4.445 14 5.92667C12.7283 4.445 10.78 3.5 8.75001 3.5C5.15668 3.5 2.33334 6.31167 2.33334 9.91667C2.33334 14.315 6.30001 17.92 12.3083 23.3683L14 24.9083L15.6917 23.3683C21.7 17.92 25.6667 14.315 25.6667 9.91667C25.6667 6.31167 22.8433 3.5 19.25 3.5Z" fill="black"/>
<path d="M14 24.9083L12.3083 23.3683C6.30001 17.92 2.33334 14.315 2.33334 9.91667C2.33334 6.31167 5.15668 3.5 8.75001 3.5C10.78 3.5 12.7283 4.445 14 5.92667C15.2717 4.445 17.22 3.5 19.25 3.5C22.8433 3.5 25.6667 6.31167 25.6667 9.91667C25.6667 14.315 21.7 17.92 15.6917 23.3683L14 24.9083Z" fill="#F1466F"/>
</g>
<defs>
<clipPath id="clip0_9_530">
<rect width="28" height="28"/>
</clipPath>
</defs>
</svg>
