<svg width="19" height="19" viewBox="0 0 19 19" fill="none" xmlns="http://www.w3.org/2000/svg">
<path d="M9.54371 14.631L9.46484 14.7099L9.37808 14.631C5.6316 11.2316 3.15498 8.98368 3.15498 6.70424C3.15498 5.12677 4.33808 3.94368 5.91554 3.94368C7.13019 3.94368 8.31329 4.73241 8.73132 5.80508H10.1984C10.6164 4.73241 11.7995 3.94368 13.0141 3.94368C14.5916 3.94368 15.7747 5.12677 15.7747 6.70424C15.7747 8.98368 13.2981 11.2316 9.54371 14.631ZM13.0141 2.36621C11.6417 2.36621 10.3246 3.00508 9.46484 4.00677C8.60512 3.00508 7.28794 2.36621 5.91554 2.36621C3.48625 2.36621 1.57751 4.26706 1.57751 6.70424C1.57751 9.67776 4.2592 12.1149 8.32118 15.7983L9.46484 16.8394L10.6085 15.7983C14.6705 12.1149 17.3522 9.67776 17.3522 6.70424C17.3522 4.26706 15.4434 2.36621 13.0141 2.36621Z"/>
</svg>
