<?xml version="1.0" encoding="UTF-8"?>
<svg width="28px" height="30px" viewBox="0 0 28 30" version="1.1">
    <g stroke-width="2" stroke-linecap="round" stroke-linejoin="round" fill="none">
        <path d="M2.17157288,11.1684271 L11.1715729,2.16842712 C12.73367,0.606329958 15.26633,0.606329958 16.8284271,2.16842712 L25.8284271,11.1684271 C26.5785726,11.9185726 27,12.9359883 27,13.9968542 L27,25.5115729 C27,26.6161424 26.1045695,27.5115729 25,27.5115729 C24.469567,27.5115729 23.9608592,27.3008592 23.5857864,26.9257864 L16.8284271,20.1684271 C15.26633,18.60633 12.73367,18.60633 11.1715729,20.1684271 L4.41421356,26.9257864 C3.63316498,27.706835 2.36683502,27.706835 1.58578644,26.9257864 C1.21071368,26.5507137 1,26.0420059 1,25.5115729 L1,13.9968542 C1,12.9359883 1.42142736,11.9185726 2.17157288,11.1684271 Z"></path>
        <path d="M20,29 C16.6862915,29 14,26.3137085 14,23 L14,23 L14,23 C14,26.3137085 11.3137085,29 8,29 L8,29 L8,29"></path>
    </g>
</svg>