<svg xmlns="http://www.w3.org/2000/svg" version="1.1" xmlns:xlink="http://www.w3.org/1999/xlink" xmlns:svgjs="http://svgjs.dev/svgjs" width="1000" height="623" viewBox="0 0 1000 623"><g transform="matrix(1,0,0,1,-0.6060606060606233,0.2522267206477409)"><svg viewBox="0 0 396 247" data-background-color="#ffffff" preserveAspectRatio="xMidYMid meet" height="623" width="1000" xmlns="http://www.w3.org/2000/svg" xmlns:xlink="http://www.w3.org/1999/xlink"><g id="tight-bounds" transform="matrix(1,0,0,1,0.2400000000000091,-0.09999999999999432)"><svg viewBox="0 0 395.52 247.2" height="247.2" width="395.52"><g><svg></svg></g><g><svg viewBox="0 0 395.52 247.2" height="247.2" width="395.52"><g transform="matrix(1,0,0,1,133.94330607028752,47.215199999999996)"><svg viewBox="0 0 127.63338785942493 152.7696" height="152.7696" width="127.63338785942493"><g><svg viewBox="0 0 127.63338785942493 152.7696" height="152.7696" width="127.63338785942493"><g><svg viewBox="0 0 127.63338785942493 152.7696" height="152.7696" width="127.63338785942493"><g><svg viewBox="0 0 127.63338785942493 152.7696" height="152.7696" width="127.63338785942493"><g><svg viewBox="0 0 127.63338785942493 152.7696" height="152.7696" width="127.63338785942493"><g><svg viewBox="0 0 127.63338785942493 152.7696" height="152.7696" width="127.63338785942493"><g transform="matrix(1,0,0,1,0,0)"><svg width="127.63338785942493" viewBox="0.5400000214576721 -30.489999771118164 25.529998779296875 30.559999465942383" height="152.7696" data-palette-color="#0080ff"><path d="M2.39 0.07Q1.42 0.07 0.98-0.11 0.54-0.29 0.54-0.66L0.54-0.66Q0.54-0.83 0.66-1.25L0.66-1.25 10.94-29.79Q11.18-30.49 12.67-30.49L12.67-30.49 13.94-30.49Q15.43-30.49 15.67-29.79L15.67-29.79 25.95-1.22Q26.07-0.95 26.07-0.66L26.07-0.66Q26.07 0.07 24.24 0.07L24.24 0.07 23.88 0.07Q22.36 0.07 22.12-0.61L22.12-0.61 19.58-7.74 6.84-7.74 4.35-0.61Q4.13 0.07 2.61 0.07L2.61 0.07 2.39 0.07ZM8.03-11.04L18.41-11.04 13.87-23.95Q13.67-24.49 13.55-25.17 13.43-25.85 13.33-26.49L13.33-26.49 13.23-26.49Q12.94-24.85 12.57-23.95L12.57-23.95 8.03-11.04Z" opacity="1" transform="matrix(1,0,0,1,0,0)" fill="#0080ff" class="undefined-text-0" data-fill-palette-color="primary" id="text-0"></path></svg></g></svg></g></svg></g></svg></g></svg></g></svg></g></svg></g><path d="M316.245 41.215L316.245 0 69.045 0 69.045 247.2 316.245 247.2 316.245 205.985 302.468 205.985 302.468 233.423 82.822 233.423 82.822 13.777 302.468 13.777 302.468 41.215Z" fill="#0080ff" stroke="transparent" data-fill-palette-color="primary"></path></svg></g><defs></defs></svg><rect width="395.52" height="247.2" fill="none" stroke="none" visibility="hidden"></rect></g></svg></g></svg>