<?xml version="1.0" encoding="utf-8"?>
<!-- Generator: Adobe Illustrator 25.4.1, SVG Export Plug-In . SVG Version: 6.00 Build 0)  -->
<svg version="1.1" id="Layer_1" xmlns="http://www.w3.org/2000/svg" xmlns:xlink="http://www.w3.org/1999/xlink" x="0px" y="0px"
	 viewBox="0 0 300 300" style="enable-background:new 0 0 300 300;" xml:space="preserve">
<style type="text/css">
	.st0{fill:#5D7FAD;}
	.st1{fill:#FFB3A1;}
	.st2{fill:#FFFFFF;}
	.st3{fill:#3A2127;}
	.st4{fill:#ED4F63;}
</style>
<path class="st0" d="M283.62,71.05h-18.9H54.23H35.34c-8.6,0-15.72,6.7-16.19,15.29c-0.8,14.45,0.49,36.04,12.64,50.69
	c5.73,6.91,14.83,8.67,22.45,5.79v121.29c0,9.63,7.81,17.43,17.43,17.43h175.63c9.63,0,17.43-7.81,17.43-17.43V142.82
	c7.62,2.88,16.72,1.13,22.45-5.79c12.14-14.65,13.44-36.24,12.64-50.69C299.33,77.75,292.22,71.05,283.62,71.05z"/>
<path class="st1" d="M245.8,53.71v193.06c0,9.63-7.81,17.43-17.43,17.43H52.74c-9.63,0-17.43-7.81-17.43-17.43V53.71H245.8z"/>
<g>
	<circle class="st2" cx="83.75" cy="138.85" r="22.46"/>
	<path class="st3" d="M64.76,138.85c0,10.49,8.5,18.99,18.99,18.99c10.49,0,18.99-8.5,18.99-18.99c0-10.49-8.5-18.99-18.99-18.99
		C73.26,119.86,64.76,128.36,64.76,138.85z"/>
	<path class="st2" d="M84.84,152.05c-1.6,2.53-5.61,2.87-8.94,0.76c-3.33-2.11-4.74-5.88-3.13-8.41c1.6-2.53,3.22,0.89,6.56,3
		C82.66,149.52,86.45,149.52,84.84,152.05z"/>
</g>
<g>
	<path class="st2" d="M176.48,138.85c0,12.41,10.06,22.46,22.46,22.46c12.41,0,22.46-10.06,22.46-22.46s-10.06-22.46-22.46-22.46
		C186.53,116.38,176.48,126.44,176.48,138.85z"/>
	<path class="st3" d="M179.95,138.85c0,10.49,8.5,18.99,18.99,18.99c10.49,0,18.99-8.5,18.99-18.99c0-10.49-8.5-18.99-18.99-18.99
		C188.45,119.86,179.95,128.36,179.95,138.85z"/>
	<path class="st2" d="M200.03,152.05c-1.6,2.53-5.61,2.87-8.94,0.76c-3.33-2.11-4.74-5.88-3.13-8.41c1.6-2.53,3.22,0.89,6.56,3
		C197.85,149.52,201.63,149.52,200.03,152.05z"/>
</g>
<path class="st4" d="M84.19,53.71H16.42c-8.6,0-15.72,6.7-16.19,15.29c-0.8,14.45,0.5,36.04,12.64,50.69
	c8.75,10.55,25.37,9.16,32.52-2.53L84.19,53.71z"/>
<path class="st4" d="M196.93,53.71h67.77c8.6,0,15.72,6.7,16.19,15.29c0.8,14.45-0.5,36.04-12.64,50.69
	c-8.75,10.55-25.37,9.16-32.52-2.53L196.93,53.71z"/>
<path class="st3" d="M131.44,236.72c-1.95,0-3.91-0.39-5.76-1.18c-7.47-3.17-10.96-11.83-7.78-19.3c0.34-0.8,1.27-1.18,2.07-0.83
	c0.8,0.34,1.17,1.27,0.83,2.07c-2.5,5.87,0.25,12.67,6.12,15.17c2.84,1.21,5.98,1.24,8.85,0.08c2.86-1.16,5.11-3.36,6.32-6.2
	c0.34-0.8,1.27-1.18,2.07-0.83c0.8,0.34,1.17,1.27,0.83,2.07c-1.54,3.62-4.39,6.42-8.04,7.89
	C135.16,236.36,133.3,236.72,131.44,236.72z"/>
<g>
	<path class="st4" d="M193.38,177.3c0,29.17-23.65,27.03-52.82,27.03c-29.17,0-52.82,2.14-52.82-27.03
		c0-29.17,23.65-52.82,52.82-52.82C169.73,124.47,193.38,148.12,193.38,177.3z"/>
	<path class="st3" d="M114.48,180.75c-0.87,0-1.58-0.71-1.58-1.58c0-8.04-2.84-13.17-4.79-13.17c-1.95,0-4.79,5.13-4.79,13.17
		c0,0.87-0.71,1.58-1.58,1.58c-0.87,0-1.58-0.71-1.58-1.58c0-9.31,3.41-16.33,7.94-16.33c4.53,0,7.94,7.02,7.94,16.33
		C116.06,180.04,115.36,180.75,114.48,180.75z"/>
	<path class="st3" d="M182.43,180.75c-0.87,0-1.58-0.71-1.58-1.58c0-8.04-2.84-13.17-4.79-13.17c-1.95,0-4.79,5.13-4.79,13.17
		c0,0.87-0.71,1.58-1.58,1.58c-0.87,0-1.58-0.71-1.58-1.58c0-9.31,3.41-16.33,7.94-16.33s7.94,7.02,7.94,16.33
		C184.01,180.04,183.3,180.75,182.43,180.75z"/>
</g>
<path class="st3" d="M152.87,13.75c-0.73-0.46-1.71-0.25-2.18,0.48c-0.47,0.73-8.63,13.74-12.48,28.53
	c-2.68-10.59-8.93-16.68-9.28-17c-0.63-0.6-1.63-0.57-2.23,0.06c-0.6,0.63-0.57,1.63,0.06,2.23c0.1,0.09,9.99,9.68,9.5,25.61
	c0,0.16,0.04,0.3,0.08,0.45c-0.09,1.57-0.14,3.14-0.06,4.68c0.04,0.84,0.74,1.49,1.57,1.49c0.03,0,0.06,0,0.08,0
	c0.87-0.05,1.54-0.79,1.49-1.66c-0.99-18.97,13.78-42.46,13.93-42.7C153.83,15.19,153.61,14.22,152.87,13.75z"/>
<path class="st3" d="M146.51,62.65c-0.67,0-1.29-0.43-1.5-1.1c-3.07-9.76,3.3-20.54,3.57-20.99c0.45-0.75,1.42-0.99,2.16-0.54
	c0.75,0.45,0.99,1.42,0.54,2.16c-0.06,0.1-5.9,10.03-3.26,18.43c0.26,0.83-0.2,1.72-1.03,1.98
	C146.82,62.62,146.67,62.65,146.51,62.65z"/>
<path class="st3" d="M109.62,114.39c-0.61,0-1.2-0.36-1.45-0.96l0,0c-0.14-0.33-3.55-8.01-13.22-8.54
	c-0.87-0.05-1.54-0.79-1.49-1.66c0.05-0.87,0.8-1.58,1.66-1.49c11.69,0.64,15.78,10.06,15.95,10.46c0.34,0.8-0.04,1.73-0.84,2.06
	C110.03,114.35,109.82,114.39,109.62,114.39z"/>
<path class="st3" d="M171.5,114.39c-0.2,0-0.41-0.04-0.61-0.12c-0.8-0.34-1.18-1.26-0.84-2.06c0.17-0.4,4.26-9.82,15.95-10.46
	c0.87-0.09,1.61,0.62,1.66,1.49c0.05,0.87-0.62,1.61-1.49,1.66c-9.74,0.53-13.18,8.46-13.22,8.54
	C172.71,114.03,172.12,114.39,171.5,114.39z"/>
</svg>
