<?xml version="1.0" encoding="utf-8"?>
<!-- Generator: Adobe Illustrator 25.4.1, SVG Export Plug-In . SVG Version: 6.00 Build 0)  -->
<svg version="1.1" id="Layer_1" xmlns="http://www.w3.org/2000/svg" xmlns:xlink="http://www.w3.org/1999/xlink" x="0px" y="0px"
	 viewBox="0 0 300 300" style="enable-background:new 0 0 300 300;" xml:space="preserve">
<style type="text/css">
	.st0{fill:#5D7FAD;}
	.st1{fill:#A08D82;}
	.st2{fill:#DBC7BA;}
	.st3{fill:#FFFFFF;}
	.st4{fill:#3A2127;}
</style>
<path class="st0" d="M286.06,79.94c-10.28-16.73-24.97-28.19-39.43-32.4c-0.28-0.08-0.54-0.17-0.82-0.24
	c-0.04-0.01-0.07-0.03-0.11-0.04c-6.9-1.93-14.2-2.43-21.59-1.22c-10.17,1.65-19.16,6.32-26.42,13.05
	c-5.64-3.58-14.47-5.88-24.4-5.88c-5.62,0-10.88,0.74-15.42,2.03c-4.54-1.29-9.8-2.03-15.42-2.03c-9.95,0-18.79,2.31-24.43,5.9
	c-7.26-6.73-16.26-11.4-26.43-13.06C84.21,44.85,76.9,45.35,70,47.28c-0.04,0.01-0.07,0.03-0.11,0.04
	c-0.28,0.07-0.54,0.15-0.82,0.24c-14.45,4.21-29.14,15.67-39.43,32.4c-1.64,2.66-3.1,5.36-4.39,8.08
	c-12.74,26.64-9.35,55.11,8.93,66.35c5.17,3.17,11.04,4.66,17.2,4.63c4.25,2.94,8.95,5.23,13.99,6.76v67.94
	c0,8.47,6.86,15.33,15.31,15.33h37.03c0.16,2.19,2.41,4.7,2.41,4.7s-9.63,6.17-8.03,11.43c1.96,6.45,17.5,3.16,22.64,1.56
	c18-5.61,29.66-11.25,38.31-17.69h62.01c8.45,0,15.33-6.86,15.33-15.33v-67.96c5.03-1.53,9.72-3.81,13.96-6.75
	c6.15,0.03,12.03-1.46,17.2-4.63c18.28-11.24,21.66-39.72,8.92-66.35C289.16,85.31,287.7,82.6,286.06,79.94z"/>
<g>
	<path class="st1" d="M119.48,100.29c-5.46,33.48-34.22,56.65-64.25,51.77c-7.54-1.23-14.45-4.12-20.48-8.29
		c-6.15,0.03-12.03-1.46-17.2-4.63C-0.73,127.91-4.11,99.43,8.62,72.79c1.29-2.72,2.76-5.42,4.39-8.08
		c10.28-16.73,24.97-28.19,39.43-32.4c0.28-0.08,0.54-0.17,0.82-0.24c0.04-0.01,0.07-0.03,0.11-0.04c6.9-1.93,14.2-2.42,21.59-1.22
		c12.1,1.97,22.55,8.19,30.38,17.1l1.3,1.57C117.37,62.62,122.61,81.07,119.48,100.29z"/>
	<path class="st1" d="M162.97,100.27c5.46,33.48,34.22,56.65,64.25,51.77c7.54-1.23,14.45-4.12,20.48-8.29
		c6.15,0.03,12.03-1.46,17.2-4.63c18.28-11.24,21.66-39.72,8.92-66.35c-1.29-2.72-2.76-5.42-4.39-8.08
		C259.15,47.97,244.46,36.51,230,32.3c-0.28-0.08-0.54-0.17-0.82-0.24c-0.04-0.01-0.07-0.03-0.11-0.04
		c-6.9-1.93-14.2-2.43-21.59-1.22c-12.1,1.97-22.55,8.19-30.38,17.1l-1.3,1.57C165.08,62.61,159.84,81.05,162.97,100.27z"/>
	<path class="st2" d="M175.8,49.47l57.91,20.71c0.01-0.19,0.02-0.37,0.04-0.56c0.83-11.02,12.58-17.67,22.51-12.82
		c12.26,5.98,17.57,15.98,17.57,15.98c-1.29-2.72-2.76-5.42-4.39-8.08C259.15,47.97,244.46,36.51,230,32.3
		c-0.28-0.08-0.54-0.17-0.82-0.24c-0.04-0.01-0.07-0.03-0.11-0.04c-6.9-1.93-14.2-2.43-21.59-1.22c-12.1,1.97-22.55,8.19-30.38,17.1
		L175.8,49.47z"/>
	<path class="st2" d="M156.66,37.97c-5.62,0-10.88,0.74-15.42,2.03c-4.54-1.29-9.8-2.03-15.42-2.03c-17.03,0-30.84,6.77-30.84,15.13
		c0,8.36,13.81,15.13,30.84,15.13c5.62,0,10.88-0.74,15.42-2.03c4.54,1.29,9.8,2.03,15.42,2.03c17.03,0,30.84-6.77,30.84-15.13
		C187.5,44.75,173.69,37.97,156.66,37.97z"/>
	<path class="st2" d="M233.74,75.18v143.29c0,8.47-6.87,15.33-15.33,15.33H64.05c-8.45,0-15.31-6.86-15.31-15.33V77.6
		c0-15.91,0-28.81,0-28.81h184.83L233.74,75.18z"/>
	<g>
		<g>
			<path class="st3" d="M61.87,140.68c0,11.24,9.11,20.35,20.35,20.35c11.24,0,20.35-9.11,20.35-20.35
				c0-11.24-9.11-20.35-20.35-20.35C70.98,120.33,61.87,129.44,61.87,140.68z"/>
			<path class="st4" d="M102.56,142.07c-0.77,0-1.39-0.62-1.39-1.39c0-10.46-8.51-18.96-18.96-18.96
				c-10.46,0-18.96,8.51-18.96,18.96c0,0.77-0.62,1.39-1.39,1.39c-0.77,0-1.39-0.62-1.39-1.39c0-11.98,9.75-21.73,21.73-21.73
				c11.98,0,21.73,9.75,21.73,21.73C103.95,141.45,103.33,142.07,102.56,142.07z"/>
			<path class="st4" d="M65.01,140.68c0,9.5,7.7,17.2,17.2,17.2c9.5,0,17.2-7.7,17.2-17.2s-7.7-17.2-17.2-17.2
				C72.71,123.48,65.01,131.18,65.01,140.68z"/>
			<path class="st3" d="M81.4,152.07c-1.04,1.65-3.65,1.87-5.82,0.49c-2.17-1.37-3.08-3.82-2.04-5.47c1.04-1.65,2.1,0.58,4.27,1.95
				C79.98,150.42,82.45,150.43,81.4,152.07z"/>
			<path class="st4" d="M64.44,131.25c-0.32,0-0.64-0.11-0.9-0.33l-5.56-4.76c-0.58-0.5-0.65-1.37-0.15-1.95
				c0.5-0.58,1.37-0.65,1.95-0.15l5.56,4.76c0.58,0.5,0.65,1.37,0.15,1.95C65.22,131.08,64.83,131.25,64.44,131.25z"/>
			<path class="st4" d="M73.79,123.49c-0.52,0-1.02-0.29-1.26-0.8l-3.1-6.63c-0.32-0.69-0.02-1.52,0.67-1.84
				c0.69-0.32,1.52-0.03,1.84,0.67l3.1,6.63c0.32,0.69,0.02,1.52-0.67,1.84C74.18,123.44,73.98,123.49,73.79,123.49z"/>
			<path class="st4" d="M91.1,123.78c-0.22,0-0.44-0.05-0.65-0.16c-0.68-0.36-0.94-1.19-0.58-1.87l3.42-6.47
				c0.36-0.68,1.2-0.94,1.87-0.58c0.68,0.36,0.94,1.2,0.58,1.87l-3.42,6.47C92.07,123.51,91.59,123.78,91.1,123.78z"/>
			<path class="st4" d="M100.01,132.29c-0.52,0-1.02-0.3-1.26-0.8c-0.32-0.69-0.02-1.52,0.67-1.84l6.63-3.09
				c0.69-0.32,1.52-0.02,1.84,0.67c0.32,0.69,0.02,1.52-0.67,1.84l-6.63,3.09C100.41,132.25,100.21,132.29,100.01,132.29z"/>
		</g>
		<g>
			<path class="st3" d="M178.81,140.68c0,11.24,9.11,20.35,20.35,20.35c11.24,0,20.35-9.11,20.35-20.35
				c0-11.24-9.11-20.35-20.35-20.35C187.93,120.33,178.81,129.44,178.81,140.68z"/>
			<path class="st4" d="M219.51,142.07c-0.77,0-1.39-0.62-1.39-1.39c0-10.46-8.51-18.96-18.96-18.96
				c-10.46,0-18.96,8.51-18.96,18.96c0,0.77-0.62,1.39-1.39,1.39c-0.77,0-1.39-0.62-1.39-1.39c0-11.98,9.75-21.73,21.73-21.73
				c11.98,0,21.73,9.75,21.73,21.73C220.9,141.45,220.28,142.07,219.51,142.07z"/>
			<circle class="st4" cx="199.16" cy="140.68" r="17.2"/>
			<path class="st3" d="M198.35,152.07c-1.04,1.65-3.65,1.87-5.82,0.49c-2.17-1.37-3.08-3.82-2.04-5.47
				c1.04-1.65,2.1,0.58,4.27,1.95C196.93,150.42,199.4,150.43,198.35,152.07z"/>
			<path class="st4" d="M181.39,131.25c-0.32,0-0.64-0.11-0.9-0.33l-5.56-4.76c-0.58-0.5-0.65-1.37-0.15-1.95
				c0.5-0.58,1.37-0.65,1.95-0.15l5.56,4.76c0.58,0.5,0.65,1.37,0.15,1.95C182.17,131.08,181.78,131.25,181.39,131.25z"/>
			<path class="st4" d="M190.74,123.49c-0.52,0-1.02-0.29-1.26-0.8l-3.1-6.63c-0.32-0.69-0.03-1.52,0.67-1.84
				c0.69-0.32,1.52-0.03,1.84,0.67l3.1,6.63c0.32,0.69,0.03,1.52-0.67,1.84C191.13,123.44,190.93,123.49,190.74,123.49z"/>
			<path class="st4" d="M208.05,123.78c-0.22,0-0.44-0.05-0.65-0.16c-0.68-0.36-0.94-1.19-0.58-1.87l3.42-6.47
				c0.36-0.68,1.2-0.94,1.87-0.58c0.68,0.36,0.94,1.2,0.58,1.87l-3.42,6.47C209.02,123.51,208.54,123.78,208.05,123.78z"/>
			<path class="st4" d="M216.96,132.29c-0.52,0-1.02-0.3-1.26-0.8c-0.32-0.69-0.02-1.52,0.67-1.84l6.63-3.09
				c0.69-0.32,1.52-0.02,1.84,0.67c0.32,0.69,0.02,1.52-0.67,1.84l-6.63,3.09C217.36,132.25,217.16,132.29,216.96,132.29z"/>
		</g>
	</g>
	<g>
		<path class="st2" d="M97.03,164.92c-0.08,17.23,7.66,43.73,19.52,61.02c-6.22,2.95-12.19,4.42-14.05,5.38
			c-3.71,1.92,1,7.17,1,7.17s-9.63,6.17-8.03,11.43c1.96,6.45,17.5,3.16,22.64,1.56c24.06-7.5,36.79-15.05,46.15-24.48
			c18.1-18.24,21.3-42.08,21.39-61.65L97.03,164.92z"/>
		<path class="st4" d="M104.18,255.15c-2.65,0-5.16-0.36-7.05-1.36c-1.53-0.81-2.53-1.97-2.99-3.46
			c-1.52-5.01,4.55-10.11,7.36-12.14c-0.92-1.32-2.1-3.45-1.75-5.38c0.15-0.82,0.64-1.96,2.11-2.71c0.81-0.42,2.13-0.86,3.95-1.47
			c2.35-0.79,5.44-1.83,8.68-3.26c-10.89-16.62-18.93-42.27-18.85-60.45c0-0.76,0.62-1.38,1.39-1.38c0,0,0,0,0.01,0
			c0.77,0,1.38,0.63,1.38,1.39c-0.09,18.19,8.2,44.08,19.28,60.23c0.23,0.33,0.3,0.75,0.19,1.14c-0.11,0.39-0.38,0.72-0.74,0.89
			c-3.9,1.85-7.68,3.12-10.45,4.05c-1.58,0.53-2.94,0.99-3.56,1.31c-0.5,0.26-0.61,0.53-0.66,0.75c-0.21,1.12,1.1,3.21,2.05,4.26
			c0.27,0.3,0.4,0.71,0.34,1.11c-0.05,0.4-0.28,0.76-0.63,0.98c-2.27,1.46-8.51,6.39-7.45,9.86c0.23,0.76,0.77,1.36,1.63,1.82
			c4.18,2.21,14.03,0.45,19.27-1.18c21.94-6.84,35.57-14.05,45.58-24.14c18.64-18.78,20.91-43.63,20.99-60.69
			c0-0.76,0.62-1.38,1.39-1.38c0,0,0,0,0.01,0c0.77,0,1.38,0.63,1.38,1.39c-0.08,17.54-2.43,43.12-21.79,62.62
			c-10.35,10.43-24.32,17.85-46.72,24.83C118.41,252.84,110.89,255.15,104.18,255.15z"/>
	</g>
	<path class="st4" d="M167.66,140.23c-0.35,0-0.71-0.14-0.98-0.4c-3.94-3.93-13.73-10.58-25.44-10.58
		c-11.71,0-21.5,6.65-25.44,10.58c-0.54,0.54-1.42,0.54-1.96,0c-0.54-0.54-0.54-1.42,0-1.96c4.24-4.23,14.78-11.39,27.4-11.39
		c12.62,0,23.16,7.16,27.4,11.39c0.54,0.54,0.54,1.42,0,1.96C168.37,140.1,168.02,140.23,167.66,140.23z"/>
	<g>
		<path class="st1" d="M161.83,100l47.04-7.34C208.88,92.66,184.76,48.72,161.83,100z"/>
		<path class="st1" d="M120.65,100L73.6,92.66C73.6,92.66,97.72,48.72,120.65,100z"/>
	</g>
	<path class="st2" d="M106.64,49.48L48.74,70.19c-0.01-0.19-0.02-0.37-0.04-0.56c-0.83-11.02-12.58-17.67-22.51-12.82
		C13.94,62.8,8.62,72.79,8.62,72.79c1.29-2.72,2.76-5.42,4.39-8.08c10.28-16.73,24.97-28.19,39.43-32.4
		c0.28-0.08,0.54-0.17,0.82-0.24c0.04-0.01,0.07-0.03,0.11-0.04c6.9-1.93,14.2-2.42,21.59-1.22c12.1,1.97,22.55,8.19,30.38,17.1
		L106.64,49.48z"/>
</g>
</svg>
