<?xml version="1.0" encoding="utf-8"?>
<!-- Generator: Adobe Illustrator 25.4.1, SVG Export Plug-In . SVG Version: 6.00 Build 0)  -->
<svg version="1.1" id="Layer_1" xmlns="http://www.w3.org/2000/svg" xmlns:xlink="http://www.w3.org/1999/xlink" x="0px" y="0px"
	 viewBox="0 0 300 300" style="enable-background:new 0 0 300 300;" xml:space="preserve">
<style type="text/css">
	.st0{fill:#5D7FAD;}
	.st1{fill:#3A2127;}
	.st2{fill:#FFB3A1;}
	.st3{fill:#FFFFFF;}
	.st4{fill:#51333D;}
</style>
<path class="st0" d="M276.18,104.88c-5.99,0-13.49,2.3-19.72,6.06V81.31c0-8.96-7.26-16.23-16.23-16.23h-56.44
	c2.82-8.16,1.63-15.95,1.63-15.95l-13.09,15.95h-24c-8.32-18.25-28.78-13.87-28.78-13.87l16.76,13.87H76.76
	c-8.96,0-16.23,7.26-16.23,16.23v29.47v0.14c-6.23-3.75-13.72-6.05-19.7-6.05c-12.64,0-22.88,10.24-22.88,22.88
	s10.24,22.88,22.88,22.88c5.98,0,13.46-2.29,19.7-6.05v46v54.17c0,8.96,7.26,16.23,16.23,16.23h163.47
	c8.96,0,16.23-7.26,16.23-16.23v-54.69v-45.51c6.24,3.76,13.74,6.06,19.72,6.06c12.64,0,22.88-10.24,22.88-22.88
	S288.82,104.88,276.18,104.88z"/>
<g>
	<path class="st1" d="M238.85,65.17v163.47c0,8.96-7.26,16.23-16.23,16.23H59.16c-8.96,0-16.23-7.26-16.23-16.23V65.17
		c0-8.96,7.26-16.23,16.23-16.23h163.47C231.59,48.94,238.85,56.2,238.85,65.17z"/>
	<path class="st2" d="M238.85,95.17v78.78c-10.58,12.15-25.99,19.99-43.21,20.58c-9.29,21.15-30.41,35.93-54.99,35.93
		c-24.55,0-45.67-14.78-54.96-35.93c-16.99-0.57-32.21-8.2-42.77-20.06V94.64c10.98-12.33,27-20.09,44.82-20.09
		c22.89,0,42.79,12.83,52.91,31.7c10.14-18.87,30.03-31.7,52.94-31.7C211.67,74.55,227.86,82.53,238.85,95.17z"/>
	<g>
		<path class="st3" d="M61.83,131.79c0,13.81,11.19,25,25,25s25-11.19,25-25s-11.19-25-25-25S61.83,117.98,61.83,131.79z"/>
		<path class="st1" d="M111.83,133.26c-0.81,0-1.47-0.66-1.47-1.47c0-12.98-10.56-23.54-23.54-23.54
			c-12.98,0-23.54,10.56-23.54,23.54c0,0.81-0.66,1.47-1.47,1.47c-0.81,0-1.47-0.66-1.47-1.47c0-14.6,11.88-26.47,26.47-26.47
			c14.6,0,26.47,11.88,26.47,26.47C113.3,132.6,112.65,133.26,111.83,133.26z"/>
		<path class="st1" d="M65.7,131.79c0,11.67,9.46,21.13,21.14,21.13c11.67,0,21.13-9.46,21.13-21.13c0-11.67-9.46-21.14-21.13-21.14
			C75.16,110.66,65.7,120.12,65.7,131.79z"/>
		<path class="st3" d="M85.84,145.79c-1.28,2.02-4.48,2.3-7.15,0.61c-2.67-1.69-3.79-4.7-2.51-6.72c1.28-2.02,2.58,0.71,5.24,2.4
			C84.09,143.76,87.12,143.77,85.84,145.79z"/>
		<path class="st1" d="M65,119.96c-0.34,0-0.68-0.12-0.95-0.35l-6.83-5.85c-0.62-0.53-0.69-1.45-0.16-2.07
			c0.53-0.62,1.46-0.68,2.07-0.16l6.83,5.85c0.62,0.53,0.69,1.45,0.16,2.07C65.82,119.79,65.41,119.96,65,119.96z"/>
		<path class="st1" d="M76.48,110.43c-0.55,0-1.08-0.31-1.33-0.85l-3.81-8.15c-0.34-0.73-0.03-1.61,0.71-1.95
			c0.74-0.34,1.61-0.03,1.95,0.71l3.81,8.15c0.34,0.73,0.03,1.61-0.71,1.95C76.89,110.38,76.68,110.43,76.48,110.43z"/>
		<path class="st1" d="M97.75,110.78c-0.23,0-0.47-0.05-0.69-0.17c-0.72-0.38-0.99-1.27-0.61-1.98l4.2-7.95
			c0.38-0.72,1.26-0.99,1.98-0.61c0.72,0.38,0.99,1.27,0.61,1.98l-4.2,7.95C98.78,110.5,98.27,110.78,97.75,110.78z"/>
		<path class="st1" d="M108.71,121.24c-0.55,0-1.08-0.31-1.33-0.85c-0.34-0.74-0.02-1.61,0.71-1.95l8.15-3.8
			c0.73-0.34,1.61-0.02,1.95,0.71c0.34,0.74,0.02,1.61-0.71,1.95l-8.15,3.8C109.12,121.2,108.91,121.24,108.71,121.24z"/>
	</g>
	<g>
		<path class="st3" d="M166.51,131.79c0,13.81,11.19,25,25,25c13.81,0,25-11.19,25-25s-11.19-25-25-25
			C177.7,106.79,166.51,117.98,166.51,131.79z"/>
		<path class="st1" d="M216.51,133.26c-0.81,0-1.47-0.66-1.47-1.47c0-12.98-10.56-23.54-23.54-23.54
			c-12.98,0-23.54,10.56-23.54,23.54c0,0.81-0.66,1.47-1.47,1.47c-0.81,0-1.47-0.66-1.47-1.47c0-14.6,11.88-26.47,26.47-26.47
			c14.6,0,26.47,11.88,26.47,26.47C217.98,132.6,217.33,133.26,216.51,133.26z"/>
		<path class="st1" d="M170.38,131.79c0,11.67,9.46,21.13,21.14,21.13c11.67,0,21.13-9.46,21.13-21.13
			c0-11.67-9.46-21.14-21.13-21.14C179.84,110.66,170.38,120.12,170.38,131.79z"/>
		<path class="st3" d="M189.44,145.79c-1.28,2.02-4.48,2.3-7.15,0.61c-2.67-1.69-3.79-4.7-2.51-6.72c1.28-2.02,2.58,0.71,5.24,2.4
			C187.69,143.76,190.72,143.77,189.44,145.79z"/>
		<path class="st1" d="M169.68,119.96c-0.34,0-0.68-0.12-0.95-0.35l-6.83-5.85c-0.62-0.53-0.69-1.45-0.16-2.07
			c0.53-0.62,1.46-0.68,2.07-0.16l6.83,5.85c0.62,0.53,0.69,1.45,0.16,2.07C170.5,119.79,170.09,119.96,169.68,119.96z"/>
		<path class="st1" d="M181.16,110.43c-0.55,0-1.08-0.31-1.33-0.85l-3.81-8.14c-0.34-0.74-0.03-1.61,0.71-1.95
			c0.74-0.34,1.61-0.03,1.95,0.71l3.81,8.14c0.34,0.74,0.03,1.61-0.71,1.95C181.58,110.38,181.37,110.43,181.16,110.43z"/>
		<path class="st1" d="M202.43,110.78c-0.23,0-0.47-0.05-0.68-0.17c-0.72-0.38-0.99-1.27-0.61-1.98l4.2-7.95
			c0.38-0.72,1.27-0.99,1.98-0.61c0.72,0.38,0.99,1.27,0.61,1.98l-4.2,7.95C203.47,110.5,202.96,110.78,202.43,110.78z"/>
		<path class="st1" d="M213.39,121.24c-0.55,0-1.08-0.31-1.33-0.85c-0.34-0.74-0.02-1.61,0.71-1.95l8.15-3.8
			c0.74-0.34,1.61-0.02,1.95,0.71c0.34,0.74,0.02,1.61-0.71,1.95l-8.15,3.8C213.8,121.2,213.59,121.24,213.39,121.24z"/>
	</g>
	<g>
		<path class="st2" d="M23.23,88.74c12.64,0,32.04,10.24,32.04,22.88s-19.4,22.88-32.04,22.88c-12.64,0-22.88-10.24-22.88-22.88
			S10.6,88.74,23.23,88.74z"/>
		<path class="st1" d="M40.98,108.22c-0.35-0.31-8.76-7.56-24.83-5.05c-0.8,0.13-1.35,0.88-1.22,1.68c0.12,0.8,0.86,1.35,1.68,1.22
			c5.36-0.84,9.78-0.49,13.25,0.29c-1.89,0.91-3.7,2.47-5.06,5.07l-0.09,0.16c-0.43,0.67-0.24,1.56,0.43,2.01
			c0.25,0.17,0.53,0.25,0.81,0.25c0.47,0,0.94-0.23,1.22-0.65c0.05-0.08,0.13-0.22,0.23-0.41c0.61-1.17,2.48-4.62,7.9-4.6
			c2.42,1.12,3.69,2.18,3.74,2.22c0.28,0.24,0.62,0.37,0.97,0.37c0.4,0,0.81-0.17,1.1-0.49C41.64,109.68,41.58,108.76,40.98,108.22z
			"/>
	</g>
	<g>
		<path class="st2" d="M258.58,88.74c-12.64,0-32.04,10.24-32.04,22.88s19.4,22.88,32.04,22.88c12.64,0,22.88-10.24,22.88-22.88
			S271.21,88.74,258.58,88.74z"/>
		<path class="st1" d="M265.66,103.17c-16.07-2.52-24.48,4.74-24.83,5.05c-0.61,0.54-0.66,1.46-0.12,2.07
			c0.29,0.33,0.69,0.49,1.1,0.49c0.35,0,0.69-0.12,0.97-0.37c0.03-0.03,1.29-1.09,3.7-2.22c5.45-0.04,7.32,3.43,7.93,4.6
			c0.1,0.19,0.18,0.33,0.23,0.41c0.28,0.42,0.73,0.64,1.19,0.64c0.27,0,0.54-0.07,0.79-0.23c0.67-0.42,0.88-1.32,0.48-2l-0.09-0.17
			c-1.36-2.61-3.18-4.17-5.08-5.08c3.46-0.78,7.89-1.13,13.27-0.29c0.81,0.12,1.55-0.42,1.68-1.22
			C267.01,104.05,266.46,103.3,265.66,103.17z"/>
	</g>
	<g>
		<path class="st1" d="M146.09,152.88c-2.5,0-4.7,1.24-6.08,3.11c-1.37-1.88-3.58-3.11-6.07-3.11c-4.16,0-7.54,3.38-7.54,7.54
			c0,0.81,0.66,1.47,1.47,1.47c0.81,0,1.47-0.66,1.47-1.47c0-2.54,2.07-4.61,4.61-4.61c2.54,0,4.61,2.07,4.61,4.61
			c0,0.81,0.66,1.47,1.47,1.47c0.81,0,1.47-0.66,1.47-1.47c0-2.54,2.07-4.61,4.61-4.61c2.54,0,4.61,2.07,4.61,4.61
			c0,0.81,0.66,1.47,1.47,1.47c0.81,0,1.47-0.66,1.47-1.47C153.63,156.27,150.25,152.88,146.09,152.88z"/>
		<path class="st1" d="M167.91,161.96c-0.81,0-1.47,0.66-1.47,1.47c0,8.68-10.87,18.69-25.12,19.35v-8.91
			c0-0.81-0.66-1.47-1.47-1.47c-0.81,0-1.47,0.66-1.47,1.47v8.91c-14.25-0.66-25.12-10.67-25.12-19.35c0-0.81-0.66-1.47-1.47-1.47
			s-1.47,0.66-1.47,1.47c0,10.33,12.9,22.34,29.52,22.34c16.63,0,29.52-12.01,29.52-22.34
			C169.37,162.62,168.72,161.96,167.91,161.96z"/>
	</g>
	<path class="st4" d="M133.88,61.5l-31.93-26.43C101.95,35.07,130.65,28.93,133.88,61.5z"/>
	<path class="st4" d="M139.7,67.24l28.12-34.25C167.82,32.99,172.66,64.65,139.7,67.24z"/>
</g>
</svg>
