<?xml version="1.0" encoding="utf-8"?>
<!-- Generator: Adobe Illustrator 25.4.1, SVG Export Plug-In . SVG Version: 6.00 Build 0)  -->
<svg version="1.1" id="Layer_1" xmlns="http://www.w3.org/2000/svg" xmlns:xlink="http://www.w3.org/1999/xlink" x="0px" y="0px"
	 viewBox="0 0 300 300" style="enable-background:new 0 0 300 300;" xml:space="preserve">
<style type="text/css">
	.st0{fill:#5D7FAD;}
	.st1{fill:#FFE7CF;}
	.st2{fill:#EA363F;}
	.st3{fill:#F9AC50;}
	.st4{fill:#3A2127;}
	.st5{fill:#FFFFFF;}
</style>
<path class="st0" d="M225.81,90.6h-1.35c1.11-3.65,1.72-7.54,1.72-11.59c0-20.52-15.39-37.16-34.38-37.16
	c-9.27,0-17.68,3.98-23.87,10.43c-6.44-20.71-23.47-35.52-43.49-35.52c-25.54,0-46.24,24.1-46.24,53.82c0,7.68,1.41,14.96,3.9,21.56
	c-11.84,3.95-20.39,15.1-20.39,28.27v145.73c0,8.75,7.1,15.85,15.85,15.85h159.69c8.76,0,15.85-7.1,15.85-15.85V117.9
	c0-1.98-0.21-3.9-0.62-5.75C249.87,99.84,238.91,90.6,225.81,90.6z"/>
<g>
	<path class="st1" d="M235.91,102.14v148.25c0,8.75-7.1,15.85-15.85,15.85H60.36c-8.75,0-15.85-7.1-15.85-15.85V104.65
		c0-16.46,13.35-29.81,29.81-29.81h134.29c13.1,0,24.06,9.23,26.68,21.55C235.69,98.24,235.91,100.16,235.91,102.14z"/>
	<g>
		<path class="st2" d="M110.26,191.19v54.65c0,16.12,24.2,16.98,25.02,0.88c0.56-11.09-3.92-28.85-18.35-57.12
			C115.24,186.3,110.26,187.48,110.26,191.19z"/>
		<path class="st2" d="M169.06,191.19l0,54.65c0,16.12-24.2,16.98-25.02,0.88c-0.56-11.09,3.92-28.85,18.35-57.12
			C164.08,186.3,169.06,187.48,169.06,191.19z"/>
		<path class="st2" d="M159.26,145.85c-1.74,0-3.4,0.35-4.93,0.96c0.26-1.78,0.41-3.62,0.41-5.53c0-13.32-6.76-24.12-15.09-24.12
			c-8.33,0-15.09,10.8-15.09,24.12c0,13.32,6.76,24.12,15.09,24.12c2.49,0,4.83-0.98,6.9-2.69c1.58,5.53,6.67,9.58,12.7,9.58
			c7.3,0,13.22-5.92,13.22-13.22C172.49,151.77,166.57,145.85,159.26,145.85z"/>
		<path class="st3" d="M131.54,161.54l-23.61,26.12c0,0,5.29,27.9,31.72,37.6c26.44-9.69,31.72-37.6,31.72-37.6l-23.61-26.12
			C143.43,156.73,135.89,156.73,131.54,161.54z"/>
		<path class="st4" d="M125.16,176.36l10.72-11.46C135.88,164.9,134.56,179,125.16,176.36z"/>
		<path class="st4" d="M154.16,176.36l-10.72-11.46C143.44,164.9,144.76,179,154.16,176.36z"/>
	</g>
	<path class="st2" d="M208.61,74.84h-1.35c1.11-3.65,1.72-7.54,1.72-11.59c0-20.52-15.39-37.16-34.38-37.16
		c-9.27,0-17.69,3.98-23.87,10.43C144.29,15.8,127.25,1,107.24,1C81.7,1,61,25.1,61,54.82c0,11.27,2.98,21.73,8.07,30.38l-0.01,0
		c0,0,2.63,6.12,10.21,12.47c4.45,3.95,9.54,6.96,15.05,8.83c16.83,6.67,43.87,8.88,86.15-6.1c0,0,41.45-13.15,54.82-4.01
		C232.67,84.07,221.71,74.84,208.61,74.84z"/>
	<g>
		<path class="st3" d="M104.67,145.71l-39.07-31.9C65.6,113.81,94.28,101.26,104.67,145.71z"/>
		<path class="st3" d="M89.85,143.34c0,0-15.72-21.46-36.35-9.04L89.85,143.34z"/>
	</g>
	<g>
		<path class="st3" d="M174.83,145.71l39.07-31.9C213.9,113.81,185.22,101.26,174.83,145.71z"/>
		<path class="st3" d="M189.64,143.34c0,0,15.72-21.46,36.35-9.04L189.64,143.34z"/>
	</g>
	<g>
		<circle class="st5" cx="83.64" cy="174.48" r="22.88"/>
		<circle class="st4" cx="83.64" cy="174.48" r="19.34"/>
		<polygon class="st5" points="99.96,158.41 96.98,150.93 93.99,158.41 86.72,161.19 93.87,163.49 96.98,171.45 100.09,163.49 
			107.24,161.19 		"/>
		<path class="st5" d="M80.68,188.95c-1.03,1.63-3.61,1.85-5.76,0.49c-2.15-1.36-3.05-3.78-2.02-5.41c1.03-1.63,2.08,0.57,4.22,1.93
			C79.28,187.32,81.72,187.32,80.68,188.95z"/>
	</g>
	<g>
		<circle class="st5" cx="196.18" cy="174.48" r="22.88"/>
		<circle class="st4" cx="196.18" cy="174.48" r="19.34"/>
		<polygon class="st5" points="213.22,158.41 210.24,150.93 207.25,158.41 199.98,161.19 207.13,163.49 210.24,171.45 
			213.35,163.49 220.5,161.19 		"/>
		<path class="st5" d="M193.94,188.95c-1.03,1.63-3.61,1.85-5.76,0.49c-2.15-1.36-3.05-3.78-2.02-5.41
			c1.03-1.63,2.08,0.57,4.22,1.93C192.54,187.32,194.98,187.32,193.94,188.95z"/>
	</g>
</g>
</svg>
