<?xml version="1.0" encoding="utf-8"?>
<!-- Generator: Adobe Illustrator 25.4.1, SVG Export Plug-In . SVG Version: 6.00 Build 0)  -->
<svg version="1.1" id="Layer_1" xmlns="http://www.w3.org/2000/svg" xmlns:xlink="http://www.w3.org/1999/xlink" x="0px" y="0px"
	 viewBox="0 0 300 300" style="enable-background:new 0 0 300 300;" xml:space="preserve">
<style type="text/css">
	.st0{fill:#5D7FAD;}
	.st1{fill:#FFE2C2;}
	.st2{fill:#753936;}
	.st3{fill:#FFB3A1;}
	.st4{fill:#FFFFFF;}
	.st5{fill:#3A2127;}
	.st6{fill:#ED4F63;}
</style>
<path class="st0" d="M265.16,42.82c-15.74,0.25-43.43,2.55-55.74,14.88c-3.28,3.28-5.71,6.89-7.28,10.68h-0.18V54.76
	c0-7.34-5.95-13.29-13.29-13.29c-7.34,0-13.29,5.95-13.29,13.29v13.62h-18.32h-14.99V54.76c0-7.34-5.95-13.29-13.29-13.29
	c-7.34,0-13.29,5.95-13.29,13.29v13.62h-0.04c-1.59-3.8-4-7.4-7.28-10.69C95.85,45.38,68.18,43.08,52.43,42.83
	c-6.91-0.12-12.73,5.14-13.37,12.04c-1.2,12.58-0.82,32.21,10.57,43.59c1.51,1.51,3.05,2.9,4.67,4.19c0.58,0.47,1.17,0.88,1.76,1.32
	v89.8v58.03c0,9.15,7.42,16.57,16.57,16.57h73.42h93.45c9.14,0,16.55-7.42,16.55-16.57V151.79v-44.16c2.49-1.42,4.93-3.09,7.27-4.97
	c1.62-1.29,3.15-2.68,4.66-4.19c11.39-11.38,11.78-31.01,10.58-43.59C277.9,47.98,272.07,42.7,265.16,42.82z"/>
<g>
	<path class="st1" d="M249.99,81.99c-1.51,1.51-3.04,2.91-4.66,4.19c-2.34,1.89-4.78,3.55-7.27,4.97
		c-15.92,9.21-33.99,9.15-43.53-0.4c-6.34-6.32-10.37-13.44-11.94-20.58c-1.36-6.22-0.88-12.46,1.57-18.26
		c1.57-3.79,4-7.4,7.28-10.68c12.31-12.33,40-14.62,55.74-14.88c6.91-0.12,12.73,5.15,13.38,12.04
		C261.77,50.98,261.38,70.6,249.99,81.99z"/>
	<path class="st1" d="M124.1,58.92V38.29c0-7.34-5.95-13.29-13.29-13.29c-7.34,0-13.29,5.95-13.29,13.29v20.63H124.1z"/>
	<path class="st2" d="M183.99,58.92V38.29c0-7.34-5.95-13.29-13.29-13.29c-7.34,0-13.29,5.95-13.29,13.29v20.63H183.99z"/>
	<path class="st1" d="M238.07,68.46v166.86c0,9.15-7.41,16.57-16.55,16.57H54.65c-9.15,0-16.57-7.42-16.57-16.57V68.46
		c0-9.14,7.42-16.55,16.57-16.55h166.86C230.65,51.91,238.07,59.32,238.07,68.46z"/>
	<path class="st2" d="M128.52,245.06c0,2.31-0.15,4.58-0.45,6.83H54.65c-9.15,0-16.57-7.42-16.57-16.57v-58.03h0.81
		C88.39,177.29,128.52,207.64,128.52,245.06z"/>
	<g>
		<path class="st2" d="M249.99,81.99c-1.51,1.51-3.04,2.91-4.66,4.19c-2.34,1.89-4.78,3.55-7.27,4.97v44.16
			c-6.98,1.02-14.61,0.96-22.78-0.37c-30.57-5-77.21-36.21-77.21-72.58c0-3.67,0.34-7.16,1.02-10.46h45.08
			c1.57-3.79,4-7.4,7.28-10.68c12.31-12.33,40-14.62,55.74-14.88c6.91-0.12,12.73,5.15,13.38,12.04
			C261.77,50.98,261.38,70.6,249.99,81.99z"/>
		<path class="st3" d="M248.63,37.64c0,0-13.83,2.72-20.38,9.26c-6.55,6.55,1.11,24.83-12.97,34.71
			C215.28,81.61,242.21,87.29,248.63,37.64z"/>
	</g>
	<g>
		<circle class="st4" cx="87.14" cy="149" r="25.52"/>
		<path class="st5" d="M112.66,150.5c-0.83,0-1.5-0.67-1.5-1.5c0-13.25-10.78-24.02-24.02-24.02c-13.25,0-24.03,10.78-24.03,24.02
			c0,0.83-0.67,1.5-1.5,1.5s-1.5-0.67-1.5-1.5c0-14.9,12.12-27.02,27.02-27.02c14.9,0,27.02,12.12,27.02,27.02
			C114.16,149.83,113.49,150.5,112.66,150.5z"/>
		<path class="st5" d="M65.56,149c0,11.91,9.66,21.57,21.57,21.57s21.57-9.66,21.57-21.57c0-11.91-9.66-21.57-21.57-21.57
			S65.56,137.09,65.56,149z"/>
		<path class="st5" d="M64.85,136.93c-0.35,0-0.69-0.12-0.97-0.36l-6.97-5.97c-0.63-0.54-0.7-1.48-0.16-2.11
			c0.54-0.63,1.49-0.7,2.11-0.16l6.97,5.97c0.63,0.54,0.7,1.48,0.16,2.11C65.69,136.76,65.27,136.93,64.85,136.93z"/>
		<path class="st5" d="M76.57,127.2c-0.56,0-1.1-0.32-1.36-0.86l-3.88-8.32c-0.35-0.75-0.03-1.64,0.72-1.99
			c0.75-0.35,1.64-0.03,1.99,0.72l3.88,8.32c0.35,0.75,0.03,1.64-0.72,1.99C76.99,127.15,76.78,127.2,76.57,127.2z"/>
		<path class="st5" d="M98.28,127.56c-0.24,0-0.48-0.06-0.7-0.17c-0.73-0.39-1.01-1.29-0.62-2.02l4.29-8.12
			c0.38-0.73,1.29-1.01,2.02-0.62c0.73,0.39,1.01,1.29,0.62,2.02l-4.29,8.12C99.34,127.27,98.82,127.56,98.28,127.56z"/>
		<path class="st5" d="M109.46,138.24c-0.56,0-1.1-0.32-1.36-0.87c-0.35-0.75-0.02-1.64,0.72-1.99l8.32-3.88
			c0.75-0.35,1.64-0.03,1.99,0.72c0.35,0.75,0.02,1.64-0.72,1.99l-8.32,3.88C109.89,138.19,109.68,138.24,109.46,138.24z"/>
		<path class="st4" d="M80.74,134.49c0.02-2.68,2.9-4.84,6.43-4.81c3.53,0.03,6.38,2.22,6.36,4.9c-0.02,2.68-2.87,0.85-6.4,0.83
			C83.6,135.38,80.72,137.17,80.74,134.49z"/>
	</g>
	<g>
		<circle class="st4" cx="193.99" cy="149" r="25.52"/>
		<path class="st5" d="M219.51,150.5c-0.83,0-1.5-0.67-1.5-1.5c0-13.25-10.78-24.02-24.02-24.02c-13.25,0-24.02,10.78-24.02,24.02
			c0,0.83-0.67,1.5-1.5,1.5c-0.83,0-1.5-0.67-1.5-1.5c0-14.9,12.12-27.02,27.02-27.02c14.9,0,27.02,12.12,27.02,27.02
			C221.01,149.83,220.34,150.5,219.51,150.5z"/>
		<path class="st5" d="M172.42,149c0,11.91,9.66,21.57,21.57,21.57c11.91,0,21.57-9.66,21.57-21.57c0-11.91-9.66-21.57-21.57-21.57
			C182.07,127.43,172.42,137.09,172.42,149z"/>
		<path class="st5" d="M171.7,136.93c-0.35,0-0.69-0.12-0.97-0.36l-6.97-5.97c-0.63-0.54-0.7-1.48-0.16-2.11
			c0.54-0.63,1.49-0.7,2.11-0.16l6.97,5.97c0.63,0.54,0.7,1.48,0.16,2.11C172.54,136.76,172.12,136.93,171.7,136.93z"/>
		<path class="st5" d="M183.42,127.2c-0.56,0-1.1-0.32-1.36-0.86l-3.89-8.32c-0.35-0.75-0.03-1.64,0.72-1.99
			c0.75-0.35,1.64-0.03,1.99,0.72l3.89,8.32c0.35,0.75,0.03,1.64-0.72,1.99C183.85,127.15,183.63,127.2,183.42,127.2z"/>
		<path class="st5" d="M205.13,127.56c-0.24,0-0.48-0.06-0.7-0.17c-0.73-0.39-1.01-1.29-0.62-2.02l4.29-8.12
			c0.38-0.73,1.29-1.01,2.02-0.62c0.73,0.39,1.01,1.29,0.62,2.02l-4.29,8.12C206.19,127.27,205.67,127.56,205.13,127.56z"/>
		<path class="st5" d="M216.32,138.24c-0.56,0-1.1-0.32-1.36-0.87c-0.35-0.75-0.02-1.64,0.72-1.99l8.32-3.88
			c0.75-0.35,1.64-0.03,1.99,0.72c0.35,0.75,0.02,1.64-0.72,1.99l-8.32,3.88C216.74,138.19,216.53,138.24,216.32,138.24z"/>
		<path class="st4" d="M187.59,134.49c0.02-2.68,2.9-4.84,6.43-4.81c3.53,0.03,6.38,2.22,6.36,4.9c-0.02,2.68-2.87,0.85-6.4,0.83
			C190.45,135.38,187.57,137.17,187.59,134.49z"/>
	</g>
	<g>
		<path class="st3" d="M177.66,153.62c-0.71-5.3-3.91-8.27-8.18-9.73c-5.64-1.93-11.39-0.69-15.9,7.31
			c-4.01-0.17-8.13-0.25-12.32-0.25c-4.19,0-8.3,0.08-12.32,0.25c-4.51-8-10.27-9.25-15.9-7.31c-4.27,1.47-7.47,4.43-8.18,9.73
			c-25.98,4.44-43.78,14.9-43.78,35.05c0,28.63,35.9,51.83,80.18,51.83c44.28,0,80.18-23.21,80.18-51.83
			C221.44,168.52,203.64,158.06,177.66,153.62z"/>
		<path class="st6" d="M129.25,168.25c-2.66-7.76-6.64-9.12-10.52-7.79c-3.88,1.33-6.19,4.85-3.52,12.61
			c2.66,7.76,9.29,16.83,13.17,15.49C132.25,187.23,131.91,176.01,129.25,168.25z"/>
		<path class="st6" d="M153.26,168.25c2.66-7.76,6.64-9.12,10.52-7.79c3.88,1.33,6.19,4.85,3.52,12.61
			c-2.66,7.76-9.29,16.83-13.17,15.49C150.26,187.23,150.6,176.01,153.26,168.25z"/>
		<path class="st5" d="M134.04,224.08c-1.93,0-3.86-0.39-5.7-1.17c-7.39-3.14-10.84-11.71-7.7-19.09c0.32-0.76,1.2-1.12,1.96-0.79
			c0.76,0.32,1.12,1.2,0.79,1.96c-2.49,5.86,0.25,12.67,6.12,15.16c5.87,2.49,12.67-0.25,15.16-6.12c0.32-0.76,1.2-1.12,1.96-0.79
			c0.76,0.32,1.12,1.2,0.79,1.96c-1.52,3.58-4.34,6.35-7.95,7.8C137.73,223.72,135.88,224.08,134.04,224.08z"/>
	</g>
	<g>
		<path class="st1" d="M90.2,41.22c8.3,8.3,11.12,18.68,8.85,28.95c-1.57,7.14-5.6,14.26-11.93,20.59
			c-11.04,11.04-33.47,9.4-50.8-4.58c-1.62-1.29-3.16-2.68-4.67-4.19C20.27,70.6,19.88,50.97,21.09,38.39
			c0.64-6.89,6.46-12.15,13.37-12.04C50.21,26.61,77.88,28.9,90.2,41.22z"/>
		<path class="st3" d="M33.02,37.64c0,0,13.83,2.72,20.38,9.26c6.55,6.55-1.11,24.83,12.97,34.71
			C66.37,81.61,39.45,87.29,33.02,37.64z"/>
	</g>
</g>
</svg>
